<svg width="328" height="250" viewBox="0 0 328 250" fill="none" xmlns="http://www.w3.org/2000/svg">
<path d="M315.162 161.7H215.834C215.536 161.7 215.312 161.551 215.312 161.253C215.312 160.955 215.461 160.731 215.759 160.731C215.834 160.731 215.834 160.731 215.908 160.731H315.236C315.534 160.731 315.758 160.88 315.758 161.178C315.758 161.476 315.609 161.7 315.311 161.7C315.236 161.774 315.236 161.774 315.162 161.7Z" fill="#D1D3D4"/>
<path d="M71.2753 161.253C70.7537 156.409 66.0592 152.087 61.0668 152.684C63.9728 145.456 59.5019 136.29 52.125 133.98C47.8031 132.639 42.0655 134.278 40.7987 138.6C37.4456 134.353 31.3354 133.608 27.088 136.961C24.629 138.898 23.2878 141.879 23.3623 145.008C18.7424 142.251 12.4086 144.561 9.12996 148.809C6.67098 152.013 4.43554 157.303 5.55326 161.178H71.2753V161.253Z" fill="white"/>
<path d="M71.2753 161.7H5.55326C5.32971 161.7 5.18068 161.551 5.10617 161.327C3.91393 157.378 6.14937 151.939 8.75739 148.511C11.8125 144.487 17.9972 141.805 22.9152 144.189C23.1387 138.526 27.9077 134.129 33.5708 134.353C36.2533 134.428 38.7868 135.62 40.6497 137.557C41.3203 136.067 42.5126 134.875 43.9284 134.129C46.5364 132.788 49.517 132.565 52.274 133.384C56.0743 134.651 59.2784 137.483 60.9177 141.134C62.6316 144.487 62.9296 148.436 61.8119 152.013C63.9728 151.939 66.0592 152.684 67.6986 154.025C69.934 155.739 71.3498 158.272 71.7224 161.029C71.7224 161.178 71.7224 161.327 71.5733 161.402C71.5733 161.7 71.4243 161.7 71.2753 161.7ZM5.92583 160.806H70.7537C70.3066 158.496 69.0398 156.484 67.177 154.994C65.5376 153.652 63.3767 152.982 61.2158 153.205C61.0667 153.205 60.8432 153.131 60.7687 153.056C60.6942 152.907 60.6197 152.758 60.6942 152.609C63.3022 145.232 59.3529 137.185 52.0505 134.577C49.517 133.831 46.7599 134.055 44.45 135.247C42.9597 135.992 41.8419 137.259 41.3203 138.898C41.2458 139.122 40.9478 139.271 40.7242 139.196C40.6497 139.196 40.5752 139.122 40.5007 139.047C37.2965 135.024 31.4844 134.353 27.4606 137.557C25.1506 139.42 23.8094 142.252 23.9584 145.232C23.9584 145.53 23.8094 145.754 23.5113 145.754C23.4368 145.754 23.2878 145.754 23.2133 145.679C18.5933 142.922 12.5576 145.456 9.65157 149.331C7.11807 152.311 5.03165 157.155 5.92583 160.806Z" fill="#D1D3D4"/>
<path d="M19.115 152.311C18.8915 152.311 18.6679 152.088 18.6679 151.864C18.5934 150.448 19.0405 149.107 19.9347 148.064C20.8289 147.095 21.7975 146.201 22.9898 145.605C24.033 144.934 25.2252 144.487 26.492 144.263C27.7587 144.04 29.1 144.189 30.2922 144.785C30.5158 144.934 30.5903 145.232 30.4413 145.456C30.2922 145.679 30.0687 145.754 29.7706 145.679C28.8019 145.158 27.6842 145.009 26.5665 145.232C25.4488 145.456 24.331 145.903 23.3624 146.424C22.3191 146.946 21.3505 147.766 20.6053 148.66C19.8602 149.554 19.4876 150.672 19.5621 151.789C19.5621 152.088 19.4131 152.311 19.115 152.311Z" fill="#D1D3D4"/>
<path d="M20.5307 158.943C20.3072 158.943 20.0836 158.719 20.0836 158.496C19.562 153.578 23.1387 149.256 27.9822 148.734C30.3667 148.511 32.6766 149.181 34.5395 150.672C34.763 150.821 34.763 151.119 34.614 151.342C34.465 151.566 34.1669 151.566 33.9434 151.417C30.5157 148.66 25.5232 149.181 22.7662 152.535C21.4249 154.174 20.8288 156.26 21.0523 158.347C21.0523 158.719 20.8288 158.943 20.5307 158.943Z" fill="#D1D3D4"/>
<path d="M43.6302 38.0056H209.276L215.834 72.3569H37.0729L43.6302 38.0056Z" fill="white"/>
<path d="M215.834 72.8785H37.0729C36.7748 72.8785 36.5513 72.6549 36.6258 72.3569V72.2823L43.1831 37.931C43.2576 37.7075 43.4066 37.5585 43.6302 37.5585H209.276C209.5 37.5585 209.724 37.7075 209.724 37.931L216.281 72.2823C216.281 72.4314 216.281 72.5804 216.206 72.6549C216.132 72.8039 215.983 72.8785 215.834 72.8785ZM37.5945 71.9098H215.238L208.904 38.5272H44.0027L37.5945 71.9098Z" fill="#D1D3D4"/>
<path d="M211.885 72.3568H41.0222V162.296H211.885V72.3568Z" fill="white"/>
<path d="M211.884 162.818H41.0221C40.724 162.818 40.5005 162.594 40.5005 162.371V72.3569C40.5005 72.0588 40.724 71.9098 41.0221 71.9098H211.884C212.182 71.9098 212.332 72.1333 212.332 72.3569V162.296C212.332 162.594 212.108 162.818 211.884 162.818ZM41.4692 161.849H211.363V72.8785H41.4692V161.849Z" fill="#D1D3D4"/>
<path d="M127.906 16.7689L69.6357 72.3569H183.271L127.906 16.7689Z" fill="white"/>
<path d="M183.271 72.8785H69.6359C69.4123 72.8785 69.2633 72.7294 69.1888 72.5804C69.1143 72.4314 69.1888 72.2078 69.3378 72.0588L127.608 16.4708C127.757 16.3218 128.055 16.2473 128.279 16.4708L183.569 72.0588C183.718 72.2078 183.718 72.4314 183.643 72.5804C183.643 72.7294 183.42 72.8785 183.271 72.8785ZM70.8281 71.9098H182.079L127.906 17.4395L70.8281 71.9098Z" fill="#D1D3D4"/>
<path d="M127.608 23.0281L76.4167 72.3568H176.49L127.608 23.0281Z" fill="white"/>
<path d="M176.49 72.8784H76.4167C76.1931 72.8784 76.0441 72.7293 75.9696 72.5803C75.8951 72.4313 75.9696 72.2077 76.0441 72.0587L127.236 22.7299C127.385 22.5809 127.757 22.5809 127.906 22.7299L176.788 72.0587C176.937 72.2077 176.937 72.4313 176.863 72.5803C176.863 72.7293 176.639 72.8784 176.49 72.8784ZM77.6089 71.9097H175.372L127.608 23.6986L77.6089 71.9097Z" fill="#D1D3D4"/>
<path d="M126.416 64.1603C132.466 64.1603 137.37 59.2562 137.37 53.2066C137.37 47.1571 132.466 42.2529 126.416 42.2529C120.367 42.2529 115.462 47.1571 115.462 53.2066C115.462 59.2562 120.367 64.1603 126.416 64.1603Z" fill="white"/>
<path d="M126.416 64.6819C120.082 64.6819 114.941 59.5404 114.941 53.2066C114.941 46.8728 120.082 41.7313 126.416 41.7313C132.75 41.7313 137.891 46.8728 137.891 53.2066C137.891 59.5404 132.75 64.6819 126.416 64.6819ZM126.416 42.7C120.604 42.7 115.909 47.3945 115.909 53.2066C115.909 59.0188 120.604 63.7132 126.416 63.7132C132.228 63.7132 136.923 59.0188 136.923 53.2066C136.923 47.3945 132.228 42.7 126.416 42.7Z" fill="#D1D3D4"/>
<path d="M161.96 157.825H90.9471V162.371H161.96V157.825Z" fill="white"/>
<path d="M161.96 162.818H90.947C90.6489 162.818 90.4999 162.594 90.4999 162.371V157.825C90.4999 157.527 90.7234 157.378 90.947 157.378H161.96C162.258 157.378 162.407 157.602 162.407 157.825V162.371C162.407 162.594 162.183 162.818 161.96 162.818ZM91.3941 161.849H161.438V158.272H91.3941V161.849Z" fill="#D1D3D4"/>
<path d="M159.426 153.28H93.4805V157.825H159.426V153.28Z" fill="white"/>
<path d="M159.426 158.272H93.4805C93.1825 158.272 93.0334 158.049 93.0334 157.825V153.28C93.0334 152.982 93.257 152.833 93.4805 152.833H159.426C159.724 152.833 159.873 153.056 159.873 153.28V157.825C159.873 158.049 159.65 158.272 159.426 158.272ZM93.9276 157.304H158.904V153.727H93.9276V157.304Z" fill="#D1D3D4"/>
<path d="M152.794 148.734H100.038V153.28H152.794V148.734Z" fill="white"/>
<path d="M152.794 153.727H100.038C99.7398 153.727 99.5908 153.503 99.5908 153.28V148.735C99.5908 148.436 99.8144 148.287 100.038 148.287H152.794C153.092 148.287 153.241 148.511 153.241 148.735V153.28C153.241 153.578 153.092 153.727 152.794 153.727ZM100.56 152.758H152.347V149.182H100.56V152.758Z" fill="#D1D3D4"/>
<path d="M152.794 110.807H100.038V120.046H152.794V110.807Z" fill="white"/>
<path d="M152.794 120.568H100.038C99.7398 120.568 99.5908 120.344 99.5908 120.121V110.881C99.5908 110.583 99.8144 110.434 100.038 110.434H152.794C153.092 110.434 153.241 110.658 153.241 110.881V120.121C153.241 120.344 153.092 120.568 152.794 120.568ZM100.56 119.599H152.347V111.254H100.56V119.599Z" fill="#D1D3D4"/>
<path d="M110.917 120.121H104.583V148.735H110.917V120.121Z" fill="white"/>
<path d="M110.917 149.256H104.583C104.285 149.256 104.136 149.033 104.136 148.809V120.195C104.136 119.897 104.36 119.748 104.583 119.748H110.917C111.215 119.748 111.364 119.972 111.364 120.195V148.809C111.364 149.033 111.141 149.256 110.917 149.256ZM105.105 148.287H110.47V120.568H105.105V148.287Z" fill="#D1D3D4"/>
<path d="M148.324 120.121H141.99V148.735H148.324V120.121Z" fill="white"/>
<path d="M148.249 149.256H141.915C141.617 149.256 141.468 149.033 141.468 148.809V120.195C141.468 119.897 141.692 119.748 141.915 119.748H148.249C148.547 119.748 148.696 119.972 148.696 120.195V148.809C148.77 149.033 148.547 149.256 148.249 149.256ZM142.437 148.287H147.802V120.568H142.437V148.287Z" fill="#D1D3D4"/>
<path d="M139.605 120.121H113.227V148.735H139.605V120.121Z" fill="white"/>
<path d="M139.68 149.256H113.227C112.929 149.256 112.78 149.033 112.78 148.809V120.195C112.78 119.897 113.003 119.748 113.227 119.748H139.605C139.903 119.748 140.052 119.972 140.052 120.195V148.809C140.127 149.033 139.903 149.256 139.68 149.256ZM113.749 148.287H139.158V120.568H113.749V148.287Z" fill="#D1D3D4"/>
<path d="M126.416 149.256C126.118 149.256 125.969 149.033 125.969 148.809V120.195C125.969 119.897 126.267 119.748 126.491 119.748C126.714 119.748 126.863 119.972 126.938 120.195V148.809C126.938 149.033 126.714 149.256 126.416 149.256Z" fill="#D1D3D4"/>
<path d="M124.628 124.145H115.611V138.079H124.628V124.145Z" fill="white"/>
<path d="M124.628 138.526H115.686C115.388 138.526 115.239 138.303 115.239 138.079V124.145C115.239 123.847 115.462 123.698 115.686 123.698H124.628C124.926 123.698 125.075 123.921 125.075 124.145V138.079C125.149 138.303 124.926 138.526 124.628 138.526ZM116.133 137.632H124.181V124.666H116.133V137.632Z" fill="#D1D3D4"/>
<path d="M137.295 124.145H128.279V138.079H137.295V124.145Z" fill="white"/>
<path d="M137.221 138.526H128.279C127.981 138.526 127.832 138.303 127.832 138.079V124.145C127.832 123.847 128.055 123.698 128.279 123.698H137.221C137.519 123.698 137.668 123.921 137.668 124.145V138.079C137.742 138.303 137.519 138.526 137.221 138.526ZM128.726 137.632H136.774V124.666H128.726V137.632Z" fill="#D1D3D4"/>
<path d="M71.2752 84.95H57.8625V103.355H71.2752V84.95Z" fill="white"/>
<path d="M71.2751 103.877H57.8624C57.5644 103.877 57.3408 103.653 57.3408 103.43V85.0245C57.3408 84.7264 57.5644 84.5774 57.8624 84.5774H71.2751C71.5731 84.5774 71.7222 84.8009 71.7967 85.0245V103.43C71.7967 103.653 71.5731 103.877 71.2751 103.877ZM58.3095 102.908H70.828V85.4716H58.3095V102.908Z" fill="#D1D3D4"/>
<path d="M64.5689 103.877C64.2709 103.877 64.1218 103.653 64.1218 103.43V85.0245C64.1218 84.7264 64.4199 84.5774 64.6434 84.5774C64.867 84.5774 65.016 84.8009 65.0905 85.0245V103.43C65.0905 103.653 64.867 103.877 64.5689 103.877Z" fill="#D1D3D4"/>
<path d="M71.2751 91.1347H57.8624C57.5644 91.1347 57.3408 90.9857 57.3408 90.6876C57.3408 90.3896 57.4898 90.166 57.7879 90.166C57.8624 90.166 57.8624 90.166 57.9369 90.166H71.3496C71.6477 90.166 71.8712 90.315 71.8712 90.6131C71.8712 90.9112 71.7222 91.1347 71.4241 91.1347C71.3496 91.1347 71.3496 91.1347 71.2751 91.1347Z" fill="#D1D3D4"/>
<path d="M71.2751 98.0644H57.8624C57.5644 98.0644 57.3408 97.9154 57.3408 97.6173C57.3408 97.3192 57.4898 97.0957 57.7879 97.0957C57.8624 97.0957 57.8624 97.0957 57.9369 97.0957H71.3496C71.6477 97.0957 71.8712 97.2447 71.8712 97.5428C71.8712 97.8409 71.7222 98.0644 71.4241 98.0644C71.3496 98.0644 71.3496 98.0644 71.2751 98.0644Z" fill="#D1D3D4"/>
<path d="M96.0141 84.95H82.6014V103.355H96.0141V84.95Z" fill="white"/>
<path d="M96.014 103.877H82.6014C82.3033 103.877 82.1543 103.653 82.1543 103.43V85.0245C82.1543 84.7264 82.3778 84.5774 82.6014 84.5774H96.014C96.3121 84.5774 96.4611 84.8009 96.4611 85.0245V103.43C96.5356 103.653 96.3121 103.877 96.014 103.877ZM83.0485 102.908H95.4924V85.4716H83.0485V102.908Z" fill="#D1D3D4"/>
<path d="M89.3077 103.877C89.0096 103.877 88.8606 103.653 88.8606 103.43V85.0245C88.8606 84.7264 89.1587 84.5774 89.3822 84.5774C89.6057 84.5774 89.7548 84.8009 89.8293 85.0245V103.43C89.8293 103.653 89.6057 103.877 89.3077 103.877Z" fill="#D1D3D4"/>
<path d="M96.014 91.1347H82.6014C82.3033 91.1347 82.1543 90.8367 82.1543 90.6131C82.1543 90.3896 82.3778 90.2405 82.6014 90.166H96.014C96.3121 90.166 96.4611 90.4641 96.4611 90.6876C96.4611 90.9857 96.2376 91.1347 96.014 91.1347Z" fill="#D1D3D4"/>
<path d="M96.014 98.0644H82.6014C82.3033 98.0644 82.1543 97.7663 82.1543 97.5428C82.1543 97.3193 82.3778 97.1702 82.6014 97.0957H96.014C96.3121 97.0957 96.4611 97.3938 96.4611 97.6173C96.4611 97.9154 96.2376 98.0644 96.014 98.0644Z" fill="#D1D3D4"/>
<path d="M120.753 84.95H107.34V103.355H120.753V84.95Z" fill="white"/>
<path d="M120.753 103.877H107.34C107.042 103.877 106.893 103.653 106.893 103.43V85.0245C106.893 84.7264 107.117 84.5774 107.34 84.5774H120.753C121.051 84.5774 121.2 84.8009 121.2 85.0245V103.43C121.2 103.653 121.051 103.877 120.753 103.877ZM107.787 102.908H120.306V85.4716H107.787V102.908Z" fill="#D1D3D4"/>
<path d="M114.047 103.877C113.749 103.877 113.599 103.653 113.599 103.43V85.0245C113.599 84.7264 113.898 84.5774 114.121 84.5774C114.345 84.5774 114.494 84.8009 114.568 85.0245V103.43C114.494 103.653 114.345 103.877 114.047 103.877Z" fill="#D1D3D4"/>
<path d="M120.753 91.1347H107.34C107.042 91.1347 106.819 90.9857 106.819 90.6876C106.819 90.3896 106.968 90.166 107.266 90.166C107.34 90.166 107.34 90.166 107.415 90.166H120.828C121.126 90.166 121.349 90.315 121.349 90.6131C121.349 90.9112 121.2 91.1347 120.902 91.1347C120.827 91.1347 120.827 91.1347 120.753 91.1347Z" fill="#D1D3D4"/>
<path d="M120.753 98.0644H107.34C107.042 98.0644 106.819 97.9154 106.819 97.6173C106.819 97.3192 106.968 97.0957 107.266 97.0957C107.34 97.0957 107.34 97.0957 107.415 97.0957H120.828C121.126 97.0957 121.349 97.2447 121.349 97.5428C121.349 97.8409 121.2 98.0644 120.902 98.0644C120.827 98.0644 120.827 98.0644 120.753 98.0644Z" fill="#D1D3D4"/>
<path d="M145.492 84.95H132.079V103.355H145.492V84.95Z" fill="white"/>
<path d="M145.492 103.877H132.079C131.781 103.877 131.632 103.653 131.632 103.43V85.0245C131.632 84.7264 131.856 84.5774 132.079 84.5774H145.492C145.79 84.5774 145.939 84.8009 145.939 85.0245V103.43C146.013 103.653 145.79 103.877 145.492 103.877ZM132.601 102.908H145.045V85.4716H132.601V102.908Z" fill="#D1D3D4"/>
<path d="M138.786 103.877C138.488 103.877 138.339 103.653 138.339 103.43V85.0245C138.339 84.7264 138.637 84.5774 138.86 84.5774C139.084 84.5774 139.233 84.8009 139.307 85.0245V103.43C139.307 103.653 139.084 103.877 138.786 103.877Z" fill="#D1D3D4"/>
<path d="M145.492 91.1347H132.079C131.781 91.1347 131.632 90.8367 131.632 90.6131C131.632 90.3896 131.856 90.2405 132.079 90.166H145.492C145.79 90.166 145.939 90.4641 145.939 90.6876C145.939 90.9857 145.715 91.1347 145.492 91.1347Z" fill="#D1D3D4"/>
<path d="M145.492 98.0644H132.079C131.781 98.0644 131.632 97.7663 131.632 97.5428C131.632 97.3193 131.856 97.1702 132.079 97.0957H145.492C145.79 97.0957 145.939 97.3938 145.939 97.6173C145.939 97.9154 145.715 98.0644 145.492 98.0644Z" fill="#D1D3D4"/>
<path d="M170.231 84.95H156.818V103.355H170.231V84.95Z" fill="white"/>
<path d="M170.305 103.877H156.893C156.595 103.877 156.446 103.653 156.446 103.43V85.0245C156.446 84.7264 156.669 84.5774 156.893 84.5774H170.305C170.603 84.5774 170.752 84.8009 170.752 85.0245V103.43C170.752 103.653 170.529 103.877 170.305 103.877ZM157.34 102.908H169.784V85.4716H157.34V102.908Z" fill="#D1D3D4"/>
<path d="M163.524 103.877C163.226 103.877 163.077 103.653 163.077 103.43V85.0245C163.077 84.7264 163.375 84.5774 163.599 84.5774C163.822 84.5774 163.971 84.8009 164.046 85.0245V103.43C164.046 103.653 163.822 103.877 163.524 103.877Z" fill="#D1D3D4"/>
<path d="M170.305 91.1347H156.893C156.595 91.1347 156.371 90.9857 156.371 90.6876C156.371 90.3896 156.52 90.166 156.818 90.166C156.893 90.166 156.893 90.166 156.967 90.166H170.38C170.678 90.166 170.901 90.315 170.901 90.6131C170.901 90.9112 170.752 91.1347 170.454 91.1347C170.38 91.1347 170.305 91.1347 170.305 91.1347Z" fill="#D1D3D4"/>
<path d="M170.305 98.0644H156.893C156.595 98.0644 156.371 97.9154 156.371 97.6173C156.371 97.3192 156.52 97.0957 156.818 97.0957C156.893 97.0957 156.893 97.0957 156.967 97.0957H170.38C170.678 97.0957 170.901 97.2447 170.901 97.5428C170.901 97.8409 170.752 98.0644 170.454 98.0644C170.38 98.0644 170.305 98.0644 170.305 98.0644Z" fill="#D1D3D4"/>
<path d="M194.97 84.95H181.557V103.355H194.97V84.95Z" fill="white"/>
<path d="M195.044 103.877H181.632C181.333 103.877 181.184 103.653 181.184 103.43V85.0245C181.184 84.7264 181.408 84.5774 181.632 84.5774H195.044C195.342 84.5774 195.491 84.8009 195.491 85.0245V103.43C195.491 103.653 195.268 103.877 195.044 103.877ZM182.079 102.908H194.523V85.4716H182.079V102.908Z" fill="#D1D3D4"/>
<path d="M188.263 103.877C187.965 103.877 187.816 103.653 187.816 103.43V85.0245C187.816 84.7264 188.114 84.5774 188.338 84.5774C188.561 84.5774 188.71 84.8009 188.785 85.0245V103.43C188.785 103.653 188.561 103.877 188.263 103.877Z" fill="#D1D3D4"/>
<path d="M195.044 91.1347H181.632C181.333 91.1347 181.184 90.8367 181.184 90.6131C181.184 90.3896 181.408 90.2405 181.632 90.166H195.044C195.342 90.166 195.491 90.4641 195.491 90.6876C195.417 90.9857 195.268 91.1347 195.044 91.1347Z" fill="#D1D3D4"/>
<path d="M195.044 98.0644H181.632C181.333 98.0644 181.184 97.7663 181.184 97.5428C181.184 97.3193 181.408 97.1702 181.632 97.0957H195.044C195.342 97.0957 195.491 97.3938 195.491 97.6173C195.417 97.9154 195.268 98.0644 195.044 98.0644Z" fill="#D1D3D4"/>
<path d="M71.2752 122.282H57.8625V140.687H71.2752V122.282Z" fill="white"/>
<path d="M71.2751 141.209H57.8624C57.5644 141.209 57.4153 140.985 57.3408 140.761V122.356C57.3408 122.058 57.5644 121.909 57.8624 121.909H71.2751C71.5731 121.909 71.7222 122.133 71.7967 122.356V140.836C71.7967 140.985 71.5731 141.209 71.2751 141.209ZM58.3095 140.24H70.828V122.803H58.3095V140.24Z" fill="#D1D3D4"/>
<path d="M64.5689 141.209C64.2709 141.209 64.1218 140.985 64.1218 140.761V122.356C64.1218 122.058 64.4199 121.909 64.6434 121.909C64.867 121.909 65.016 122.133 65.0905 122.356V140.836C65.0905 140.985 64.867 141.209 64.5689 141.209Z" fill="#D1D3D4"/>
<path d="M71.2751 128.541H57.8624C57.5644 128.541 57.3408 128.392 57.3408 128.094C57.3408 127.796 57.4898 127.572 57.7879 127.572C57.8624 127.572 57.8624 127.572 57.9369 127.572H71.3496C71.6477 127.572 71.8712 127.721 71.8712 128.019C71.8712 128.317 71.7222 128.541 71.4241 128.541C71.3496 128.541 71.3496 128.541 71.2751 128.541Z" fill="#D1D3D4"/>
<path d="M71.2751 135.471H57.8624C57.5644 135.471 57.3408 135.322 57.3408 135.024C57.3408 134.726 57.4898 134.502 57.7879 134.502C57.8624 134.502 57.8624 134.502 57.9369 134.502H71.3496C71.6477 134.502 71.8712 134.651 71.8712 134.949C71.8712 135.247 71.7222 135.471 71.4241 135.471C71.3496 135.471 71.3496 135.471 71.2751 135.471Z" fill="#D1D3D4"/>
<path d="M96.0141 122.282H82.6014V140.687H96.0141V122.282Z" fill="white"/>
<path d="M96.014 141.209H82.6014C82.3033 141.209 82.1543 140.985 82.1543 140.761V122.356C82.1543 122.058 82.3778 121.909 82.6014 121.909H96.014C96.3121 121.909 96.4611 122.133 96.4611 122.356V140.836C96.5356 140.985 96.3121 141.209 96.014 141.209ZM83.0485 140.24H95.4924V122.803H83.0485V140.24Z" fill="#D1D3D4"/>
<path d="M89.3077 141.209C89.0096 141.209 88.8606 140.985 88.8606 140.761V122.356C88.8606 122.058 89.1587 121.909 89.3822 121.909C89.6057 121.909 89.7548 122.133 89.8293 122.356V140.836C89.8293 140.985 89.6057 141.209 89.3077 141.209Z" fill="#D1D3D4"/>
<path d="M96.014 128.541H82.6014C82.3033 128.541 82.1543 128.243 82.1543 128.019C82.1543 127.796 82.3778 127.647 82.6014 127.572H96.014C96.3121 127.572 96.4611 127.87 96.4611 128.094C96.4611 128.317 96.2376 128.541 96.014 128.541Z" fill="#D1D3D4"/>
<path d="M96.014 135.471H82.6014C82.3033 135.471 82.1543 135.173 82.1543 134.949C82.1543 134.726 82.3778 134.577 82.6014 134.502H96.014C96.3121 134.502 96.4611 134.8 96.4611 135.024C96.4611 135.247 96.2376 135.471 96.014 135.471Z" fill="#D1D3D4"/>
<path d="M170.231 122.282H156.818V140.687H170.231V122.282Z" fill="white"/>
<path d="M170.305 141.209H156.893C156.595 141.209 156.446 140.985 156.446 140.761V122.356C156.446 122.058 156.669 121.909 156.893 121.909H170.305C170.603 121.909 170.752 122.133 170.752 122.356V140.836C170.752 140.985 170.529 141.209 170.305 141.209ZM157.34 140.24H169.784V122.803H157.34V140.24Z" fill="#D1D3D4"/>
<path d="M163.524 141.209C163.226 141.209 163.077 140.985 163.077 140.761V122.356C163.077 122.058 163.375 121.909 163.599 121.909C163.822 121.909 163.971 122.133 164.046 122.356V140.836C164.046 140.985 163.822 141.209 163.524 141.209Z" fill="#D1D3D4"/>
<path d="M170.305 128.541H156.893C156.595 128.541 156.371 128.392 156.371 128.094C156.371 127.796 156.52 127.572 156.818 127.572C156.893 127.572 156.893 127.572 156.967 127.572H170.38C170.678 127.572 170.901 127.721 170.901 128.019C170.901 128.317 170.752 128.541 170.454 128.541C170.38 128.541 170.305 128.541 170.305 128.541Z" fill="#D1D3D4"/>
<path d="M170.305 135.471H156.893C156.595 135.471 156.371 135.322 156.371 135.024C156.371 134.726 156.52 134.502 156.818 134.502C156.893 134.502 156.893 134.502 156.967 134.502H170.38C170.678 134.502 170.901 134.651 170.901 134.949C170.901 135.247 170.752 135.471 170.454 135.471C170.38 135.471 170.305 135.471 170.305 135.471Z" fill="#D1D3D4"/>
<path d="M194.97 122.282H181.557V140.687H194.97V122.282Z" fill="white"/>
<path d="M195.044 141.209H181.632C181.333 141.209 181.184 140.985 181.184 140.761V122.356C181.184 122.058 181.408 121.909 181.632 121.909H195.044C195.342 121.909 195.491 122.133 195.491 122.356V140.836C195.491 140.985 195.268 141.209 195.044 141.209ZM182.079 140.24H194.523V122.803H182.079V140.24Z" fill="#D1D3D4"/>
<path d="M188.263 141.209C187.965 141.209 187.816 140.985 187.816 140.761V122.356C187.816 122.058 188.114 121.909 188.338 121.909C188.561 121.909 188.71 122.133 188.785 122.356V140.836C188.785 140.985 188.561 141.209 188.263 141.209Z" fill="#D1D3D4"/>
<path d="M195.044 128.541H181.632C181.333 128.541 181.184 128.243 181.184 128.019C181.184 127.796 181.408 127.647 181.632 127.572H195.044C195.342 127.572 195.491 127.87 195.491 128.094C195.417 128.317 195.268 128.541 195.044 128.541Z" fill="#D1D3D4"/>
<path d="M195.044 135.471H181.632C181.333 135.471 181.184 135.173 181.184 134.949C181.184 134.726 181.408 134.577 181.632 134.502H195.044C195.342 134.502 195.491 134.8 195.491 135.024C195.417 135.247 195.268 135.471 195.044 135.471Z" fill="#D1D3D4"/>
<path d="M128.055 17.2159C127.757 17.2159 127.608 16.9924 127.608 16.6943V0.599116C127.608 0.301057 127.832 0.0775146 128.055 0.0775146C128.353 0.0775146 128.577 0.301057 128.577 0.599116V16.7688C128.502 17.0669 128.279 17.2159 128.055 17.2159Z" fill="#D1D3D4"/>
<path d="M119.933 15.5766C118.89 15.5766 117.847 15.3531 116.878 14.9805C116.133 14.6079 115.313 14.1608 114.643 13.6392C114.27 13.4157 113.898 13.1176 113.525 12.8941C109.427 10.5841 104.36 10.6586 100.41 13.2666C100.187 13.4157 99.8888 13.3412 99.7397 13.1176C99.5907 12.9686 99.6652 12.745 99.7397 12.5215C102.795 8.64673 106.148 6.41129 109.576 5.74065C111.29 5.51711 113.078 5.44259 114.792 5.59162C116.282 5.74065 117.698 5.66614 119.188 5.51711C122.616 5.07002 125.671 3.13264 127.608 0.226562C127.757 0.00301759 128.055 -0.0714949 128.279 0.0775346C128.502 0.226564 128.577 0.524619 128.428 0.748163C126.341 3.87778 122.988 5.9642 119.337 6.4858C117.847 6.63483 116.282 6.63483 114.792 6.56032C113.152 6.41129 111.439 6.4858 109.799 6.70934C107.191 7.23095 104.658 8.72124 102.273 11.1802C106.148 9.61542 110.47 9.988 114.047 12.0744C114.419 12.298 114.866 12.596 115.239 12.8196C115.909 13.2666 116.58 13.7137 117.325 14.0863C120.827 15.5766 124.926 13.7137 127.459 11.1057C127.608 10.8822 127.981 10.8822 128.13 11.1057C128.279 11.3293 128.279 11.6273 128.13 11.7763C126.043 13.8628 122.988 15.5766 119.933 15.5766Z" fill="#D1D3D4"/>
<path d="M126.416 45.9786V53.2066L122.467 51.5672" fill="white"/>
<path d="M126.416 53.6536C126.342 53.6536 126.267 53.6536 126.267 53.6536L122.243 52.0143C122.02 51.9398 121.871 51.6417 121.871 51.4182C121.945 51.1946 122.243 51.0456 122.467 51.0456C122.467 51.0456 122.541 51.0456 122.541 51.1201L125.895 52.4614V45.9786C125.895 45.6805 126.193 45.5315 126.416 45.5315C126.64 45.5315 126.789 45.755 126.863 45.9786V53.2065C126.863 53.3555 126.789 53.5046 126.64 53.5791C126.64 53.6536 126.565 53.6536 126.416 53.6536Z" fill="#D1D3D4"/>
<path d="M111.811 113.862C111.662 113.713 111.513 113.638 111.364 113.564C111.215 113.489 110.991 113.489 110.842 113.489C110.768 113.489 110.619 113.489 110.544 113.489C110.47 113.489 110.321 113.564 110.246 113.564C110.172 113.638 110.097 113.638 110.023 113.787C109.948 113.862 109.948 114.011 109.948 114.085C109.948 114.234 110.023 114.383 110.172 114.532C110.321 114.607 110.544 114.756 110.693 114.756C110.917 114.83 111.141 114.905 111.364 114.979C111.588 115.054 111.811 115.128 112.035 115.277C112.258 115.426 112.407 115.575 112.556 115.799C112.705 116.023 112.78 116.321 112.78 116.619C112.78 116.991 112.705 117.289 112.556 117.587C112.407 117.811 112.258 118.034 112.035 118.258C111.811 118.407 111.588 118.556 111.29 118.631C110.991 118.705 110.693 118.78 110.395 118.78C110.023 118.78 109.65 118.705 109.278 118.631C108.905 118.481 108.607 118.332 108.309 118.034L109.278 116.991C109.576 117.364 110.023 117.587 110.47 117.587C110.619 117.587 110.693 117.587 110.768 117.513C110.842 117.513 110.991 117.438 111.066 117.438C111.141 117.364 111.215 117.289 111.29 117.215C111.364 117.14 111.364 116.991 111.364 116.917C111.364 116.768 111.29 116.619 111.141 116.47C110.991 116.321 110.768 116.246 110.619 116.172L109.948 115.948C109.725 115.873 109.501 115.799 109.278 115.65C109.054 115.501 108.905 115.352 108.756 115.128C108.607 114.905 108.533 114.607 108.533 114.309C108.533 113.713 108.831 113.191 109.278 112.818C109.501 112.669 109.725 112.52 110.023 112.446C110.321 112.371 110.619 112.297 110.917 112.297C111.29 112.297 111.588 112.371 111.96 112.446C112.258 112.52 112.556 112.744 112.854 112.967L111.811 113.862Z" fill="#D1D3D4"/>
<path d="M117.772 114.011C117.623 113.862 117.474 113.713 117.251 113.638C117.027 113.564 116.804 113.489 116.58 113.489C116.357 113.489 116.133 113.564 115.91 113.638C115.686 113.713 115.537 113.862 115.313 114.085C115.164 114.234 115.015 114.458 114.941 114.681C114.866 114.905 114.792 115.203 114.792 115.501C114.792 115.799 114.866 116.022 114.941 116.321C115.015 116.544 115.164 116.768 115.313 116.917C115.462 117.066 115.686 117.215 115.835 117.364C116.059 117.438 116.282 117.513 116.506 117.513C116.729 117.513 117.027 117.438 117.251 117.364C117.474 117.215 117.623 117.066 117.772 116.917L118.89 117.736C118.667 118.109 118.294 118.332 117.921 118.556C117.549 118.705 117.102 118.78 116.729 118.854C116.282 118.854 115.835 118.78 115.388 118.631C115.015 118.481 114.643 118.258 114.345 117.96C114.047 117.662 113.823 117.289 113.674 116.917C113.376 116.097 113.376 115.128 113.674 114.234C113.823 113.862 114.047 113.489 114.345 113.191C114.643 112.893 115.015 112.669 115.388 112.52C115.835 112.371 116.282 112.297 116.729 112.297C116.878 112.297 117.102 112.297 117.251 112.371C117.474 112.371 117.623 112.446 117.847 112.52C117.996 112.595 118.22 112.669 118.369 112.818C118.518 112.967 118.667 113.042 118.816 113.265L117.772 114.011Z" fill="#D1D3D4"/>
<path d="M119.71 112.371H121.051V114.681H123.659V112.371H125V118.481H123.659V115.799H121.051V118.481H119.71V112.371Z" fill="#D1D3D4"/>
<path d="M125.894 115.426C125.894 114.979 125.969 114.532 126.118 114.085C126.267 113.713 126.491 113.34 126.789 113.042C127.087 112.744 127.459 112.52 127.832 112.371C128.651 112.073 129.62 112.073 130.514 112.371C130.887 112.52 131.259 112.744 131.558 113.042C131.856 113.34 132.079 113.713 132.228 114.085C132.526 114.905 132.526 115.874 132.228 116.768C132.079 117.14 131.856 117.513 131.558 117.811C131.259 118.109 130.887 118.333 130.514 118.482C129.695 118.78 128.726 118.78 127.832 118.482C127.459 118.333 127.087 118.109 126.789 117.811C126.491 117.513 126.267 117.14 126.118 116.768C125.969 116.395 125.894 115.874 125.894 115.426ZM127.31 115.426C127.31 115.725 127.385 115.948 127.459 116.246C127.534 116.47 127.683 116.693 127.832 116.842C127.981 116.991 128.204 117.14 128.428 117.289C128.95 117.513 129.471 117.513 129.993 117.289C130.216 117.215 130.44 117.066 130.589 116.842C130.738 116.693 130.887 116.47 130.961 116.246C131.036 116.023 131.11 115.725 131.11 115.426C131.11 115.128 131.036 114.905 130.961 114.607C130.887 114.383 130.738 114.16 130.589 114.011C130.44 113.862 130.216 113.713 129.993 113.564C129.471 113.34 128.95 113.34 128.428 113.564C128.204 113.638 127.981 113.787 127.832 114.011C127.683 114.16 127.534 114.383 127.459 114.607C127.385 114.905 127.31 115.203 127.31 115.426Z" fill="#D1D3D4"/>
<path d="M133.122 115.426C133.122 114.979 133.197 114.532 133.346 114.085C133.495 113.713 133.719 113.34 134.017 113.042C134.315 112.744 134.687 112.52 135.06 112.371C135.879 112.073 136.848 112.073 137.742 112.371C138.115 112.52 138.487 112.744 138.786 113.042C139.084 113.34 139.307 113.713 139.456 114.085C139.754 114.905 139.754 115.874 139.456 116.768C139.307 117.14 139.084 117.513 138.786 117.811C138.487 118.109 138.115 118.333 137.742 118.482C136.923 118.78 135.954 118.78 135.06 118.482C134.687 118.333 134.315 118.109 134.017 117.811C133.719 117.513 133.495 117.14 133.346 116.768C133.197 116.395 133.122 115.874 133.122 115.426ZM134.538 115.426C134.538 115.725 134.613 115.948 134.687 116.246C134.762 116.47 134.911 116.693 135.06 116.842C135.209 116.991 135.432 117.14 135.656 117.289C135.879 117.364 136.178 117.438 136.476 117.438C136.774 117.438 136.997 117.364 137.295 117.289C137.519 117.215 137.742 117.066 137.891 116.842C138.04 116.693 138.189 116.47 138.264 116.246C138.338 116.023 138.413 115.725 138.413 115.426C138.413 115.128 138.338 114.905 138.264 114.607C138.189 114.383 138.04 114.16 137.891 114.011C137.742 113.862 137.519 113.713 137.295 113.564C137.072 113.489 136.774 113.415 136.476 113.415C136.178 113.415 135.954 113.489 135.656 113.564C135.432 113.638 135.209 113.787 135.06 114.011C134.911 114.16 134.762 114.383 134.687 114.607C134.538 114.905 134.538 115.203 134.538 115.426Z" fill="#D1D3D4"/>
<path d="M140.723 112.371H142.064V117.289H144.598V118.556H140.723V112.371Z" fill="#D1D3D4"/>
<path d="M257.488 68.3329C255.699 89.7931 251.452 110.955 244.969 131.521C243.181 137.259 241.169 143.295 242.361 149.181C242.436 149.703 242.659 150.225 243.032 150.672C244.448 152.013 246.385 149.927 247.205 148.213C254.06 132.416 260.915 116.469 263.896 99.4801C265.312 91.3579 265.61 82.3417 260.841 75.6353" fill="white"/>
<path d="M244 151.566C243.479 151.566 243.032 151.342 242.659 150.97C242.212 150.448 241.914 149.852 241.839 149.181C240.647 143.369 242.51 137.483 244.298 131.82L244.522 131.223C251.005 110.732 255.178 89.5697 256.966 68.184C256.966 67.8859 257.264 67.6624 257.562 67.6624C257.86 67.6624 258.084 67.9604 258.084 68.2585C256.295 89.7187 252.048 110.955 245.565 131.522L245.416 132.118C243.628 137.632 241.839 143.369 243.032 148.958C243.106 149.405 243.255 149.852 243.553 150.15C243.777 150.374 244.075 150.448 244.373 150.374C245.267 150.225 246.385 148.958 246.832 147.84C253.24 133.235 260.468 116.693 263.449 99.1821C265.312 88.601 264.343 81.1495 260.543 75.7845C260.394 75.5609 260.394 75.1883 260.692 75.0393C260.915 74.8903 261.288 74.8903 261.437 75.1883C265.461 80.8515 266.429 88.601 264.566 99.4056C261.511 116.991 254.283 133.608 247.875 148.287C247.279 149.703 245.938 151.193 244.671 151.491C244.298 151.566 244.149 151.566 244 151.566Z" fill="#231F20"/>
<path d="M264.343 214.307C265.237 216.468 265.908 218.629 266.429 220.939C266.578 222.057 261.362 223.622 261.735 223.622C262.108 223.622 262.927 232.787 266.057 233.458C269.186 234.128 277.83 227.049 279.171 225.112C280.513 223.175 272.689 209.911 272.689 209.911L264.343 214.307Z" fill="white"/>
<path d="M266.429 233.979C266.28 233.979 266.057 233.979 265.908 233.905C263.225 233.383 262.108 228.018 261.511 225.187C261.437 224.665 261.288 224.143 261.213 223.92C261.139 223.845 261.064 223.696 261.064 223.622C260.99 223.175 261.288 223.026 262.108 222.728C264.939 221.61 265.684 221.088 265.759 220.865C265.312 218.704 264.641 216.617 263.821 214.531C263.747 214.382 263.747 214.233 263.747 214.084C263.747 213.935 263.896 213.786 264.045 213.711L272.316 209.315C272.54 209.166 272.912 209.24 273.061 209.538C274.924 212.743 280.96 223.324 279.544 225.261C278.352 227.124 270.23 233.979 266.429 233.979ZM262.331 223.845C262.406 224.143 262.48 224.516 262.555 224.963C263.002 227.198 264.119 232.414 266.057 232.862C268.888 233.458 277.309 226.602 278.575 224.739C279.246 223.771 275.893 216.766 272.316 210.582L264.939 214.456C265.759 216.543 266.355 218.629 266.802 220.79C266.877 221.833 265.386 222.653 262.48 223.771L262.331 223.845Z" fill="#231F20"/>
<path d="M269.634 230.477C266.653 228.242 264.194 225.484 262.257 222.355C262.257 222.355 254.731 226.379 253.315 227.273C247.354 231.148 243.852 236.662 245.789 237.109C247.726 237.556 265.312 236.14 269.783 235.097C274.254 234.054 269.634 230.477 269.634 230.477Z" fill="#231F20"/>
<path d="M247.13 237.705C246.608 237.705 246.087 237.705 245.565 237.631C245.118 237.556 244.746 237.183 244.671 236.662C244.298 234.799 247.801 230.179 252.942 226.826C254.358 225.932 261.66 222.057 261.958 221.833C262.182 221.684 262.48 221.759 262.704 221.982C264.566 225.112 267.025 227.795 269.932 229.955C270.23 230.179 272.465 232.116 272.092 233.756C271.869 234.575 271.124 235.172 269.783 235.544C266.131 236.513 252.123 237.705 247.13 237.705ZM262.033 223.026C260.394 223.92 254.731 226.975 253.538 227.72C248.397 231.073 245.491 235.395 245.714 236.513C245.714 236.587 245.714 236.587 245.789 236.587C247.577 236.96 265.088 235.619 269.484 234.575C270.081 234.426 270.9 234.128 270.975 233.607C271.198 232.787 269.857 231.371 269.186 230.85C266.429 228.763 263.97 226.081 262.033 223.026Z" fill="#231F20"/>
<path d="M255.178 18.7061C256.221 16.8432 257.786 15.2039 259.574 14.0862C263.076 11.9997 267.473 12.2233 270.751 14.5333C271.645 13.5646 272.987 13.043 274.328 13.1175C278.873 13.341 282.077 17.2158 284.164 20.867C286.548 25.0398 287.293 29.8833 289.38 34.2052C289.752 34.9503 296.086 43.0724 297.353 41.4331C295.565 43.6685 293.776 45.8294 291.839 47.9159C290.2 49.9278 288.262 51.5671 286.027 52.9084C283.493 54.2496 280.513 54.6967 277.681 54.9202C267.622 55.5909 257.562 53.9516 248.322 50.0023C248.918 43.1469 250.036 36.2916 251.675 29.6597C252.719 25.785 253.389 21.9102 255.178 18.7061Z" fill="white"/>
<path d="M273.285 55.591C264.641 55.591 256.146 53.8771 248.173 50.524C247.95 50.4495 247.801 50.2259 247.875 50.0024C248.471 43.0725 249.589 36.2917 251.228 29.5853C251.377 28.9147 251.601 28.1695 251.75 27.4989C252.495 24.2948 253.24 21.2397 254.731 18.5571C255.848 16.6198 257.413 14.9059 259.35 13.7882C262.853 11.7018 267.249 11.7763 270.677 14.0117C271.72 13.1176 272.987 12.6705 274.328 12.745C278.203 12.894 281.63 15.5766 284.611 20.7181C285.878 23.1025 286.921 25.636 287.666 28.2441C288.262 30.256 289.007 32.1933 289.827 34.0562C290.349 35.1739 295.937 41.7312 296.906 41.2096C297.055 40.9861 297.428 40.9116 297.651 41.1351C297.875 41.2841 297.949 41.6567 297.726 41.8803C295.937 44.1157 294.149 46.2766 292.211 48.363C290.572 50.3749 288.486 52.0888 286.25 53.43C283.493 54.9203 280.364 55.2929 277.681 55.5165C276.265 55.5165 274.775 55.591 273.285 55.591ZM248.918 49.6298C258.009 53.43 267.845 54.9949 277.681 54.3242C280.289 54.1752 283.27 53.8026 285.803 52.3868C287.964 51.1201 289.827 49.4808 291.466 47.5434C293.106 45.755 294.67 43.8922 296.161 42.0293C293.627 40.9861 289.082 34.9504 288.858 34.4288C287.964 32.4914 287.219 30.4795 286.623 28.4676C285.878 25.9341 284.909 23.4751 283.642 21.1652C280.885 16.3962 277.756 13.8627 274.253 13.7137C273.061 13.5647 271.943 14.0117 271.124 14.9059C270.975 15.1295 270.602 15.204 270.379 14.9804C267.249 12.745 263.076 12.596 259.798 14.5333C258.009 15.6511 256.593 17.1414 255.55 19.0042C254.06 21.5377 253.389 24.5183 252.644 27.7225C252.495 28.3931 252.346 29.1382 252.123 29.8089C250.558 36.3662 249.515 42.998 248.918 49.6298Z" fill="#231F20"/>
<path d="M276.34 216.245C276.34 216.245 277.16 225.112 276.34 226.304C275.52 227.496 271.049 228.987 271.049 228.987C271.049 228.987 273.434 233.979 278.128 233.383C282.823 232.787 288.486 229.359 288.486 229.359L289.454 213.786L276.34 216.245Z" fill="white"/>
<path d="M277.309 233.979C272.912 233.979 270.677 229.434 270.528 229.21C270.453 229.061 270.453 228.912 270.528 228.763C270.602 228.614 270.677 228.54 270.826 228.465C272.465 227.869 275.297 226.677 275.893 225.932C276.34 225.336 276.191 220.418 275.818 216.245C275.818 215.947 275.967 215.723 276.265 215.649L289.38 213.264C289.529 213.264 289.678 213.264 289.827 213.413C289.976 213.488 290.051 213.711 289.976 213.86L289.007 229.434C289.007 229.583 288.858 229.806 288.709 229.881C288.486 230.03 282.897 233.309 278.203 233.905C277.905 233.905 277.607 233.979 277.309 233.979ZM271.794 229.285C272.54 230.477 274.626 233.309 278.054 232.862C282.003 232.34 286.846 229.732 287.964 229.136L288.858 214.531L276.936 216.766C277.16 219.3 277.607 225.559 276.787 226.677C276.042 227.571 273.136 228.763 271.794 229.285Z" fill="#231F20"/>
<path d="M274.179 230.924L270.453 225.708C270.453 225.708 252.57 235.097 253.24 238.301C253.911 241.505 290.721 239.046 290.721 238.748C290.721 238.45 289.976 228.242 289.976 228.242C289.976 228.242 278.352 233.383 274.179 230.924Z" fill="#231F20"/>
<path d="M265.908 240.388C253.24 240.388 252.942 239.046 252.793 238.376C252.048 235.097 265.982 227.496 270.23 225.187C270.453 225.038 270.751 225.112 270.9 225.336L274.551 230.477C277.905 232.191 286.697 228.987 289.827 227.571C289.976 227.497 290.2 227.497 290.349 227.571C290.498 227.646 290.572 227.795 290.647 228.018C290.796 229.732 291.392 238.301 291.392 238.599C291.392 239.121 290.945 239.195 290.274 239.27C287.89 239.568 278.873 240.164 270.23 240.313C268.59 240.388 267.175 240.388 265.908 240.388ZM270.304 226.453C262.033 230.85 253.389 236.513 253.836 238.227C255.029 240.313 285.431 239.195 290.274 238.376C290.2 236.96 289.902 232.489 289.603 229.061C286.995 230.179 277.756 233.681 273.955 231.52C273.881 231.446 273.806 231.446 273.806 231.371L270.304 226.453Z" fill="#231F20"/>
<path d="M293.255 58.4224C293.255 58.4224 312.032 76.3059 313.523 81.3729C315.013 86.4399 310.989 85.6203 310.989 85.6203C310.989 85.6203 322.166 106.931 315.311 119.226C308.456 131.521 290.796 123.474 290.051 121.089C289.305 118.705 289.902 71.984 290.945 66.0229C291.988 60.0617 293.255 58.4224 293.255 58.4224Z" fill="#231F20"/>
<path d="M303.389 126.305C302.644 126.305 301.898 126.231 301.153 126.156C295.416 125.56 290.051 122.729 289.603 121.164C288.784 118.332 289.529 71.3136 290.498 65.7995C291.615 59.7638 292.808 58.1245 292.882 58.05C292.957 57.9009 293.106 57.8264 293.255 57.8264C293.404 57.8264 293.553 57.9009 293.702 57.9754C294.447 58.7206 312.629 76.008 314.119 81.1495C314.64 83.0869 314.566 84.4282 313.746 85.3224C313.299 85.844 312.629 86.0675 311.958 86.142C313.746 89.8678 315.162 93.668 316.354 97.6173C318.962 106.857 318.813 114.234 315.907 119.376C312.703 124.89 307.711 126.305 303.389 126.305ZM293.404 59.2422C292.51 61.4031 291.839 63.6386 291.541 66.023C290.423 72.1332 290.051 118.854 290.647 120.866C290.87 121.686 295.416 124.517 301.302 125.113C305.699 125.56 311.585 124.89 314.939 118.854C321.57 107.006 310.691 85.993 310.617 85.7695C310.542 85.6204 310.542 85.3969 310.691 85.1733C310.84 85.0243 310.989 84.9498 311.213 84.9498C311.883 85.0988 312.48 84.8753 313.001 84.5027C313.523 83.9811 313.523 82.8634 313.076 81.3731C311.734 77.0512 296.384 62.1483 293.404 59.2422Z" fill="#231F20"/>
<path d="M256.966 101.567C256.966 101.567 238.784 164.83 238.784 173.622C238.784 182.415 263.672 216.841 263.672 216.841L275.371 212.221C275.371 212.221 261.064 178.615 262.182 176.081C263.3 173.548 272.987 147.095 272.987 147.095C272.987 147.095 274.552 181.074 275.371 186.141C276.191 191.208 275.371 217.81 275.371 217.81C275.371 217.81 288.486 221.61 292.062 217.81C292.062 217.81 297.726 121.462 294 110.136C290.274 98.8095 290.423 101.641 290.423 101.641L256.966 101.567Z" fill="#231F20"/>
<path d="M286.101 220.045C282.45 219.896 278.799 219.374 275.222 218.331C274.999 218.257 274.85 218.033 274.85 217.81C274.85 217.735 274.924 215.798 274.999 212.892L263.896 217.288C263.672 217.362 263.374 217.288 263.225 217.139C262.182 215.723 238.188 182.415 238.188 173.548C238.188 164.681 255.699 103.951 256.444 101.343C256.519 101.119 256.743 100.97 256.966 100.97L290.051 101.119C290.125 100.97 290.274 100.821 290.498 100.821C291.094 100.747 291.466 100.672 294.596 109.987C298.322 121.238 292.957 213.935 292.659 217.884C292.659 218.033 292.584 218.108 292.51 218.257C291.168 219.598 288.709 220.045 286.101 220.045ZM275.893 217.437C279.693 218.48 288.709 220.194 291.541 217.586C291.839 212.594 297.055 121.164 293.478 110.285C292.659 107.528 291.615 104.845 290.498 102.163H290.423L257.339 102.014C255.774 107.379 239.306 165.277 239.306 173.548C239.306 181.595 261.288 212.519 263.896 216.17L274.701 211.923C271.869 205.291 260.617 178.391 261.735 175.932C262.853 173.473 272.391 147.244 272.54 147.021C272.614 146.797 272.838 146.648 273.136 146.648C273.359 146.722 273.583 146.872 273.583 147.17C273.583 147.542 275.148 181.148 275.967 186.141C276.712 190.835 276.042 213.935 275.893 217.437ZM272.54 149.852C270.081 156.558 263.598 174.293 262.704 176.305C262.108 178.093 269.634 197.169 275.073 210.06C275.222 201.789 275.446 189.494 274.85 186.29C274.104 182.042 272.912 157.974 272.54 149.852Z" fill="#231F20"/>
<path d="M258.605 59.1677C257.115 61.7012 256.072 64.3837 255.476 67.2898C254.805 69.7488 254.582 72.2078 254.805 74.7413C255.327 79.5102 258.009 83.683 261.064 87.1107C260.319 83.7575 259.872 80.4044 259.723 77.0512C259.574 72.3568 260.468 67.7369 262.257 63.415C263.151 61.2541 264.269 59.2422 265.61 57.3793C266.206 56.4851 267.249 55.74 266.355 54.7713C265.759 54.1007 264.79 53.8026 263.896 54.0262C261.735 54.5478 259.798 57.3048 258.605 59.1677Z" fill="#231F20"/>
<path d="M261.064 87.5577C260.915 87.5577 260.766 87.4832 260.692 87.4087C256.817 83.0869 254.731 78.914 254.284 74.7412C254.06 72.2077 254.284 69.5997 254.954 67.1407C255.55 64.2346 256.668 61.4776 258.158 58.8696C260.096 55.8145 261.884 53.9516 263.672 53.5045C264.716 53.2064 265.908 53.579 266.653 54.3242C267.771 55.4419 266.877 56.4851 266.355 57.1557C266.206 57.3048 266.131 57.4538 265.982 57.6028C264.716 59.4657 263.598 61.4031 262.704 63.4895C260.915 67.7368 260.096 72.2822 260.245 76.9021C260.468 80.2553 260.915 83.6085 261.586 86.8871C261.66 87.1852 261.437 87.4832 261.139 87.4832C261.139 87.5578 261.064 87.5577 261.064 87.5577ZM259.127 59.3912C257.637 61.8502 256.593 64.5327 255.997 67.2897C255.401 69.6742 255.178 72.1332 255.327 74.5177C255.699 77.9453 257.264 81.4475 260.17 85.0243C259.649 82.3417 259.276 79.5847 259.201 76.8276C259.052 72.0587 259.947 67.3642 261.735 62.9679C262.629 60.8069 263.747 58.7205 265.088 56.8577C265.237 56.7086 265.386 56.4851 265.461 56.3361C266.131 55.5164 266.206 55.2929 265.833 54.9948C265.312 54.4732 264.641 54.2496 263.896 54.3987C262.48 54.9203 260.841 56.5596 259.127 59.3912Z" fill="#231F20"/>
<path d="M261.81 58.0499C261.288 58.6461 258.233 61.4776 256.966 70.6429C255.699 79.8082 260.245 89.7932 256.966 101.567L287.964 103.28C287.964 103.28 297.428 65.0543 292.659 57.0067C287.89 48.9591 267.547 51.4926 261.81 58.0499Z" fill="#FD6500"/>
<path d="M286.995 90.2403C286.995 90.2403 273.061 84.5772 274.253 71.9842C275.52 58.348 281.407 54.9948 286.399 52.3123C289.38 53.43 289.752 54.1751 289.752 54.1751C289.752 54.1751 279.395 57.3047 279.171 65.0543C278.948 72.8038 277.159 83.3849 286.995 90.2403Z" fill="#231F20"/>
<path d="M286.996 90.7618C286.921 90.7618 286.847 90.7618 286.772 90.7618C286.623 90.6873 272.465 84.8006 273.732 71.9841C275.073 57.9008 281.258 54.5476 286.176 51.8651C286.325 51.7906 286.474 51.7906 286.623 51.8651C289.529 52.9083 290.125 53.8025 290.274 54.026C290.349 54.175 290.349 54.3241 290.274 54.4731C290.2 54.6221 290.051 54.6966 289.902 54.7712C289.827 54.7712 279.842 57.8263 279.693 65.1287C279.693 66.0229 279.619 66.9171 279.619 67.8858C279.246 75.0392 278.873 83.9064 287.368 89.8676C287.592 90.0167 287.666 90.3147 287.517 90.5382C287.368 90.6873 287.219 90.7618 286.996 90.7618ZM286.474 52.9083C281.78 55.4418 276.042 58.7204 274.775 72.0586C274.03 79.5846 279.097 84.6516 282.897 87.3341C277.83 81.3729 278.203 73.996 278.501 67.8112C278.575 66.8426 278.575 65.9484 278.575 65.0542C278.724 58.2734 286.027 54.9947 288.635 54.026C287.964 53.5789 287.219 53.2064 286.474 52.9083Z" fill="#231F20"/>
<path d="M279.991 78.6161C280.513 79.4357 280.364 95.3819 279.991 96.0525C277.607 100.225 275.371 104.398 272.987 108.496C271.273 111.403 269.634 114.383 267.845 117.289C264.716 122.356 259.425 125.486 255.55 130.031C257.264 130.478 259.127 130.18 260.617 129.286L255.625 136.514C254.656 137.93 253.613 139.644 254.134 141.283C254.582 142.699 261.586 138.526 262.331 137.706C265.461 134.651 267.175 130.106 270.155 126.827C272.614 124.145 275.371 121.686 277.83 118.854C282.152 113.787 288.113 107.975 290.498 101.641C292.659 95.978 294.82 74.9648 294.82 74.9648" fill="white"/>
<path d="M254.582 142.177C254.433 142.177 254.358 142.177 254.209 142.177C253.911 142.103 253.613 141.879 253.538 141.506C252.942 139.644 254.06 137.781 255.103 136.29L259.053 130.553C257.86 130.925 256.519 130.925 255.327 130.627C255.178 130.553 255.029 130.478 254.954 130.255C254.88 130.106 254.954 129.882 255.029 129.733C256.668 127.87 258.456 126.156 260.319 124.517C262.927 122.133 265.461 119.972 267.249 117.066C269.038 114.16 270.677 111.253 272.391 108.273C273.583 106.186 274.701 104.175 275.893 102.088C277.085 100.002 278.203 97.9153 279.47 95.8289C279.768 94.8602 279.917 80.1808 279.47 78.9141C279.321 78.6905 279.321 78.3925 279.619 78.1689C279.619 78.1689 279.619 78.1689 279.693 78.1689C279.917 78.0199 280.289 78.0944 280.438 78.3179C281.183 79.4357 280.811 95.6799 280.438 96.3505C279.246 98.4369 278.054 100.523 276.936 102.61C275.818 104.696 274.626 106.783 273.434 108.794C271.72 111.775 270.081 114.681 268.292 117.587C266.429 120.642 263.747 123.027 261.139 125.337C259.574 126.678 258.009 128.168 256.594 129.659C257.86 129.808 259.202 129.51 260.319 128.839C260.543 128.69 260.841 128.764 260.99 128.913C261.139 129.137 261.213 129.361 261.064 129.584L256.072 136.887C255.178 138.228 254.209 139.718 254.582 141.134C255.625 141.283 261.064 138.302 261.959 137.483C263.523 135.769 264.939 133.906 266.057 131.82C267.175 129.957 268.367 128.243 269.783 126.604C270.9 125.411 272.018 124.219 273.21 123.101C274.626 121.686 276.116 120.195 277.458 118.63C278.352 117.587 279.246 116.544 280.215 115.501C283.94 111.328 288.113 106.559 290.051 101.567C292.137 96.0525 294.298 75.2628 294.373 75.0393C294.447 74.7412 294.671 74.5177 294.969 74.5922C295.267 74.5922 295.49 74.8903 295.416 75.1883C295.341 76.0825 293.18 96.3505 291.019 102.014C289.082 107.155 284.76 111.999 280.96 116.246C279.991 117.289 279.097 118.332 278.203 119.376C276.862 121.015 275.371 122.505 273.881 123.921C272.763 125.039 271.571 126.231 270.528 127.423C269.187 128.988 267.994 130.702 266.951 132.49C265.759 134.577 264.343 136.514 262.704 138.302C262.033 138.824 256.743 142.177 254.582 142.177Z" fill="#231F20"/>
<path d="M292.659 57.0068C292.659 57.0068 283.493 53.8772 279.917 62.8935C276.34 71.9097 277.309 82.1183 277.309 82.1183L298.247 83.1615C298.173 83.1615 301.302 60.3599 292.659 57.0068Z" fill="#FD6500"/>
<path d="M265.461 46.8726L265.61 56.038C265.61 56.038 266.28 61.0304 272.316 59.4656C278.352 57.9008 279.171 53.579 279.171 53.579L278.873 36.3661C278.873 36.3661 273.955 33.46 272.912 22.7299C272.912 22.7299 268.814 27.6478 259.723 26.6046C259.723 26.6046 258.009 35.7699 258.68 40.5389C259.351 45.0843 265.386 46.7981 265.461 46.8726Z" fill="white"/>
<path d="M270.155 60.2854C269.112 60.2854 268.069 59.9874 267.175 59.4658C266.057 58.6461 265.312 57.4539 265.088 56.1126L264.939 47.2453C262.555 46.3512 258.68 44.4138 258.158 40.6135C257.488 35.8446 259.127 26.9028 259.202 26.5302C259.276 26.2322 259.5 26.0831 259.798 26.0831C268.441 27.0518 272.465 22.4319 272.54 22.4319C272.689 22.2829 272.912 22.2084 273.061 22.2829C273.285 22.3574 273.434 22.5064 273.434 22.73C274.403 33.013 279.097 35.9936 279.172 35.9936C279.321 36.0681 279.395 36.2172 279.395 36.4407L279.693 53.6536C279.693 53.9517 278.799 58.4971 272.465 60.0619C271.72 60.2109 270.975 60.2854 270.155 60.2854ZM266.131 56.0381C266.355 57.0813 266.951 57.9755 267.771 58.5716C268.888 59.3167 270.379 59.3912 272.242 58.9442C277.905 57.5284 278.65 53.6536 278.65 53.4301L278.352 36.5897C277.309 35.8446 273.583 32.5659 272.465 23.7732C270.9 25.1145 266.877 27.7225 260.096 27.0518C259.798 28.9892 258.605 36.3662 259.127 40.3155C259.574 43.6686 263.225 45.457 265.386 46.2021C265.461 46.2021 265.61 46.2766 265.684 46.3512C265.833 46.4257 265.908 46.5747 265.908 46.7237L266.131 56.0381Z" fill="#231F20"/>
<path d="M275.297 36.1426C275.52 35.3229 275.967 34.5778 276.638 33.9816C277.309 33.46 277.979 33.0875 278.799 32.8639C279.172 32.7149 279.619 32.6404 280.066 32.6404C280.364 32.7149 280.662 32.7894 280.96 32.9384C281.631 33.2365 282.152 33.8326 282.45 34.5032C282.599 35.0994 282.674 35.6955 282.525 36.2171C282.45 36.8877 282.301 37.4838 282.078 38.08C281.034 40.5389 278.277 41.7312 275.818 40.688H275.744" fill="white"/>
<path d="M277.607 41.5823C276.862 41.5823 276.191 41.4332 275.52 41.1352C275.222 41.0607 275.073 40.7626 275.222 40.4645C275.297 40.1665 275.595 40.0175 275.893 40.1665H275.967C278.128 41.1352 280.662 40.092 281.63 37.931C281.63 37.931 281.63 37.931 281.63 37.8565C281.854 37.3349 282.003 36.7388 282.003 36.1427C282.078 35.6211 282.078 35.0995 281.929 34.6524C281.705 34.1308 281.258 33.6837 280.662 33.3856C280.438 33.2366 280.215 33.1621 279.991 33.1621C279.619 33.1621 279.246 33.2366 278.948 33.3856C278.277 33.6092 277.607 33.9818 277.011 34.4288C276.414 34.8759 276.042 35.5466 275.893 36.2917C275.818 36.5898 275.52 36.7388 275.297 36.6643C274.999 36.5898 274.85 36.2917 274.924 36.0682C275.148 35.0995 275.669 34.2798 276.414 33.6092C277.085 33.0876 277.905 32.715 278.724 32.417C279.171 32.1934 279.693 32.1189 280.215 32.1189C280.587 32.1934 280.96 32.2679 281.258 32.4915C282.003 32.864 282.674 33.5347 282.972 34.2798C283.195 34.9505 283.195 35.6211 283.121 36.2917C283.046 36.9623 282.897 37.633 282.674 38.3036C282.152 39.6449 281.034 40.6881 279.768 41.2097C278.948 41.4332 278.277 41.5823 277.607 41.5823Z" fill="#231F20"/>
<path d="M267.473 32.3423C267.473 32.3423 264.194 37.0367 264.865 37.8564C265.535 38.676 267.771 38.229 267.771 38.229" fill="white"/>
<path d="M266.504 38.8997C265.759 38.9742 265.088 38.7506 264.566 38.229C263.747 37.2603 265.461 34.3543 267.1 32.0443C267.249 31.8208 267.622 31.7463 267.845 31.8953C268.069 32.0443 268.143 32.3424 267.994 32.6404C266.504 34.8014 265.312 37.1113 265.386 37.5584C265.759 37.931 266.951 37.8565 267.696 37.7074C267.994 37.6329 268.292 37.782 268.292 38.08C268.367 38.3781 268.143 38.6761 267.92 38.6761C267.473 38.8252 266.951 38.8997 266.504 38.8997Z" fill="#231F20"/>
<path d="M272.456 31.8027C272.495 31.1867 272.16 30.6641 271.708 30.6355C271.256 30.6069 270.859 31.0831 270.82 31.6992C270.781 32.3153 271.115 32.8379 271.567 32.8665C272.019 32.895 272.417 32.4188 272.456 31.8027Z" fill="#231F20"/>
<path d="M264.863 32.1001C264.906 31.4843 264.575 30.9594 264.123 30.9277C263.672 30.896 263.271 31.3694 263.228 31.9852C263.184 32.6009 263.515 33.1258 263.967 33.1576C264.418 33.1893 264.819 32.7159 264.863 32.1001Z" fill="#231F20"/>
<path d="M267.696 43.1469C265.759 43.0724 263.97 42.4762 262.331 41.433C262.108 41.284 262.033 40.9859 262.182 40.6879C262.331 40.3898 262.629 40.3898 262.927 40.5389C262.927 40.5389 266.504 42.7743 269.335 41.8056C270.751 41.284 271.794 40.0918 272.465 38.1544C272.54 37.8563 272.838 37.7073 273.136 37.8563C273.434 37.9308 273.583 38.2289 273.434 38.5269C272.689 40.7624 271.422 42.2527 269.708 42.8488C269.037 43.0723 268.367 43.2214 267.696 43.1469Z" fill="#231F20"/>
<path d="M265.461 46.8728C265.461 46.8728 269.857 47.9905 273.285 46.0531C273.285 46.0531 270.975 54.6968 265.61 53.9517L265.461 46.8728Z" fill="#231F20"/>
<path d="M266.28 54.4732C265.982 54.4732 265.759 54.4732 265.461 54.3987C265.237 54.3242 265.014 54.1752 265.014 53.8771L264.939 46.8727C264.939 46.7237 265.014 46.5747 265.163 46.4256C265.312 46.3511 265.461 46.2766 265.61 46.3511C265.684 46.3511 269.857 47.3943 273.061 45.5314C273.21 45.3824 273.434 45.3824 273.657 45.5314C273.806 45.6805 273.881 45.904 273.806 46.0531C273.657 46.5001 271.496 54.4732 266.28 54.4732ZM266.057 53.43H266.206C269.559 53.43 271.571 49.1082 272.316 47.0217C270.23 47.7669 268.069 47.9159 265.908 47.5433L266.057 53.43Z" fill="#231F20"/>
<path d="M310.989 86.0676C310.84 86.0676 310.691 85.9931 310.542 85.844C310.468 85.7695 303.612 75.7846 299.29 71.6862C299.067 71.4627 299.067 71.1646 299.29 70.9411C299.514 70.7176 299.812 70.7176 300.036 70.9411C304.432 75.1139 311.138 84.8754 311.436 85.2479C311.585 85.4715 311.585 85.8441 311.287 85.9931C311.213 86.0676 311.138 86.0676 310.989 86.0676Z" fill="white"/>
<path d="M295.267 121.313C295.043 121.313 294.82 121.164 294.745 120.94C294.671 120.493 294.596 120.046 294.671 119.674C294.596 116.619 294.373 108.422 291.094 103.653C290.945 103.429 290.945 103.057 291.243 102.908C291.466 102.759 291.764 102.759 291.988 102.982C291.988 102.982 291.988 102.982 291.988 103.057C295.416 108.124 295.639 116.47 295.714 119.599C295.714 120.046 295.714 120.493 295.788 120.642C295.863 120.866 295.714 121.164 295.49 121.313C295.416 121.313 295.341 121.313 295.267 121.313Z" fill="white"/>
<path d="M272.912 147.691C272.689 147.691 272.465 147.542 272.391 147.244L269.932 132.937C269.857 132.639 270.081 132.416 270.379 132.341C270.677 132.267 270.9 132.49 270.975 132.788L273.434 147.095C273.508 147.393 273.285 147.617 272.987 147.691H272.912Z" fill="white"/>
<path d="M253.24 238.823C253.166 238.823 253.166 238.823 253.091 238.823C252.793 238.748 252.644 238.45 252.719 238.227C253.836 234.203 267.249 225.708 267.845 225.41C268.069 225.261 268.441 225.336 268.59 225.559C268.739 225.783 268.665 226.155 268.441 226.304C264.641 228.689 254.582 235.544 253.762 238.599C253.687 238.674 253.464 238.823 253.24 238.823Z" fill="white"/>
<path d="M327.159 246.349C327.084 246.349 327.01 246.349 326.935 246.274L165.015 166.245C164.791 166.096 164.717 165.873 164.791 165.575C164.94 165.351 165.164 165.277 165.462 165.351L327.308 245.38C327.531 245.529 327.68 245.753 327.531 246.051C327.457 246.2 327.308 246.274 327.159 246.349Z" fill="#D1D3D4"/>
<path d="M137.295 250C137.146 250 136.923 249.925 136.848 249.702L93.6297 166.022C93.4807 165.798 93.6297 165.5 93.8532 165.351C94.0768 165.202 94.3748 165.351 94.5239 165.575L137.742 249.255C137.891 249.478 137.742 249.776 137.519 249.926C137.444 250 137.37 250 137.295 250Z" fill="#D1D3D4"/>
<path d="M89.2332 184.054H89.1587C88.9351 183.98 88.7116 183.756 88.7861 183.458L89.9038 178.317C89.9783 178.093 90.2019 177.869 90.4999 177.944C90.7235 178.018 90.947 178.242 90.8725 178.54L89.7548 183.682C89.6803 183.905 89.4567 184.054 89.2332 184.054Z" fill="#D1D3D4"/>
<path d="M86.3271 184.501C86.1036 184.501 85.88 184.352 85.88 184.129L85.2839 180.179C85.2094 179.881 85.4329 179.658 85.6565 179.658C85.9545 179.583 86.1781 179.807 86.1781 180.03L86.7742 183.98C86.7742 184.278 86.6252 184.501 86.4016 184.501H86.3271Z" fill="#D1D3D4"/>
<path d="M18.5931 195.902C18.2951 195.902 18.0715 195.678 17.9225 195.455L16.5067 192.4C16.3577 192.176 16.4322 191.878 16.6558 191.729C16.8793 191.58 17.1774 191.655 17.3264 191.878C17.3264 191.878 17.3264 191.953 17.4009 191.953L18.7422 194.784C18.8167 194.784 18.8167 194.784 18.8912 194.859C19.1148 195.008 19.1893 195.231 19.1893 195.455C19.0402 195.678 18.8912 195.902 18.5931 195.902Z" fill="#D1D3D4"/>
<path d="M21.1267 195.008C20.9032 195.008 20.7541 194.933 20.6796 194.71C20.158 193.592 20.158 192.4 20.5306 191.208C20.6051 190.984 20.9032 190.835 21.1267 190.91C21.3503 190.984 21.4993 191.282 21.4248 191.506C21.1267 192.4 21.2012 193.443 21.5738 194.263C21.6483 194.486 21.5738 194.784 21.3503 194.933C21.2012 194.933 21.2012 195.008 21.1267 195.008Z" fill="#D1D3D4"/>
<path d="M24.4799 195.53C24.2563 195.53 24.0328 195.38 24.0328 195.157C23.8092 193.816 23.8092 192.474 24.0328 191.133C24.1073 190.91 24.3308 190.686 24.6289 190.761C24.8524 190.835 25.076 191.059 25.0015 191.357C24.7779 192.549 24.7779 193.816 25.0015 195.008C25.076 195.231 24.8524 195.53 24.6289 195.604L24.4799 195.53Z" fill="#D1D3D4"/>
<path d="M49.2187 179.062C48.9951 179.062 48.8461 178.913 48.7716 178.689C48.4735 177.72 48.0264 176.826 47.4303 176.007C47.2068 175.858 47.2068 175.56 47.3558 175.336C47.5048 175.112 47.8029 175.112 48.0265 175.261C48.101 175.336 48.101 175.336 48.1755 175.41C48.8461 176.305 49.2932 177.348 49.6658 178.391C49.7403 178.615 49.5913 178.913 49.3677 178.987L49.2187 179.062Z" fill="#D1D3D4"/>
<path d="M51.6778 178.466C51.4542 178.466 51.2307 178.317 51.2307 178.093C51.0071 177.199 51.0817 176.23 51.3797 175.336C51.4542 175.112 51.7523 174.963 51.9758 175.038C52.1994 175.112 52.3484 175.411 52.2739 175.634C52.0503 176.379 51.9758 177.199 52.1249 177.944C52.1994 178.168 52.0504 178.466 51.7523 178.54L51.6778 178.466Z" fill="#D1D3D4"/>
<path d="M55.5525 178.317H55.478C55.2545 178.242 55.0309 178.019 55.1054 177.72C55.4035 176.305 55.8506 174.963 56.4467 173.622C56.5957 173.399 56.8193 173.25 57.1173 173.399C57.3409 173.548 57.4899 173.771 57.3409 174.069C56.7448 175.261 56.2977 176.603 55.9996 177.944C55.9251 178.168 55.7761 178.317 55.5525 178.317Z" fill="#D1D3D4"/>
<path d="M2.42349 175.261C2.27446 175.261 2.12543 175.187 2.05091 175.038L0.486104 172.355C0.337074 172.132 0.411588 171.834 0.635132 171.685C0.858676 171.536 1.15674 171.61 1.30577 171.834L2.87057 174.516C3.0196 174.74 2.94509 175.038 2.72154 175.187C2.57252 175.261 2.498 175.261 2.42349 175.261Z" fill="#D1D3D4"/>
<path d="M4.43544 174.218C4.21189 174.218 4.06286 174.069 3.98835 173.846C3.69029 172.728 3.54126 171.61 3.54126 170.493C3.54126 170.194 3.7648 170.045 3.98835 170.045C4.28641 170.045 4.43544 170.269 4.43544 170.493C4.43544 171.536 4.58447 172.579 4.88252 173.548C4.95704 173.771 4.80801 174.069 4.58446 174.144C4.50995 174.218 4.43544 174.218 4.43544 174.218Z" fill="#D1D3D4"/>
<path d="M7.11793 174.516C6.89439 174.516 6.74536 174.367 6.67085 174.218C6.29827 173.1 6.37279 171.908 6.89439 170.865C7.04342 170.641 7.26696 170.567 7.56502 170.641C7.78857 170.79 7.86308 171.014 7.78857 171.238C7.41599 172.057 7.34148 172.951 7.56502 173.846C7.63954 174.069 7.49051 174.367 7.26696 174.442L7.11793 174.516Z" fill="#D1D3D4"/>
<path d="M309.648 203.875C309.499 203.875 309.424 203.801 309.275 203.726C309.052 203.503 308.903 203.205 308.977 202.907C309.052 202.012 308.828 201.118 308.381 200.373C308.232 200.149 308.306 199.851 308.53 199.702C308.754 199.553 309.052 199.628 309.201 199.851C309.722 200.671 310.02 201.714 309.946 202.758C310.244 202.907 310.318 203.279 310.169 203.577C310.095 203.726 310.02 203.801 309.871 203.801C309.797 203.801 309.722 203.801 309.648 203.875Z" fill="#D1D3D4"/>
<path d="M312.181 203.577C311.883 203.577 311.734 203.354 311.734 203.13C311.734 201.863 311.958 200.596 312.479 199.404C312.554 199.181 312.852 199.032 313.076 199.181C313.299 199.255 313.448 199.553 313.299 199.777C312.852 200.82 312.628 201.938 312.628 203.13C312.628 203.354 312.405 203.577 312.181 203.577Z" fill="#D1D3D4"/>
<path d="M315.609 204.62C315.386 204.62 315.162 204.471 315.162 204.248C314.938 203.055 315.311 201.863 316.056 200.969C316.205 200.745 316.503 200.745 316.727 200.895C316.95 201.044 316.95 201.342 316.801 201.565C316.205 202.236 315.982 203.13 316.131 204.024C316.205 204.322 315.982 204.546 315.758 204.62H315.609Z" fill="#D1D3D4"/>
<path d="M222.466 180.105C222.242 180.105 222.019 179.881 222.019 179.658C221.944 178.54 221.72 177.422 221.348 176.379C221.273 176.156 221.348 175.857 221.646 175.783C221.944 175.708 222.168 175.783 222.242 176.081C222.689 177.199 222.913 178.391 222.987 179.583C222.913 179.807 222.689 180.03 222.466 180.105Z" fill="#D1D3D4"/>
<path d="M224.701 180.403C224.403 180.403 224.254 180.18 224.254 179.956C224.254 178.615 224.477 177.273 224.999 176.081C225.074 175.858 225.372 175.709 225.595 175.783C225.819 175.858 225.968 176.156 225.893 176.379C225.446 177.497 225.223 178.689 225.223 179.881C225.148 180.18 224.925 180.403 224.701 180.403Z" fill="#D1D3D4"/>
<path d="M227.831 179.881C227.533 179.881 227.383 179.658 227.309 179.434C227.309 179.211 227.458 179.062 227.607 178.987C227.905 178.838 228.054 178.466 228.278 177.795C228.352 177.05 228.799 176.379 229.395 176.007C229.619 175.857 229.917 176.007 230.066 176.23C230.215 176.454 230.066 176.752 229.842 176.901C229.47 177.05 229.395 177.571 229.172 178.093C229.097 178.838 228.65 179.509 227.98 179.956C227.98 179.881 227.905 179.956 227.831 179.881Z" fill="#D1D3D4"/>
<path d="M305.922 181.074C305.773 181.074 305.624 180.999 305.475 180.85L303.687 177.72C303.538 177.497 303.612 177.199 303.836 177.05C304.059 176.901 304.357 176.975 304.506 177.199L306.295 180.328C306.444 180.552 306.369 180.85 306.146 180.999C306.071 181.074 305.997 181.074 305.922 181.074Z" fill="#D1D3D4"/>
<path d="M308.307 179.732C308.083 179.732 307.859 179.583 307.859 179.36C307.636 178.168 307.71 176.975 308.008 175.783C308.158 175.262 308.53 174.889 309.052 174.74C309.35 174.665 309.648 174.814 309.797 175.113C309.946 175.336 309.871 175.634 309.648 175.783C309.499 175.858 309.275 175.858 309.126 175.783C309.052 175.858 308.977 175.932 308.977 176.081C308.679 177.124 308.605 178.168 308.828 179.211C308.903 179.434 308.679 179.732 308.456 179.732C308.381 179.732 308.381 179.732 308.307 179.732Z" fill="#D1D3D4"/>
<path d="M311.138 179.956C310.915 179.956 310.691 179.732 310.691 179.509C310.617 177.87 311.585 176.379 313.076 175.783C313.299 175.709 313.597 175.858 313.672 176.081C313.746 176.305 313.597 176.603 313.374 176.677C312.256 177.124 311.511 178.242 311.585 179.434C311.66 179.732 311.436 179.956 311.138 179.956C311.213 179.956 311.213 179.956 311.138 179.956Z" fill="#D1D3D4"/>
<path d="M197.429 176.007C197.28 176.007 197.056 175.932 196.982 175.709C196.534 174.814 196.013 174.069 195.342 173.324C195.193 173.101 195.193 172.802 195.417 172.653C195.64 172.504 195.938 172.504 196.087 172.728C196.758 173.473 197.354 174.367 197.876 175.336C198.025 175.56 197.876 175.858 197.652 176.007C197.652 175.932 197.503 176.007 197.429 176.007Z" fill="#D1D3D4"/>
<path d="M199.441 175.634C199.217 175.634 199.068 175.485 198.993 175.261C198.695 174.293 198.77 173.175 199.068 172.206C199.142 171.983 199.441 171.834 199.739 171.983C199.962 172.057 200.037 172.281 200.037 172.504C199.813 173.324 199.739 174.144 199.962 175.038C200.037 175.261 199.888 175.56 199.59 175.634C199.515 175.634 199.515 175.634 199.441 175.634Z" fill="#D1D3D4"/>
<path d="M202.272 176.007C202.123 176.007 201.899 175.932 201.825 175.708C201.303 174.74 201.676 173.622 202.049 172.653C202.123 172.355 202.347 172.132 202.57 171.908C202.794 171.759 203.092 171.685 203.39 171.759C203.613 171.834 203.837 171.983 203.911 172.206C203.986 172.43 203.911 172.728 203.613 172.802C203.464 172.877 203.241 172.802 203.092 172.653C203.092 172.728 203.017 172.877 203.017 172.951C202.719 173.771 202.421 174.591 202.794 175.261C202.943 175.485 202.794 175.783 202.57 175.932C202.421 176.007 202.347 176.081 202.272 176.007Z" fill="#D1D3D4"/>
<path d="M104.136 211.476C103.838 211.476 103.689 211.252 103.689 210.954C103.764 209.985 103.615 209.091 103.317 208.197C103.242 207.974 103.391 207.675 103.615 207.601C103.838 207.526 104.136 207.675 104.211 207.899C104.509 208.868 104.658 209.985 104.658 211.029C104.658 211.252 104.434 211.476 104.136 211.476Z" fill="#D1D3D4"/>
<path d="M105.925 210.507C105.701 210.507 105.477 210.283 105.477 210.06C105.403 209.017 105.403 207.899 105.552 206.856C105.552 206.558 105.85 206.409 106.074 206.409C106.372 206.409 106.521 206.707 106.521 206.93C106.446 207.973 106.372 208.942 106.446 209.985C106.446 210.209 106.223 210.432 105.925 210.507C105.999 210.507 105.999 210.507 105.925 210.507Z" fill="#D1D3D4"/>
<path d="M108.383 210.88C108.309 210.88 108.309 210.88 108.234 210.88C108.011 210.805 107.862 210.507 107.936 210.284C108.234 209.166 108.682 208.123 109.203 207.079C109.352 206.856 109.576 206.781 109.874 206.856C110.097 207.005 110.172 207.303 110.097 207.526C109.576 208.495 109.203 209.538 108.905 210.582C108.756 210.731 108.607 210.88 108.383 210.88Z" fill="#D1D3D4"/>
<path d="M117.698 240.388C117.474 240.388 117.251 240.239 117.251 239.941C116.58 233.234 114.494 228.391 111.066 225.485C108.756 223.622 105.775 222.802 102.869 223.249C100.708 223.547 98.8456 224.74 97.6534 226.602C97.5043 226.826 97.2063 226.9 96.9827 226.751C96.8337 226.677 96.7592 226.528 96.7592 226.304C96.9082 216.021 93.406 206.632 87.1468 200.522C80.1424 193.741 69.7848 191.655 61.9608 195.604C57.5644 197.765 53.9132 202.683 55.478 207.229C55.5525 207.452 55.4035 207.75 55.1799 207.825C55.0309 207.899 54.8819 207.825 54.7329 207.75C48.9952 202.907 41.7673 201.118 35.7316 203.13C29.0253 205.366 24.6289 212.817 26.1192 219.3C26.1192 219.449 26.1192 219.673 25.9702 219.747C25.8211 219.896 25.6721 219.896 25.4486 219.822C21.3502 218.331 16.8048 219.3 13.6007 222.355C10.4711 225.485 9.20434 230.105 10.2475 234.426C10.3221 234.65 10.173 234.948 9.87497 235.023C9.65143 235.097 9.35337 234.948 9.27885 234.65C8.08662 229.956 9.42788 225.038 12.8556 221.61C16.0597 218.555 20.6051 217.437 24.927 218.629C23.8092 211.848 28.4291 204.472 35.359 202.162C41.3202 200.15 48.3991 201.64 54.2113 206.036C53.6151 201.491 57.1918 196.797 61.5137 194.71C69.7103 190.686 80.5895 192.773 87.8174 199.852C94.0021 205.887 97.5788 214.904 97.7279 224.963C99.0691 223.547 100.857 222.653 102.72 222.355C105.924 221.908 109.129 222.728 111.662 224.814C115.313 227.869 117.549 232.936 118.219 239.866C118.219 240.164 118.07 240.388 117.772 240.388H117.698Z" fill="#D1D3D4"/>
<path d="M44.0773 217.288C43.8537 217.288 43.6302 217.064 43.5557 216.841C43.5557 216.766 43.5557 216.692 43.6302 216.617C44.8969 213.786 47.2814 211.625 49.3678 209.613C50.7836 208.123 52.4974 206.93 54.3603 206.036C56.2977 205.366 58.3841 205.142 60.4705 205.366C67.6239 205.887 73.287 209.166 75.448 214.009C75.5225 214.233 75.448 214.531 75.2244 214.605C75.0009 214.68 74.7028 214.605 74.6283 214.382C72.5419 209.836 67.2514 206.781 60.4705 206.26C58.5331 206.036 56.5957 206.26 54.8074 206.856C53.0936 207.676 51.4542 208.868 50.1875 210.284C48.1756 212.146 45.8656 214.307 44.6734 216.99C44.4498 217.213 44.3008 217.288 44.0773 217.288Z" fill="#D1D3D4"/>
<path d="M186.698 165.873C187.518 162.892 188.412 159.986 190.052 157.453C191.915 154.621 194.821 152.311 198.174 152.087C201.527 151.864 205.104 154.323 205.327 157.676C206.147 154.77 209.127 153.131 211.959 153.95C214.865 154.77 216.504 157.751 215.685 160.582C215.61 160.806 215.536 160.955 215.536 161.104C217.399 158.794 221.124 158.645 223.583 160.21C225.521 161.551 227.011 163.563 227.682 165.798L186.698 165.873Z" fill="white"/>
<path d="M227.682 166.32H186.699C186.55 166.32 186.4 166.245 186.326 166.171C186.251 166.022 186.177 165.873 186.251 165.724C186.997 162.818 187.965 159.763 189.679 157.154C191.84 153.876 194.97 151.789 198.174 151.566C201.154 151.417 204.508 153.205 205.551 156.186C206.147 155.292 206.892 154.621 207.861 154.099C210.543 152.535 213.971 153.503 215.461 156.186C215.536 156.409 215.685 156.558 215.759 156.782C216.206 157.751 216.43 158.794 216.355 159.837C218.591 158.272 221.795 158.57 223.881 159.912C225.968 161.327 227.458 163.414 228.129 165.798C228.203 165.947 228.129 166.096 228.054 166.245C227.98 166.245 227.831 166.32 227.682 166.32ZM187.295 165.351H227.011C226.34 163.414 225.074 161.774 223.36 160.582C221.199 159.166 217.697 159.166 215.908 161.402C215.759 161.625 215.461 161.625 215.312 161.551C215.089 161.402 215.014 161.178 215.089 160.955C216.132 158.421 215.014 155.59 212.481 154.472C209.947 153.429 207.116 154.546 205.998 157.08C205.923 157.304 205.849 157.527 205.774 157.825C205.7 158.049 205.402 158.198 205.178 158.123C204.955 158.049 204.88 157.9 204.806 157.676C204.582 154.472 201.08 152.311 198.174 152.46C195.268 152.609 192.362 154.546 190.424 157.602C189.008 160.061 187.965 162.669 187.295 165.351Z" fill="#D1D3D4"/>
<path d="M61.5136 165.873C60.694 162.892 59.7998 159.986 58.1605 157.453C56.3721 154.621 53.3915 152.311 50.0384 152.087C46.6852 151.864 43.1085 154.323 42.8849 157.676C42.0653 154.77 39.0847 153.131 36.2531 153.95C33.3471 154.77 31.7077 157.751 32.5274 160.582C32.6019 160.806 32.6764 160.955 32.6764 161.104C30.8136 158.794 27.0878 158.645 24.6288 160.21C22.6914 161.551 21.2012 163.563 20.5305 165.798L61.5136 165.873Z" fill="white"/>
<path d="M61.5137 166.32H20.5306C20.3815 166.32 20.2325 166.245 20.158 166.096C20.0835 165.947 20.009 165.798 20.0835 165.649C20.7541 163.265 22.3189 161.178 24.3308 159.763C26.4917 158.421 29.6214 158.198 31.8568 159.688C31.7823 158.645 32.0058 157.602 32.4529 156.707C33.6452 153.876 36.9983 152.609 39.8299 153.801C40.0534 153.876 40.2025 153.95 40.3515 154.099C41.3202 154.621 42.0653 155.292 42.6614 156.186C43.7047 153.205 47.0578 151.417 50.0384 151.566C53.2425 151.789 56.4467 153.801 58.5331 157.154C60.2469 159.763 61.1411 162.818 61.9608 165.724C62.0353 165.873 61.9608 166.022 61.8863 166.171C61.8117 166.245 61.6627 166.32 61.5137 166.32ZM21.2012 165.351H60.9176C60.2469 162.669 59.2037 160.061 57.7879 157.676C55.8506 154.621 52.9445 152.758 50.0384 152.535C47.1323 152.311 43.6301 154.546 43.4066 157.751C43.4066 158.049 43.1831 158.198 42.885 158.198C42.6614 158.198 42.5124 158.049 42.4379 157.825C41.6928 155.217 38.9357 153.727 36.3277 154.546C33.7197 155.292 32.2294 158.049 33.049 160.657C33.049 160.731 33.1236 160.88 33.1236 160.955C33.1981 161.178 33.1236 161.402 32.9 161.551C32.6765 161.7 32.4529 161.625 32.3039 161.402C30.5901 159.241 27.0879 159.241 24.8524 160.582C23.1386 161.774 21.8718 163.414 21.2012 165.351Z" fill="#D1D3D4"/>
<path d="M39.4573 160.135C39.3083 160.135 39.2338 160.061 39.0848 159.986C38.8612 159.837 38.8612 159.465 39.0848 159.316C41.3947 157.155 44.9714 156.857 47.654 158.645C47.8775 158.794 47.952 159.092 47.803 159.316C47.654 159.539 47.3559 159.614 47.1324 159.39C44.8224 157.9 41.8418 158.123 39.8299 159.912C39.6809 160.061 39.5319 160.135 39.4573 160.135Z" fill="#D1D3D4"/>
</svg>
