<svg width="200" height="250" viewBox="0 0 200 250" fill="none" xmlns="http://www.w3.org/2000/svg">
<path d="M124.022 250C153.935 250 178.185 247.491 178.185 244.397C178.185 241.303 153.935 238.794 124.022 238.794C94.1087 238.794 69.8591 241.303 69.8591 244.397C69.8591 247.491 94.1087 250 124.022 250Z" fill="#D1D3D4"/>
<path d="M79.2724 117.917C76.7323 116.274 74.4164 114.406 72.3246 112.24C64.9285 104.246 62.9115 91.6205 53.7972 85.7186C51.7801 92.9652 48.9412 99.913 45.3552 106.487C51.2571 122.176 66.1986 134.204 82.7836 136.594C86.4443 137.117 90.2543 137.192 93.6909 135.922C98.9204 133.98 102.357 130.02 96.6045 127.106C90.7026 124.118 84.8007 121.653 79.2724 117.917Z" fill="#FD6500"/>
<path d="M87.3408 137.491C85.7719 137.491 84.203 137.341 82.6342 137.117C65.9745 134.727 50.7342 122.475 44.7576 106.711C44.6829 106.562 44.6829 106.412 44.7576 106.263C48.3435 99.6888 51.1077 92.741 53.1995 85.5691C53.2742 85.2703 53.573 85.1208 53.8719 85.1956C53.9466 85.1956 53.9466 85.1955 54.0213 85.2703C59.4002 88.7068 62.4632 94.534 65.3021 100.212C67.3939 104.321 69.5604 108.504 72.6234 111.866C74.7152 114.033 77.0311 115.9 79.4965 117.544C83.5307 120.159 87.789 122.475 92.1967 124.417C93.6909 125.164 95.2597 125.911 96.7539 126.658C99.518 128.078 100.041 129.646 100.041 130.767C99.8916 132.859 97.5009 135.025 93.8403 136.445C91.7485 137.117 89.5073 137.491 87.3408 137.491ZM45.8782 106.562C51.7801 121.877 66.5721 133.755 82.7836 136.071C87.1913 136.669 90.5532 136.519 93.4667 135.399C96.7539 134.204 98.9204 132.336 98.9951 130.618C99.0698 129.198 97.5757 128.152 96.3056 127.48C94.8115 126.733 93.2426 125.986 91.7485 125.239C87.3407 123.222 83.0077 120.906 78.9735 118.291C76.4335 116.647 74.0428 114.705 71.8763 112.464C68.7386 109.027 66.4974 104.769 64.4056 100.585C61.5667 95.0569 58.8773 89.7527 54.0213 86.3909C52.0789 93.4881 49.3147 100.212 45.8782 106.562Z" fill="#231F20"/>
<path d="M74.4164 122.549C71.5028 122.176 68.3651 121.578 66.348 119.412C65.2274 118.216 64.555 116.573 63.4344 115.377C60.8943 112.688 56.7854 112.688 53.1248 112.389C46.7746 111.866 40.4992 110.223 34.7468 107.384L34.1491 130.991C34.2238 129.124 48.0447 131.589 49.3147 132.037C54.096 133.606 56.7854 137.117 62.0896 137.79C72.0257 139.134 82.1859 138.238 91.7485 135.026C94.3632 134.129 101.535 132.635 103.104 130.02C105.121 126.584 101.535 123.521 98.248 122.998C95.185 122.475 91.8232 123.296 88.6855 123.446C83.9789 123.521 79.1976 123.222 74.4164 122.549Z" fill="#FD6500"/>
<path d="M71.0545 138.835C68.0662 138.835 65.0779 138.611 62.1644 138.238C59.1014 137.79 56.7854 136.445 54.6189 135.1C52.9754 133.979 51.1824 133.083 49.3147 132.485C47.5217 131.888 36.0168 130.095 34.8215 131.066C34.7468 131.29 34.5226 131.514 34.2985 131.514C33.9997 131.514 33.7756 131.29 33.7756 130.991L34.3732 107.458C34.3732 107.16 34.5974 106.935 34.8962 106.935C34.9709 106.935 35.0456 106.935 35.1203 107.01C40.7981 109.774 46.9988 111.493 53.2742 112.016L54.1707 112.09C57.5325 112.314 61.4173 112.613 63.8826 115.153C64.4803 115.826 65.0032 116.498 65.4515 117.32C65.825 117.992 66.348 118.664 66.8709 119.262C68.8133 121.354 71.8763 121.877 74.5658 122.25C79.2723 122.923 83.9789 123.222 88.7602 123.072C89.8061 122.998 90.7773 122.923 91.8979 122.773C94.0644 122.4 96.3056 122.325 98.4721 122.624C100.489 122.923 102.955 124.193 103.926 126.359C104.523 127.704 104.449 129.198 103.627 130.468C102.282 132.784 97.5009 134.129 93.9897 135.1C93.2426 135.324 92.4955 135.474 91.9726 135.698C85.2489 137.715 78.1517 138.835 71.0545 138.835ZM36.8386 129.721C41.1716 129.721 48.8665 131.215 49.6135 131.439C51.5559 132.112 53.4236 133.083 55.1419 134.204C57.3084 135.548 59.4002 136.818 62.3138 137.192C72.1751 138.537 82.2606 137.64 91.6738 134.428C92.1967 134.278 92.8691 134.054 93.6909 133.83C96.6044 133.008 101.535 131.589 102.73 129.646C103.328 128.75 103.403 127.555 102.955 126.509C102.282 125.015 100.34 123.67 98.248 123.371C96.1562 123.147 94.0644 123.222 91.9726 123.52C90.9267 123.67 89.8061 123.745 88.8349 123.819C83.9789 123.969 79.1976 123.67 74.4164 122.998C71.5028 122.624 68.2157 122.026 66.0491 119.71C65.5262 119.038 65.0032 118.366 64.555 117.619C64.1815 116.946 63.6585 116.274 63.1356 115.676C60.969 113.36 57.5325 113.136 54.1707 112.912L53.1995 112.837C46.9988 112.389 41.0222 110.746 35.4191 108.131L34.8215 129.871C35.4938 129.721 36.1662 129.646 36.8386 129.721Z" fill="#231F20"/>
<path d="M37.212 163.937C43.1139 167.897 49.4641 173.35 53.7971 178.879C56.8601 182.838 61.2678 189.338 62.6873 194.194C63.7332 193.521 64.8538 192.699 65.8997 191.952C65.3767 190.757 64.7791 189.562 64.1067 188.441C59.9978 181.568 49.1652 165.431 34.8214 159.903C34.4479 160.65 34.149 161.472 33.9249 162.368C35.0455 162.742 36.1661 163.265 37.212 163.937Z" fill="white"/>
<path d="M62.6873 194.791C62.6126 194.791 62.5378 194.791 62.5378 194.791C62.3884 194.717 62.239 194.567 62.239 194.418C60.8943 189.935 56.8601 183.66 53.4236 179.252C48.717 173.5 43.1886 168.494 36.9879 164.385C36.0167 163.713 34.9708 163.265 33.8502 162.891C33.7008 162.891 33.6261 162.742 33.5514 162.667C33.4767 162.518 33.4767 162.368 33.4767 162.294C33.7008 161.397 33.9996 160.575 34.3732 159.754C34.5226 159.53 34.7467 159.38 35.0455 159.53C49.6882 165.133 60.5955 181.493 64.6297 188.292C65.302 189.412 65.8997 190.608 66.4226 191.878C66.4973 192.102 66.4226 192.401 66.2732 192.475L65.2273 193.223C64.4802 193.745 63.8079 194.268 63.0608 194.717C62.8367 194.717 62.762 194.791 62.6873 194.791ZM37.5109 163.489C44.0851 167.897 50.2111 173.35 54.2453 178.58C57.5324 182.838 61.4919 188.815 62.9861 193.372C63.509 192.998 64.032 192.625 64.5549 192.326L65.302 191.803C64.8538 190.757 64.3308 189.711 63.7332 188.74C59.8484 182.091 49.2399 166.253 35.1203 160.65C34.8961 161.098 34.7467 161.547 34.5973 162.07C35.5685 162.443 36.5397 162.891 37.5109 163.489Z" fill="#231F20"/>
<path d="M53.4236 158.11C53.4236 158.11 42.1428 156.915 37.2121 163.937H28.2472C28.2472 163.937 31.0114 157.886 39.9015 154.972C48.7917 152.059 55.1418 154.972 55.1418 154.972L53.4236 158.11Z" fill="white"/>
<path d="M37.212 164.46H28.2471C28.0977 164.46 27.8736 164.385 27.7989 164.236C27.7242 164.087 27.7242 163.863 27.7242 163.713C27.8736 163.489 30.7125 157.438 39.6774 154.449C48.6422 151.461 54.9924 154.375 55.2912 154.449C55.4406 154.524 55.5153 154.599 55.59 154.748C55.6647 154.898 55.59 155.047 55.5153 155.122L53.8717 158.259C53.797 158.484 53.5729 158.558 53.3488 158.558C53.2741 158.558 42.2921 157.438 37.6603 164.161C37.5856 164.385 37.3614 164.535 37.212 164.46ZM29.0689 163.414H36.9132C41.545 157.064 51.1076 157.363 53.05 157.512L54.2453 155.196C49.6134 153.702 44.5333 153.777 39.9015 155.421C33.3272 157.736 30.1895 161.771 29.0689 163.414Z" fill="#231F20"/>
<path d="M40.8727 179.775C40.0509 180.448 39.1544 181.045 38.1832 181.568C37.735 181.792 37.2867 181.942 36.8385 182.166C36.2408 182.39 35.6432 182.539 34.9708 182.614C34.2237 182.689 33.402 182.689 32.6549 182.614C30.0401 182.241 27.7242 180.821 26.1553 178.729C24.8853 177.235 24.0635 175.442 23.7647 173.5C23.69 172.827 23.6153 172.08 23.69 171.408C23.7647 170.586 23.9141 169.839 24.213 169.092C24.3624 168.644 24.5118 168.27 24.7359 167.897C25.5577 166.403 26.6036 165.058 27.9483 163.937C29.2183 162.891 30.6378 161.995 32.1319 161.322C32.4308 161.173 32.7296 161.024 33.0284 160.949C37.8844 159.007 43.2633 159.156 45.8781 162.368C48.4928 165.581 47.5216 171.109 44.6828 175.592C44.5333 175.89 44.3092 176.115 44.1598 176.413C43.1139 177.534 42.068 178.729 40.8727 179.775Z" fill="#FD6500"/>
<path d="M39.1544 159.604C41.8439 159.604 44.3092 160.426 45.8034 162.219C48.4181 165.431 47.4469 170.96 44.6081 175.442C44.4587 175.741 44.2345 175.965 44.0851 176.264C43.1886 177.534 42.068 178.729 40.8727 179.775C40.0509 180.448 39.1544 181.045 38.1832 181.568C37.735 181.792 37.2867 181.942 36.8385 182.166C36.2408 182.39 35.6432 182.539 34.9708 182.614C34.5973 182.689 34.149 182.689 33.7755 182.689C33.402 182.689 33.0284 182.689 32.6549 182.614C30.0401 182.241 27.7242 180.821 26.1554 178.729C24.8853 177.235 24.0635 175.442 23.7647 173.5C23.69 172.827 23.6153 172.08 23.69 171.408C23.7647 170.586 23.9141 169.839 24.213 169.092C24.3624 168.644 24.5118 168.27 24.7359 167.897C25.5577 166.403 26.6036 165.058 27.9483 163.937C29.2184 162.891 30.6378 161.995 32.1319 161.323C32.4308 161.173 32.7296 161.024 33.0284 160.949C34.8961 160.053 36.9879 159.679 39.1544 159.604ZM39.1544 158.558C36.9132 158.558 34.672 159.007 32.5055 159.903C32.2066 160.052 31.8331 160.202 31.5343 160.277C29.9654 161.024 28.4713 161.92 27.1265 163.041C25.7071 164.236 24.5118 165.656 23.6153 167.299C23.3912 167.747 23.2418 168.196 23.0176 168.644C22.7188 169.466 22.5694 170.362 22.4947 171.184V171.259C22.42 172.006 22.4947 172.753 22.5694 173.575C22.9429 175.666 23.8394 177.683 25.1842 179.327C26.9771 181.643 29.5172 183.137 32.3561 183.585C32.8043 183.66 33.1778 183.66 33.6261 183.66C34.0743 183.66 34.5226 183.66 34.9708 183.585C35.6432 183.511 36.3903 183.361 36.9879 183.137C37.5109 182.988 37.9591 182.764 38.4074 182.539C39.4533 182.016 40.4244 181.344 41.3209 180.597C42.591 179.551 43.7116 178.281 44.6828 176.936C44.9069 176.638 45.0563 176.339 45.2804 176.115C49.1652 169.989 48.6423 164.46 46.401 161.696C45.0563 159.679 42.3668 158.558 39.1544 158.558Z" fill="#231F20"/>
<path d="M44.0851 176.264C43.2633 175.816 42.2921 175.741 41.3956 176.114C40.8727 176.488 40.2003 176.637 39.6027 176.712C39.005 176.637 38.4074 176.189 38.2579 175.591C38.1085 174.994 38.1832 174.396 38.4821 173.873C38.7062 173.574 38.8556 173.201 39.1544 172.977C39.3785 172.753 39.6027 172.454 39.7521 172.155C39.9015 171.483 38.8556 171.707 38.5568 171.856C38.0338 172.155 37.4361 172.454 36.8385 172.678C35.8673 172.827 34.8961 172.155 34.7467 171.184C34.7467 171.034 34.7467 170.885 34.7467 170.81C34.672 169.391 35.7179 168.42 36.3155 167.224C36.3902 167.075 36.465 166.925 36.3903 166.776C36.3155 166.627 36.0914 166.627 36.0167 166.627C35.7179 166.627 35.4938 166.627 35.1949 166.701C34.5973 166.851 33.9996 167.15 33.4767 167.448C32.5802 167.897 30.9366 168.793 30.2643 167.523C29.5919 166.253 30.4884 165.058 31.1607 164.087C31.609 163.564 31.9825 162.966 32.2066 162.294C32.2813 161.995 32.2066 161.621 32.0572 161.322C32.3561 161.173 32.6549 161.024 32.9537 160.949C33.2525 161.771 33.2525 162.667 32.8043 163.489C32.4308 164.161 31.9078 164.759 31.4596 165.431C31.2354 165.805 30.6378 167.15 31.3849 167.299C31.9078 167.374 32.6549 166.925 33.1031 166.701C33.6261 166.402 34.2237 166.178 34.8214 165.954C35.4191 165.73 36.0167 165.73 36.6144 165.88C37.212 166.029 37.5109 166.701 37.3615 167.299C36.9879 168.569 35.5685 169.54 35.7179 170.885C35.7179 171.408 36.0167 172.006 36.6891 171.931C37.3614 171.856 37.8844 171.333 38.4821 171.109C39.005 170.885 39.6027 170.885 40.1256 171.109C40.6486 171.333 40.9474 171.931 40.798 172.454C40.4992 173.051 40.1256 173.649 39.6774 174.172C39.3785 174.62 39.005 175.442 39.4532 175.816C39.9015 176.189 40.5739 175.666 41.0221 175.442C42.2174 174.919 43.5622 174.994 44.6828 175.591C44.4586 175.741 44.2345 176.04 44.0851 176.264Z" fill="white"/>
<path d="M38.1833 181.568C37.735 181.792 37.2868 181.942 36.8386 182.166C35.3444 181.568 33.925 180.821 32.6549 179.924C30.7873 178.58 29.069 176.861 27.7243 174.994C26.3048 173.126 25.1095 171.109 24.1383 169.017C24.2877 168.569 24.4371 168.195 24.6613 167.822C24.9601 168.494 25.2589 169.092 25.5578 169.764C26.6037 171.856 27.9484 173.798 29.3678 175.591C30.7126 177.235 32.2814 178.654 34.0744 179.775C35.3444 180.447 36.7638 181.045 38.1833 181.568Z" fill="white"/>
<path d="M34.9708 182.539C34.2237 182.614 33.402 182.614 32.6549 182.539C31.9078 182.166 31.2354 181.717 30.5631 181.269C28.6954 179.924 26.9771 178.206 25.6324 176.339C24.96 175.367 24.2877 174.396 23.69 173.425C23.6153 172.753 23.5406 172.005 23.6153 171.333C24.6612 173.276 25.9312 175.218 27.3507 176.936C28.6954 178.58 30.2642 179.999 32.0572 181.12C33.0284 181.643 33.9996 182.166 34.9708 182.539Z" fill="white"/>
<path d="M32.7139 172.157C33.0978 171.672 33.0417 170.988 32.5887 170.63C32.1357 170.271 31.4572 170.374 31.0733 170.86C30.6894 171.345 30.7454 172.029 31.1985 172.388C31.6515 172.746 32.33 172.643 32.7139 172.157Z" fill="white"/>
<path d="M28.8374 170.886C29.2213 170.4 29.1652 169.716 28.7122 169.358C28.2591 169 27.5807 169.103 27.1968 169.588C26.8129 170.073 26.8689 170.757 27.3219 171.116C27.775 171.474 28.4535 171.371 28.8374 170.886Z" fill="white"/>
<path d="M32.7657 176.631C33.1496 176.146 33.0935 175.462 32.6405 175.103C32.1874 174.745 31.5089 174.848 31.125 175.334C30.7411 175.819 30.7972 176.503 31.2502 176.861C31.7033 177.219 32.3818 177.116 32.7657 176.631Z" fill="white"/>
<path d="M41.2407 168.224C41.6246 167.738 41.5685 167.054 41.1155 166.696C40.6625 166.338 39.984 166.441 39.6001 166.926C39.2162 167.411 39.2722 168.095 39.7253 168.454C40.1783 168.812 40.8568 168.709 41.2407 168.224Z" fill="white"/>
<path d="M36.7093 176.976C37.0932 176.49 37.0371 175.806 36.5841 175.448C36.131 175.09 35.4526 175.193 35.0686 175.678C34.6847 176.163 34.7408 176.847 35.1938 177.206C35.6469 177.564 36.3254 177.461 36.7093 176.976Z" fill="white"/>
<path d="M46.5281 168.826C46.912 168.341 46.8559 167.657 46.4029 167.298C45.9499 166.94 45.2714 167.043 44.8875 167.529C44.5036 168.014 44.5596 168.698 45.0127 169.056C45.4657 169.415 46.1442 169.312 46.5281 168.826Z" fill="white"/>
<path d="M42.527 164.011C42.9109 163.525 42.8549 162.841 42.4018 162.483C41.9488 162.125 41.2703 162.228 40.8864 162.713C40.5025 163.199 40.5585 163.883 41.0116 164.241C41.4646 164.599 42.1431 164.496 42.527 164.011Z" fill="white"/>
<path d="M39.0929 163.23C39.4768 162.745 39.4208 162.061 38.9677 161.703C38.5147 161.344 37.8362 161.447 37.4523 161.933C37.0684 162.418 37.1245 163.102 37.5775 163.46C38.0305 163.819 38.709 163.716 39.0929 163.23Z" fill="white"/>
<path d="M38.9863 179.854C39.3702 179.369 39.3141 178.685 38.8611 178.327C38.4081 177.968 37.7296 178.071 37.3457 178.557C36.9618 179.042 37.0178 179.726 37.4709 180.084C37.9239 180.443 38.6024 180.34 38.9863 179.854Z" fill="white"/>
<path d="M44.3011 172.089C44.685 171.603 44.629 170.919 44.1759 170.561C43.7229 170.203 43.0444 170.306 42.6605 170.791C42.2766 171.277 42.3327 171.961 42.7857 172.319C43.2387 172.677 43.9172 172.574 44.3011 172.089Z" fill="white"/>
<path d="M56.2624 197.78C54.9924 198.826 53.4982 199.573 51.9294 200.096C49.464 200.843 46.8493 200.693 44.5333 199.498C43.4874 198.975 42.5162 198.303 41.6945 197.481C40.8727 196.734 40.2003 195.837 39.6027 194.866C39.005 193.895 38.5568 192.849 38.2579 191.803C37.5856 189.188 38.0338 186.424 39.5279 184.258C40.3497 182.988 41.4703 181.792 42.6656 180.896C43.338 180.373 44.0104 179.925 44.6827 179.551C47.0734 178.132 49.7628 177.235 52.6017 176.936C53.7223 176.787 54.9177 176.787 56.0383 176.936C57.9807 177.086 59.8483 177.833 61.3425 179.177C61.716 179.551 62.0896 179.999 62.3884 180.448C63.4343 182.39 63.7331 184.556 63.2849 186.723C63.1355 187.395 62.9861 188.142 62.7619 188.815C61.8654 191.355 60.5207 193.671 58.7277 195.613C57.9807 196.285 57.1589 197.107 56.2624 197.78Z" fill="white"/>
<path d="M54.5442 176.712C55.0672 176.712 55.5901 176.712 56.1131 176.787C58.0554 176.936 59.9231 177.683 61.4173 179.028C61.7908 179.402 62.1643 179.85 62.4632 180.298C63.5091 182.24 63.8079 184.407 63.3597 186.573C63.2102 187.246 63.0608 187.993 62.8367 188.665C61.9402 191.205 60.5955 193.521 58.8025 195.464C58.0554 196.285 57.2337 197.032 56.3372 197.78C55.0672 198.825 53.573 199.572 52.0042 200.095C51.033 200.394 50.0618 200.544 49.0159 200.544C47.5217 200.544 45.9529 200.17 44.6081 199.498C43.5622 198.975 42.591 198.302 41.7692 197.481C40.9475 196.734 40.2751 195.837 39.6774 194.866C39.0798 193.895 38.6315 192.849 38.3327 191.803C37.6603 189.188 38.1086 186.424 39.6027 184.257C40.4245 182.987 41.5451 181.792 42.7404 180.896C43.4128 180.373 44.0852 179.924 44.7575 179.551C47.1482 178.131 49.8376 177.235 52.6765 176.936C53.3489 176.712 53.9465 176.637 54.5442 176.712ZM54.5442 175.591C53.8718 175.591 53.1995 175.666 52.5271 175.741C49.6135 176.114 46.7746 177.011 44.2346 178.505C43.4875 178.953 42.8151 179.402 42.0681 179.924C40.7233 180.97 39.6027 182.166 38.6315 183.585C36.988 186.05 36.465 189.113 37.2121 191.952C37.5109 193.148 38.0339 194.268 38.6315 195.314C38.9304 195.837 39.3039 196.36 39.6774 196.808C40.051 197.257 40.4245 197.705 40.8728 198.153C41.7692 199.05 42.8151 199.797 43.9358 200.394C45.4299 201.141 47.0735 201.59 48.7917 201.59C49.9123 201.59 51.033 201.44 52.0789 201.067C53.7971 200.544 55.366 199.647 56.7854 198.527C57.6819 197.78 58.5784 196.958 59.4002 196.136C61.2679 194.044 62.6873 191.579 63.6585 188.964C63.8826 188.217 64.1067 187.47 64.2562 186.723C64.7791 184.332 64.4056 181.867 63.285 179.7C63.1355 179.402 62.9114 179.177 62.762 178.953C62.5379 178.729 62.3885 178.505 62.0896 178.281C60.4461 176.787 58.3543 175.89 56.1878 175.741C55.6648 175.666 55.1419 175.591 54.5442 175.591Z" fill="#231F20"/>
<path d="M49.6882 180.373C47.5217 181.269 45.3552 180.896 44.8322 179.551C44.8322 179.476 44.7575 179.476 44.7575 179.402C47.1481 177.982 49.8376 177.086 52.6765 176.787C52.8259 178.057 51.6306 179.626 49.6882 180.373Z" fill="#FD6500"/>
<path d="M48.343 187.295C50.1788 185.892 50.9561 183.825 50.0792 182.677C49.2024 181.53 47.0034 181.737 45.1677 183.14C43.332 184.543 42.5546 186.611 43.4315 187.758C44.3083 188.905 46.5073 188.698 48.343 187.295Z" fill="#FD6500"/>
<path d="M61.4172 179.028C61.1184 179.103 60.8195 179.178 60.446 179.178C58.1301 179.402 56.1877 178.43 56.113 177.011C56.113 176.936 56.113 176.862 56.113 176.787C58.0554 176.936 59.9231 177.683 61.4172 179.028Z" fill="#FD6500"/>
<path d="M63.2849 186.573C61.9402 186.2 61.2678 184.257 61.7161 182.166C61.8655 181.493 62.0896 180.896 62.3884 180.298C63.4343 182.24 63.8079 184.482 63.2849 186.573Z" fill="#FD6500"/>
<path d="M53.9403 195.688C55.7761 194.285 56.5534 192.218 55.6765 191.071C54.7997 189.923 52.6007 190.131 50.765 191.534C48.9292 192.937 48.1519 195.004 49.0288 196.151C49.9056 197.299 52.1046 197.091 53.9403 195.688Z" fill="#FD6500"/>
<path d="M57.296 186.494C59.1318 185.091 59.9091 183.024 59.0322 181.876C58.1554 180.729 55.9564 180.936 54.1207 182.339C52.285 183.742 51.5076 185.81 52.3845 186.957C53.2613 188.104 55.4603 187.897 57.296 186.494Z" fill="#FD6500"/>
<path d="M44.8322 196.211C43.9357 196.958 42.8898 197.331 41.6945 197.406C40.8727 196.659 40.2003 195.762 39.6027 194.791C39.9762 193.745 40.6486 192.774 41.545 192.102C43.338 190.682 45.5792 190.458 46.4757 191.579C47.3722 192.699 46.6252 194.791 44.8322 196.211Z" fill="#FD6500"/>
<path d="M38.3326 191.728C37.6603 189.113 38.1085 186.349 39.6027 184.183C39.7521 184.183 39.8268 184.257 39.9762 184.257C41.3209 184.78 41.6945 186.947 40.798 189.039C40.3497 190.234 39.4532 191.205 38.3326 191.728Z" fill="#FD6500"/>
<path d="M51.9294 200.096C49.464 200.843 46.8493 200.693 44.5333 199.498C45.5045 198.751 46.6998 198.303 47.9699 198.303C49.8376 198.228 51.4064 198.975 51.9294 200.096Z" fill="#FD6500"/>
<path d="M58.7277 195.464C58.0554 194.493 58.2048 192.774 59.1013 191.205C59.9978 189.637 61.5666 188.591 62.7619 188.665C61.8654 191.205 60.5207 193.521 58.7277 195.464Z" fill="#FD6500"/>
<path d="M49.8376 188.889C48.9411 190.16 47.7458 191.28 46.4011 192.102C44.384 193.447 41.8439 193.82 39.4533 193.297C38.4074 193.073 37.3615 192.625 36.3903 192.027C35.942 191.728 35.4938 191.43 35.0456 191.131C34.5973 190.832 34.2238 190.458 33.8502 190.085C33.1032 189.338 32.4308 188.441 31.9078 187.47C30.7125 185.154 30.4137 182.465 31.2355 179.999C31.6837 178.58 32.4308 177.235 33.3273 176.04C33.7755 175.442 34.2985 174.845 34.8214 174.247C36.6891 172.379 38.9303 170.885 41.3957 169.914C42.4416 169.54 43.4875 169.241 44.5334 169.092C46.4011 168.793 48.2687 169.092 49.9123 169.989C50.1364 170.138 50.3606 170.287 50.5847 170.437C50.8088 170.586 51.0329 170.81 51.1823 170.96C52.6018 172.529 53.4236 174.546 53.4983 176.637C53.573 177.31 53.573 177.982 53.4983 178.729C53.2741 181.269 52.6018 183.809 51.4065 186.125C51.0329 187.097 50.51 187.993 49.8376 188.889Z" fill="#FD6500"/>
<path d="M46.1769 169.017C47.5217 169.017 48.8664 169.316 50.0617 169.988C50.2858 170.138 50.51 170.287 50.7341 170.437C50.9582 170.586 51.1823 170.81 51.3317 170.96C52.7512 172.529 53.573 174.546 53.6477 176.637C53.7224 177.31 53.7224 177.982 53.6477 178.729C53.4235 181.269 52.7512 183.809 51.5559 186.125C51.1076 187.096 50.51 187.993 49.8376 188.889C48.9411 190.159 47.7458 191.28 46.4011 192.102C44.9816 192.998 43.2633 193.521 41.5451 193.521C40.8727 193.521 40.1256 193.447 39.4533 193.297C38.4074 193.073 37.3615 192.625 36.3903 192.027C35.942 191.728 35.4938 191.429 35.0455 191.131C34.5973 190.832 34.2238 190.458 33.8502 190.085C33.1031 189.338 32.4308 188.441 31.9078 187.47C30.7125 185.154 30.4137 182.465 31.2355 179.999C31.6837 178.58 32.4308 177.235 33.3273 176.04C33.7755 175.442 34.2985 174.844 34.8214 174.247C36.6891 172.379 38.9303 170.885 41.3957 169.914C42.4416 169.54 43.4875 169.241 44.5334 169.092C45.131 169.017 45.5793 169.017 46.1769 169.017ZM46.1022 167.971C45.5793 167.971 44.9816 168.046 44.4587 168.121C43.3381 168.27 42.1427 168.569 41.0968 169.017C38.4821 170.063 36.0914 171.632 34.1491 173.574C33.5514 174.172 33.0284 174.77 32.5802 175.442C31.609 176.712 30.8619 178.132 30.339 179.7C29.4425 182.465 29.6666 185.453 31.0113 187.993C31.609 189.039 32.2814 190.01 33.1779 190.832C33.5514 191.205 33.9996 191.654 34.4479 191.952C34.8961 192.326 35.3444 192.625 35.8673 192.924C36.9132 193.521 38.0338 194.044 39.2292 194.268C39.9762 194.418 40.7233 194.567 41.5451 194.567C43.4875 194.567 45.3552 194.044 46.924 192.998C48.3434 192.102 49.6135 190.907 50.5847 189.487C51.257 188.591 51.8547 187.619 52.3776 186.573C53.573 184.108 54.32 181.493 54.5442 178.804C54.6189 178.057 54.6189 177.31 54.5442 176.563C54.4695 174.172 53.573 171.931 51.9294 170.213C51.7053 169.988 51.4812 169.764 51.257 169.615C51.0329 169.391 50.7341 169.241 50.51 169.092C49.2399 168.27 47.6711 167.897 46.1022 167.971Z" fill="#231F20"/>
<path d="M39.6027 174.023C37.8845 175.367 35.7927 175.517 34.9709 174.396C34.9709 174.322 34.8962 174.322 34.8962 174.247C36.7639 172.379 39.0051 170.885 41.4704 169.914C41.9934 171.109 41.2463 172.827 39.6027 174.023Z" fill="white"/>
<path d="M40.105 180.772C41.4249 178.978 41.6057 176.869 40.5088 176.062C39.4119 175.255 37.4527 176.057 36.1328 177.851C34.813 179.646 34.6322 181.755 35.7291 182.562C36.8259 183.368 38.7851 182.567 40.105 180.772Z" fill="white"/>
<path d="M50.0617 169.989C49.7629 170.138 49.5388 170.287 49.24 170.362C47.2229 171.109 45.2058 170.661 44.7575 169.316C44.7575 169.241 44.6828 169.167 44.6828 169.092C46.4758 168.793 48.4182 169.092 50.0617 169.989Z" fill="white"/>
<path d="M53.573 176.637C52.303 176.563 51.1824 174.919 51.033 172.827C51.033 172.155 51.033 171.557 51.2571 170.96C52.6765 172.528 53.4983 174.546 53.573 176.637Z" fill="white"/>
<path d="M47.2646 187.355C48.5845 185.56 48.7653 183.451 47.6684 182.645C46.5715 181.838 44.6123 182.639 43.2924 184.434C41.9726 186.229 41.7918 188.338 42.8887 189.144C43.9856 189.951 45.9447 189.15 47.2646 187.355Z" fill="white"/>
<path d="M48.1309 177.863C49.4508 176.068 49.6316 173.959 48.5347 173.153C47.4378 172.346 45.4787 173.147 44.1588 174.942C42.8389 176.737 42.6581 178.846 43.755 179.653C44.8519 180.459 46.8111 179.658 48.1309 177.863Z" fill="white"/>
<path d="M39.005 190.085C38.4074 190.981 37.5109 191.654 36.465 191.952C36.0167 191.654 35.5685 191.355 35.1202 191.056C34.672 190.757 34.2985 190.384 33.9249 190.01C33.9996 188.889 34.3732 187.844 35.0455 187.022C36.3903 185.229 38.3327 184.482 39.4533 185.378C40.5739 186.275 40.3498 188.366 39.005 190.085Z" fill="white"/>
<path d="M31.9825 187.395C30.7872 185.079 30.4883 182.39 31.3101 179.924C31.4595 179.924 31.5342 179.924 31.6837 179.924C33.0284 180.074 33.9249 182.016 33.5513 184.257C33.4019 185.453 32.879 186.573 31.9825 187.395Z" fill="white"/>
<path d="M46.4011 192.102C44.384 193.446 41.8439 193.82 39.4533 193.297C40.1257 192.326 41.1716 191.653 42.2922 191.355C44.0852 190.832 45.7287 191.205 46.4011 192.102Z" fill="white"/>
<path d="M51.5559 186.125C50.7341 185.378 50.3605 183.735 50.8835 182.016C51.4064 180.298 52.4523 178.953 53.6477 178.729C53.4235 181.269 52.6765 183.809 51.5559 186.125Z" fill="white"/>
<path d="M26.2301 163.937C26.2301 163.937 13.9781 171.109 7.55322 194.418C7.55322 194.418 8.74855 207.417 25.4083 216.232C25.4083 216.232 41.1715 218.698 61.3425 204.727C61.3425 204.727 49.6882 206.52 35.7926 189.711C21.897 172.902 26.2301 163.937 26.2301 163.937Z" fill="#231F20"/>
<path d="M28.3966 216.905C27.4254 216.905 26.3795 216.83 25.4083 216.755C25.3336 216.755 25.2589 216.755 25.2589 216.68C8.52442 207.79 7.10498 194.567 7.10498 194.418C7.10498 194.343 7.10498 194.268 7.10498 194.268C13.4551 171.034 25.483 163.788 26.0059 163.489C26.2301 163.339 26.5289 163.414 26.753 163.638C26.8277 163.788 26.9024 164.012 26.753 164.161C26.6783 164.236 22.9429 173.126 36.3155 189.412C43.338 197.929 49.7629 201.515 53.9465 203.009C58.4289 204.653 61.3425 204.204 61.3425 204.204C61.5666 204.204 61.7908 204.279 61.9402 204.503C62.0149 204.727 61.9402 204.951 61.716 205.101C46.6999 215.56 33.9996 216.905 28.3966 216.905ZM25.6324 215.709C26.8277 215.859 41.3209 217.353 59.6242 205.325C55.7395 205.176 46.3263 203.158 35.4938 190.085C24.6612 177.011 24.7359 168.494 25.3336 165.282C22.1212 167.747 13.231 175.965 8.15088 194.492C8.3003 195.613 10.168 207.491 25.6324 215.709Z" fill="#231F20"/>
<path d="M152.336 185.602C152.336 185.602 170.415 177.16 176.018 188.142C178.708 193.447 178.708 203.831 178.708 203.831C178.708 203.831 188.868 193.596 192.753 202.113C196.637 210.629 183.414 231.398 170.266 228.858C157.117 226.318 165.858 212.572 159.881 206.969C153.905 201.366 135.9 200.394 135.9 200.394L148.675 186.947" fill="white"/>
<path d="M172.582 229.455C171.76 229.455 171.013 229.381 170.266 229.231C162.048 227.588 161.973 221.611 161.973 216.307C161.973 212.721 161.899 209.359 159.657 207.267C153.905 201.888 136.199 200.843 135.975 200.843C135.751 200.843 135.602 200.693 135.527 200.544C135.452 200.32 135.527 200.17 135.602 200.021L148.377 186.573C148.601 186.349 148.9 186.349 149.124 186.573C149.348 186.798 149.348 187.096 149.124 187.321L137.096 199.946C141.205 200.245 155.026 201.664 160.255 206.595C162.87 208.986 162.87 212.796 162.87 216.382C162.945 221.761 162.945 226.841 170.341 228.335C175.719 229.381 181.92 226.318 186.926 219.968C191.931 213.618 194.023 206.371 192.23 202.337C191.408 200.618 190.287 199.573 188.868 199.348C184.684 198.601 179.081 204.204 179.007 204.204C178.782 204.429 178.484 204.429 178.26 204.204C178.185 204.13 178.11 203.98 178.11 203.831C178.11 203.756 178.11 193.521 175.421 188.366C170.116 177.982 152.635 186.051 152.411 186.125C152.112 186.275 151.813 186.125 151.738 185.901C151.664 185.677 151.738 185.303 151.963 185.229C155.1 183.809 158.462 182.838 161.824 182.315C168.921 181.344 173.926 183.286 176.317 187.918C178.558 192.326 179.007 199.797 179.081 202.71C180.949 201.067 185.282 197.705 189.017 198.377C190.81 198.676 192.23 199.871 193.126 201.963C195.143 206.371 192.902 214.066 187.747 220.64C183.34 226.243 177.737 229.455 172.582 229.455Z" fill="#231F20"/>
<path d="M149.721 138.462C149.721 138.462 181.248 136.52 190.81 126.285C200.373 116.05 200.074 110.522 194.919 104.47C192.902 102.08 190.063 100.137 187 99.8384C183.937 99.5395 180.426 101.407 179.679 104.47C179.231 106.263 179.604 108.43 178.334 109.7C177.886 110.148 177.363 110.447 176.84 110.671C166.082 115.826 154.129 119.113 142.325 115.751" fill="white"/>
<path d="M149.721 138.985C149.423 138.985 149.198 138.686 149.273 138.387C149.273 138.163 149.497 137.939 149.721 137.939C150.02 137.939 181.098 135.922 190.512 125.911C200.224 115.602 199.327 110.372 194.546 104.844C192.305 102.229 189.615 100.66 186.926 100.436C184.236 100.212 180.874 101.781 180.127 104.694C179.978 105.292 179.903 105.89 179.828 106.487C179.679 107.832 179.604 109.177 178.633 110.223C178.11 110.671 177.587 111.044 176.99 111.343C163.766 117.693 152.336 119.412 142.101 116.498C141.802 116.423 141.653 116.125 141.728 115.826C141.802 115.527 142.101 115.377 142.4 115.452C152.411 118.291 163.617 116.647 176.616 110.372C177.139 110.148 177.587 109.849 177.961 109.476C178.708 108.728 178.783 107.608 178.932 106.413C179.007 105.74 179.081 105.143 179.231 104.47C180.127 100.959 183.937 99.1659 187.075 99.4648C189.989 99.6889 192.977 101.407 195.368 104.246C200.373 110.073 201.419 115.9 191.259 126.733C181.547 136.893 151.066 138.91 149.721 138.985Z" fill="#231F20"/>
<path d="M109.08 126.285C109.08 126.285 80.617 165.282 86.3694 194.717C92.1219 224.151 133.36 216.307 145.164 205.848C156.968 195.389 166.007 176.712 159.956 153.179C156.146 138.611 149.647 124.865 140.831 112.613L109.08 126.285Z" fill="white"/>
<path d="M114.982 215.784C110.724 215.859 106.54 215.186 102.432 213.916C93.4667 210.853 87.7142 204.279 85.8465 194.866C80.0941 165.581 108.333 126.434 108.632 125.986C108.707 125.911 108.782 125.836 108.856 125.836L140.607 112.165C140.831 112.09 141.055 112.165 141.205 112.314C150.02 124.641 156.594 138.387 160.479 153.03C165.634 173.35 160.031 193.297 145.538 206.221C140.009 211.077 127.384 215.784 114.982 215.784ZM109.379 126.733C107.736 129.049 81.3641 166.552 86.8924 194.642C88.6854 203.831 94.0643 209.957 102.805 212.945C117.672 217.951 137.619 211.899 144.791 205.474C159.06 192.774 164.513 173.276 159.433 153.329C155.623 138.985 149.273 125.388 140.607 113.286L109.379 126.733Z" fill="#231F20"/>
<path d="M134.63 134.577C124.769 133.531 118.942 139.134 115.58 148.473C112.891 155.943 112.144 164.087 111.695 171.931C111.247 179.775 110.351 187.246 113.563 194.717C114.161 196.285 115.132 197.78 116.327 198.975C117.971 200.394 120.063 201.365 122.229 201.664C128.953 202.934 136.05 200.768 141.279 196.435C146.509 192.102 150.095 185.901 151.813 179.327C155.175 166.701 153.233 137.491 135.975 134.727C135.602 134.652 135.079 134.577 134.63 134.577Z" fill="#D1D3D4"/>
<path d="M184.236 119.71C182.593 119.785 181.024 119.113 179.903 117.917C177.064 114.63 178.558 108.131 178.558 107.907C178.633 107.608 178.857 107.384 179.156 107.458C179.455 107.533 179.679 107.757 179.604 108.056V108.131C179.604 108.206 178.185 114.406 180.725 117.245C181.621 118.291 183.041 118.814 184.908 118.665C187.971 118.44 190.287 117.544 191.408 116.124C192.006 115.452 192.304 114.556 192.304 113.659C192.304 113.36 192.454 113.136 192.753 113.061C193.052 113.061 193.276 113.211 193.35 113.51C193.425 114.705 193.052 115.826 192.304 116.722C190.96 118.366 188.494 119.412 185.058 119.636C184.759 119.71 184.535 119.71 184.236 119.71Z" fill="#231F20"/>
<path d="M102.058 200.544C102.058 200.544 98.3974 213.767 84.4271 207.043C70.4568 200.32 69.1868 202.187 69.1868 202.187C69.1868 202.187 50.8835 223.778 60.3713 232.294C69.8592 240.811 77.4046 223.778 77.4046 223.778C77.4046 223.778 88.1625 232.294 103.926 228.036C119.689 223.778 121.557 211.526 121.557 211.526" fill="white"/>
<path d="M65.7503 235.208C63.5838 235.133 61.492 234.237 59.9978 232.668C55.8889 229.007 56.1877 222.508 60.7449 213.767C63.0608 209.509 65.7503 205.549 68.8133 201.814C69.1121 201.366 71.3533 200.096 84.7259 206.52C89.059 208.612 92.7196 208.911 95.7826 207.566C100.19 205.549 101.685 200.394 101.685 200.394C101.759 200.096 102.133 200.021 102.357 200.096C102.581 200.17 102.73 200.394 102.656 200.693C102.581 200.917 101.087 206.296 96.1562 208.537C92.869 210.032 88.8348 209.733 84.203 207.492C71.951 201.59 69.7098 202.411 69.5603 202.561C68.4397 203.98 51.9294 224.077 60.6702 231.921C62.762 233.789 64.8538 234.461 67.0203 234.013C72.7728 232.817 76.807 223.628 76.8817 223.554C76.9564 223.404 77.1058 223.33 77.2552 223.255C77.4046 223.18 77.554 223.255 77.7035 223.33C85.3236 228.484 94.8861 230.053 103.776 227.513C118.942 223.404 120.959 211.526 121.034 211.451C121.034 211.152 121.333 210.928 121.631 211.003C121.93 211.003 122.154 211.302 122.08 211.6V211.675C122.08 211.825 119.913 224.301 104.075 228.559C95.1103 231.099 85.473 229.605 77.6287 224.6C76.5828 226.691 72.6981 233.938 67.3191 235.059C66.7215 235.133 66.1985 235.208 65.7503 235.208Z" fill="#231F20"/>
<path d="M119.838 55.8356C119.838 55.8356 116.999 10.3388 89.1336 3.09224C61.2678 -4.15438 28.8448 4.88521 34.5226 17.2866C44.6828 39.5494 77.6287 21.7691 85.5477 26.9986C93.4667 32.2281 104.598 58.9733 104.598 58.9733" fill="white"/>
<path d="M104.449 59.4216C104.224 59.4216 104.075 59.2722 104 59.1227C103.926 58.8239 92.869 32.5269 85.1741 27.3721C82.6341 25.6539 77.031 26.6251 70.4568 27.671C57.9059 29.6881 40.798 32.4522 33.9996 17.5108C32.7296 14.8213 33.1778 12.0571 35.2696 9.59179C42.1427 1.44869 66.6467 -3.25787 89.2083 2.64401C117.149 9.96533 120.287 55.3874 120.361 55.8356C120.361 56.1345 120.137 56.3586 119.913 56.3586C119.614 56.3586 119.39 56.2092 119.39 55.9103C119.39 55.4621 116.252 10.7124 89.0589 3.6152C71.1291 -1.09136 44.0851 0.776325 36.1661 10.2642C34.3731 12.4307 33.9996 14.7466 35.0455 17.0625C41.545 31.3316 57.5324 28.7169 70.4568 26.6251C77.1804 25.5792 83.0076 24.608 85.8465 26.5504C93.7655 31.8546 104.598 57.6286 105.046 58.7492C105.121 59.048 105.046 59.3469 104.747 59.4216C104.598 59.3469 104.523 59.4216 104.449 59.4216Z" fill="#231F20"/>
<path d="M113.339 47.1696C113.339 47.1696 102.581 12.2066 92.7943 8.91948C83.0077 5.63236 46.1022 -0.941885 47.9699 12.5054C50.2858 29.3893 75.4622 17.3614 83.7547 20.5738C92.0472 23.7862 104.673 48.1408 104.673 48.1408L113.339 47.1696Z" fill="#D1D3D4"/>
<path d="M62.6873 194.268C63.2849 196.211 63.3596 197.854 62.6873 199.049C58.5784 205.848 50.7341 199.049 50.7341 199.049C50.7341 199.049 43.2634 193.969 34.1491 182.39C25.0348 170.81 26.5289 167.224 28.2472 164.012C28.9943 162.742 31.6837 160.65 31.6837 160.65C29.8161 160.949 28.0231 161.771 26.5289 162.891C21.7477 166.552 22.3453 176.712 34.1491 189.935C45.9528 203.158 57.0842 209.434 62.6873 205.325C67.3191 201.963 68.1409 197.555 65.8997 192.176C64.7791 192.774 63.7332 193.521 62.6873 194.268Z" fill="white"/>
<path d="M58.5036 206.968C52.3029 206.968 43.2633 200.992 33.7008 190.159C26.3794 181.867 22.6441 174.097 23.167 168.121C23.3165 165.879 24.3624 163.788 26.1553 162.368C28.2471 160.799 31.2354 159.903 31.8331 160.127C31.9825 160.202 32.1319 160.351 32.1319 160.501C32.1319 160.65 32.0572 160.874 31.9078 160.949C31.1607 161.546 29.1436 163.19 28.6207 164.161C27.0518 167 25.2588 170.212 34.4478 181.942C43.4127 193.372 50.8835 198.452 50.9582 198.527C51.0329 198.601 54.9924 201.963 58.5036 201.365C60.0724 201.067 61.4172 200.095 62.1643 198.676C62.6872 197.779 62.6872 196.285 62.0896 194.343C62.0148 194.119 62.0896 193.895 62.3137 193.745C62.986 193.297 63.7331 192.774 64.4055 192.326L65.5261 191.579C65.7502 191.429 66.049 191.504 66.2732 191.728V191.803C68.6638 197.705 67.6179 202.187 62.8366 205.624C61.6413 206.52 60.0724 206.968 58.5036 206.968ZM29.5172 161.696C28.546 162.069 27.6495 162.592 26.8277 163.19C25.2588 164.46 24.3624 166.253 24.2876 168.27C23.7647 173.798 27.5001 181.568 34.5225 189.487C46.1769 202.561 57.1589 208.612 62.3884 204.727C66.572 201.739 67.6179 197.929 65.6755 192.774L65.1526 193.148C64.5549 193.596 63.9572 194.044 63.3596 194.418C63.8825 196.509 63.8825 198.078 63.2102 199.199C62.3137 200.842 60.6701 202.038 58.8024 202.411C54.7682 203.084 50.6593 199.498 50.4352 199.348C50.4352 199.348 42.8898 194.119 33.7755 182.614C24.1382 170.362 26.1553 166.701 27.8736 163.713C28.2471 162.966 28.8448 162.293 29.5172 161.696Z" fill="#231F20"/>
<path d="M60.8196 161.696C60.8196 161.696 65.3768 164.983 67.0203 172.528C68.6639 180.074 64.555 189.188 50.6594 199.05C50.6594 199.05 54.3201 203.532 62.4632 202.187C62.4632 202.187 74.2669 189.786 74.5658 177.982C74.8646 166.178 64.032 156.541 64.032 156.541L60.8196 161.696Z" fill="white"/>
<path d="M59.4001 202.86C53.2741 202.86 50.4352 199.423 50.2858 199.274C50.1364 199.05 50.1364 198.751 50.3605 198.527C62.6873 189.786 68.2903 180.821 66.4973 172.529C64.9285 165.282 60.5207 162.07 60.5207 162.07C60.2966 161.92 60.2219 161.621 60.3713 161.397L63.5837 156.168C63.6584 156.018 63.8079 155.944 63.9573 155.944C64.1067 155.944 64.2561 155.944 64.4055 156.093C64.8538 156.467 75.4622 166.029 75.1634 177.908C74.8645 189.786 63.4343 201.963 62.9114 202.486C62.8367 202.561 62.762 202.636 62.6125 202.636C61.5666 202.785 60.5207 202.86 59.4001 202.86ZM51.4812 199.05C52.6018 200.096 56.0383 202.636 62.239 201.59C63.4343 200.245 73.7439 188.665 74.1175 177.833C74.4163 167.822 66.1985 159.231 64.1814 157.214L61.5666 161.547C62.762 162.518 66.1985 165.88 67.6179 172.379C68.888 178.356 67.095 187.844 51.4812 199.05Z" fill="#231F20"/>
<path d="M110.799 129.348C110.799 129.348 88.9843 131.664 76.807 137.491C64.6297 143.318 61.4173 147.203 61.4173 147.203C61.4173 147.203 53.2742 151.909 51.2571 155.794C49.24 159.679 52.8259 168.868 56.9348 169.988C61.0437 171.109 65.0032 168.046 65.0032 168.046C65.0032 168.046 63.6585 164.759 66.2733 162.817C68.888 160.874 71.0545 164.983 71.0545 164.983C72.474 164.61 73.6693 163.788 74.4911 162.592C75.8358 160.65 74.4911 156.466 74.4911 156.466C74.4911 156.466 94.5126 145.783 107.437 147.502" fill="white"/>
<path d="M58.8025 170.736C58.1301 170.736 57.4577 170.661 56.7854 170.511C54.9177 169.988 53.05 167.971 51.6306 164.983C50.4352 162.294 49.464 158.185 50.7341 155.57C52.6765 151.685 60.1472 147.277 61.0437 146.754C61.5666 146.157 65.2273 142.496 76.5828 136.968C88.6854 131.141 110.5 128.75 110.724 128.75C111.023 128.75 111.247 128.899 111.322 129.198C111.322 129.497 111.172 129.721 110.873 129.796C110.649 129.796 88.9842 132.112 77.1058 137.939C65.2273 143.766 61.8655 147.502 61.8655 147.502C61.7908 147.576 61.7908 147.576 61.716 147.576C61.6413 147.651 53.6477 152.208 51.78 155.943C50.8835 157.811 51.1823 161.248 52.6765 164.46C53.8718 167.15 55.5153 168.943 57.0842 169.391C60.2966 170.213 63.4343 168.345 64.4055 167.747C63.7332 165.805 64.4055 163.564 65.9744 162.294C66.6467 161.771 67.4685 161.547 68.2903 161.696C69.7844 161.995 70.8303 163.564 71.2786 164.236C72.3992 163.862 73.3704 163.115 74.1175 162.144C75.0887 160.725 74.4163 157.587 74.0428 156.466C73.9681 156.242 74.0428 155.943 74.2669 155.869C75.0887 155.421 94.5873 145.111 107.512 146.904C107.81 146.979 107.96 147.203 107.96 147.502C107.885 147.8 107.661 147.95 107.362 147.95C95.7079 146.381 77.9275 155.196 75.1634 156.616C75.4622 157.736 76.1346 160.949 75.014 162.742C74.1175 164.087 72.7727 164.983 71.2039 165.357C70.9798 165.431 70.7556 165.282 70.6062 165.058C70.6062 165.058 69.4856 162.966 68.0662 162.667C67.5432 162.592 67.0203 162.667 66.572 163.041C64.3308 164.759 65.3767 167.523 65.4514 167.673C65.5261 167.897 65.4514 168.121 65.302 168.27C63.4343 169.839 61.1184 170.661 58.8025 170.736Z" fill="#231F20"/>
<path d="M102.282 130.618C102.282 130.618 110.799 147.726 132.24 142.421C152.037 137.565 147.63 116.797 147.63 116.797L102.282 130.618Z" fill="#FD6500"/>
<path d="M147.63 116.722C147.63 116.722 151.963 137.491 132.24 142.347C129.625 143.019 127.01 143.393 124.321 143.393C115.207 143.467 106.765 138.537 102.357 130.618L147.63 116.722ZM147.63 115.676C147.555 115.676 147.405 115.676 147.331 115.751L101.983 129.572C101.685 129.646 101.46 129.871 101.311 130.169C101.162 130.468 101.162 130.767 101.311 131.066C101.386 131.215 108.109 144.438 124.246 144.438C127.01 144.438 129.774 144.065 132.464 143.393C153.008 138.312 148.675 116.797 148.675 116.573C148.601 116.274 148.451 116.05 148.152 115.9C148.003 115.751 147.854 115.676 147.63 115.676Z" fill="#231F20"/>
<path d="M100.863 43.5835C113.787 40.8941 147.779 47.543 156.296 74.8859C167.8 112.09 151.066 122.848 127.16 130.468C90.7772 142.048 68.0662 127.629 65.0779 95.281C62.0896 62.9327 85.473 46.7212 100.863 43.5835Z" fill="white"/>
<path d="M104.15 134.951C95.4091 134.951 87.8637 132.934 81.7377 128.825C71.8763 122.325 65.9744 110.745 64.4803 95.3558C61.492 63.0822 84.5018 46.4225 100.713 43.1354C107.138 41.7906 118.867 42.6871 130.372 47.5431C139.785 51.5026 151.963 59.4963 156.669 74.8113C168.846 114.107 148.825 124.118 127.234 130.991C118.942 133.606 111.172 134.951 104.15 134.951ZM100.937 44.1065C85.0995 47.319 62.6126 63.6052 65.5262 95.2064C66.9456 110.297 72.6981 121.578 82.3353 127.928C93.1679 135.1 108.632 135.772 127.01 129.945C153.457 121.503 166.605 109.849 155.773 75.0354C151.141 60.0939 139.262 52.3244 130.073 48.4396C118.718 43.6583 107.063 42.8365 100.937 44.1065Z" fill="#231F20"/>
<path d="M87.266 57.9274C87.266 57.9274 46.1769 26.9239 26.753 41.4918C7.32912 56.0598 -13.1407 91.3216 13.9034 94.4593C32.6549 96.6258 35.3444 66.1453 44.2346 63.7546C53.1247 61.364 78.7493 71.5989 78.7493 71.5989" fill="white"/>
<path d="M15.6963 95.1318C15.024 95.1318 14.4263 95.0571 13.7539 95.0571C6.58204 94.2353 2.17431 91.1723 0.754871 85.8681C-2.53225 73.7655 11.5874 52.2498 26.3795 41.1931C34.5226 35.1418 47.6711 36.0383 64.4802 43.8826C72.5486 47.7673 80.3182 52.3245 87.5648 57.6287C87.7889 57.7781 87.8636 58.1517 87.7142 58.3758C87.5648 58.5999 87.1913 58.6746 86.9671 58.4505C86.5936 58.1517 45.9528 27.8952 27.0519 42.0149C12.7828 52.698 -1.26223 74.0643 1.80078 85.644C3.0708 90.4252 7.1797 93.2641 13.9034 94.0112C25.0348 95.2812 30.339 84.6728 34.8961 75.3344C37.8097 69.4325 40.3498 64.2777 44.0104 63.3065C52.9753 60.8411 77.8528 70.7025 78.8987 71.1507C79.1976 71.2254 79.2723 71.599 79.1976 71.8231C79.1229 72.0472 78.7493 72.1966 78.5252 72.1219C78.3011 72.0472 52.9753 61.9617 44.3092 64.3524C41.0968 65.2489 38.7062 70.1795 35.8673 75.8573C31.609 84.4486 26.3048 95.1318 15.6963 95.1318Z" fill="#231F20"/>
<path d="M84.5765 64.95C85.5476 63.157 84.8006 60.8411 83.0076 59.8699C73.2209 54.9392 45.0563 41.1183 37.5108 43.0607C28.3218 45.4514 6.7314 63.5305 7.85201 74.4378C8.97262 85.3451 15.9204 89.0805 22.0464 82.7303C28.1724 76.3802 38.0338 59.4964 42.4415 58.824C46.1022 58.301 71.8015 64.5765 80.4676 66.743C82.1111 67.1165 83.8294 66.3694 84.5765 64.95Z" fill="#D1D3D4"/>
<path d="M109.742 94.228C110.96 93.718 110.939 90.8982 109.697 87.9297C108.454 84.9612 106.459 82.9681 105.241 83.478C104.023 83.9879 104.043 86.8077 105.286 89.7762C106.529 92.7448 108.524 94.7379 109.742 94.228Z" fill="#231F20"/>
<path d="M143.081 80.3308C144.299 79.8209 144.279 77.0011 143.036 74.0326C141.793 71.0641 139.798 69.071 138.58 69.5809C137.362 70.0908 137.383 72.9106 138.625 75.8791C139.868 78.8477 141.863 80.8407 143.081 80.3308Z" fill="#231F20"/>
<path d="M134.332 88.3333C135.153 90.2757 133.883 93.6375 131.044 94.7581C128.206 95.8787 124.993 94.4593 124.171 92.5916C123.35 90.7239 125.292 88.9309 128.131 87.8103C130.97 86.6897 133.584 86.3909 134.332 88.3333Z" fill="#231F20"/>
<path d="M117.747 108.504C116.402 108.504 115.132 108.205 113.936 107.683C109.977 105.815 108.632 101.482 108.558 101.258C108.483 100.959 108.707 100.735 108.931 100.66C109.155 100.585 109.454 100.735 109.529 100.959C109.529 101.034 110.799 105.068 114.385 106.711C116.701 107.757 119.465 107.683 122.677 106.263C132.763 101.93 132.09 97.9706 132.09 97.8959C132.016 97.6718 132.09 97.5223 132.314 97.3729C132.464 97.2235 132.688 97.2235 132.837 97.2982C132.912 97.2982 137.768 99.7636 144.417 97.1488C151.066 94.534 151.813 85.7186 151.813 85.6439C151.813 85.345 152.037 85.1209 152.336 85.1956C152.635 85.1956 152.859 85.4945 152.784 85.7933C152.784 86.1668 151.962 95.3558 144.716 98.1947C139.113 100.436 134.705 99.3153 132.987 98.643C132.763 100.287 131.269 103.723 122.976 107.309C121.407 108.056 119.614 108.43 117.747 108.504Z" fill="#231F20"/>
<path d="M132.24 97.9706C132.016 97.9706 131.866 97.8211 131.791 97.6717L130.671 94.9823C130.596 94.6834 130.671 94.3846 130.97 94.3099C131.269 94.2352 131.567 94.3099 131.642 94.6087L132.763 97.2982C132.837 97.597 132.763 97.8959 132.464 97.9706C132.389 97.9706 132.314 97.9706 132.24 97.9706Z" fill="#231F20"/>
<path d="M77.3299 224.301C77.2552 224.301 77.1058 224.301 77.0311 224.226C75.9852 223.479 70.681 219.669 70.3822 217.801C70.3074 217.502 70.5316 217.278 70.8304 217.203C71.1292 217.129 71.3533 217.353 71.4281 217.652C71.5775 218.698 75.1634 221.686 77.7035 223.404C77.9276 223.554 78.0023 223.927 77.8529 224.151C77.6288 224.226 77.4794 224.301 77.3299 224.301Z" fill="#231F20"/>
<path d="M188.868 204.653C188.868 204.653 186.029 202.262 177.064 212.273C168.099 222.284 168.772 225.122 175.122 224.077C181.472 223.031 194.994 210.106 188.868 204.653Z" fill="#D1D3D4"/>
<path d="M70.7556 129.497C63.2849 129.497 55.9636 127.331 49.7629 123.222C49.5388 123.072 49.4641 122.699 49.6882 122.475C49.9123 122.25 50.2111 122.176 50.4353 122.4C59.3254 128.227 70.3074 129.945 80.5423 127.181C80.8411 127.106 81.14 127.256 81.2147 127.555C81.2894 127.853 81.14 128.152 80.8411 128.227C77.4793 129.049 74.1175 129.497 70.7556 129.497Z" fill="#231F20"/>
<path d="M134.63 135.1C134.406 135.1 134.257 134.951 134.182 134.801C134.033 134.577 134.182 134.204 134.406 134.129C143.072 130.319 144.492 122.848 144.492 122.773C144.567 122.475 144.791 122.325 145.089 122.325C145.388 122.4 145.538 122.624 145.538 122.923C145.463 123.222 144.044 130.991 134.855 135.1C134.78 135.1 134.705 135.1 134.63 135.1Z" fill="#231F20"/>
</svg>
