<svg width="279" height="250" viewBox="0 0 279 250" fill="none" xmlns="http://www.w3.org/2000/svg">
<path d="M273.539 178.057H5.19104V234.624H273.539V178.057Z" fill="white"/>
<path d="M273.539 235.067H5.19101C4.93791 235.067 4.74809 234.877 4.68481 234.561V177.994C4.68481 177.74 4.87464 177.551 5.19101 177.487H273.539C273.792 177.487 273.982 177.677 274.045 177.994V234.561C273.982 234.877 273.792 235.067 273.539 235.067ZM5.63393 234.118H273.033V178.5H5.63393V234.118Z" fill="#D1D3D4"/>
<path d="M3.54576 178.057H275.121C276.513 178.057 277.652 179.196 277.652 180.588V184.7C277.652 186.093 276.513 187.231 275.121 187.231H3.54576C2.15371 187.231 1.01477 186.093 1.01477 184.7V180.588C1.07805 179.196 2.21699 178.057 3.54576 178.057Z" fill="white"/>
<path d="M275.121 187.674H3.54581C1.90067 187.674 0.571899 186.346 0.571899 184.701V180.588C0.571899 178.943 1.90067 177.614 3.54581 177.614H275.121C276.766 177.614 278.095 178.943 278.095 180.588V184.701C278.095 186.346 276.766 187.674 275.121 187.674ZM3.54581 178.563C2.40687 178.563 1.52102 179.449 1.52102 180.588V184.701C1.52102 185.839 2.40687 186.725 3.54581 186.725H275.121C276.26 186.725 277.146 185.839 277.146 184.701V180.588C277.146 179.449 276.26 178.563 275.121 178.563H3.54581Z" fill="#D1D3D4"/>
<path d="M107.949 163.503H23.9203V177.55H107.949V163.503Z" fill="#231F20"/>
<path d="M107.949 178.057H23.9203C23.6672 178.057 23.4141 177.867 23.4141 177.55V163.504C23.4141 163.25 23.6039 162.997 23.9203 162.997H107.949C108.202 162.997 108.455 163.187 108.455 163.504V177.55C108.392 177.804 108.202 178.057 107.949 178.057ZM24.4265 177.108H107.506V164.01H24.3632L24.4265 177.108Z" fill="#231F20"/>
<path d="M107.949 163.503H62.1382V177.55H107.949V163.503Z" fill="white"/>
<path d="M107.949 178.057H62.1383C61.8852 178.057 61.6321 177.867 61.6321 177.614C61.6321 177.614 61.6321 177.614 61.6321 177.55V163.504C61.6321 163.25 61.8219 163.061 62.1383 162.997H107.949C108.202 162.997 108.455 163.187 108.455 163.504V177.55C108.392 177.804 108.202 178.057 107.949 178.057ZM62.5812 177.108H107.443V164.01H62.5812V177.108Z" fill="#231F20"/>
<path d="M106.747 153.379H38.6633V163.82H106.747V153.379Z" fill="#231F20"/>
<path d="M106.747 164.263H38.6633C38.4102 164.263 38.1571 164.073 38.1571 163.757V153.316C38.1571 153.063 38.3469 152.81 38.6633 152.81H106.684C106.937 152.81 107.19 153 107.19 153.316V163.757C107.19 164.01 107 164.263 106.747 164.263ZM39.1695 163.314H106.304V153.822H39.2328L39.1695 163.314Z" fill="#231F20"/>
<path d="M106.747 153.379H77.7039V163.82H106.747V153.379Z" fill="white"/>
<path d="M106.747 164.263H77.7038C77.4507 164.263 77.2609 164.073 77.1976 163.82V153.38C77.1976 153.127 77.3875 152.937 77.6406 152.873H106.684C106.937 152.873 107.19 153.063 107.19 153.38V163.82C107.19 164.01 107 164.263 106.747 164.263ZM78.1468 163.314H106.241V153.823H78.1468V163.314Z" fill="#231F20"/>
<path d="M97.0658 143.255H29.0455V153.696H97.0658V143.255Z" fill="#231F20"/>
<path d="M97.1291 154.139H29.0455C28.7924 154.139 28.5393 153.949 28.5393 153.633V143.192C28.5393 142.939 28.7291 142.749 28.9822 142.686H97.0025C97.2556 142.686 97.5087 142.876 97.5087 143.192V153.633C97.572 153.886 97.3822 154.139 97.1291 154.139ZM29.5517 153.19H96.6861V143.698H29.615L29.5517 153.19Z" fill="#231F20"/>
<path d="M97.1291 143.255H68.0861V153.696H97.1291V143.255Z" fill="white"/>
<path d="M97.1291 154.139H68.086C67.8329 154.139 67.6431 153.949 67.5798 153.633V143.192C67.5798 142.939 67.7697 142.686 68.086 142.686H97.1291C97.3822 142.686 97.6353 142.876 97.6353 143.192V153.633C97.572 153.886 97.3822 154.139 97.1291 154.139ZM68.529 153.19H96.6229V143.698H68.529V153.19Z" fill="#231F20"/>
<path d="M65.0721 148.686C65.1588 147.466 64.24 146.407 63.02 146.32C61.8 146.233 60.7406 147.152 60.6539 148.372C60.5672 149.592 61.486 150.651 62.706 150.738C63.9261 150.825 64.9854 149.906 65.0721 148.686Z" fill="white"/>
<path d="M62.8975 151.228C61.4422 151.228 60.24 150.026 60.24 148.571C60.24 147.115 61.4422 145.913 62.8975 145.913C64.3528 145.913 65.5551 147.115 65.5551 148.571C65.5551 150.026 64.3528 151.228 62.8975 151.228ZM62.8975 146.799C61.9484 146.799 61.1891 147.558 61.1891 148.507C61.1891 149.457 61.9484 150.216 62.8975 150.216C63.8466 150.216 64.6059 149.457 64.6059 148.507C64.6059 147.622 63.8466 146.799 62.8975 146.799Z" fill="#231F20"/>
<path d="M45.3072 162.491C45.0541 162.491 44.8643 162.301 44.801 162.048V155.025C44.801 154.772 44.9908 154.518 45.3072 154.518C45.6236 154.518 45.8134 154.708 45.8134 155.025V162.048C45.8134 162.238 45.5603 162.491 45.3072 162.491Z" fill="#D1D3D4"/>
<path d="M54.4187 176.411C54.1656 176.411 53.9125 176.222 53.9125 175.905V164.895C53.9125 164.642 54.1023 164.389 54.4187 164.389C54.735 164.389 54.9249 164.579 54.9249 164.895V175.905C54.9249 176.158 54.6718 176.411 54.4187 176.411Z" fill="#D1D3D4"/>
<path d="M67.2633 20.3761L70.9332 17.5288L86.3723 23.9828L117.757 13.3527L120.604 17.6553L87.7643 36.5112L67.2633 20.3761Z" fill="#D1D3D4"/>
<path d="M78.7794 70.8694L66.0612 18.9842L86.2458 27.7161L122.755 14.4917L132.12 66.8831L98.5211 78.4624L78.7794 70.8694Z" fill="white"/>
<path d="M98.521 78.9053C98.4577 78.9053 98.3945 78.9053 98.3312 78.842L78.5895 71.249C78.4629 71.1857 78.3364 71.0592 78.2731 70.9327L65.6182 19.0474C65.5549 18.7943 65.6815 18.5412 65.9345 18.4779C66.0611 18.4779 66.1244 18.4779 66.2509 18.4779L86.309 27.2099L122.565 14.0487C122.818 13.9854 123.072 14.112 123.198 14.3651V14.4284L132.563 66.8198C132.626 67.0729 132.436 67.2627 132.246 67.326L98.6476 78.9053C98.6476 78.9685 98.5843 78.9685 98.521 78.9053ZM79.159 70.553L98.521 77.9561L131.55 66.5667L122.376 15.1244L86.4355 28.159C86.309 28.2222 86.1824 28.2222 86.0559 28.159L66.7571 19.87L79.159 70.553Z" fill="#231F20"/>
<path d="M95.6104 76.1845C95.3573 76.1845 95.1675 75.9947 95.1675 75.8048L85.8661 27.7794C85.8029 27.5263 85.9927 27.2732 86.2458 27.2099C86.4989 27.1466 86.752 27.3364 86.8153 27.5895L96.1166 75.615C96.1799 75.8681 95.9901 76.1212 95.737 76.1845H95.6104Z" fill="#231F20"/>
<path d="M109.025 87.7636C109.025 87.7636 105.291 81.9423 105.861 80.4238C106.304 78.9052 106.557 77.3233 106.747 75.8047L102.824 76.7538C102.824 76.7538 98.7742 66.5666 98.3313 63.0232C97.8884 59.4798 90.2954 62.7701 90.0423 65.4909C89.7892 68.2117 89.6626 75.2985 91.814 79.3481C93.9653 83.3977 100.103 93.2052 100.103 93.2052" fill="white"/>
<path d="M100.04 93.6483C99.8497 93.6483 99.7232 93.585 99.6599 93.3952C99.5966 93.3319 93.5223 83.5244 91.3709 79.4748C89.2196 75.4252 89.2196 68.465 89.536 65.3645C89.7891 63.2132 93.5855 60.9986 96.2431 60.9353C97.6984 60.9353 98.6475 61.6313 98.8373 62.8968C99.217 65.934 102.381 74.223 103.14 76.1212L106.683 75.2987C106.81 75.2354 107 75.2987 107.126 75.4252C107.253 75.5518 107.316 75.6783 107.253 75.8049C107.126 77.3867 106.81 79.0319 106.367 80.5505C106.114 81.373 107.696 84.6633 109.467 87.4474C109.594 87.6372 109.531 87.9536 109.341 88.0801C109.151 88.2067 108.835 88.1434 108.708 87.9536C108.075 86.9412 104.912 81.8792 105.481 80.2341C105.861 78.9686 106.114 77.7031 106.24 76.3743L102.95 77.1336C102.697 77.1969 102.507 77.0703 102.381 76.8805C102.191 76.4376 98.2679 66.5668 97.8882 63.0234C97.825 62.7703 97.7617 61.8844 96.2431 61.8844C93.9652 61.8844 90.6749 63.9092 90.4851 65.4278C90.1687 68.465 90.1687 75.1721 92.1935 79.0319C94.3448 83.0814 100.419 92.7625 100.482 92.889C100.609 93.0788 100.546 93.3952 100.356 93.5218C100.229 93.585 100.166 93.6483 100.04 93.6483Z" fill="#231F20"/>
<path d="M225.07 93.3952C225.007 93.3952 224.944 93.3952 224.881 93.3952C224.627 93.2686 224.501 93.0155 224.627 92.7624C228.551 82.8916 226.146 70.553 218.806 62.8335C218.427 62.4539 218.047 62.0742 217.667 61.6313C215.2 59.1003 212.352 56.2529 212.542 52.5197C212.605 51.7604 212.732 51.0011 212.922 50.2418C213.048 49.6724 213.175 49.1029 213.238 48.5334C213.554 44.9268 210.517 41.8896 207.923 39.9913C207.29 39.5484 206.657 39.1055 206.025 38.5993L205.961 38.536C203.367 36.7643 200.71 34.9294 199.065 32.1453C197.166 28.855 196.85 25.1218 196.597 21.5151C196.344 18.3514 196.154 15.1244 194.762 12.277C190.016 2.34292 178.121 -1.89649 168.186 2.84911C166.858 3.48186 165.655 4.24116 164.517 5.127C162.112 6.96197 160.214 9.3664 159.075 12.1505C157.809 15.2509 157.493 18.7311 157.366 22.0846C156.987 29.2979 156.354 36.3214 152.305 42.2692C151.039 43.9776 149.71 45.6228 148.255 47.2047C145.597 50.1786 143.066 52.8994 142.307 56.506C141.548 60.3658 142.94 64.2888 146.04 66.6933C146.23 66.8831 146.23 67.1995 146.104 67.3893C145.977 67.5791 145.661 67.5791 145.471 67.4526C142.117 64.795 140.535 60.4923 141.421 56.3162C142.244 52.5197 144.838 49.6091 147.559 46.5719C149.014 45.0533 150.343 43.4715 151.545 41.763C155.405 36.005 156.101 29.1714 156.417 22.0846C156.607 18.6678 156.86 15.0611 158.189 11.8341C159.455 8.92348 161.416 6.3925 163.947 4.43098C173.059 -2.65578 186.156 -1.07392 193.243 7.97436C194.192 9.17658 194.952 10.4421 195.648 11.8341C197.103 14.808 197.356 18.1616 197.546 21.3886C197.799 24.8687 198.052 28.4754 199.887 31.5758C201.406 34.1701 204 35.9418 206.468 37.6502L206.531 37.7135C207.164 38.1564 207.86 38.5993 208.492 39.1055C211.277 41.1936 214.567 44.4839 214.187 48.5334C214.124 49.1662 213.997 49.7356 213.871 50.3684C213.681 51.0644 213.554 51.7604 213.491 52.5197C213.365 55.8733 216.022 58.5308 218.363 60.9353C218.743 61.3149 219.186 61.7578 219.565 62.1375C227.158 70.1101 229.626 82.8283 225.577 93.0788C225.387 93.2686 225.26 93.3952 225.07 93.3952Z" fill="#231F20"/>
<path d="M150.849 63.7826L131.107 107.126L111.872 85.6124L95.8002 93.2053C95.8002 93.2053 131.234 146.672 140.978 141.8C150.723 136.928 164.706 93.7748 164.706 93.7748L150.849 63.7826Z" fill="#FD6500"/>
<path d="M176.412 51.7605C176.412 51.7605 154.962 54.1017 149.963 64.4788C144.965 74.8558 146.04 122.945 146.04 122.945L225.134 131.423C225.134 131.423 223.109 91.8767 219.376 74.3496C215.642 56.8225 204.253 45.18 176.412 51.7605Z" fill="#FD6500"/>
<path d="M170.085 57.0123L178.057 99.8492L189.067 52.8994L170.085 57.0123Z" fill="#231F20"/>
<path d="M178.057 100.355C177.804 100.355 177.614 100.166 177.614 99.9757L169.642 57.0755C169.579 56.8224 169.768 56.5693 170.021 56.506L189.004 52.3932C189.194 52.3932 189.32 52.3932 189.447 52.5197C189.573 52.6463 189.637 52.7728 189.573 52.9627L178.563 99.9757C178.5 100.229 178.31 100.355 178.057 100.355ZM170.654 57.3286L178.121 97.5713L188.434 53.5321L170.654 57.3286Z" fill="#231F20"/>
<path d="M170.148 44.4839L170.085 57.0122C170.085 57.0122 171.35 63.9725 178.943 61.8844C183.499 60.5556 187.232 57.2654 189.067 52.8994L188.181 31.2595C188.118 30.3736 184.448 26.8935 184.575 18.9209C179.133 18.8576 174.008 16.5797 170.401 12.5302C170.401 12.5302 167.237 17.2758 165.845 18.7943C164.77 19.9333 163.757 21.1988 162.998 22.5908C161.732 24.9953 161.732 28.0324 161.796 30.69C161.796 33.8537 162.112 37.0175 162.745 40.1179C164.01 45.9392 170.148 44.4839 170.148 44.4839Z" fill="white"/>
<path d="M176.222 62.707C174.957 62.707 173.755 62.3906 172.742 61.7579C171.16 60.6822 170.021 58.9738 169.578 57.0755V57.0123L169.642 45.0533C167.997 45.3064 166.288 44.9901 164.833 44.1675C163.441 43.2184 162.555 41.7631 162.302 40.1812C161.669 37.0807 161.353 33.8537 161.353 30.69C161.29 28.0957 161.226 24.932 162.555 22.401C163.378 21.009 164.327 19.6802 165.466 18.5413C166.794 17.0859 169.958 12.3403 169.958 12.3403C170.021 12.2138 170.211 12.1505 170.338 12.1505C170.464 12.1505 170.654 12.2138 170.717 12.3403C174.261 16.2634 179.26 18.478 184.575 18.5413C184.701 18.5413 184.828 18.6045 184.891 18.6678C184.954 18.7311 185.018 18.8576 185.018 18.9842C184.891 22.8439 185.903 26.6404 187.928 29.9307C188.245 30.3103 188.434 30.8165 188.561 31.3227C188.561 31.4493 189.447 52.9627 189.447 52.9627C189.447 53.026 189.447 53.0892 189.447 53.1525C187.548 57.645 183.752 61.0618 179.006 62.3906C178.184 62.5804 177.235 62.707 176.222 62.707ZM170.528 56.949C170.907 58.5941 171.856 60.0494 173.248 60.9986C174.704 61.8844 176.539 62.011 178.817 61.4415C183.183 60.176 186.726 57.0123 188.561 52.8361C187.675 31.2595 187.675 31.2595 187.675 31.2595C187.549 30.9431 187.359 30.6267 187.169 30.3736C185.081 27.0833 184.005 23.2869 184.068 19.4271C178.88 19.2373 174.008 17.0859 170.401 13.3527C169.072 15.3775 167.68 17.2758 166.162 19.174C165.086 20.2497 164.137 21.5152 163.378 22.8439C162.112 25.1851 162.175 28.0957 162.239 30.69C162.239 33.7905 162.555 36.9542 163.188 39.9914C163.378 41.3834 164.2 42.5856 165.339 43.4082C167.364 44.6737 169.958 44.1042 170.021 44.1042C170.148 44.0409 170.338 44.1042 170.401 44.1675C170.528 44.2308 170.591 44.4206 170.591 44.5471L170.528 56.949Z" fill="#231F20"/>
<path d="M170.211 50.6215C170.211 50.6215 175.273 50.8746 178.563 47.4578C181.854 44.0409 181.348 40.6874 181.348 40.6874C181.348 40.6874 175.843 44.3573 170.148 44.4839L170.211 50.6215Z" fill="#231F20"/>
<path d="M170.464 51.0644H170.211C169.958 51.0644 169.768 50.8746 169.768 50.6215L169.705 44.4838C169.705 44.2307 169.895 44.0409 170.148 43.9776C175.653 43.8511 181.031 40.3077 181.095 40.2444C181.284 40.1179 181.601 40.1812 181.727 40.371C181.791 40.4342 181.791 40.4975 181.791 40.5608C181.791 40.6874 182.297 44.2307 178.88 47.7741C175.906 50.8746 171.54 51.0644 170.464 51.0644ZM170.654 44.9268L170.717 50.1153C171.983 50.052 175.716 49.7356 178.247 47.0781C179.766 45.5595 180.715 43.598 180.905 41.4466C179.26 42.5223 175.083 44.6737 170.654 44.9268Z" fill="#231F20"/>
<path d="M171.54 26.1342C171.54 26.1342 167.49 32.1453 168.503 33.1576C169.515 34.17 172.109 33.5373 172.109 33.5373" fill="white"/>
<path d="M170.338 34.2334C169.515 34.2967 168.756 34.0436 168.123 33.4742C167.68 32.968 167.49 31.3228 171.16 25.8179C171.287 25.5648 171.54 25.5015 171.793 25.6281C172.046 25.7546 172.11 26.0077 171.983 26.2608L171.92 26.3241C169.958 29.298 168.503 32.2719 168.819 32.7781C169.452 33.4742 171.35 33.1578 171.983 32.968C172.236 32.9047 172.489 33.0312 172.552 33.2843C172.616 33.5374 172.489 33.7905 172.236 33.8538C171.603 34.1069 170.971 34.2334 170.338 34.2334Z" fill="#231F20"/>
<path d="M167.301 36.5114C167.301 36.5114 170.907 41.8264 177.235 36.7012L167.301 36.5114Z" fill="white"/>
<path d="M171.92 39.4219C171.603 39.4219 171.35 39.4219 171.034 39.3586C169.325 39.1055 167.87 38.1564 166.858 36.7644C166.731 36.5746 166.794 36.2582 166.984 36.1316C167.174 36.0051 167.49 36.0684 167.617 36.2582C168.503 37.3971 169.768 38.1564 171.16 38.4095C172.932 38.6626 174.83 37.9666 176.855 36.3215C177.045 36.1316 177.361 36.1949 177.488 36.3847C177.678 36.5746 177.614 36.8909 177.425 37.0808C175.59 38.6626 173.755 39.4219 171.92 39.4219Z" fill="#231F20"/>
<path d="M155.342 122.438C155.025 122.438 154.836 122.185 154.836 121.932L157.809 72.3248C157.809 72.0717 158.063 71.8818 158.316 71.8818C158.569 71.8818 158.759 72.1349 158.759 72.388L155.785 121.995C155.785 122.185 155.595 122.375 155.342 122.438Z" fill="#231F20"/>
<path d="M163.061 184.89C142.434 184.89 123.008 183.055 122.819 183.055L122.123 182.992L113.834 157.492V157.366C113.327 152.747 112.884 148.318 115.605 145.027C118.01 142.053 122.819 140.345 130.538 139.586L153.76 134.84L154.456 120.667L213.048 127.184L213.238 127.817C215.453 134.46 217.035 141.231 217.92 148.191C219.566 161.795 217.414 171.35 211.593 176.601C205.519 182.106 189.194 184.89 163.061 184.89Z" fill="#231F20"/>
<path d="M135.094 159.707C135.094 159.707 131.297 141.357 117.44 145.47C103.583 149.583 134.398 217.92 134.398 222.412C134.398 226.905 122.629 240.446 122.629 240.446C125.982 240.256 129.336 239.939 132.689 239.433C136.359 238.737 146.357 224.184 146.736 222.602C147.116 221.02 139.776 172.868 135.094 159.707Z" fill="white"/>
<path d="M122.629 240.952C122.439 240.952 122.312 240.825 122.186 240.699C122.123 240.509 122.123 240.319 122.249 240.193C126.299 235.573 133.892 225.892 133.892 222.476C133.892 221.463 131.867 216.148 129.336 209.378C121.996 189.826 109.657 157.113 114.34 147.622C114.909 146.419 115.922 145.47 117.187 145.091C120.794 144.015 124.084 144.331 126.931 146.04C133.259 149.773 135.284 158.948 135.473 159.644C139.966 172.362 147.559 220.767 147.116 222.792C146.8 224.247 136.676 239.243 132.689 239.939C129.399 240.446 126.046 240.762 122.629 240.952ZM121.363 145.344C120.098 145.344 118.769 145.534 117.567 145.913C116.554 146.23 115.732 146.989 115.289 148.001C110.733 157.176 123.451 190.902 130.285 208.998C133.322 217.034 134.904 221.273 134.904 222.412C134.904 226.399 126.362 236.839 123.704 239.876C126.678 239.686 129.652 239.37 132.563 238.927C135.916 238.294 145.914 223.931 146.23 222.476C146.42 221.147 139.397 173.185 134.651 159.834C134.651 159.77 132.626 150.406 126.552 146.799C124.97 145.85 123.198 145.344 121.363 145.344Z" fill="#231F20"/>
<path d="M128.134 248.608C127.627 248.608 127.121 248.608 126.615 248.608C122.755 248.418 118.136 247.406 116.681 245.064C116.111 244.179 116.048 243.103 116.491 242.154C118.01 238.61 121.743 238.294 121.869 238.294C121.996 238.294 129.462 237.851 132.689 237.155C134.524 236.776 140.852 229.183 145.85 222.033L147.053 220.324L147.685 222.349C149.077 227.158 150.153 231.967 150.912 236.902C152.368 245.824 151.925 246.077 151.229 246.393C150.786 246.583 149.9 246.71 146.546 246.963L145.344 247.026H145.218C144.015 247.026 143.446 245.95 143.193 244.748C142.244 245.634 141.168 246.33 139.966 246.836C137.815 247.722 132.689 248.608 128.134 248.608Z" fill="#231F20"/>
<path d="M166.984 222.665C166.984 222.665 160.973 163.25 158.189 152.177C155.405 141.104 139.46 137.624 134.588 151.038C129.715 164.453 153.76 217.16 151.925 222.665C150.09 228.17 143.13 239.053 143.13 239.053C143.13 239.053 150.533 242.723 155.848 239.053C161.163 235.384 166.984 222.665 166.984 222.665Z" fill="white"/>
<path d="M150.216 241.205C147.686 241.141 145.218 240.572 142.94 239.496C142.813 239.433 142.75 239.307 142.687 239.18C142.624 239.053 142.687 238.927 142.75 238.8C142.813 238.674 149.647 227.917 151.482 222.475C152.115 220.514 148.761 210.643 145.155 200.203C138.89 181.916 131.108 159.201 134.145 150.785C136.296 144.901 140.852 141.547 146.42 141.8C152.305 142.18 157.24 146.293 158.632 151.987C161.416 162.997 167.364 221.969 167.427 222.539C167.427 222.602 167.427 222.729 167.364 222.792C167.111 223.298 161.479 235.7 156.101 239.37C154.393 240.635 152.305 241.268 150.216 241.205ZM143.889 238.864C145.597 239.56 151.355 241.648 155.658 238.674C160.53 235.257 165.972 223.867 166.541 222.539C166.225 219.438 160.467 162.934 157.809 152.241C156.481 146.925 151.925 143.129 146.483 142.749C141.358 142.496 137.119 145.597 135.157 151.102C132.246 159.201 140.282 182.676 146.167 199.886C150.659 213.048 153.19 220.577 152.494 222.792C150.786 227.791 145.218 236.712 143.889 238.864Z" fill="#231F20"/>
<path d="M143.826 250C138.194 250 136.612 249.367 135.916 248.924C135.22 248.481 134.271 247.722 134.145 246.646C134.018 245.381 134.841 244.432 135.916 243.356C136.169 243.04 136.486 242.723 136.739 242.407C138.764 240.003 142.624 238.231 142.75 238.168L143.13 237.978L143.573 238.168C144.585 238.484 145.597 238.61 146.673 238.547C149.204 238.484 151.672 237.978 154.013 237.092C160.594 234.687 166.035 222.412 166.035 222.286L167.364 219.248L168.06 222.475C169.768 230.701 170.338 239.117 169.832 247.532L169.768 248.291L169.009 248.481C167.554 248.861 166.035 249.051 164.517 249.241C164.327 249.241 164.2 249.241 164.01 249.177C163.441 249.051 162.808 248.861 162.682 245.001C161.29 246.646 159.455 248.545 157.999 248.988C156.354 249.43 149.394 250 143.826 250Z" fill="#231F20"/>
<path d="M215.389 153.443C216.085 154.518 218.427 177.234 218.427 177.234C218.427 177.234 244.179 179.575 244.559 177.74C244.939 175.905 231.398 171.35 231.398 171.35L227.158 153.316" fill="white"/>
<path d="M239.37 178.942C237.472 178.942 234.815 178.879 231.335 178.689C224.944 178.31 218.427 177.74 218.363 177.74C218.11 177.74 217.984 177.55 217.92 177.297C217.035 168.692 215.453 154.708 214.946 153.696C214.82 153.506 214.883 153.19 215.073 153.063C215.263 152.937 215.579 153 215.706 153.19C216.402 154.265 218.173 171.033 218.806 176.791C230.259 177.804 242.534 178.373 243.99 177.614C243.61 176.791 238.738 174.387 231.208 171.856C231.082 171.792 230.955 171.666 230.892 171.539L226.652 153.506C226.589 153.253 226.779 153 227.032 152.937C227.285 152.873 227.538 153.063 227.601 153.316L231.778 171.096C236.966 172.868 245.382 176.032 245.002 177.93C244.939 178.31 244.812 178.942 239.37 178.942Z" fill="#231F20"/>
<path d="M218.68 73.084L236.27 158.695L212.036 159.327C212.036 159.327 203.62 113.959 203.114 107.126C202.608 100.292 218.68 73.084 218.68 73.084Z" fill="#FD6500"/>
<path d="M164.959 30.437C167.965 30.437 170.401 28.0007 170.401 24.9953C170.401 21.99 167.965 19.5537 164.959 19.5537C161.954 19.5537 159.518 21.99 159.518 24.9953C159.518 28.0007 161.954 30.437 164.959 30.437Z" fill="white"/>
<path d="M164.959 30.943H164.706C161.416 30.8165 158.885 28.0324 159.012 24.7421C159.075 21.4518 161.796 18.8575 165.023 18.8575C168.313 18.9208 170.907 21.6416 170.907 24.8686C170.907 24.9952 170.907 25.0585 170.907 25.185C170.781 28.412 168.123 30.943 164.959 30.943ZM164.959 19.9965C162.175 19.9965 159.961 22.2111 159.961 24.9952C159.961 27.7793 162.175 29.9939 164.959 29.9939C167.617 29.9939 169.832 27.8425 169.958 25.185C170.085 22.4009 167.933 20.123 165.149 19.9965H164.959Z" fill="#231F20"/>
<path d="M176.982 20.4395C174.198 20.4395 171.983 22.6541 171.983 25.4382C171.983 28.2222 174.198 30.4369 176.982 30.4369C179.639 30.4369 181.854 28.2855 181.98 25.628C182.107 22.8439 179.956 20.566 177.171 20.4395H176.982Z" fill="white"/>
<path d="M177.045 30.9431H176.792C173.628 30.8798 171.097 28.2855 171.16 25.0585C171.224 21.8948 173.818 19.3638 177.045 19.4271C180.209 19.4903 182.74 22.0846 182.676 25.3116C182.613 28.4121 180.082 30.8798 177.045 30.9431ZM177.045 20.9457C174.514 21.0089 172.489 23.097 172.552 25.628C172.616 28.159 174.704 30.1838 177.235 30.1205C179.766 30.0572 181.79 27.9691 181.727 25.4382C181.664 22.9704 179.702 21.0089 177.235 20.9457H177.045Z" fill="#231F20"/>
<path d="M138.068 115.858C137.941 115.858 137.815 115.794 137.688 115.668L114.34 88.7129C114.15 88.523 114.213 88.2067 114.403 88.0168C114.593 87.827 114.909 87.8903 115.099 88.0801L138.511 115.035C138.7 115.225 138.637 115.541 138.447 115.668C138.321 115.858 138.194 115.858 138.068 115.858Z" fill="#231F20"/>
<path d="M95.1042 36.0049L117.25 27.5261L119.275 37.7133L96.9392 44.8634L95.1042 36.0049Z" fill="#D1D3D4"/>
<path d="M165.405 24.4402C165.433 23.7418 165.144 23.1635 164.76 23.1484C164.376 23.1333 164.042 23.6872 164.015 24.3855C163.987 25.0839 164.276 25.6623 164.66 25.6774C165.044 25.6924 165.378 25.1385 165.405 24.4402Z" fill="#231F20"/>
<path d="M177.787 25.1162C177.814 24.4179 177.525 23.8395 177.141 23.8244C176.757 23.8093 176.423 24.3632 176.396 25.0616C176.369 25.7599 176.658 26.3383 177.042 26.3534C177.426 26.3685 177.759 25.8146 177.787 25.1162Z" fill="#231F20"/>
<path d="M182.423 25.7545C183.562 25.6912 193.496 25.0585 193.813 29.3612L182.423 25.7545Z" fill="#231F20"/>
<path d="M193.876 29.8675C193.623 29.8675 193.433 29.6777 193.37 29.4246C193.053 25.5015 182.866 26.1976 182.487 26.1976C182.233 26.2608 181.98 26.071 181.917 25.8179C181.854 25.5648 182.044 25.3117 182.297 25.2484H182.36C184.258 25.1219 193.876 24.6157 194.319 29.298C194.382 29.6144 194.192 29.8042 193.876 29.8675Z" fill="#231F20"/>
<path d="M183.752 30.1205C183.942 29.1713 184.448 28.3488 185.144 27.716C185.84 27.1466 186.599 26.7669 187.422 26.4505C187.865 26.2607 188.308 26.1342 188.814 26.1342C189.13 26.1974 189.51 26.2607 189.763 26.4505C190.522 26.7669 191.092 27.3364 191.408 28.0957C191.598 28.7284 191.661 29.3612 191.535 29.9939C191.471 30.6899 191.345 31.386 191.092 32.0187C190.079 34.7395 186.979 36.1316 184.258 35.0559C184.258 35.0559 184.195 35.0559 184.195 34.9926" fill="white"/>
<path d="M186.22 35.9418C185.461 35.9418 184.764 35.8152 184.068 35.4989C183.815 35.4356 183.689 35.1192 183.752 34.8661C183.815 34.613 184.132 34.4865 184.385 34.5498C184.385 34.5498 184.385 34.5498 184.448 34.5498C186.916 35.5621 189.7 34.3599 190.712 31.8922V31.8289C190.965 31.1962 191.092 30.5634 191.155 29.9307C191.219 29.3612 191.219 28.7918 191.029 28.2223C190.712 27.5895 190.206 27.0833 189.573 26.8302C189.32 26.7037 189.067 26.5771 188.814 26.5771C188.371 26.5771 187.992 26.7037 187.612 26.8302C186.853 27.0833 186.093 27.5263 185.461 28.0325C184.828 28.6019 184.385 29.3612 184.195 30.1838C184.132 30.4369 183.879 30.6267 183.626 30.5634C183.372 30.5002 183.183 30.2471 183.246 29.994C183.436 28.9816 184.005 28.0325 184.828 27.3364C185.587 26.767 186.41 26.324 187.295 26.0077C187.802 25.7546 188.371 25.628 188.877 25.6913C189.257 25.7546 189.637 25.8811 190.016 26.0709C190.839 26.4506 191.535 27.1466 191.915 27.9692C192.168 28.6652 192.231 29.3612 192.104 30.1205C192.041 30.8798 191.915 31.5758 191.598 32.2719C191.029 33.7272 189.953 34.8661 188.498 35.4989C187.802 35.8152 187.042 36.0051 186.22 35.9418Z" fill="#231F20"/>
<path d="M211.656 157.746C211.403 157.746 211.213 157.556 211.213 157.366L196.913 70.2368C196.85 69.9837 197.04 69.7306 197.293 69.6673C197.546 69.604 197.799 69.7938 197.862 70.0469L212.099 157.176C212.162 157.429 211.973 157.682 211.719 157.746H211.656Z" fill="#231F20"/>
<path d="M168.819 136.359C168.756 136.359 168.693 136.359 168.629 136.295C162.998 133.764 155.152 135.599 154.772 135.726C154.519 135.789 154.266 135.599 154.203 135.346C154.139 135.093 154.329 134.84 154.582 134.777C154.899 134.714 163.061 132.752 169.009 135.41C169.262 135.536 169.325 135.789 169.262 136.042C169.136 136.232 169.009 136.359 168.819 136.359Z" fill="white"/>
<path d="M198.938 119.844C198.875 119.844 198.748 119.844 198.685 119.781L186.852 112.884C186.599 112.757 186.536 112.441 186.663 112.251C186.789 111.998 187.106 111.935 187.295 112.061L199.128 118.958C199.381 119.085 199.444 119.401 199.318 119.591C199.254 119.781 199.128 119.844 198.938 119.844Z" fill="#231F20"/>
<path d="M160.467 115.731C160.214 115.731 159.961 115.541 159.961 115.288C159.961 115.162 160.024 114.972 160.151 114.909L167.237 109.214C167.427 109.024 167.743 109.087 167.933 109.277C168.123 109.467 168.06 109.783 167.87 109.973L160.783 115.668C160.72 115.668 160.593 115.731 160.467 115.731Z" fill="#231F20"/>
<path d="M73.9072 212.541C76.1851 210.516 78.7161 208.871 81.4369 207.606C81.69 215.642 78.3997 223.108 75.3625 228.17H65.5549" fill="white"/>
<path d="M75.3625 228.613H65.5549C65.3018 228.613 65.0487 228.423 65.0487 228.107C65.0487 227.79 65.2385 227.601 65.5549 227.601H75.1094C77.8302 222.918 80.9939 215.895 80.9939 208.238C78.5262 209.441 76.2483 210.959 74.2235 212.794C74.0337 212.984 73.7173 212.921 73.5275 212.731C73.3377 212.541 73.401 212.225 73.5908 212.035C75.8687 210.01 78.4629 208.302 81.247 207.036C81.5001 206.973 81.7532 207.036 81.8798 207.289C81.8798 207.353 81.8798 207.416 81.8798 207.416C82.1329 215.705 78.6528 223.298 75.7421 228.233C75.6789 228.55 75.5523 228.613 75.3625 228.613Z" fill="#231F20"/>
<path d="M59.8602 214.693C62.2647 202.101 72.1355 194.192 72.1355 194.192C73.9705 200.139 74.6032 206.34 73.9072 212.541C73.401 217.856 72.2621 223.108 70.4904 228.17H59.9235" fill="white"/>
<path d="M70.4903 228.613H59.9235C59.6704 228.613 59.4173 228.423 59.4173 228.107C59.4173 227.79 59.6071 227.601 59.9235 227.601H70.174C71.8191 222.665 72.9581 217.603 73.4643 212.415C74.097 206.53 73.5275 200.582 71.8824 194.951C69.7943 196.786 62.3279 204.126 60.3031 214.756C60.3031 215.009 60.05 215.199 59.7969 215.199C59.5438 215.199 59.354 214.946 59.354 214.693V214.629C61.7584 201.974 71.6926 193.875 71.8191 193.812C71.9457 193.685 72.0722 193.685 72.262 193.749C72.3886 193.812 72.5151 193.938 72.5784 194.065C74.4134 200.076 75.0461 206.34 74.4134 212.604C73.9072 217.983 72.7682 223.235 70.9965 228.36C70.87 228.486 70.6802 228.613 70.4903 228.613Z" fill="#231F20"/>
<path d="M54.6085 228.17H63.9731C64.0364 225.386 63.4037 221.21 60.4298 215.768L59.797 214.693C54.3554 205.518 49.42 205.644 49.42 205.644C47.3319 215.262 51.7611 223.867 54.6085 228.17Z" fill="white"/>
<path d="M63.9731 228.613H54.6084C54.4819 228.613 54.292 228.55 54.2288 228.423C51.3814 224.057 46.8256 215.389 48.977 205.518C49.0402 205.328 49.2301 205.138 49.4199 205.138C49.6097 205.138 54.735 205.138 60.2399 214.439C60.4297 214.756 60.6195 215.135 60.8093 215.515C63.9731 221.21 64.4793 225.513 64.416 228.17C64.416 228.423 64.2262 228.613 63.9731 228.613ZM54.8615 227.664H63.5302C63.5302 225.133 62.8974 221.147 60.05 215.958L59.4806 214.946C55.1146 207.606 51.1283 206.34 49.8628 206.15C48.0279 215.325 52.1407 223.488 54.8615 227.664Z" fill="#231F20"/>
<path d="M56.3168 243.039H74.6665L77.6404 228.17H53.3429L56.3168 243.039Z" fill="#231F20"/>
<path d="M74.6665 243.483H56.3169C56.0638 243.483 55.8739 243.293 55.8739 243.103L52.9 228.233C52.9 228.107 52.9 227.98 53.0266 227.854C53.0899 227.727 53.2797 227.664 53.4062 227.664H77.7037C77.8302 227.664 77.9568 227.727 78.0833 227.854C78.1466 227.98 78.2099 228.107 78.1466 228.233L75.1727 243.103C75.1094 243.293 74.9196 243.483 74.6665 243.483ZM56.6965 242.533H74.2869L77.0709 228.613H53.9757L56.6965 242.533Z" fill="#231F20"/>
</svg>
