<svg width="701" height="555" viewBox="0 0 701 555" fill="none" xmlns="http://www.w3.org/2000/svg">
<circle cx="463" cy="344" r="344" fill="white"/>
<path d="M483.809 143.181C483.352 135.714 481.676 128.248 478.628 121.391C478.171 120.324 477.257 119.105 476.19 119.714C476.8 122.914 477.409 126.114 477.866 129.314C471.924 125.352 466.895 120.476 462.781 114.686C462.476 114.076 462.019 113.467 461.409 113.162C460.8 112.857 460.038 113.01 459.581 113.619C459.428 114.229 459.581 114.838 459.886 115.295C461.562 118.495 463.695 121.391 465.981 124.133C463.086 119.867 456.99 112.552 455.619 114.229C454.247 115.905 457.752 122.61 460.8 126.571L453.485 118.495C452.876 117.733 451.657 116.971 450.895 117.581C450.133 118.191 450.59 119.41 451.2 120.171L456.228 127.791C453.638 125.505 450.133 120.019 448.152 121.391C446.171 122.762 452.114 129.771 455.924 132.362C459.733 135.105 463.847 137.238 467.047 140.743C468.876 143.029 470.552 145.467 471.771 148.057" fill="white"/>
<path d="M471.924 148.971C471.619 148.971 471.162 148.819 471.009 148.514C469.79 145.924 468.266 143.486 466.438 141.352C464.152 139.067 461.714 137.086 458.971 135.41C457.752 134.648 456.686 133.886 455.619 133.124C452.724 130.991 447.086 125.048 447.086 122C447.086 121.391 447.39 120.781 447.847 120.476C448.609 120.019 449.676 120.019 450.438 120.476C449.524 118.952 449.524 117.429 450.438 116.667C451.352 115.905 453.028 116.21 454.247 117.733L455.162 118.648C454.4 116.514 453.943 114.533 454.857 113.619C455.162 113.162 455.771 113.01 456.228 113.01C457.143 113.162 457.905 113.467 458.514 114.076C458.514 113.771 458.514 113.467 458.666 113.314C458.819 112.857 459.276 112.4 459.886 112.248C460.495 111.943 461.257 112.095 461.866 112.4C462.628 112.857 463.238 113.467 463.695 114.229C467.2 119.257 471.619 123.676 476.647 127.333C476.19 124.895 475.733 122.457 475.276 120.171C475.276 119.714 475.428 119.41 475.733 119.105C476.19 118.8 476.8 118.8 477.409 118.952C478.324 119.41 479.086 120.324 479.543 121.238C482.59 128.248 484.266 135.714 484.724 143.333C484.724 143.943 484.419 144.4 483.809 144.4C483.2 144.4 482.743 144.095 482.743 143.486C482.286 136.171 480.609 128.857 477.714 122C477.714 121.848 477.562 121.695 477.409 121.543C477.867 124.133 478.324 126.724 478.781 129.314C478.781 129.771 478.628 130.076 478.324 130.381C478.019 130.533 477.562 130.533 477.257 130.381C471.314 126.419 465.981 121.391 461.866 115.448C461.562 114.991 461.257 114.533 460.8 114.229C460.647 114.229 460.495 114.229 460.343 114.229C460.343 114.229 460.343 114.381 460.647 114.991C461.409 116.514 462.324 117.886 463.238 119.257C465.066 121.543 466.59 123.676 466.59 123.829C466.895 124.286 466.59 124.895 466.133 125.2C465.828 125.352 465.371 125.352 465.067 125.048C463.847 123.524 462.628 122 461.562 120.476C458.971 117.429 456.686 115.295 455.924 115.295C455.467 116.057 457.447 121.238 461.409 126.267C461.714 126.724 461.714 127.333 461.257 127.638C460.8 127.943 460.19 127.943 459.886 127.486L452.571 119.41C451.962 118.8 451.505 118.495 451.352 118.648C451.2 118.8 451.352 119.257 451.809 120.019L456.838 127.638C457.143 128.095 456.99 128.705 456.533 129.01C456.228 129.314 455.619 129.162 455.314 129.01C454.4 128.095 453.486 127.181 452.724 126.267C451.809 125.2 449.067 122.152 448.457 122.61C448.305 123.676 452.267 129.162 456.228 132.057C457.295 132.819 458.514 133.581 459.581 134.343C462.476 136.019 465.067 138.152 467.505 140.591C469.486 142.876 471.009 145.467 472.381 148.21C472.686 148.667 472.533 149.276 471.924 149.581C471.771 149.581 471.619 149.733 471.467 149.733L471.924 148.971Z" fill="#231F20"/>
<path d="M608.305 121.848C606.933 116.362 605.562 110.876 604.19 105.543C599.924 87.8667 593.828 69.581 574.324 64.0953C568.533 62.4191 562.743 63.181 558.933 68.362C554.971 65.0096 548.876 66.8382 544.914 69.8858C535.924 76.8953 531.809 87.7143 531.505 98.5334C531.2 110.876 529.981 123.829 523.428 134.495C520.686 138.914 517.333 142.724 515.048 147.295C512.762 151.867 511.695 157.505 514.133 162.076C515.657 164.514 517.79 166.648 520.228 168.171C532.724 176.4 548.571 177.162 563.505 176.248C578.743 175.181 595.352 171.676 604.952 159.943C609.219 154.762 611.657 148.362 612.267 141.81C612.876 134.343 609.981 128.705 608.305 121.848Z" fill="white"/>
<path d="M554.057 177.619C543.086 177.619 530.286 175.943 519.619 169.086C517.028 167.562 514.743 165.276 513.219 162.686C510.933 158.419 511.238 152.629 514.133 146.991C515.505 144.248 517.181 141.657 519.009 139.219C520.228 137.543 521.447 135.867 522.514 134.038C529.067 123.219 530.286 109.962 530.438 98.5334C530.743 86.3429 535.771 75.6762 544.152 69.1239C548.266 66.0762 554.362 64.0953 558.628 66.9905C562.286 62.7239 567.771 61.3524 574.476 63.181C594.286 68.8191 600.686 87.8667 604.952 105.391L609.067 121.695C609.524 123.524 610.133 125.352 610.59 127.029C612.114 131.752 613.486 136.324 613.028 141.81C612.419 148.667 609.828 155.219 605.562 160.552C597.333 170.61 583.924 175.943 563.352 177.314C560.609 177.467 557.409 177.619 554.057 177.619ZM553.905 67.4477C550.857 67.6001 547.962 68.6667 545.524 70.6477C537.447 76.7429 532.724 86.9524 532.571 98.5334C532.419 110.114 531.2 123.829 524.343 135.105C523.276 136.933 521.905 138.762 520.686 140.438C518.857 142.876 517.333 145.314 515.962 147.905C514.743 150.343 512.152 156.438 515.047 161.771C516.419 164.057 518.4 166.038 520.838 167.41C534.247 176.248 551.619 176.095 563.505 175.333C583.467 173.962 596.419 168.933 604.343 159.333C608.457 154.305 610.895 148.21 611.352 141.657C611.809 136.476 610.438 132.21 609.067 127.486C608.457 125.657 608 123.981 607.543 122L603.428 105.695C599.009 88.0191 593.067 70.3429 574.324 65.0096C569.905 63.7905 563.962 63.4858 560 68.8191C559.847 68.9715 559.543 69.1239 559.39 69.2762C559.086 69.2762 558.781 69.2762 558.628 69.1239C557.105 68.0572 555.581 67.4477 553.905 67.4477Z" fill="#231F20"/>
<path d="M531.657 142.571C526.629 147.295 515.505 164.819 505.448 183.105L484.419 139.067L467.352 144.095C467.352 144.095 482.743 225.467 497.981 228.971C513.219 232.476 533.943 196.057 533.943 196.057L557.257 132.057C557.257 132.057 539.124 135.562 531.657 142.571Z" fill="#F6DA67"/>
<path d="M591.695 253.2C589.409 230.8 584.685 177.924 589.105 164.057C594.743 146.381 594.438 141.352 589.105 139.676C583.771 138 568.99 128.552 559.086 139.676C559.086 139.676 536.076 152.629 531.505 175.029C528.305 191.333 532.114 232.476 534.4 253.2H591.695Z" fill="white"/>
<path d="M546.133 253.2C547.809 228.514 549.943 209.467 550.552 201.695C551.314 190.419 554.209 157.81 557.409 143.638C561.371 134.8 559.695 132.21 559.695 132.21C559.695 132.21 536.99 129.01 530.286 162.838C528.609 171.219 524.8 213.276 520.686 253.2H546.133Z" fill="#F6DA67"/>
<path d="M557.409 126.114L557.257 143.486C557.257 143.486 559.086 153.238 569.6 150.191C576 148.362 581.181 143.791 583.619 137.695L582.4 107.524C581.028 102.191 580.419 96.8572 580.724 91.3715C567.924 91.2191 557.714 81.4667 557.714 81.4667C557.714 81.4667 553.295 88.1715 551.314 90.3048C549.79 91.8286 548.419 93.6572 547.352 95.4858C545.524 98.8381 545.676 103.105 545.676 106.762C545.676 111.181 546.133 115.6 547.048 119.867C548.724 128.095 557.257 126.114 557.409 126.114Z" fill="white"/>
<path d="M565.79 151.867C563.962 151.867 562.286 151.41 560.762 150.495C558.476 148.971 556.8 146.533 556.19 143.791L556.343 127.333C554.057 127.638 551.771 127.181 549.79 125.962C547.809 124.591 546.438 122.457 546.133 120.171C545.219 115.752 544.762 111.333 544.762 106.914C544.762 103.257 544.609 98.8382 546.438 95.181C547.505 93.2001 549.028 91.3715 550.552 89.6953C552.381 87.7143 556.8 81.162 556.8 81.0096C557.105 80.5524 557.714 80.4001 558.171 80.7048L558.324 80.8572C558.476 81.0096 568.381 90.3048 580.724 90.4572C581.028 90.4572 581.181 90.6096 581.486 90.762C581.638 90.9143 581.79 91.2191 581.79 91.5239C581.486 96.4001 582.095 101.276 583.162 106.152C583.314 106.61 583.467 107.219 583.467 107.676C583.467 107.676 583.467 108.895 584.686 137.848C584.686 138 584.686 138.152 584.686 138.152C582.095 144.552 576.609 149.429 569.905 151.257C568.533 151.562 567.314 151.867 565.79 151.867ZM558.171 143.486C558.628 145.619 560 147.448 561.828 148.819C564.114 150.038 566.857 150.191 569.295 149.429C575.238 147.6 580.114 143.333 582.705 137.695C582.552 135.105 581.486 107.981 581.486 107.676C581.486 107.219 581.333 106.914 581.181 106.457C579.962 101.886 579.505 97.162 579.657 92.2858C568.99 91.6762 560.457 85.1239 557.714 82.8382C555.886 85.581 553.905 88.1715 551.924 90.762C550.4 92.2858 549.181 93.962 548.114 95.7905C546.438 98.9905 546.59 102.952 546.59 106.61C546.59 111.029 547.047 115.295 547.962 119.562C548.267 121.391 549.181 123.067 550.857 124.133C552.838 125.2 554.971 125.505 557.105 125.048C557.562 124.895 558.171 125.2 558.324 125.81C558.324 125.962 558.324 125.962 558.324 126.114L558.171 143.486Z" fill="#231F20"/>
<path d="M557.409 134.648C557.409 134.648 564.419 134.952 568.99 130.229C571.581 127.791 572.952 124.286 572.8 120.781C572.8 120.781 565.181 125.962 557.257 126.114L557.409 134.648Z" fill="#231F20"/>
<path d="M557.714 135.562H557.409C556.952 135.562 556.495 135.105 556.495 134.648L556.343 126.114C556.343 125.657 556.8 125.2 557.257 125.2C564.876 125.048 572.343 120.171 572.343 120.019C572.647 119.867 572.952 119.867 573.257 120.019C573.562 120.171 573.714 120.476 573.866 120.781C574.019 124.591 572.495 128.4 569.752 130.991C566.552 134.038 562.133 135.714 557.714 135.562ZM558.324 127.029V133.733C561.981 133.581 565.638 132.21 568.381 129.619C570.362 127.638 571.581 125.2 572.038 122.457C567.771 125.048 563.2 126.571 558.324 127.029Z" fill="#231F20"/>
<path d="M563.505 100.971C563.505 100.971 557.866 109.353 559.238 110.725C560.609 112.096 564.267 111.182 564.267 111.182" fill="white"/>
<path d="M561.829 112.706C560.609 112.858 559.39 112.401 558.476 111.639C556.952 109.963 560 104.781 562.743 100.667C563.048 100.21 563.657 100.057 564.114 100.362C564.572 100.667 564.724 101.276 564.419 101.734C561.829 105.543 559.848 109.658 560.152 110.572C560.762 111.182 562.895 111.029 564.267 110.725C564.724 110.572 565.334 110.877 565.334 111.334C565.486 111.791 565.181 112.401 564.724 112.553C563.657 112.553 562.743 112.706 561.829 112.706Z" fill="#231F20"/>
<path d="M552.954 99.578C552.994 98.5689 552.617 97.7348 552.112 97.7149C551.608 97.6951 551.166 98.4971 551.127 99.5062C551.087 100.515 551.464 101.35 551.969 101.369C552.473 101.389 552.914 100.587 552.954 99.578Z" fill="#231F20"/>
<path d="M568.727 98.36C568.767 97.3508 568.39 96.5166 567.886 96.4968C567.381 96.477 566.94 97.279 566.9 98.2882C566.861 99.2973 567.237 100.131 567.742 100.151C568.247 100.171 568.688 99.3691 568.727 98.36Z" fill="#231F20"/>
<path d="M559.695 115.753L564.115 114.533C564.115 114.533 565.029 121.086 562.591 121.696C560.152 122.305 559.695 115.753 559.695 115.753Z" fill="white"/>
<path d="M562.286 122.763C561.829 122.763 561.372 122.61 560.914 122.305C559.086 120.934 558.781 116.667 558.781 115.905C558.781 115.448 559.086 114.991 559.543 114.991L563.962 113.771C564.267 113.771 564.572 113.771 564.724 113.924C564.877 114.076 565.029 114.381 565.181 114.533C565.334 115.753 566.096 122.001 562.895 122.61C562.591 122.763 562.438 122.763 562.286 122.763ZM560.762 116.515C560.762 118.038 561.219 119.562 562.134 120.781C562.286 120.781 562.286 120.781 562.438 120.781C563.353 120.629 563.657 118.191 563.353 115.753L560.762 116.515Z" fill="#231F20"/>
<path d="M576.609 98.6858C577.828 95.6382 581.638 94.4191 584.686 95.0286C586.666 95.3334 588.343 96.8572 588.8 98.8382C589.105 100.057 589.105 101.276 588.8 102.495C588.495 104.781 587.733 106.914 586.666 108.895C586.209 109.962 585.447 110.724 584.533 111.486C583.314 112.248 581.79 112.095 580.724 111.181" fill="white"/>
<path d="M582.857 112.857C581.943 112.857 580.876 112.552 580.114 111.943C579.657 111.638 579.505 111.029 579.809 110.571C580.114 110.114 580.724 109.962 581.181 110.267C581.943 110.876 583.162 111.029 583.924 110.571C584.686 109.962 585.295 109.2 585.752 108.438C586.819 106.61 587.428 104.476 587.886 102.495C588.038 101.429 588.038 100.362 587.886 99.2953C587.428 97.7715 586.209 96.5524 584.533 96.2477C581.943 95.7905 578.59 96.7048 577.676 99.2953C577.524 99.7524 576.914 100.057 576.457 99.9048C576 99.7524 575.695 99.1429 575.848 98.6858C577.219 95.181 581.486 93.8096 584.99 94.4191C587.428 94.8762 589.257 96.7048 589.867 98.9905C590.171 100.362 590.171 101.733 589.867 102.952C589.562 105.238 588.8 107.524 587.581 109.657C586.971 110.876 586.209 111.791 585.143 112.552C584.228 112.705 583.619 112.857 582.857 112.857Z" fill="#231F20"/>
<path d="M613.79 253.2C613.638 252.438 613.638 251.676 613.638 251.067C611.809 230.343 613.638 160.095 609.219 146.076C607.085 139.371 584.685 134.495 584.685 134.495C584.685 134.495 570.819 208.4 565.333 253.2H613.79Z" fill="#F6DA67"/>
<path d="M609.219 146.076C609.219 146.076 648.228 228.971 632.381 234.457C625.828 236.591 572.952 237.657 572.952 237.657L566.857 212.514L610.438 205.81L609.219 146.076Z" fill="#F6DA67"/>
<path d="M552.076 110.114C546.286 110.114 541.562 105.391 541.562 99.6C541.562 93.8096 546.286 89.0858 552.076 89.0858C557.867 89.0858 562.59 93.8096 562.59 99.6C562.59 105.391 557.867 110.114 552.076 110.114ZM552.076 90.9143C547.352 90.9143 543.39 94.7239 543.39 99.6C543.39 104.476 547.2 108.286 552.076 108.286C556.8 108.286 560.762 104.476 560.762 99.6C560.762 94.7239 556.8 90.9143 552.076 90.9143Z" fill="#231F20"/>
<path d="M571.886 108.438C566.095 108.438 561.371 103.714 561.371 97.9238C561.371 92.1334 566.095 87.4096 571.886 87.4096C577.676 87.4096 582.4 92.1334 582.4 97.9238C582.4 103.714 577.828 108.438 571.886 108.438ZM571.886 89.2381C567.162 89.2381 563.2 93.0477 563.2 97.9238C563.2 102.8 567.009 106.61 571.886 106.61C576.609 106.61 580.571 102.8 580.571 97.9238C580.571 93.2 576.609 89.2381 571.886 89.2381Z" fill="#231F20"/>
<path d="M566.857 213.429C566.4 213.429 565.943 213.124 565.943 212.667C565.79 212.21 566.247 211.6 566.705 211.6L609.219 205.048L599.009 160.857C598.857 160.4 599.162 159.791 599.771 159.638C600.228 159.486 600.838 159.791 600.99 160.4L611.505 205.657C611.505 205.962 611.505 206.267 611.352 206.419C611.2 206.571 610.895 206.724 610.743 206.876L567.162 213.581L566.857 213.429Z" fill="#231F20"/>
<path d="M526.019 205.352C525.409 205.352 524.952 204.743 525.105 204.286C527.086 188.286 530.743 157.657 530.895 156.895L531.809 157.048L531.962 156.133C532.571 156.286 532.571 159.029 531.809 164.667L526.933 204.743C526.933 204.895 526.476 205.352 526.019 205.352Z" fill="#231F20"/>
<path d="M513.828 199.257C513.524 199.257 513.067 199.105 512.914 198.648L486.857 146.533C486.552 146.076 486.857 145.467 487.314 145.162C487.771 144.857 488.381 145.162 488.686 145.619L514.743 197.733C515.048 198.191 514.743 198.8 514.286 199.105C514.133 199.257 513.981 199.257 513.828 199.257Z" fill="#231F20"/>
<path d="M581.486 189.81C581.181 189.81 581.028 189.657 580.876 189.505C580.419 189.2 580.419 188.591 580.724 188.133L593.371 173.505L584.838 164.819C584.686 164.667 584.533 164.362 584.533 164.057C584.533 163.752 584.686 163.6 584.838 163.448L593.371 155.524C590.171 150.8 585.6 143.791 584.99 143.181C584.686 142.724 584.686 142.267 584.99 141.81C585.295 141.505 585.905 141.505 586.362 141.81C586.971 142.419 592.914 151.257 595.352 155.067C595.657 155.524 595.505 155.981 595.2 156.286L586.819 164.057L595.2 172.591C595.505 172.895 595.505 173.505 595.2 173.962L581.943 189.2C581.943 189.657 581.638 189.81 581.486 189.81Z" fill="#231F20"/>
<path d="M548.876 186.152C548.571 186.152 548.266 186 548.114 185.695L537.447 170.305C537.143 169.848 537.295 169.238 537.6 168.933L548.114 160.552L541.866 154C541.714 153.848 541.562 153.543 541.562 153.238C541.562 152.933 541.714 152.781 541.866 152.629L553.752 141.81C554.057 141.505 554.666 141.352 555.124 141.81C555.428 142.267 555.428 142.876 555.124 143.181L544 153.391L550.4 160.095C550.552 160.248 550.705 160.552 550.705 160.857C550.705 161.162 550.552 161.314 550.4 161.619L539.733 170.152L549.943 184.781C550.247 185.238 550.095 185.848 549.638 186.152C549.333 186 549.181 186.152 548.876 186.152Z" fill="#231F20"/>
<path d="M473.6 136.934C473.143 136.934 472.685 136.477 472.685 136.02C472.228 131.143 477.41 128.552 477.562 128.4C478.019 128.248 478.629 128.4 478.781 128.857C478.933 129.314 478.781 129.924 478.324 130.076C478.324 130.076 474.057 132.21 474.362 135.867C474.667 136.324 474.209 136.782 473.6 136.934Z" fill="#231F20"/>
<path d="M643.657 199.714H467.962V243.6H643.657V199.714Z" fill="white"/>
<path d="M643.505 244.667H467.962C467.352 244.667 467.048 244.21 467.048 243.752V199.867C467.048 199.257 467.505 198.952 467.962 198.952H643.657C644.267 198.952 644.571 199.41 644.571 199.867V243.752C644.571 244.21 644.114 244.667 643.505 244.667ZM468.876 242.686H642.59V200.629H468.876V242.686Z" fill="#231F20"/>
<path d="M636.038 243.6H475.428V465.771H636.038V243.6Z" fill="white"/>
<path d="M636.038 466.686H475.429C474.819 466.686 474.514 466.229 474.514 465.771V243.6C474.514 242.99 474.972 242.686 475.429 242.686H636.038C636.648 242.686 636.952 243.143 636.952 243.6V465.771C636.952 466.381 636.495 466.686 636.038 466.686ZM476.495 464.857H634.972V244.667H476.495V464.857Z" fill="#231F20"/>
<path d="M475.428 275.905L636.19 252.438L636.038 243.6H475.428V275.905Z" fill="#231F20"/>
<path d="M475.429 276.971C475.276 276.971 474.972 276.819 474.819 276.819C474.667 276.667 474.514 276.362 474.514 276.057V243.752C474.514 243.295 474.972 242.838 475.429 242.838H636.038C636.495 242.838 636.952 243.295 636.952 243.752L637.105 252.59C637.105 253.048 636.8 253.505 636.343 253.505L475.581 276.971H475.429ZM476.495 244.514V274.838L635.276 251.676L635.124 244.667L476.495 244.514Z" fill="#231F20"/>
<path d="M416.762 43.0668H64.1523V270.876H416.762V43.0668Z" fill="white"/>
<path d="M416.762 271.943H64.1522C63.5427 271.943 63.0856 271.486 63.0856 270.876V43.0667C63.0856 42.4571 63.5427 42 64.1522 42H416.762C417.371 42 417.828 42.4571 417.828 43.0667V270.876C417.828 271.486 417.371 271.943 416.762 271.943ZM65.2189 269.81H415.695V44.1333H65.2189V269.81Z" fill="#231F20"/>
<path d="M366.324 224.4H114.438C113.828 224.4 113.371 223.943 113.371 223.333C113.371 222.724 113.828 222.267 114.438 222.267H366.324C366.933 222.267 367.39 222.724 367.39 223.333C367.39 223.943 366.933 224.4 366.324 224.4Z" fill="#BDBDBD"/>
<path d="M366.324 239.029H114.438C113.828 239.029 113.371 238.571 113.371 237.962C113.371 237.352 113.828 236.895 114.438 236.895H366.324C366.933 236.895 367.39 237.352 367.39 237.962C367.39 238.571 366.933 239.029 366.324 239.029Z" fill="#BDBDBD"/>
<path d="M324.724 253.505H114.438C113.828 253.505 113.371 253.048 113.371 252.438C113.371 251.829 113.828 251.371 114.438 251.371H324.724C325.333 251.371 325.79 251.829 325.79 252.438C325.79 253.048 325.333 253.505 324.724 253.505Z" fill="#BDBDBD"/>
<path d="M487.314 363.371C489.448 350.114 511.391 346.914 510.324 362.457C510.172 367.943 508.038 373.124 504.381 377.086C500.572 380.895 494.476 382.724 489.6 380.591" fill="white"/>
<path d="M494.324 382.571C492.648 382.571 490.819 382.267 489.295 381.505C488.686 381.2 488.533 380.591 488.838 379.981C489.143 379.524 489.6 379.219 490.209 379.524C494.476 381.352 499.962 380.133 503.771 376.324C507.886 372.21 509.105 366.419 509.257 362.305C509.562 356.971 507.124 353.619 502.4 353.162C496.609 352.552 489.448 356.514 488.381 363.524C488.228 364.133 487.771 364.591 487.162 364.438C486.552 364.286 486.095 363.829 486.248 363.219C487.619 354.991 495.848 350.267 502.705 351.029C507.276 351.486 512 354.838 511.39 362.61C511.086 367.029 509.714 373.276 505.295 378C502.4 380.895 498.438 382.571 494.324 382.571Z" fill="#231F20"/>
<path d="M432.457 363.371C430.324 350.114 408.381 346.914 409.448 362.457C409.6 367.943 411.733 373.124 415.39 377.086C419.2 380.895 425.295 382.724 430.171 380.591" fill="white"/>
<path d="M425.6 382.571C421.486 382.571 417.524 380.743 414.629 377.848C410.057 373.276 408.686 367.029 408.533 362.457C407.924 354.838 412.648 351.486 417.219 350.876C424.076 350.114 432.305 354.838 433.676 363.067C433.829 363.676 433.371 364.286 432.762 364.286C432.152 364.438 431.543 363.981 431.543 363.371C430.476 356.514 423.314 352.4 417.524 353.01C412.8 353.619 410.362 356.819 410.667 362.152C410.971 366.267 412.19 371.905 416.152 376.171C419.809 379.981 425.448 381.352 429.714 379.371C430.324 379.219 430.933 379.524 431.086 379.981C431.238 380.438 431.086 381.048 430.629 381.352C428.952 382.267 427.276 382.571 425.6 382.571Z" fill="#231F20"/>
<path d="M495.848 364.286L492.038 325.276C492.038 325.276 481.524 312.324 459.886 312.324C438.248 312.324 427.733 325.276 427.733 325.276L426.057 359.714C426.057 376.629 430.476 386.838 437.029 392.629L435.352 429.505C435.352 429.505 441.295 442.457 458.667 442.457C468.571 442.762 477.714 437.886 483.048 429.505L481.524 396.133C488.381 392.171 493.257 383.486 495.848 364.286Z" fill="white"/>
<path d="M459.886 312.324C481.371 312.324 492.038 325.276 492.038 325.276L495.848 364.133C493.409 383.333 488.381 392.019 481.676 395.981L483.2 429.352C477.867 437.581 468.724 442.61 458.819 442.305C441.448 442.305 435.505 429.352 435.505 429.352L437.181 392.476C430.628 386.686 426.209 376.476 426.209 359.562L427.733 325.124C427.733 325.429 438.248 312.324 459.886 312.324ZM459.886 310.191C437.486 310.191 426.514 323.448 426.057 324.057C425.752 324.362 425.6 324.819 425.6 325.276L423.924 359.714C423.924 375.41 427.581 386.838 434.743 393.695L433.067 429.505C433.067 429.81 433.067 430.267 433.219 430.571C433.524 431.181 439.924 444.895 458.514 444.895C477.105 444.895 484.571 431.333 484.876 430.724C485.028 430.419 485.181 429.962 485.181 429.505L483.657 397.505C491.124 392.476 495.543 382.267 497.676 364.743C497.676 364.591 497.676 364.438 497.676 364.286L493.867 325.276C493.867 324.819 493.714 324.514 493.409 324.057C493.105 323.448 482.133 310.191 459.886 310.191Z" fill="#231F20"/>
<path d="M414.019 371.295C414.019 380.895 412.648 390.495 410.21 399.943C437.486 401.162 464.914 401.314 492.191 400.4C493.867 400.552 495.391 400.095 496.914 399.486C498.743 398.114 499.962 396.286 500.571 394.152C506.514 377.848 505.752 359.867 506.667 342.648C507.276 332.591 507.733 321.924 502.552 313.238C500.267 309.581 496.914 306.381 492.648 305.619C488.533 305.01 484.419 306.838 482.133 310.191C483.81 307.6 470.857 301.048 469.181 300.591C464.152 299.067 458.514 299.676 453.181 299.981C442.057 300.591 430.019 302.267 422.857 311.867C417.067 319.638 415.391 329.543 414.629 339.295C413.867 349.81 414.171 360.629 414.019 371.295Z" fill="white"/>
<path d="M457.753 402.076C441.753 402.076 425.905 401.771 410.057 401.01C409.752 401.01 409.448 400.857 409.143 400.552C408.991 400.248 408.838 399.943 408.991 399.638C411.429 390.343 412.648 380.895 412.8 371.295C412.953 367.333 412.952 363.219 412.952 359.257C412.952 352.705 412.953 345.848 413.562 339.143C414.172 330.61 415.695 319.638 421.943 311.257C429.41 301.2 441.905 299.676 453.181 298.914L454.553 298.762C459.581 298.457 464.762 298.152 469.638 299.524C470.553 299.829 480.153 304.248 482.743 307.905C485.486 305.314 489.143 304.095 492.952 304.705C497.524 305.771 501.333 308.667 503.619 312.781C509.257 322.076 508.495 333.505 507.886 342.8C507.733 346.61 507.581 350.267 507.429 354.076C506.972 367.638 506.514 381.657 501.638 394.457C501.029 396.895 499.505 399.029 497.524 400.4C495.848 401.162 494.172 401.619 492.343 401.467C480.762 401.924 469.333 402.076 457.753 402.076ZM411.581 398.876C438.248 399.943 465.372 400.095 492.038 399.333C493.41 399.333 494.933 399.181 496.305 398.571C497.829 397.352 498.895 395.676 499.505 393.848C504.076 381.352 504.686 367.486 505.143 354.076C505.295 350.267 505.448 346.457 505.6 342.8C506.21 331.829 506.362 322.076 501.638 314C499.81 310.495 496.457 307.905 492.495 306.991C488.838 306.381 485.181 308.057 483.048 310.952C482.743 311.41 481.981 311.562 481.524 311.257C481.067 310.952 480.914 310.191 481.219 309.733C481.067 308.057 471.162 302.419 468.876 301.81C464.457 300.438 459.429 300.895 454.553 301.2L453.181 301.352C442.514 301.962 430.476 303.486 423.619 312.781C417.676 320.857 416.305 331.371 415.695 339.6C415.238 346.152 415.238 353.01 415.086 359.562C415.086 363.676 415.086 367.638 414.933 371.752C414.933 380.743 413.714 389.886 411.581 398.876Z" fill="#231F20"/>
<path d="M421.029 420.514C421.029 420.514 421.638 412.743 425.143 410.457C428.648 408.171 483.2 404.819 489.6 410.457C496 416.095 496 424.933 496 424.933C496 424.933 432.457 419.143 421.029 420.514Z" fill="#231F20"/>
<path d="M495.848 425.848C495.086 425.848 432.457 420.057 421.181 421.429C420.876 421.429 420.571 421.429 420.419 421.124C420.267 420.971 420.114 420.667 420.114 420.362C420.114 420.057 420.876 411.981 424.533 409.695C428.8 406.952 483.657 404.057 490.057 409.848C496.457 415.638 496.762 424.629 496.762 424.933C496.762 425.39 496.305 425.848 495.848 425.848ZM426.209 419.448C443.581 419.448 487.01 423.257 494.781 424.019C494.476 419.143 492.343 414.724 488.838 411.371C482.743 406.038 427.886 410 425.6 411.524C423.467 412.895 422.552 417.162 422.095 419.752C423.162 419.448 424.533 419.448 426.209 419.448Z" fill="#231F20"/>
<path d="M539.429 448.857C517.943 419.295 481.219 416.552 459.276 416.552C437.333 416.552 400.61 419.143 379.124 448.857C357.638 478.571 358.705 534.038 358.705 534.038H559.848C559.848 533.886 560.914 478.419 539.429 448.857Z" fill="#F6DA67"/>
<path d="M559.848 534.952H358.705C358.248 534.952 357.79 534.495 357.79 534.038C357.79 533.429 357.029 477.81 378.362 448.248C401.981 415.638 445.105 415.638 459.276 415.638C516.571 415.638 534.4 440.171 540.19 448.248C561.524 477.81 560.762 533.429 560.762 534.038C560.914 534.495 560.457 534.952 559.848 534.952ZM359.619 532.971H558.933C558.933 525.505 558.171 476.286 538.667 449.314C517.943 420.819 483.505 417.467 459.276 417.467C435.048 417.467 400.61 420.819 379.886 449.314C360.381 476.286 359.619 525.505 359.619 532.971Z" fill="#231F20"/>
<path d="M413.714 535.105C413.105 535.105 412.648 534.648 412.648 534.038L408.533 442.61C408.533 442 408.99 441.543 409.6 441.391C410.21 441.238 410.667 441.848 410.819 442.457L414.933 533.886C414.933 534.495 414.476 534.952 413.714 535.105Z" fill="#231F20"/>
<path d="M509.105 535.105C508.495 535.105 508.038 534.495 508.038 534.038L512.152 445.2C512.152 444.591 512.61 444.133 513.219 444.133C513.219 444.133 513.219 444.133 513.371 444.133C513.981 444.133 514.438 444.743 514.438 445.2L510.324 534.038C510.171 534.648 509.714 535.105 509.105 535.105Z" fill="#231F20"/>
<path d="M376.229 478.114H536.838C549.638 478.114 559.848 488.476 559.848 501.124V540.286H353.219V501.124C353.219 488.476 363.429 478.114 376.229 478.114Z" fill="#231F20"/>
<path d="M560 541.352H353.219C352.762 541.352 352.305 540.895 352.305 540.438V510.419C352.305 492.133 367.238 477.2 385.524 477.2H527.695C545.981 477.2 560.914 492.133 560.914 510.419V540.438C560.914 540.895 560.457 541.352 560 541.352ZM354.133 539.371H559.086V510.419C559.086 493.048 545.067 479.029 527.695 479.029H385.524C368.152 479.029 354.133 493.048 354.133 510.419V539.371Z" fill="#231F20"/>
<path d="M376.229 491.524H536.838C549.638 491.524 559.848 501.886 559.848 514.533V556.095H353.219V514.533C353.219 501.886 363.429 491.524 376.229 491.524Z" fill="#FF8F37"/>
<path d="M560 557.162H353.219C352.762 557.162 352.305 556.705 352.305 556.248V523.981C352.305 505.695 367.238 490.762 385.524 490.762H527.695C545.981 490.762 560.914 505.695 560.914 523.981V556.248C560.914 556.705 560.457 557.162 560 557.162ZM354.133 555.333H559.086V523.981C559.086 506.61 545.067 492.591 527.695 492.591H385.524C368.152 492.591 354.133 506.61 354.133 523.981V555.333Z" fill="#231F20"/>
<path d="M255.238 350.267C257.371 337.01 279.314 333.81 278.248 349.352C278.095 354.838 275.962 360.019 272.305 363.981C268.495 367.791 262.4 369.619 257.524 367.486" fill="white"/>
<path d="M262.248 369.467C260.571 369.467 258.743 369.162 257.219 368.4C256.61 368.248 256.305 367.486 256.61 367.029C256.762 366.419 257.524 366.114 257.981 366.419H258.133C262.4 368.248 267.886 367.029 271.695 363.219C275.81 359.105 276.876 353.314 277.181 349.2C277.486 343.867 275.048 340.514 270.476 340.057C264.686 339.448 257.524 343.41 256.457 350.419C256.305 351.029 255.848 351.486 255.238 351.333C254.629 351.181 254.171 350.724 254.324 350.114C255.695 341.886 263.924 337.162 270.781 337.924C275.352 338.381 280.076 341.733 279.467 349.505C279.162 353.924 277.791 360.171 273.371 364.895C270.476 367.791 266.514 369.467 262.248 369.467Z" fill="#231F20"/>
<path d="M200.533 350.267C198.4 337.01 176.457 333.81 177.524 349.352C177.676 354.838 179.81 360.019 183.467 363.981C187.276 367.791 193.371 369.619 198.248 367.486" fill="white"/>
<path d="M193.524 369.467C189.41 369.467 185.448 367.638 182.552 364.743C177.981 360.171 176.61 353.924 176.457 349.352C175.848 341.733 180.571 338.381 185.143 337.771C192 337.01 200.229 341.733 201.6 349.962C201.752 350.571 201.295 351.181 200.686 351.181C200.076 351.333 199.467 350.876 199.467 350.267C198.4 343.41 191.238 339.295 185.448 339.905C180.724 340.514 178.286 343.714 178.743 349.048C179.048 353.162 180.267 358.8 184.229 363.067C187.886 366.876 193.524 368.248 197.79 366.267C198.4 365.962 199.009 366.267 199.162 366.724C199.467 367.333 199.314 367.943 198.705 368.248C198.705 368.248 198.705 368.248 198.552 368.248C197.029 369.162 195.352 369.467 193.524 369.467Z" fill="#231F20"/>
<path d="M263.771 351.181L259.962 312.171C259.962 312.171 249.448 299.371 227.81 299.371C206.171 299.371 195.657 312.324 195.657 312.324L193.981 346.762C193.981 363.676 198.4 373.886 204.952 379.676L203.276 416.552C203.276 416.552 209.219 429.505 226.59 429.505C236.495 429.81 245.638 424.933 250.971 416.552L249.448 383.181C256.305 379.219 261.333 370.533 263.771 351.181Z" fill="white"/>
<path d="M227.962 299.371C249.448 299.371 260.114 312.324 260.114 312.324L263.924 351.181C261.486 370.381 256.457 379.067 249.752 383.029L251.276 416.4C245.943 424.629 236.8 429.657 226.895 429.352C209.524 429.352 203.581 416.4 203.581 416.4L205.257 379.524C198.705 373.733 194.286 363.524 194.286 346.61L195.962 312.171C195.81 312.171 206.324 299.219 227.962 299.371ZM227.962 297.086C205.562 297.086 194.59 310.343 194.133 310.952C193.829 311.257 193.676 311.714 193.676 312.171L192 346.61C192 362.305 195.657 373.733 202.819 380.59L201.143 416.4C201.143 416.705 201.143 417.162 201.295 417.467C201.6 418.076 208 431.79 226.59 431.79C245.181 431.79 252.648 418.229 252.952 417.619C253.105 417.314 253.257 416.857 253.257 416.4L251.733 384.4C259.2 379.371 263.619 369.162 265.752 351.638C265.752 351.486 265.752 351.333 265.752 351.181L261.943 312.171C261.943 311.714 261.79 311.41 261.486 310.952C261.029 310.343 250.057 297.086 227.657 297.086H227.962Z" fill="#231F20"/>
<path d="M307.505 435.752C286.019 406.191 249.295 403.448 227.352 403.448C205.41 403.448 168.686 406.038 147.2 435.752C125.714 465.467 126.781 520.933 126.781 520.933H327.924C327.771 520.933 328.838 465.314 307.505 435.752Z" fill="#F6DA67"/>
<path d="M327.924 522H126.781C126.171 522 125.714 521.543 125.714 520.933C125.714 520.324 124.952 464.705 146.286 435.143C169.905 402.381 213.181 402.381 227.352 402.381C284.8 402.381 302.629 426.914 308.419 435.143C329.752 464.705 329.143 520.324 328.991 520.933C328.991 521.543 328.533 522 327.924 522ZM127.695 519.714H326.705C326.705 511.791 325.79 463.029 306.438 436.362C285.867 407.867 251.276 404.514 227.2 404.514C203.124 404.514 168.533 407.867 147.962 436.362C128.762 463.029 127.848 511.943 127.695 519.714Z" fill="#231F20"/>
<path d="M183.771 528.4C183.162 528.4 182.705 527.943 182.705 527.486L170.819 436.971C170.666 436.362 171.124 435.752 171.733 435.752C172.343 435.752 172.952 436.057 172.952 436.667L184.838 527.181C184.838 527.791 184.381 528.4 183.771 528.4C183.924 528.4 183.924 528.4 183.771 528.4Z" fill="#231F20"/>
<path d="M266.819 532.667H266.667C266.057 532.514 265.6 532.057 265.752 531.448L279.924 441.848C280.076 441.238 280.533 440.781 281.143 440.933C281.752 441.086 282.21 441.543 282.057 442.152L267.886 531.752C267.886 532.362 267.429 532.667 266.819 532.667Z" fill="#231F20"/>
<path d="M188.952 407.41C188.952 407.41 189.562 399.638 193.067 397.352C196.571 395.067 251.124 391.714 257.524 397.352C263.924 402.99 263.924 411.829 263.924 411.829C263.924 411.829 200.533 406.038 188.952 407.41Z" fill="#F6DA67"/>
<path d="M183.924 410.305C183.314 410.305 182.857 409.848 182.857 409.238C182.857 408.781 183.162 408.324 183.619 408.171C184.076 408.019 224.152 393.391 272.305 408.171C272.914 408.324 273.219 408.933 273.067 409.543C272.914 410.152 272.305 410.457 271.695 410.305C224.305 395.676 184.838 410.152 184.533 410.305C184.229 410.305 184.076 410.305 183.924 410.305Z" fill="#231F20"/>
<path d="M179.809 356.514C179.2 358.8 178.59 361.086 178.133 363.219C174.628 376.324 170.209 389.733 165.638 402.533C175.238 406.648 184.686 410.914 193.981 415.486L199.771 404.667C200.381 411.067 200.838 417.314 201.447 423.714C217.143 427.981 233.447 428.591 249.447 425.848C250.057 422.648 250.819 419.295 251.428 416.095C252.495 420.667 257.524 423.562 262.247 423.714C269.257 423.867 274.743 422.038 276.114 415.181C277.486 408.324 276.267 401.01 274.895 394.305C272 380.133 267.581 366.419 267.581 351.943C267.581 336.248 268.19 320.4 263.771 305.162C261.79 298.152 258.438 291.295 252.343 287.181C246.247 283.067 237.257 283.219 232.686 288.857C234.057 287.181 219.276 283.524 217.905 283.524C214.247 283.371 210.59 284.438 207.39 286.571C196.724 292.971 191.695 300.591 189.409 312.781C186.819 327.41 183.467 342.038 179.809 356.514Z" fill="white"/>
<path d="M230.248 428.743C220.343 428.743 210.591 427.524 201.143 424.933C200.686 424.781 200.381 424.476 200.381 424.019L199.01 408.629L194.895 416.248C194.591 416.857 193.981 417.01 193.372 416.705C184.076 412.133 174.476 407.867 165.029 403.752C164.572 403.448 164.267 402.991 164.419 402.381C170.21 386.381 174.019 374.343 176.914 363.219C177.524 360.933 178.133 358.648 178.591 356.514C182.248 342.038 185.448 327.257 188.343 312.629C190.781 299.981 196.114 292.21 206.781 285.81C210.133 283.676 213.943 282.61 217.905 282.61C218.514 282.61 229.333 284.895 232.686 287.181C238.019 281.848 247.162 282.61 252.8 286.419C258.133 290.076 262.095 296.171 264.686 305.01C268.648 318.419 268.648 332.438 268.495 346.152V352.095C268.495 362.457 270.933 372.667 273.219 382.571C274.133 386.381 275.048 390.343 275.81 394.305C277.181 400.857 278.248 408.476 277.029 415.638C275.81 422.19 270.933 425.391 262.095 425.086C257.981 425.086 254.172 423.105 251.733 419.905L250.362 426.305C250.21 426.762 249.905 427.067 249.448 427.219C243.2 428.133 236.648 428.743 230.248 428.743ZM202.514 422.952C217.6 426.914 233.295 427.524 248.533 424.933L250.362 415.943C250.514 415.486 250.972 415.029 251.429 415.029C251.886 415.029 252.343 415.333 252.495 415.943C253.41 420.21 258.286 422.648 262.248 422.648C269.867 422.8 273.981 420.362 274.895 415.029C276.114 408.324 274.895 400.857 273.676 394.457C272.914 390.648 272 386.686 271.086 382.876C268.8 372.819 266.362 362.61 266.362 351.943V346C266.362 332.591 266.514 318.571 262.552 305.467C260.114 297.086 256.457 291.448 251.581 288.095C246.248 284.438 237.562 284.133 233.295 289.467C232.838 289.924 232.229 289.924 231.772 289.619C231.467 289.467 231.314 289.01 231.314 288.705C229.486 287.333 219.276 284.591 217.6 284.438C214.095 284.286 210.591 285.352 207.695 287.333C197.638 293.276 192.61 300.743 190.324 312.781C187.581 327.41 184.229 342.343 180.572 356.819C179.962 359.105 179.352 361.391 178.895 363.524C176 374.495 172.191 386.381 166.705 401.924C175.543 405.733 184.533 409.848 193.219 414.114L198.553 404.21C198.857 403.752 199.314 403.6 199.772 403.6C200.229 403.752 200.533 404.057 200.686 404.514L202.514 422.952Z" fill="#231F20"/>
<path d="M145.524 465.01H306.133C318.933 465.01 329.143 475.371 329.143 488.019V527.181H122.362V488.019C122.362 475.371 132.724 465.01 145.524 465.01Z" fill="#231F20"/>
<path d="M329.143 528.248H122.362C121.905 528.248 121.448 527.791 121.448 527.333V497.314C121.448 479.029 136.381 464.095 154.667 464.095H296.838C315.124 464.095 330.057 479.029 330.057 497.314V527.333C330.057 527.791 329.6 528.248 329.143 528.248ZM123.276 526.419H328.228V497.467C328.228 480.095 314.209 466.076 296.838 466.076H154.667C137.295 466.076 123.276 480.095 123.276 497.467V526.419Z" fill="#231F20"/>
<path d="M145.524 478.571H306.133C318.933 478.571 329.143 488.933 329.143 501.581V556.248H122.362V501.581C122.362 488.781 132.724 478.571 145.524 478.571Z" fill="#FF8F37"/>
<path d="M329.143 557.162H122.362C121.905 557.162 121.448 556.705 121.448 556.248V510.876C121.448 492.59 136.381 477.657 154.667 477.657H296.838C315.124 477.657 330.057 492.59 330.057 510.876V556.248C330.057 556.705 329.6 557.162 329.143 557.162ZM123.276 555.333H328.228V510.876C328.228 493.505 314.209 479.486 296.838 479.486H154.667C137.295 479.486 123.276 493.505 123.276 510.876V555.333Z" fill="#231F20"/>
<path d="M384 397.81C386.133 384.552 408.076 381.352 407.01 396.895C406.857 402.381 404.724 407.562 401.067 411.524C397.257 415.333 391.162 417.162 386.286 415.029" fill="white"/>
<path d="M391.01 417.01C389.333 417.01 387.505 416.705 385.981 415.943C385.372 415.791 385.219 415.029 385.372 414.571V414.419C385.676 413.81 386.286 413.657 386.743 413.81C391.01 415.638 396.495 414.419 400.305 410.61C404.419 406.495 405.638 400.705 405.791 396.591C406.095 391.257 403.657 387.905 398.934 387.448C393.143 386.838 385.981 390.8 384.914 397.81C384.762 398.419 384.305 398.876 383.695 398.724C383.086 398.572 382.629 398.114 382.781 397.505C384.153 389.276 392.381 384.552 399.238 385.314C403.81 385.771 408.534 389.124 407.924 396.895C407.619 401.314 406.248 407.562 401.829 412.286C399.086 415.181 395.124 417.01 391.01 417.01Z" fill="#231F20"/>
<path d="M329.143 397.81C327.009 384.552 305.067 381.352 306.133 396.895C306.286 402.381 308.419 407.562 312.076 411.524C315.886 415.333 321.981 417.162 326.857 415.029" fill="white"/>
<path d="M322.133 417.01C318.019 417.01 314.057 415.181 311.162 412.286C306.59 407.714 305.219 401.467 304.914 396.895C304.305 389.276 309.028 385.924 313.6 385.314C320.457 384.552 328.686 389.276 330.057 397.505C330.209 398.114 329.752 398.724 329.143 398.724C328.533 398.876 327.924 398.419 327.924 397.81C326.857 390.952 319.695 386.838 313.905 387.448C309.181 388.057 306.743 391.257 307.2 396.591C307.505 400.705 308.724 406.343 312.686 410.61C316.343 414.419 321.981 415.791 326.247 413.81C326.857 413.505 327.467 413.81 327.619 414.267C327.924 414.876 327.771 415.486 327.162 415.791C327.162 415.791 327.162 415.791 327.009 415.791C325.638 416.705 323.962 417.162 322.133 417.01Z" fill="#231F20"/>
<path d="M392.381 398.724L388.571 359.867C388.571 359.867 378.057 346.914 356.419 346.914C334.781 346.914 324.267 359.867 324.267 359.867L322.59 394.305C322.59 411.219 327.009 421.429 333.562 427.219L331.886 463.943C331.886 463.943 337.828 476.895 355.2 476.895C365.105 477.2 374.247 472.324 379.581 463.943L378.057 430.571C384.914 426.61 389.943 417.924 392.381 398.724Z" fill="white"/>
<path d="M356.572 346.762C378.057 346.762 388.724 359.714 388.724 359.714L392.533 398.571C390.095 417.771 385.067 426.457 378.362 430.419L379.886 463.791C374.552 472.019 365.41 477.048 355.505 476.743C338.133 476.743 332.191 463.791 332.191 463.791L333.867 426.914C327.314 421.124 322.895 410.914 322.895 394L324.572 359.562C324.419 359.867 334.933 346.762 356.572 346.762ZM356.572 344.629C334.172 344.629 323.2 357.886 322.743 358.495C322.438 358.8 322.286 359.257 322.286 359.714L320.61 394.152C320.61 409.848 324.267 421.276 331.429 428.133L329.752 463.943C329.752 464.248 329.752 464.705 329.905 465.01C330.21 465.619 336.61 479.333 355.2 479.333C373.791 479.333 381.257 465.771 381.562 465.162C381.714 464.857 381.867 464.4 381.867 463.943L380.343 431.943C387.81 426.914 392.229 416.705 394.362 399.181C394.362 399.029 394.362 398.876 394.362 398.724L390.552 359.867C390.552 359.41 390.4 359.105 390.095 358.648C389.791 357.886 378.819 344.629 356.572 344.629Z" fill="#231F20"/>
<path d="M320.762 401.771C321.371 403.6 322.133 405.429 322.895 407.257C324.724 411.524 330.057 416.552 332.495 420.514C335.543 425.238 335.086 424.324 340.419 424.781C352.152 426 363.886 426.152 375.619 425.238C378.362 425.086 381.409 424.629 383.238 422.495C384.152 421.429 384.914 420.057 385.219 418.686C389.638 407.257 393.752 395.676 397.41 383.943C401.981 369.467 390.552 354.076 395.886 340.514C396.648 338.381 398.019 336.095 397.105 334.114L383.543 338.533C385.524 334.724 388.267 331.524 391.467 328.781C378.514 326.495 365.105 328.629 353.524 334.876C356.724 331.067 360.533 327.562 364.495 324.667C350.933 325.733 335.848 327.562 326.705 337.467C327.771 333.352 328.686 329.238 329.143 325.124C317.105 336.248 309.943 355.295 312.686 371.6C314.514 382.114 317.105 392.171 320.762 401.771Z" fill="white"/>
<path d="M360.229 427.067C353.676 427.067 346.972 426.762 340.419 426C339.505 425.848 338.743 425.848 338.133 425.848C334.781 425.695 334.324 425.238 331.733 421.276C330.514 419.448 329.143 417.771 327.772 416.095C325.486 413.657 323.505 410.762 321.981 407.867C321.219 406.038 320.457 404.21 319.848 402.381C316.343 392.476 313.752 382.419 312.076 372.057C309.333 355.905 316.191 336.248 328.838 324.514C329.143 324.21 329.752 324.057 330.057 324.362C330.514 324.514 330.667 324.971 330.667 325.429C330.362 328.476 329.752 331.371 329.143 334.267C338.438 326.495 351.848 324.819 364.952 323.752C365.41 323.752 365.867 324.057 366.019 324.514C366.172 324.971 366.019 325.429 365.714 325.733C363.276 327.562 360.991 329.543 358.705 331.676C369.219 327.257 380.8 326.038 392.076 328.019C392.686 328.171 392.991 328.629 392.991 329.238C392.991 329.543 392.838 329.695 392.533 329.848C390.095 331.829 387.962 334.114 386.286 336.705L397.105 333.2C397.562 333.048 398.172 333.2 398.476 333.81C399.543 335.943 398.629 338.229 397.714 340.21C397.562 340.514 397.41 340.819 397.41 341.124C394.667 347.676 396.343 354.838 397.867 362.305C399.391 369.619 401.067 377.086 398.781 384.4C395.124 396.133 391.01 407.867 386.591 419.295C386.133 420.819 385.372 422.191 384.305 423.41C382.172 425.695 378.819 426.152 375.924 426.457C370.743 426.914 365.562 427.067 360.381 427.067H360.229ZM321.676 401.467C322.286 403.295 323.048 405.124 323.81 406.952C325.333 409.695 327.162 412.286 329.295 414.724C330.819 416.4 332.191 418.229 333.41 420.057C334.781 422.343 336.457 423.562 338.133 423.714C338.743 423.714 339.505 423.867 340.572 423.867C352.152 425.086 363.886 425.238 375.467 424.324C377.905 424.171 380.8 423.714 382.324 422.038C383.086 420.971 383.695 419.905 384.152 418.686C388.572 407.257 392.686 395.676 396.343 383.943C398.476 377.238 396.952 369.924 395.429 363.067C393.752 355.6 392.076 347.829 394.972 340.514C395.124 340.21 395.276 339.905 395.429 339.6C396.038 338.533 396.343 337.314 396.495 335.943L384 339.905C383.391 340.057 382.781 339.752 382.629 339.143C382.476 338.838 382.629 338.533 382.629 338.381C384.305 335.181 386.438 332.286 389.029 329.848C376.991 328.171 364.8 330.457 354.133 336.095C353.524 336.4 352.914 336.248 352.61 335.638C352.457 335.181 352.457 334.724 352.762 334.419C355.2 331.524 357.943 328.781 360.991 326.343C347.886 327.562 335.543 329.848 327.619 338.533C327.162 338.991 326.552 338.99 326.095 338.686C325.791 338.381 325.638 337.924 325.791 337.619C326.552 334.724 327.314 331.676 327.772 328.629C317.105 340.057 311.467 357.276 314.057 371.905C315.733 381.657 318.324 391.714 321.676 401.467Z" fill="#231F20"/>
<path d="M317.562 454.952C317.562 454.952 318.172 447.181 321.676 444.895C325.181 442.61 379.733 439.257 386.133 444.895C392.533 450.533 392.533 459.371 392.533 459.371C392.533 459.371 329.143 453.581 317.562 454.952Z" fill="#231F20"/>
<path d="M392.381 460.286C391.619 460.286 328.991 454.495 317.714 455.867C317.41 455.867 317.105 455.867 316.952 455.562C316.8 455.41 316.648 455.105 316.648 454.8C316.648 454.495 317.41 446.419 321.067 444.133C325.333 441.391 380.191 438.495 386.591 444.286C392.991 450.076 393.295 459.067 393.295 459.371C393.295 459.981 392.991 460.438 392.381 460.286C392.381 460.438 392.381 460.438 392.381 460.286ZM322.895 453.886C340.267 453.886 383.695 457.695 391.467 458.457C391.162 453.581 389.029 449.162 385.524 445.81C379.429 440.476 324.572 444.438 322.286 445.962C320.152 447.333 319.238 451.6 318.781 454.191C319.848 453.886 321.219 453.886 322.895 453.886Z" fill="#231F20"/>
<path d="M436.114 483.295C414.629 453.733 377.905 450.991 355.962 450.991C334.019 450.991 297.295 453.581 275.809 483.295C254.324 513.01 255.39 556.286 255.39 556.286H456.533C456.381 556.286 457.448 512.857 436.114 483.295Z" fill="#F6DA67"/>
<path d="M456.533 557.2H255.391C254.933 557.2 254.476 556.743 254.476 556.286C254.476 555.829 253.714 512.248 275.048 482.686C298.667 450.076 341.791 450.076 355.962 450.076C413.257 450.076 431.086 474.61 436.876 482.686C458.21 512.248 457.448 555.829 457.448 556.286C457.6 556.895 457.143 557.352 456.533 557.2C456.533 557.352 456.533 557.352 456.533 557.2ZM256.305 555.371H455.619C455.619 548.819 454.705 510.419 435.352 483.905C414.629 455.41 380.191 452.057 355.962 452.057C331.733 452.057 297.295 455.41 276.572 483.905C257.219 510.419 256.305 548.819 256.305 555.371Z" fill="#231F20"/>
<path d="M295.01 557.352C294.4 557.352 293.943 556.895 293.943 556.286L295.619 481.924C295.619 481.314 296.076 480.857 296.533 480.857H296.686C297.295 480.857 297.752 481.314 297.752 481.924L296.076 556.286C296.229 556.895 295.619 557.352 295.01 557.352Z" fill="#231F20"/>
<path d="M408.838 554.914C408.229 554.914 407.771 554.305 407.771 553.695L412.19 481.924C412.19 481.314 412.648 480.857 413.257 480.857C413.257 480.857 413.257 480.857 413.409 480.857C414.019 480.857 414.476 481.467 414.476 482.076L410.057 553.848C409.905 554.457 409.448 554.914 408.838 554.914Z" fill="#231F20"/>
<path d="M613.181 385.619C615.314 372.362 637.257 369.162 636.191 384.705C636.038 390.191 633.905 395.371 630.248 399.333C626.438 403.143 620.343 404.971 615.467 402.838" fill="white"/>
<path d="M620.191 404.971C618.514 404.971 616.686 404.667 615.162 403.905C614.553 403.6 614.4 402.991 614.705 402.381C615.01 401.924 615.467 401.619 616.076 401.924C620.343 403.752 625.829 402.533 629.638 398.724C633.753 394.61 634.972 388.819 635.124 384.705C635.429 379.371 632.991 376.019 628.267 375.562C622.476 374.952 615.314 378.914 614.248 385.924C614.095 386.533 613.638 386.991 613.029 386.838C612.419 386.686 611.962 386.229 612.114 385.619C613.486 377.391 621.714 372.667 628.572 373.429C633.143 373.886 637.867 377.238 637.257 385.01C636.953 389.429 635.581 395.676 631.162 400.4C628.267 403.143 624.305 404.971 620.191 404.971Z" fill="#231F20"/>
<path d="M558.324 385.619C556.191 372.362 534.248 369.162 535.314 384.705C535.467 390.191 537.6 395.371 541.257 399.333C545.067 403.143 551.162 404.971 556.038 402.838" fill="white"/>
<path d="M551.314 404.971C547.2 404.971 543.238 403.143 540.343 400.248C535.771 395.676 534.4 389.429 534.247 384.857C533.638 377.238 538.362 373.886 542.933 373.276C549.79 372.514 558.019 377.238 559.39 385.467C559.543 386.076 559.085 386.686 558.476 386.686C557.866 386.838 557.257 386.381 557.257 385.772C556.19 378.914 548.876 374.8 543.238 375.41C538.514 376.019 536.076 379.219 536.381 384.552C536.685 388.667 537.905 394.457 541.866 398.571C545.524 402.381 551.162 403.752 555.428 401.772C556.038 401.467 556.647 401.619 556.952 402.229C557.257 402.838 557.105 403.448 556.495 403.752H556.343C554.819 404.514 553.143 404.971 551.314 404.971Z" fill="#231F20"/>
<path d="M621.562 386.686L617.752 347.829C617.752 347.829 607.238 334.876 585.6 334.876C563.962 334.876 553.448 347.829 553.448 347.829L551.771 382.267C551.771 399.181 556.19 409.391 562.743 415.181L561.067 452.057C561.067 452.057 567.009 465.01 584.381 465.01C594.286 465.314 603.428 460.438 608.762 452.057L607.238 418.686C614.248 414.571 619.124 405.886 621.562 386.686Z" fill="white"/>
<path d="M585.752 334.724C607.238 334.724 617.905 347.676 617.905 347.676L621.714 386.533C619.276 405.733 614.248 414.419 607.543 418.381L609.067 451.752C603.733 459.981 594.591 465.01 584.686 464.705C567.314 464.705 561.371 451.752 561.371 451.752L563.048 414.876C556.495 409.086 552.076 398.876 552.076 381.962L553.752 347.524C553.6 347.676 564.267 334.724 585.752 334.724ZM585.752 332.59C563.352 332.59 552.381 345.848 551.924 346.457C551.619 346.762 551.467 347.219 551.467 347.676L549.791 382.114C549.791 397.81 553.448 409.238 560.61 416.095L558.933 451.905C558.933 452.21 558.933 452.667 559.086 452.971C559.391 453.581 565.79 467.295 584.381 467.295C602.971 467.295 610.438 453.733 610.743 453.124C610.895 452.819 611.048 452.362 611.048 451.905L609.524 419.905C616.991 414.876 621.41 404.667 623.543 387.143C623.543 386.991 623.543 386.838 623.543 386.686L619.733 347.829C619.733 347.371 619.581 347.067 619.276 346.61C619.124 345.848 608 332.59 585.752 332.59Z" fill="#231F20"/>
<path d="M665.295 471.105C643.809 441.543 607.086 438.8 585.143 438.8C563.2 438.8 526.476 441.391 504.99 471.105C483.505 500.819 484.571 556.286 484.571 556.286H685.714C685.714 556.286 686.781 500.819 665.295 471.105Z" fill="#F6DA67"/>
<path d="M685.714 557.352H484.571C483.962 557.352 483.505 556.895 483.505 556.286C483.505 555.676 482.743 500.057 504.076 470.495C527.695 437.733 570.971 437.733 585.143 437.733C642.591 437.733 660.419 462.267 666.21 470.495C687.695 500.057 686.781 555.676 686.781 556.286C686.933 556.895 686.476 557.352 685.714 557.352ZM485.638 555.219H684.648C684.648 547.295 683.733 498.533 664.381 471.867C643.81 443.371 609.219 440.019 585.143 440.019C561.067 440.019 526.476 443.371 505.905 471.867C486.552 498.533 485.638 547.295 485.638 555.219Z" fill="#231F20"/>
<path d="M526.781 553.752C526.171 553.752 525.714 553.295 525.714 552.686L526.629 478.114C526.629 477.505 527.086 477.048 527.695 477.048C528.305 477.048 528.762 477.505 528.762 478.114L527.848 552.686C527.848 553.295 527.39 553.752 526.781 553.752Z" fill="#231F20"/>
<path d="M629.79 546.229H629.638C629.028 546.076 628.724 545.467 628.724 544.857L642.59 479.943C642.743 479.333 643.352 479.029 643.962 479.181C644.419 479.333 644.724 479.791 644.724 480.4L630.857 545.314C630.705 545.924 630.247 546.229 629.79 546.229Z" fill="#231F20"/>
<path d="M546.895 442.914C546.895 442.914 547.505 435.143 551.01 432.857C554.514 430.571 609.067 427.219 615.467 432.857C621.867 438.495 621.867 447.333 621.867 447.333C621.867 447.333 558.324 441.543 546.895 442.914Z" fill="#F6DA67"/>
<path d="M629.638 445.81H629.333C582.095 431.333 542.476 445.657 542.171 445.81C541.562 445.962 540.952 445.81 540.8 445.2C540.648 444.591 540.8 443.981 541.41 443.829C541.867 443.676 581.943 429.048 630.095 443.829C630.705 443.981 631.01 444.591 630.857 445.2C630.705 445.505 630.248 445.81 629.638 445.81Z" fill="#231F20"/>
<path d="M537.752 391.41C537.143 393.695 536.533 395.981 536.076 398.114C533.029 409.543 529.829 420.971 529.676 432.705C529.524 444.438 532.876 456.781 541.41 464.857C549.181 472.171 560 475.067 570.362 477.2C581.029 479.333 592.152 481.01 602.971 479.333C613.791 477.657 624.457 471.867 629.943 462.419C635.733 452.514 634.971 440.324 632.838 429.2C629.943 415.029 625.524 401.314 625.524 386.838C625.524 371.143 626.133 355.295 621.714 340.057C619.733 333.048 616.381 326.191 610.286 322.076C604.19 317.962 595.048 318.114 590.629 323.752C592 322.076 577.219 318.419 575.848 318.419C572.191 318.267 568.533 319.333 565.333 321.467C554.667 327.867 549.638 335.486 547.352 347.676C544.61 362.305 541.41 376.933 537.752 391.41Z" fill="white"/>
<path d="M593.219 481.162C585.448 481.01 577.676 480.095 570.057 478.267C559.39 476.133 548.419 473.086 540.648 465.619C532.876 458.152 528.305 446.114 528.61 432.705C528.762 421.733 531.657 410.914 534.4 400.552L535.162 397.962C535.771 395.676 536.381 393.39 536.838 391.257C540.495 376.781 543.695 362 546.59 347.371C549.029 334.724 554.362 326.952 565.029 320.552C568.229 318.419 572.19 317.352 576.152 317.352C576.762 317.352 587.581 319.638 590.933 322.076C596.267 316.743 605.41 317.505 611.048 321.314C616.381 324.971 620.343 330.914 622.933 339.905C626.895 353.314 626.743 367.333 626.743 381.048V386.991C626.743 397.352 629.181 407.562 631.467 417.467C632.381 421.276 633.295 425.238 634.057 429.2C636.952 443.676 635.886 454.8 631.01 463.181C625.829 472.171 615.467 478.571 603.276 480.552C599.771 481.01 596.571 481.314 593.219 481.162ZM538.819 391.714C538.21 394 537.6 396.286 537.143 398.419L536.381 401.162C533.638 411.524 530.895 422.038 530.743 432.857C530.59 445.81 534.705 457.238 542.171 464.248C549.638 471.257 560.152 474.152 570.514 476.286C580.876 478.419 592 480.095 602.819 478.419C614.4 476.591 624.152 470.495 629.029 462.114C633.6 454.191 634.514 443.524 631.771 429.657C631.01 425.848 630.095 421.886 629.181 418.076C626.895 408.019 624.457 397.657 624.457 387.143V381.2C624.457 367.791 624.457 353.771 620.648 340.667C618.21 332.286 614.552 326.648 609.676 323.295C604.343 319.638 595.657 319.333 591.39 324.667C590.933 325.124 590.324 325.124 589.867 324.819C589.562 324.667 589.41 324.21 589.41 323.905C587.581 322.533 577.371 319.791 575.695 319.638C572.19 319.486 568.686 320.552 565.79 322.533C555.733 328.629 550.705 335.943 548.419 347.981C545.676 362.457 542.324 377.238 538.819 391.714Z" fill="#231F20"/>
<path d="M654.324 500.514C672.305 500.514 687.086 515.143 687.086 533.124V552.686H480.305V532.971C480.305 514.991 494.933 500.362 512.914 500.362H654.324V500.514Z" fill="#231F20"/>
<path d="M687.086 553.6H480.305C479.848 553.6 479.391 553.143 479.391 552.686V532.667C479.391 514.381 494.324 499.448 512.61 499.448H654.781C673.067 499.448 688 514.381 688 532.667V552.686C688 553.295 687.543 553.6 687.086 553.6ZM481.219 551.771H686.019V532.667C686.019 515.448 672 501.276 654.781 501.276H512.61C495.238 501.276 481.219 515.295 481.219 532.667V551.771Z" fill="#231F20"/>
<path d="M654.324 513.924C672.305 513.924 687.086 528.552 687.086 546.533V556.095H480.305V546.533C480.305 528.552 494.933 513.924 512.914 513.771H654.324V513.924Z" fill="#FF8F37"/>
<path d="M687.086 557.162H480.305C479.848 557.162 479.391 556.705 479.391 556.248V546.229C479.391 527.943 494.324 513.01 512.61 513.01H654.781C673.067 513.01 688 527.943 688 546.229V556.248C688 556.705 687.543 557.162 687.086 557.162ZM481.219 555.333H686.019V546.229C686.019 529.01 672 514.991 654.781 514.838H512.61C495.238 514.838 481.219 528.857 481.219 546.229V555.333Z" fill="#231F20"/>
<path d="M428.343 500.514C446.324 500.514 461.105 515.143 461.105 533.124V552.686H254.172V532.971C254.172 514.991 268.8 500.362 286.781 500.362H428.343V500.514Z" fill="#231F20"/>
<path d="M460.952 553.6H254.171C253.714 553.6 253.257 553.143 253.257 552.686V532.667C253.257 514.381 268.19 499.448 286.476 499.448H428.647C446.933 499.448 461.866 514.381 461.866 532.667V552.686C461.866 553.295 461.562 553.6 460.952 553.6ZM255.238 551.771H460.038V532.667C460.038 515.295 446.019 501.276 428.647 501.276H286.476C269.105 501.276 255.086 515.295 255.086 532.667L255.238 551.771Z" fill="#231F20"/>
<path d="M428.343 513.924C446.324 513.924 461.105 528.552 461.105 546.533V556.095H254.172V546.533C254.172 528.552 268.8 513.924 286.781 513.771H428.343V513.924Z" fill="#FF8F37"/>
<path d="M460.952 557.162H254.171C253.714 557.162 253.257 556.705 253.257 556.248V546.229C253.257 527.943 268.19 513.01 286.476 513.01H428.647C446.933 513.01 461.866 527.943 461.866 546.229V556.248C461.866 556.705 461.562 557.162 460.952 557.162ZM255.238 555.333H460.19V546.229C460.19 528.857 446.171 514.838 428.8 514.838H286.628C269.257 514.838 255.238 528.857 255.238 546.229V555.333Z" fill="#231F20"/>
<path d="M135.162 385.619C137.295 372.362 159.238 369.162 158.171 384.705C158.019 390.191 155.886 395.371 152.381 399.333C148.571 403.143 142.476 404.971 137.6 402.838" fill="white"/>
<path d="M142.171 404.971C140.495 404.971 138.667 404.667 137.143 403.905C136.533 403.6 136.381 402.991 136.686 402.381C136.99 401.924 137.448 401.619 138.057 401.924C142.324 403.752 147.809 402.533 151.619 398.724C155.733 394.61 156.952 388.819 157.105 384.705C157.409 379.371 154.971 376.019 150.4 375.562C144.609 374.952 137.448 378.914 136.381 385.924C136.229 386.533 135.771 386.991 135.162 386.838C134.552 386.686 134.095 386.229 134.248 385.619C135.619 377.391 143.848 372.667 150.705 373.429C155.276 373.886 160 377.238 159.39 385.01C159.086 389.429 157.714 395.676 153.143 400.4C150.248 403.143 146.286 404.971 142.171 404.971Z" fill="#231F20"/>
<path d="M80.3048 385.619C78.1715 372.362 56.2287 369.162 57.2953 384.705C57.4477 390.191 59.581 395.371 63.0858 399.333C66.8953 403.143 72.9906 404.971 77.8668 402.838" fill="white"/>
<path d="M73.2952 404.971C69.1809 404.971 65.219 403.143 62.3238 400.248C57.7524 395.676 56.5333 389.429 56.2286 384.857C55.7714 377.238 60.3428 373.886 64.9143 373.276C71.7714 372.514 80 377.238 81.3714 385.467C81.5238 386.076 81.0667 386.686 80.4571 386.686C79.8476 386.838 79.2381 386.381 79.2381 385.772C78.1714 378.914 71.0095 374.8 65.219 375.41C60.4952 376.019 58.0571 379.219 58.3619 384.552C58.6666 388.667 59.8857 394.457 63.8476 398.571C67.5047 402.381 73.1428 403.752 77.4095 401.772C78.019 401.467 78.6286 401.619 78.9333 402.229C79.2381 402.838 79.0857 403.448 78.4762 403.752H78.3238C76.8 404.514 75.1238 404.971 73.2952 404.971Z" fill="#231F20"/>
<path d="M143.543 386.686L139.733 347.829C139.733 347.829 129.219 334.876 107.581 334.876C85.9429 334.876 75.4286 347.829 75.4286 347.829L73.7524 382.267C73.7524 399.181 78.0191 409.391 84.7239 415.181L83.3524 451.905C83.3524 451.905 89.2953 464.857 106.667 464.857C116.571 465.162 125.714 460.286 131.048 451.905L129.524 418.533C136.229 414.571 141.257 405.886 143.543 386.686Z" fill="white"/>
<path d="M107.733 334.724C129.372 334.724 139.886 347.676 139.886 347.676L143.695 386.533C141.257 405.733 136.229 414.419 129.524 418.381L131.048 451.752C125.714 459.981 116.572 465.01 106.667 464.705C89.2953 464.705 83.3525 451.752 83.3525 451.752L85.0287 414.876C78.4763 409.086 74.0572 398.876 74.0572 381.962L75.7334 347.524C75.581 347.676 86.0953 334.724 107.733 334.724ZM107.581 332.59C85.181 332.59 74.2096 345.848 73.7525 346.457C73.4477 346.762 73.2953 347.219 73.2953 347.676L71.6191 382.114C71.6191 397.81 75.2763 409.238 82.5906 416.095L81.0668 451.905C81.0668 452.21 81.0668 452.667 81.2191 452.971C81.5239 453.581 87.9239 467.295 106.514 467.295C125.105 467.295 132.572 453.733 132.876 453.124C133.029 452.819 133.181 452.362 133.181 451.905L131.657 419.905C139.124 414.876 143.543 404.667 145.676 387.143C145.676 386.991 145.676 386.838 145.676 386.686L141.867 347.829C141.867 347.371 141.714 347.067 141.41 346.61C140.952 345.848 129.981 332.59 107.581 332.59Z" fill="#231F20"/>
<path d="M69.3333 393.848C74.2095 397.505 79.3905 400.095 81.5238 407.105C81.6762 408.171 82.1333 409.238 82.7428 410C83.3524 410.61 84.1143 411.219 84.8762 411.524C87.1619 412.591 89.7524 413.048 92.1905 413.048C93.2571 412.895 94.1714 413.048 95.2381 413.2C96.3048 413.505 97.219 414.114 97.9809 414.724C102.4 417.619 107.886 418.076 112.762 415.943C113.829 415.333 115.2 414.876 116.419 414.724C117.638 414.876 118.857 415.181 120.076 415.791C125.562 417.314 130.286 412.895 133.943 409.391C135.771 407.562 136.838 407.257 137.905 404.819C138.971 402.381 137.6 399.638 139.581 397.505C140.343 396.743 141.257 396.133 142.171 395.676C145.829 393.238 147.2 388.514 148.267 384.248C149.638 379.524 150.4 374.648 150.705 369.771C150.552 367.791 150.857 365.81 151.619 363.981C152.229 363.219 152.838 362.457 153.6 361.695C155.429 359.562 155.886 356.667 155.124 353.924C154.362 351.791 152.838 349.81 152.533 347.676C152.381 346.457 152.838 345.086 152.686 343.867C152.533 339.752 148.267 337.162 144.61 335.486C145.524 327.714 135.314 326.8 130.286 324.057C127.086 322.229 123.581 320.552 119.924 320.857C117.638 321.01 115.505 321.771 113.371 322.076C108.19 322.533 102.4 319.791 97.8286 322.381C96.6095 323.295 95.2381 324.057 93.7143 324.819C92.1905 325.124 90.6667 324.971 89.1428 324.667C84.1143 324.057 79.2381 325.581 75.1238 328.629C72.3809 331.524 69.7905 334.419 67.3524 337.619C61.4095 338.229 57.1428 343.714 57.9047 349.657C57.9047 350.114 58.0571 350.571 58.2095 351.029C58.819 352.4 58.9714 353.924 58.3619 355.448C57.7524 358.952 58.9714 362.61 61.4095 365.048C57.4476 368.552 57.1428 374.648 60.6476 378.61C60.9524 378.914 61.2571 379.219 61.5619 379.524C60.6476 383.486 61.8666 387.752 64.6095 390.8C66.4381 391.41 67.8095 392.781 69.3333 393.848Z" fill="white"/>
<path d="M106.667 418.381C103.467 418.381 100.267 417.467 97.5239 415.638L96.9144 415.333C96.3048 414.876 95.6953 414.571 94.9334 414.267C94.1715 414.114 93.562 414.114 92.8001 414.114H92.4953C89.7524 414.114 87.162 413.657 84.5715 412.591C83.6572 412.286 82.7429 411.676 81.981 410.762C81.3715 409.848 80.9143 408.933 80.6096 407.867L80.4572 407.41C78.781 402.076 75.1239 399.333 71.162 396.591C70.2477 395.981 69.4858 395.371 68.5715 394.762C66.8953 393.543 65.3715 392.171 64.0001 390.648C61.2572 387.6 59.8858 383.333 60.6477 379.219C56.381 375.257 56.0762 368.705 59.8858 364.286C57.6001 361.543 56.6858 358.038 57.2953 354.533L57.4477 353.924C57.6001 353.467 57.6001 352.857 57.6001 352.4C57.6001 351.943 57.4477 351.638 57.2953 351.181L57.1429 350.724C55.4667 344.324 59.4286 337.771 65.8286 336.248C66.1334 336.095 66.5905 336.095 66.8953 336.095C69.181 332.895 71.7715 330 74.5143 327.257C79.5429 323.905 84.1144 322.533 89.2953 323.143L90.2096 323.295C91.2763 323.6 92.4953 323.6 93.562 323.295C94.3239 322.991 95.0858 322.533 95.8477 322.076C96.3048 321.771 96.9143 321.314 97.3715 321.01C100.571 319.333 104.076 319.791 107.429 320.248C109.41 320.552 111.391 320.705 113.371 320.552C114.286 320.4 115.352 320.248 116.267 319.943C117.486 319.638 118.705 319.486 119.924 319.333C123.886 319.181 127.695 321.01 130.895 322.686C132.267 323.448 133.791 324.057 135.314 324.514C140.191 326.191 145.981 328.324 145.829 334.419C149.638 336.248 153.752 338.991 153.905 343.562C153.905 344.171 153.905 344.933 153.752 345.543C153.6 346.152 153.6 346.762 153.6 347.371C153.752 348.591 154.21 349.81 154.819 350.876C155.276 351.791 155.733 352.552 156.038 353.467C156.952 356.514 156.343 359.867 154.362 362.305C154.057 362.61 153.905 362.914 153.6 363.219C153.143 363.676 152.838 364.133 152.533 364.591C151.924 365.962 151.619 367.486 151.771 369.01V369.771C151.467 374.8 150.705 379.676 149.333 384.552C148.114 389.276 146.743 394 142.933 396.743L142.019 397.352C141.41 397.657 140.952 398.114 140.495 398.571C139.733 399.638 139.429 400.857 139.581 402.076C139.581 403.295 139.429 404.514 139.124 405.581C138.514 407.105 137.6 408.476 136.229 409.391C135.924 409.695 135.467 410.152 134.857 410.61C131.2 414.114 126.171 418.991 119.924 417.314C119.467 417.162 119.01 417.01 118.552 416.857C117.943 416.552 117.181 416.4 116.571 416.4C115.657 416.4 114.743 416.705 113.981 417.162L113.371 417.467C111.238 417.924 108.952 418.381 106.667 418.381ZM93.8667 411.981C94.4763 411.981 95.0858 411.981 95.6953 412.133C96.6096 412.438 97.5239 412.895 98.2858 413.505L98.7429 413.81C102.857 416.4 108.038 416.857 112.457 414.876L113.067 414.571C114.133 413.962 115.352 413.657 116.571 413.505C117.486 413.505 118.4 413.81 119.314 414.114C119.619 414.267 120.076 414.419 120.533 414.571C125.562 415.943 129.829 411.676 133.333 408.476C133.791 408.019 134.4 407.562 134.705 407.257C135.771 406.495 136.533 405.429 136.991 404.21C137.295 403.295 137.448 402.381 137.295 401.467C137.143 399.638 137.752 397.81 138.819 396.438C139.429 395.829 140.038 395.371 140.8 394.914C141.105 394.762 141.257 394.61 141.562 394.457C144.762 392.171 145.981 388.057 147.2 383.638C148.571 378.914 149.333 374.191 149.638 369.314V368.705C149.181 365.962 150.095 363.219 152.076 361.391C152.381 361.086 152.533 360.933 152.838 360.629C154.362 358.8 154.819 356.21 154.057 353.924C153.752 353.162 153.448 352.4 152.991 351.638C152.229 350.267 151.619 348.895 151.467 347.371C151.467 346.61 151.467 345.848 151.619 345.086C151.619 344.476 151.771 344.019 151.771 343.41C151.619 339.905 147.657 337.467 144.305 335.943C143.848 335.791 143.695 335.333 143.695 334.876C144.152 330.305 140.343 328.476 134.705 326.495C133.029 326.038 131.505 325.276 129.981 324.514C126.933 322.838 123.581 321.162 120.229 321.314C119.162 321.467 117.943 321.619 116.876 321.924C115.81 322.229 114.743 322.381 113.676 322.533C111.543 322.686 109.41 322.533 107.276 322.076C104.076 321.619 101.029 321.162 98.5905 322.533C98.1334 322.838 97.6763 323.143 97.2191 323.448C95.2382 325.124 92.4953 325.733 90.0572 324.971L89.2953 324.819C84.7239 324.21 80.762 325.429 76.0382 328.476C73.4477 331.219 71.0096 333.962 68.7239 337.01C68.5715 337.467 68.2667 337.619 67.8096 337.771C62.4763 338.381 58.6667 343.257 59.2762 348.591C59.2762 348.895 59.4286 349.352 59.4286 349.657L59.581 350.114C59.7334 350.724 59.8858 351.333 60.0382 351.943C60.0382 352.705 60.0382 353.314 59.7334 354.076L59.581 354.533C58.9715 357.733 60.0382 360.933 62.3239 363.067C62.4762 363.219 62.6286 363.524 62.6286 363.829C62.6286 364.133 62.4763 364.438 62.1715 364.591C58.6667 367.791 58.5144 373.124 61.7144 376.629C62.0191 376.933 62.1715 377.086 62.4763 377.391C62.781 377.695 62.9334 378.152 62.9334 378.61C62.1715 382.267 63.0858 386.229 65.6763 388.971C66.8953 390.343 68.2667 391.714 69.9429 392.781C70.7048 393.391 71.6191 394 72.381 394.61C76.4953 397.505 80.6096 400.552 82.5905 406.648L82.7429 407.105C82.8953 407.867 83.2001 408.629 83.6572 409.238C84.1143 409.695 84.7239 410.152 85.4858 410.457C87.6191 411.371 90.0572 411.829 92.3429 411.829H92.8001C93.2572 411.981 93.562 411.981 93.8667 411.981Z" fill="#231F20"/>
<path d="M68.7238 442.914C68.7238 442.914 69.3333 435.143 72.838 432.857C76.3428 430.571 130.895 427.219 137.295 432.857C143.695 438.495 143.695 447.333 143.695 447.333C143.695 447.333 80.3047 441.543 68.7238 442.914Z" fill="#231F20"/>
<path d="M143.543 448.248C142.781 448.248 80.1523 442.457 68.8761 443.829C68.5713 443.829 68.2666 443.829 68.1142 443.524C67.9618 443.371 67.8094 443.067 67.8094 442.762C67.8094 442.457 68.5713 434.381 72.2285 432.095C76.4952 429.352 131.352 426.457 137.752 432.248C144.152 438.038 144.457 447.029 144.457 447.333C144.609 447.943 144.152 448.248 143.543 448.248ZM74.0571 441.695C91.4285 441.695 134.857 445.505 142.628 446.267C142.324 441.39 140.19 436.971 136.686 433.619C130.59 428.286 75.7333 432.248 73.4475 433.771C71.3142 435.143 70.3999 439.41 69.9428 442C71.0094 441.848 72.3809 441.695 74.0571 441.695Z" fill="#231F20"/>
<path d="M187.276 471.105C165.791 441.543 129.067 438.8 107.124 438.8C85.181 438.8 48.3048 441.543 26.9715 471.105C5.63816 500.667 6.55245 556.286 6.55245 556.286H207.695C207.695 556.286 208.762 500.819 187.276 471.105Z" fill="#F6DA67"/>
<path d="M207.695 557.352H6.55235C5.94283 557.352 5.48569 556.895 5.48569 556.286C5.48569 555.676 4.72378 500.057 26.0571 470.495C49.6762 437.733 92.9524 437.733 107.124 437.733C164.571 437.733 182.4 462.267 188.19 470.495C209.676 500.057 208.914 555.676 208.762 556.286C208.914 556.895 208.457 557.352 207.695 557.352ZM7.61902 555.219H206.629C206.629 547.295 205.714 498.533 186.362 471.867C165.79 443.371 131.2 440.019 107.124 440.019C83.0476 440.019 48.4571 443.371 27.8857 471.867C8.5333 498.533 7.7714 547.295 7.61902 555.219Z" fill="#231F20"/>
<path d="M49.0667 557.352C48.4572 557.352 48 556.895 48 556.286L42.8191 488.324C42.6667 487.714 43.1238 487.105 43.7334 487.105C44.3429 486.952 44.9524 487.41 44.9524 488.019V488.171L50.1334 556.133C50.2858 556.895 49.8286 557.352 49.0667 557.352Z" fill="#231F20"/>
<path d="M169.295 557.352C168.533 557.352 168.076 556.743 168.229 556.133L173.41 490.152C173.41 489.543 174.019 489.086 174.629 489.086C175.238 489.086 175.695 489.695 175.695 490.305L170.514 556.286C170.362 557.048 169.905 557.352 169.295 557.352Z" fill="#231F20"/>
<path d="M175.086 500.514C193.067 500.514 207.695 515.143 207.695 533.276V552.838H0.914307V533.124C0.914307 515.143 15.5429 500.514 33.5238 500.514H175.086Z" fill="#231F20"/>
<path d="M207.695 553.6H0.914286C0.457143 553.6 0 553.143 0 552.686V532.667C0 514.381 14.9333 499.448 33.219 499.448H175.39C193.676 499.448 208.61 514.381 208.61 532.667V552.686C208.61 553.295 208.305 553.6 207.695 553.6ZM1.82857 551.771H206.781V532.667C206.781 515.295 192.762 501.276 175.39 501.276H33.219C15.8476 501.276 1.82857 515.295 1.82857 532.667V551.771Z" fill="#231F20"/>
<path d="M175.086 513.924C193.067 513.924 207.695 528.552 207.695 546.686V556.248H0.914307V546.686C0.914307 528.705 15.5429 514.076 33.5238 513.924H175.086Z" fill="#FF8F37"/>
<path d="M207.695 557.162H0.914286C0.457143 557.162 0 556.705 0 556.248V546.229C0 527.943 14.9333 513.01 33.219 513.01H175.39C193.676 513.01 208.61 527.943 208.61 546.229V556.248C208.61 556.705 208.305 557.162 207.695 557.162ZM1.82857 555.333H206.781V546.229C206.781 528.857 192.762 514.838 175.39 514.838H33.219C15.8476 514.838 1.82857 528.857 1.82857 546.229V555.333Z" fill="#231F20"/>
<path d="M149.334 161.772C152.868 161.772 155.734 158.907 155.734 155.372C155.734 151.837 152.868 148.972 149.334 148.972C145.799 148.972 142.933 151.837 142.933 155.372C142.933 158.907 145.799 161.772 149.334 161.772Z" fill="white"/>
<path d="M182.248 109.353C185.783 109.353 188.648 106.488 188.648 102.953C188.648 99.418 185.783 96.5524 182.248 96.5524C178.713 96.5524 175.847 99.418 175.847 102.953C175.847 106.488 178.713 109.353 182.248 109.353Z" fill="white"/>
<path d="M286.324 74.6105C289.859 74.6105 292.725 71.7449 292.725 68.2101C292.725 64.6752 289.859 61.8096 286.324 61.8096C282.789 61.8096 279.924 64.6752 279.924 68.2101C279.924 71.7449 282.789 74.6105 286.324 74.6105Z" fill="white"/>
<path d="M333.715 206.572C337.25 206.572 340.115 203.707 340.115 200.172C340.115 196.637 337.25 193.771 333.715 193.771C330.18 193.771 327.314 196.637 327.314 200.172C327.314 203.707 330.18 206.572 333.715 206.572Z" fill="white"/>
<path d="M233.905 176.858C237.44 176.858 240.305 173.993 240.305 170.458C240.305 166.923 237.44 164.057 233.905 164.057C230.37 164.057 227.505 166.923 227.505 170.458C227.505 173.993 230.37 176.858 233.905 176.858Z" fill="white"/>
<path d="M264.131 31.1037L337.837 41.4624L331.549 86.2027L320.319 84.6245L325.129 50.4008L273.437 43.136L268.565 77.8053L257.781 76.2897L264.131 31.1037ZM265.575 61.5712L328.675 70.4393L327.197 80.9559L264.097 72.0878L265.575 61.5712ZM297.237 19.9425L308.555 21.5332L296.794 105.221L285.475 103.63L297.237 19.9425ZM367.241 48.2305L411.179 54.4056L409.864 63.7637L365.926 57.5886L367.241 48.2305ZM367.053 66.381L406.803 71.9674L405.537 80.969L365.788 75.3825L367.053 66.381ZM361 85.5249L407.434 92.0507L406.206 100.785L359.772 94.259L361 85.5249ZM383.761 53.5515L393.654 54.9418L388.155 94.0673L378.263 92.677L383.761 53.5515ZM392.748 82.0799L400.023 79.4669C402.333 82.4272 405.016 86.6214 406.193 89.2406L398.499 92.2492C397.424 89.5533 394.945 85.206 392.748 82.0799ZM353.966 31.4598L429.276 42.0439L418.015 122.166L406.518 120.551L416.401 50.2317L363.461 42.7915L353.579 113.11L342.705 111.582L353.966 31.4598ZM350.592 98.1492L413.781 107.03L412.403 116.833L349.214 107.953L350.592 98.1492Z" fill="#231F20"/>
<path d="M47.0691 70.917L93.4929 64.3926L94.662 72.7109L48.2382 79.2353L47.0691 70.917ZM48.4493 100.856L100.181 93.5859L101.383 102.142L49.6518 109.412L48.4493 100.856ZM56.0807 113.194L96.959 107.449L101.012 136.286L91.5843 137.611L88.6895 117.013L66.2699 120.164L69.1981 140.999L60.1668 142.269L56.0807 113.194ZM63.3267 130.838L94.223 126.495L95.3698 134.655L64.4735 138.997L63.3267 130.838ZM62.9627 71.9148L72.6029 71.5294C72.217 82.005 71.2368 95.1494 70.4155 103.101L60.592 104.482C61.8219 95.9878 62.8034 82.2778 62.9627 71.9148ZM51.7779 84.8776L83.9418 80.3572L85.0663 88.3586L52.9024 92.8789L51.7779 84.8776ZM81.6444 80.6801L82.5158 80.5576L83.9653 79.95L90.6868 79.4901C91.3955 86.2573 91.6957 93.5666 91.8747 99.4389L82.8447 100.142C82.7004 93.9422 82.1527 86.0213 81.778 81.6308L81.6444 80.6801ZM26.0652 78.393L31.3525 71.7525C36.1203 74.637 42.7064 78.9625 45.7995 82.0016L40.3066 89.4788C37.2705 86.2702 30.8776 81.5944 26.0652 78.393ZM25.1762 96.2101L39.5153 94.1949L40.7957 103.305L26.4566 105.321L25.1762 96.2101ZM42.6045 143.767L39.6592 135.456L41.3862 132.225L55.0924 119.958C55.8447 122.437 57.4883 126.084 58.5477 127.874C46.0423 139.487 43.7063 141.835 42.6045 143.767ZM42.6045 143.767C41.4894 141.581 38.5449 137.875 36.6933 136.196C38.1107 134.785 39.803 131.882 39.302 128.317L34.6035 94.8852L43.4763 93.6382L49.1435 133.962C49.1435 133.962 42.1369 140.44 42.6045 143.767ZM127.213 122.101L166.982 116.512L168.084 124.355L128.315 129.944L127.213 122.101ZM119.555 96.3565L166.85 89.7096L167.908 97.2356L120.613 103.883L119.555 96.3565ZM117.996 85.2655L165.292 78.6186L166.349 86.1446L119.054 92.7916L117.996 85.2655ZM103.933 75.4472L176.104 65.3043L177.239 73.3849L105.069 83.5278L103.933 75.4472ZM116.328 62.4759L160.692 56.2409L161.739 63.6877L117.375 69.9227L116.328 62.4759ZM119.857 107.705L169.688 100.702L173.262 126.132L163.438 127.512L160.978 110.004L130.319 114.313L132.813 132.059L123.465 133.373L119.857 107.705Z" fill="#231F20"/>
<path d="M256.4 131.3L263.18 133.4C259.28 143.66 253.04 154.46 246.5 161.3C245.84 159.56 243.92 155.6 242.72 153.86C248.12 148.4 253.34 139.88 256.4 131.3ZM250.34 147.86L257.3 140.9V140.96V187.34H250.34V147.86ZM271.16 160.4H293.18V167.06H271.16V160.4ZM290.78 160.4H292.04L293.12 159.98L298.16 163.22C293.24 168.74 286.64 175.7 280.94 181.46L275.06 177.74C280.7 172.28 287.36 165.2 290.78 161.12V160.4ZM274.94 131.72L282.08 132.62C279.32 144.08 275.48 158.54 272.84 167.06H265.16C268.28 158 272.42 143.06 274.94 131.72ZM263 137.42H296.72V143.96H263V137.42ZM259.52 148.64H299.84V155.3H259.52V148.64ZM268.88 175.16L273.92 170.78C279.98 174.08 287 178.82 290.66 182.18L285.5 187.58C282.08 184.1 274.88 178.7 268.88 175.16ZM345.8 149.18L351.38 146.36C354.56 150.56 358.4 156.26 359.96 159.98L353.9 163.22C352.52 159.5 348.98 153.56 345.8 149.18ZM325.76 138.92H359.36V145.34H325.76V138.92ZM342.8 161.36H349.88V178.28C349.88 180.14 350 180.38 350.84 180.38C351.2 180.38 352.52 180.38 352.94 180.38C353.9 180.38 354.08 179.06 354.26 171.38C355.64 172.58 358.52 173.72 360.32 174.26C359.84 183.68 358.28 186.44 353.66 186.44C352.64 186.44 350.48 186.44 349.52 186.44C344.06 186.44 342.8 184.34 342.8 178.28V161.36ZM331.52 161.42H338.6C338.12 174.02 336.5 182.72 325.58 187.76C324.74 185.96 322.76 183.14 321.14 181.82C330.32 177.92 331.16 171.56 331.52 161.42ZM326.42 162.38L326.18 157.1L329.66 154.94L352.58 153.02C352.58 154.76 352.94 157.4 353.24 158.78C331.58 161 328.52 161.42 326.42 162.38ZM336.8 132.5L343.58 130.82C344.66 132.98 345.98 136.04 346.64 137.84L339.38 139.82C338.9 137.96 337.76 134.78 336.8 132.5ZM326.42 162.38C326.12 160.58 324.98 156.98 324.32 155.42C325.64 155.12 327.38 154.64 328.7 153.38C330.38 151.82 335.96 144.44 338.18 141.2H346.64C343.16 146 337.4 153.98 333.86 157.88C333.86 157.88 326.42 160.52 326.42 162.38ZM306.02 171.86C305.66 170.48 304.52 167.06 303.68 165.2C305.24 164.84 306.56 163.52 308.42 161.36C310.4 159.26 316.34 151.04 320.12 143.06L326.36 146.96C322.1 154.64 316.28 162.44 310.7 168.14V168.38C310.7 168.38 306.02 170.6 306.02 171.86ZM306.02 171.86L305.42 165.86L308.48 163.64L324.44 160.46C324.26 162.44 324.26 165.26 324.44 166.76C310.1 170.06 307.58 170.9 306.02 171.86ZM305.6 157.22C305.18 155.72 303.98 152.06 303.08 150.02C304.34 149.72 305.42 148.46 306.68 146.54C308 144.68 311.78 137.36 313.88 130.46L321.2 133.82C318.38 140.66 313.88 148.16 309.68 153.32V153.5C309.68 153.5 305.6 155.96 305.6 157.22ZM305.6 157.22L305.42 152L308.42 149.96L318.5 149.18C318.14 151.04 317.78 153.74 317.78 155.18C308.78 156.2 306.8 156.62 305.6 157.22ZM304.04 177.92C309.08 176.42 316.88 173.66 324.32 171.02L325.64 177.08C318.86 179.96 311.54 182.84 305.72 185.06L304.04 177.92Z" fill="#231F20"/>
<path d="M136 166.6H167.04V171.08H136V166.6ZM132.84 166.6H137.76V180.84C137.76 187.28 137.28 196.68 134.2 202.6C133.28 201.8 131.08 200.44 129.88 199.96C132.64 194.56 132.84 186.72 132.84 180.84V166.6ZM139.32 178.68H162.92V183.2H139.32V178.68ZM160.88 178.68H165.72C165.72 178.68 165.68 180.12 165.6 180.72C165.04 193.12 164.44 198 162.96 199.72C161.92 201.04 160.84 201.44 159.24 201.64C157.84 201.8 155.52 201.8 153.16 201.72C153.08 200.28 152.44 198.24 151.56 196.92C153.84 197.12 156.12 197.16 157.12 197.16C157.88 197.16 158.32 197.04 158.8 196.56C159.88 195.56 160.4 190.84 160.88 179.48V178.68ZM148.36 172.96H153.4C152.96 184.96 152.12 196.08 140.72 202.36C140.12 201.2 138.72 199.64 137.6 198.8C147.96 193.4 148.04 183.6 148.36 172.96ZM186.56 165.24H191.52V183.08C191.52 191.76 188.72 199.32 173.12 202.72C172.56 201.64 171.24 199.52 170.2 198.44C184.96 195.84 186.56 190.12 186.56 183.04V165.24ZM178.04 175.44V181.04H199.88V175.44H178.04ZM173.36 170.8H204.84V185.64H173.36V170.8ZM179.4 186.08C184.64 195.64 193.4 197.04 208.2 197.24C207.28 198.4 206.28 200.56 206 202.24C190.64 201.52 180.68 199.16 174.96 187.68L179.4 186.08Z" fill="#231F20"/>
</svg>
