<svg width="246" height="119" viewBox="0 0 246 119" fill="none" xmlns="http://www.w3.org/2000/svg">
<g clip-path="url(#clip0_122_46)">
<circle cx="69" cy="50" r="69" fill="white"/>
<path fill-rule="evenodd" clip-rule="evenodd" d="M76.4688 76.8592C76.3378 78.8083 78.1613 78.3211 79.0894 77.8338C79.0894 77.4829 79.0034 76.9527 78.7618 76.3854C78.0521 75.7312 76.5998 74.9101 76.4688 76.8592Z" fill="#FD6500"/>
<path d="M79.0894 77.8338C78.1613 78.3211 76.3378 78.8083 76.4688 76.8592C76.5998 74.9101 78.0521 75.7312 78.7618 76.3854C79.0034 76.9527 79.0894 77.4829 79.0894 77.8338Z" fill="#191919"/>
<path fill-rule="evenodd" clip-rule="evenodd" d="M58.4284 67.1122C61.8084 67.1122 64.5485 64.4463 64.5485 61.1576C64.5485 57.8689 61.8084 55.2029 58.4284 55.2029C55.0484 55.2029 52.3083 57.8689 52.3083 61.1576C52.3083 64.4463 55.0484 67.1122 58.4284 67.1122ZM81.2291 66.6542C84.6091 66.6542 87.3492 63.9882 87.3492 60.6995C87.3492 57.4109 84.6091 54.7449 81.2291 54.7449C77.8491 54.7449 75.1091 57.4109 75.1091 60.6995C75.1091 63.9882 77.8491 66.6542 81.2291 66.6542Z" fill="#FD6500"/>
<path fill-rule="evenodd" clip-rule="evenodd" d="M64.5485 61.1576C64.5485 64.4463 61.8084 67.1122 58.4284 67.1122C55.0484 67.1122 52.3083 64.4463 52.3083 61.1576C52.3083 57.8689 55.0484 55.2029 58.4284 55.2029C61.8084 55.2029 64.5485 57.8689 64.5485 61.1576ZM59.6053 64.822C61.8153 64.822 63.6069 63.0789 63.6069 60.9286C63.6069 58.7783 61.8153 57.0351 59.6053 57.0351C57.3953 57.0351 55.6038 58.7783 55.6038 60.9286C55.6038 63.0789 57.3953 64.822 59.6053 64.822Z" fill="#F1F3F2"/>
<path d="M63.6069 60.9286C63.6069 63.0789 61.8153 64.822 59.6053 64.822C57.3953 64.822 55.6038 63.0789 55.6038 60.9286C55.6038 58.7783 57.3953 57.0351 59.6053 57.0351C61.8153 57.0351 63.6069 58.7783 63.6069 60.9286Z" fill="#191919"/>
<path d="M85.9369 60.4705C85.9369 62.6208 84.1453 64.3639 81.9353 64.3639C79.7253 64.3639 77.9337 62.6208 77.9337 60.4705C77.9337 58.3202 79.7253 56.5771 81.9353 56.5771C84.1453 56.5771 85.9369 58.3202 85.9369 60.4705Z" fill="#191919"/>
<path fill-rule="evenodd" clip-rule="evenodd" d="M87.3492 60.6995C87.3492 63.9882 84.6091 66.6542 81.2291 66.6542C77.8491 66.6542 75.1091 63.9882 75.1091 60.6995C75.1091 57.4109 77.8491 54.7449 81.2291 54.7449C84.6091 54.7449 87.3492 57.4109 87.3492 60.6995ZM81.9353 64.3639C84.1453 64.3639 85.9369 62.6208 85.9369 60.4705C85.9369 58.3202 84.1453 56.5771 81.9353 56.5771C79.7253 56.5771 77.9337 58.3202 77.9337 60.4705C77.9337 62.6208 79.7253 64.3639 81.9353 64.3639Z" fill="#F1F3F2"/>
<path fill-rule="evenodd" clip-rule="evenodd" d="M60.7453 84.4451C66.6473 84.8692 72.798 84.7837 78.7019 84.4451C121.741 81.9767 109.659 21.376 70.7516 24.2333C70.7395 24.6281 70.7334 25.0405 70.7344 25.471C70.7349 25.6504 70.7365 25.833 70.7394 26.0188C74.3016 26.0188 73.1102 29.0844 69.9672 28.9768C66.9299 28.9768 65.6932 27.0629 69.1397 26.0188L69.0846 25.471C69.0846 25.2325 69.0872 24.9016 69.0942 24.5558C69.0963 24.449 69.099 24.3407 69.102 24.2333C37.395 24.5357 23.0681 60.2493 40.5143 76.5861C45.0709 80.853 51.7389 83.798 60.7453 84.4451ZM76.4688 76.8592C76.3378 78.8083 78.1613 78.3211 79.0894 77.8338C79.0894 77.4829 79.0034 76.9527 78.7618 76.3854C78.0521 75.7312 76.5998 74.9101 76.4688 76.8592ZM58.4284 67.1122C61.8084 67.1122 64.5485 64.4463 64.5485 61.1576C64.5485 57.8689 61.8084 55.2029 58.4284 55.2029C55.0484 55.2029 52.3083 57.8689 52.3083 61.1576C52.3083 64.4463 55.0484 67.1122 58.4284 67.1122ZM81.2291 66.6542C84.6091 66.6542 87.3492 63.9882 87.3492 60.6995C87.3492 57.4109 84.6091 54.7449 81.2291 54.7449C77.8491 54.7449 75.1091 57.4109 75.1091 60.6995C75.1091 63.9882 77.8491 66.6542 81.2291 66.6542Z" fill="#FD6500"/>
<path d="M69.102 24.2333C69.099 24.3407 69.0963 24.449 69.0942 24.5558C69.0872 24.9016 69.0846 25.2325 69.0846 25.471L69.1397 26.0188C65.6932 27.0629 66.9299 28.9768 69.9672 28.9768C73.1102 29.0844 74.3016 26.0188 70.7394 26.0188C70.7365 25.833 70.7349 25.6504 70.7344 25.471C70.7334 25.0405 70.7395 24.6281 70.7516 24.2333C70.8879 19.8238 71.7944 17.6184 72.284 17.0351C72.4678 16.8525 72.7032 16.3777 72.1736 15.9395C71.6441 15.5012 71.291 15.7569 71.1807 15.9395C70.1216 17.3418 69.6378 18.1488 69.5 19.5C66.8362 5.45209 59.0158 12.0441 45.5 9L45.4802 9.09687C43.6906 17.8724 42.7261 22.6019 69.1949 22.9512C69.1463 23.144 69.1179 23.6771 69.102 24.2333Z" fill="#40C351"/>
<path d="M69.102 24.2333C37.395 24.5357 23.0681 60.2493 40.5143 76.5861M69.102 24.2333V24.2333ZM69.102 24.2333C69.099 24.3407 69.0963 24.449 69.0942 24.5558M69.102 24.2333C69.1179 23.6771 69.1463 23.144 69.1949 22.9512M70.7516 24.2333C109.659 21.376 121.741 81.9767 78.7019 84.4451M70.7516 24.2333C70.7395 24.6281 70.7334 25.0405 70.7344 25.471M70.7516 24.2333C70.8879 19.8238 71.7944 17.6184 72.284 17.0351M90.2269 76.0471C89.5779 83.1261 83.0665 79.8058 79.0894 77.8338M79.0894 77.8338C78.1613 78.3211 76.3378 78.8083 76.4688 76.8592C76.5998 74.9101 78.0521 75.7312 78.7618 76.3854M79.0894 77.8338C79.0894 77.4829 79.0034 76.9527 78.7618 76.3854M76.4688 74.098C77.7162 74.6392 78.4069 75.5522 78.7618 76.3854M64.5124 72.1489C66.4232 74.098 71.3259 76.7293 75.6499 71.6616M42.5649 70.8495C41.5969 72.1986 40.5637 74.3658 40.5143 76.5861M44.0437 84.7274C44.5896 84.944 45.8781 85.4096 46.6643 85.5395M44.0437 84.7274L46.5005 83.7529M44.0437 84.7274L44.8626 87.0014M44.0437 84.7274C40.427 83.1709 40.4606 78.9991 40.5143 76.5861M60.7453 84.4451C66.6473 84.8692 72.798 84.7837 78.7019 84.4451M60.7453 84.4451C51.7389 83.798 45.0709 80.8529 40.5143 76.5861M60.7453 84.4451C61.0535 89.1087 62.0897 97 55.9955 97M78.7019 84.4451C78.056 89.0409 77.4501 97 83.6345 97M69.1949 22.9512C42.7261 22.6019 43.6906 17.8724 45.4802 9.09687M69.1949 22.9512C69.137 23.1812 69.1076 23.8957 69.0942 24.5558M45.5 9C59.0158 12.0441 66.8362 5.45209 69.5 19.5C69.6378 18.1488 70.1216 17.3418 71.1807 15.9395C71.291 15.7569 71.6441 15.5012 72.1736 15.9395C72.7032 16.3777 72.4678 16.8525 72.284 17.0351M45.5 9L45.4802 9.09687M45.5 9C45.4934 9.03234 45.4868 9.06463 45.4802 9.09687M72.284 17.0351C71.7506 17.6706 70.7222 20.2317 70.7344 25.471M69.1949 26.5666L69.1397 26.0188M69.1397 26.0188L69.0846 25.471C69.0846 25.2325 69.0872 24.9016 69.0942 24.5558M69.1397 26.0188C65.6932 27.0629 66.9299 28.9768 69.9672 28.9768C73.1102 29.0844 74.3016 26.0188 70.7394 26.0188C70.7365 25.833 70.7349 25.6504 70.7344 25.471M64.5485 61.1576C64.5485 64.4463 61.8084 67.1122 58.4284 67.1122C55.0484 67.1122 52.3083 64.4463 52.3083 61.1576C52.3083 57.8689 55.0484 55.2029 58.4284 55.2029C61.8084 55.2029 64.5485 57.8689 64.5485 61.1576ZM87.3492 60.6995C87.3492 63.9882 84.6091 66.6542 81.2291 66.6542C77.8491 66.6542 75.1091 63.9882 75.1091 60.6995C75.1091 57.4109 77.8491 54.7449 81.2291 54.7449C84.6091 54.7449 87.3492 57.4109 87.3492 60.6995ZM63.6069 60.9286C63.6069 63.0789 61.8153 64.822 59.6053 64.822C57.3953 64.822 55.6038 63.0789 55.6038 60.9286C55.6038 58.7783 57.3953 57.0351 59.6053 57.0351C61.8153 57.0351 63.6069 58.7783 63.6069 60.9286ZM85.9369 60.4705C85.9369 62.6208 84.1453 64.3639 81.9353 64.3639C79.7253 64.3639 77.9337 62.6208 77.9337 60.4705C77.9337 58.3202 79.7253 56.5771 81.9353 56.5771C84.1453 56.5771 85.9369 58.3202 85.9369 60.4705Z" stroke="#191919" stroke-linecap="round"/>
<circle cx="57.7347" cy="58.8673" r="2.06122" fill="#F1F3F2"/>
<ellipse cx="53.6358" cy="36.5385" rx="3.60714" ry="2.06122" transform="rotate(-26.0652 53.6358 36.5385)" fill="#FF9A44"/>
<ellipse cx="49.5357" cy="44.7187" rx="2.72991" ry="1.55995" transform="rotate(-45.2738 49.5357 44.7187)" fill="#FF9A44"/>
<ellipse cx="43.551" cy="42.6284" rx="2.07805" ry="1.18746" transform="rotate(-45.2738 43.551 42.6284)" fill="#FF9A44"/>
<circle cx="79.3775" cy="58.8673" r="2.06122" fill="#F1F3F2"/>
</g>
<path d="M158.536 45H155.176V32.4C155.176 30.288 156.168 29.232 158.152 29.232H159.928C161.096 29.232 161.928 29.616 162.424 30.384C162.888 29.616 163.72 29.232 164.92 29.232H166.696C168.68 29.232 169.672 30.288 169.672 32.4V45H166.312V32.112C166.312 31.984 166.264 31.872 166.168 31.776C166.088 31.68 165.984 31.632 165.856 31.632H164.56C164.432 31.632 164.32 31.68 164.224 31.776C164.144 31.872 164.104 31.984 164.104 32.112V45H160.744V32.112C160.744 31.984 160.696 31.872 160.6 31.776C160.52 31.68 160.416 31.632 160.288 31.632H158.992C158.864 31.632 158.752 31.68 158.656 31.776C158.576 31.872 158.536 31.984 158.536 32.112V45ZM178.149 29.232C180.133 29.232 181.125 30.288 181.125 32.4V45H177.765V39.792H175.341V45H171.981V32.4C171.981 30.288 172.973 29.232 174.957 29.232H178.149ZM175.341 37.2H177.765V31.992C177.765 31.864 177.717 31.752 177.621 31.656C177.541 31.56 177.437 31.512 177.309 31.512H175.797C175.669 31.512 175.557 31.56 175.461 31.656C175.381 31.752 175.341 31.864 175.341 31.992V37.2ZM192.534 45H189.174V32.112C189.174 31.984 189.126 31.872 189.03 31.776C188.95 31.68 188.846 31.632 188.718 31.632H187.422C187.294 31.632 187.182 31.68 187.086 31.776C187.006 31.872 186.966 31.984 186.966 32.112V45H183.606V32.4C183.606 30.288 184.598 29.232 186.582 29.232H189.558C191.542 29.232 192.534 30.288 192.534 32.4V45ZM200.954 29.472C202.938 29.472 203.93 30.528 203.93 32.64V41.832C203.93 43.944 202.938 45 200.954 45H194.786V29.472H200.954ZM200.57 42.216V32.232C200.57 32.104 200.522 31.992 200.426 31.896C200.346 31.8 200.242 31.752 200.114 31.752H198.146V42.696H200.114C200.242 42.696 200.346 42.648 200.426 42.552C200.522 42.456 200.57 42.344 200.57 42.216ZM212.602 29.232C214.586 29.232 215.578 30.288 215.578 32.4V45H212.218V39.792H209.794V45H206.434V32.4C206.434 30.288 207.426 29.232 209.41 29.232H212.602ZM209.794 37.2H212.218V31.992C212.218 31.864 212.17 31.752 212.074 31.656C211.994 31.56 211.89 31.512 211.762 31.512H210.25C210.122 31.512 210.01 31.56 209.914 31.656C209.834 31.752 209.794 31.864 209.794 31.992V37.2ZM221.443 38.64V45H218.083V29.472H224.059C226.043 29.472 227.035 30.528 227.035 32.64V34.44C227.035 35.72 226.579 36.536 225.667 36.888C226.467 37.176 226.867 37.832 226.867 38.856V45H223.507V39.12C223.507 38.8 223.355 38.64 223.051 38.64H221.443ZM221.443 31.752V36.288H223.219C223.347 36.288 223.451 36.24 223.531 36.144C223.627 36.048 223.675 35.936 223.675 35.808V32.232C223.675 32.104 223.627 31.992 223.531 31.896C223.451 31.8 223.347 31.752 223.219 31.752H221.443ZM232.552 29.472V45H229.192V29.472H232.552ZM243.956 45H240.596V32.112C240.596 31.984 240.548 31.872 240.452 31.776C240.372 31.68 240.268 31.632 240.14 31.632H238.844C238.716 31.632 238.604 31.68 238.508 31.776C238.428 31.872 238.388 31.984 238.388 32.112V45H235.028V32.4C235.028 30.288 236.02 29.232 238.004 29.232H240.98C242.964 29.232 243.956 30.288 243.956 32.4V45ZM163.816 58.552H160.624V57.328C160.624 57.2 160.576 57.088 160.48 56.992C160.4 56.896 160.296 56.848 160.168 56.848H158.848C158.72 56.848 158.608 56.896 158.512 56.992C158.432 57.088 158.392 57.2 158.392 57.328V60.088C158.392 60.216 158.432 60.328 158.512 60.424C158.608 60.52 158.72 60.568 158.848 60.568H161.008C162.992 60.6 163.984 61.656 163.984 63.736V67.072C163.984 69.184 162.992 70.24 161.008 70.24H158.176C156.192 70.24 155.2 69.184 155.2 67.072V65.464H158.392V67.192C158.392 67.32 158.432 67.432 158.512 67.528C158.608 67.624 158.72 67.672 158.848 67.672H160.336C160.464 67.672 160.568 67.624 160.648 67.528C160.744 67.432 160.792 67.32 160.792 67.192V64.144C160.792 64.016 160.744 63.904 160.648 63.808C160.568 63.712 160.464 63.664 160.336 63.664H158.176C156.192 63.664 155.2 62.608 155.2 60.496V57.4C155.2 55.288 156.192 54.232 158.176 54.232H160.84C162.824 54.232 163.816 55.288 163.816 57.4V58.552ZM171.976 67.456V65.056H175.168V67.072C175.168 69.184 174.176 70.24 172.192 70.24H169.168C167.184 70.24 166.192 69.184 166.192 67.072V57.4C166.192 55.288 167.184 54.232 169.168 54.232H172.192C174.176 54.232 175.168 55.288 175.168 57.4V58.864H171.976V56.992C171.976 56.864 171.928 56.752 171.832 56.656C171.752 56.56 171.648 56.512 171.52 56.512H170.008C169.88 56.512 169.768 56.56 169.672 56.656C169.592 56.752 169.552 56.864 169.552 56.992V67.456C169.552 67.584 169.592 67.696 169.672 67.792C169.768 67.888 169.88 67.936 170.008 67.936H171.52C171.648 67.936 171.752 67.888 171.832 67.792C171.928 67.696 171.976 67.584 171.976 67.456ZM180.544 63.904V70H177.184V54.472H180.544V60.976H183.208V54.472H186.568V70H183.208V63.904H180.544ZM198.117 57.4V67.072C198.117 69.184 197.125 70.24 195.141 70.24H191.949C189.965 70.24 188.973 69.184 188.973 67.072V57.4C188.973 55.288 189.965 54.232 191.949 54.232H195.141C197.125 54.232 198.117 55.288 198.117 57.4ZM194.757 67.456V56.992C194.757 56.864 194.709 56.752 194.613 56.656C194.533 56.56 194.429 56.512 194.301 56.512H192.789C192.661 56.512 192.549 56.56 192.453 56.656C192.373 56.752 192.333 56.864 192.333 56.992V67.456C192.333 67.584 192.373 67.696 192.453 67.792C192.549 67.888 192.661 67.936 192.789 67.936H194.301C194.429 67.936 194.533 67.888 194.613 67.792C194.709 67.696 194.757 67.584 194.757 67.456ZM209.742 57.4V67.072C209.742 69.184 208.75 70.24 206.766 70.24H203.574C201.59 70.24 200.598 69.184 200.598 67.072V57.4C200.598 55.288 201.59 54.232 203.574 54.232H206.766C208.75 54.232 209.742 55.288 209.742 57.4ZM206.382 67.456V56.992C206.382 56.864 206.334 56.752 206.238 56.656C206.158 56.56 206.054 56.512 205.926 56.512H204.414C204.286 56.512 204.174 56.56 204.078 56.656C203.998 56.752 203.958 56.864 203.958 56.992V67.456C203.958 67.584 203.998 67.696 204.078 67.792C204.174 67.888 204.286 67.936 204.414 67.936H205.926C206.054 67.936 206.158 67.888 206.238 67.792C206.334 67.696 206.382 67.584 206.382 67.456ZM215.583 67.168H219.255V70H212.223V54.472H215.583V67.168Z" fill="white"/>
<defs>
<clipPath id="clip0_122_46">
<rect width="138" height="119" fill="white"/>
</clipPath>
</defs>
</svg>
