<svg width="441" height="348" viewBox="0 0 441 348" fill="none" xmlns="http://www.w3.org/2000/svg">
<path d="M15.9412 198.386L59.1622 213.79C61.6003 214.677 62.8193 217.337 62.0436 219.775L53.1777 244.71C52.2911 247.148 49.6314 248.367 47.1933 247.591L3.97235 232.187C1.53425 231.3 0.315199 228.64 1.09096 226.202L9.95679 201.267C10.8434 198.718 13.5031 197.499 15.9412 198.386Z" fill="white"/>
<path d="M48.7448 248.81C48.0798 248.81 47.5257 248.7 46.8608 248.478L3.63983 232.963C0.758435 231.965 -0.682263 228.751 0.315144 225.87L9.18098 200.935C10.1784 198.053 13.3922 196.502 16.2736 197.499L59.4946 213.015C62.376 214.012 63.8167 217.226 62.8193 220.107L53.9534 245.042C53.1777 247.259 51.072 248.81 48.7448 248.81ZM47.4149 246.816C49.4097 247.48 51.6262 246.483 52.2911 244.488L61.1569 219.553C61.8219 217.558 60.8245 215.342 58.8296 214.677L15.6087 199.162C13.6139 198.497 11.3974 199.494 10.7325 201.489L1.86667 226.424C1.20173 228.419 2.19913 230.635 4.19395 231.3L47.4149 246.816Z" fill="#231F20"/>
<path d="M54.9508 223.432C54.84 223.432 54.7292 223.432 54.6184 223.432L13.3922 208.692C12.9489 208.582 12.6165 208.138 12.7273 207.584C12.8381 207.141 13.2814 206.808 13.8355 206.919C13.9463 206.919 13.9463 206.919 13.9463 207.03L55.1725 221.769C55.6158 221.88 55.8374 222.434 55.7266 222.878C55.6158 223.21 55.2833 223.432 54.9508 223.432Z" fill="#D1D3D4"/>
<path d="M33.421 211.839L30.6893 219.571L33.9287 220.716L36.6604 212.983L33.421 211.839Z" fill="#D1D3D4"/>
<path d="M47.1933 210.466C47.0824 210.466 46.9716 210.466 46.8608 210.466L27.5776 203.595C27.1343 203.484 26.9127 202.93 27.0235 202.486L28.3534 198.829C29.1291 196.502 31.678 195.394 34.0053 196.17L46.5283 200.602C48.8556 201.378 49.9638 203.927 49.1881 206.254L47.8582 209.912C47.8582 210.133 47.5257 210.466 47.1933 210.466ZM29.0183 202.154L46.6391 208.471L47.6365 205.589C48.0798 204.26 47.4149 202.708 46.085 202.154L33.562 197.721C32.1213 197.278 30.6806 197.943 30.1265 199.383L29.0183 202.154Z" fill="#231F20"/>
<path d="M183.616 87.1195C183.616 87.1195 191.706 84.0164 192.149 82.2432C192.593 80.4701 190.82 77.0346 190.82 77.0346C190.82 77.0346 200.018 69.9419 198.688 68.612C197.358 67.2822 175.194 80.4701 175.194 80.4701" fill="white"/>
<path d="M183.616 88.0063C183.284 88.0063 182.951 87.7846 182.841 87.4522C182.73 87.0089 182.951 86.5656 183.284 86.3439C187.273 84.7924 191.041 82.7976 191.263 82.0218C191.485 80.9136 190.598 78.6971 189.933 77.4781C189.712 77.1456 189.822 76.5915 190.155 76.3699C193.258 73.9318 196.693 70.9395 197.58 69.4988C194.699 70.2746 184.503 75.8157 175.415 81.2461C174.972 81.4677 174.418 81.3569 174.196 80.9136C173.975 80.4703 174.086 79.9162 174.529 79.6945C197.248 66.1742 198.577 67.504 199.132 68.0581C199.464 68.3906 199.575 68.7231 199.575 69.1664C199.464 71.1612 194.477 75.2616 191.817 77.3673C192.371 78.4755 193.369 80.9136 192.925 82.4651C192.371 84.5708 186.387 87.0089 183.838 88.0063C183.838 88.0063 183.727 88.0063 183.616 88.0063Z" fill="#231F20"/>
<path d="M50.7396 187.303C50.7396 187.303 49.4097 190.85 48.7448 193.509C48.3015 195.948 48.1907 198.497 48.3015 201.045C47.6365 200.381 46.5283 200.27 45.8634 199.605C45.8634 200.713 45.7526 201.71 45.4201 202.819C45.0876 203.816 44.201 204.592 43.2036 204.924C42.6495 205.035 42.0954 204.924 41.5413 204.813C39.5465 204.37 36.2218 203.484 35.5568 201.156C35.3352 200.27 35.446 199.272 35.7785 198.497C36.8867 194.839 42.7603 185.198 43.7577 183.646" fill="white"/>
<path d="M42.5387 205.811C42.0954 205.811 41.6521 205.7 41.2088 205.589C39.4356 205.146 35.3352 204.259 34.5594 201.267C34.3378 200.159 34.4486 199.051 34.8919 198.053C36.2218 194.064 42.8712 183.092 42.8712 182.981C43.0928 182.538 43.6469 182.427 44.0902 182.649C44.5335 182.871 44.6443 183.425 44.4227 183.868C42.6495 186.639 37.5517 195.283 36.5542 198.497C36.2218 199.162 36.2218 199.937 36.3326 200.713C36.8867 202.708 40.3222 203.484 41.6521 203.705C42.0954 203.816 42.5387 203.927 42.982 203.816C43.7577 203.594 44.3118 203.04 44.5335 202.265C44.866 201.378 44.9768 200.381 44.9768 199.383C44.9768 198.94 45.4201 198.497 45.8634 198.497C46.085 198.497 46.1958 198.607 46.4175 198.718C46.75 198.94 46.9716 199.051 47.3041 199.162H47.4149C47.4149 197.056 47.5257 195.061 47.969 193.066C48.6339 190.407 49.9638 186.971 49.9638 186.749C50.1855 186.306 50.6288 186.084 51.072 186.195C51.5153 186.306 51.737 186.86 51.6262 187.303C51.6262 187.303 50.2963 190.85 49.6314 193.399C49.1881 195.837 49.0772 198.164 49.1881 200.602C49.1881 201.046 48.8556 201.489 48.3015 201.489C48.0798 201.489 47.8582 201.378 47.6365 201.267C47.3041 201.046 46.9716 200.824 46.5283 200.713C46.5283 201.378 46.3067 202.154 46.085 202.819C45.6417 204.149 44.5335 205.146 43.2036 205.478C42.982 205.811 42.7603 205.811 42.5387 205.811Z" fill="#231F20"/>
<path d="M94.1822 138.209C93.1848 138.763 56.2807 182.871 51.2937 191.736L39.3248 185.752C39.3248 185.752 51.6262 158.6 79.9968 123.691C92.2982 115.934 94.1822 138.209 94.1822 138.209Z" fill="#FD6500"/>
<path d="M128.316 172.453C128.316 172.453 175.859 179.546 176.856 187.414C177.743 195.394 168.544 235.955 168.544 235.955L147.931 233.738C147.931 233.738 155.91 198.275 153.805 196.613C151.699 194.95 114.684 191.958 114.684 191.958L81.4375 293.472L61.3785 290.369L84.6514 180.433L128.316 172.453Z" fill="#231F20"/>
<path d="M81.4375 294.358H81.3267L61.2677 291.255C61.0461 291.255 60.8244 291.034 60.7136 290.923C60.6028 290.701 60.492 290.48 60.6028 290.258L83.8756 180.322C83.9864 179.989 84.2081 179.657 84.5405 179.657L128.094 171.567C128.205 171.567 128.316 171.567 128.426 171.567C128.537 171.567 140.506 173.34 152.364 176.11C176.967 181.762 177.41 185.974 177.632 187.304C178.518 195.283 169.763 234.514 169.32 236.176C169.209 236.62 168.766 236.952 168.323 236.841L147.71 234.625C147.488 234.625 147.266 234.514 147.045 234.292C146.934 234.071 146.823 233.849 146.934 233.627C150.591 217.226 153.916 199.162 153.029 197.278C151.367 196.28 129.202 194.175 115.128 192.955L82.2133 293.804C82.1024 294.137 81.77 294.358 81.4375 294.358ZM62.376 289.704L80.7726 292.474L113.687 191.736C113.798 191.404 114.13 191.071 114.574 191.182C123.329 191.847 152.032 194.285 154.248 195.948C156.465 197.61 152.586 216.782 148.929 232.963L167.769 234.957C168.988 229.416 176.634 194.507 175.859 187.414C175.194 182.095 146.38 175.889 128.205 173.229L85.3163 181.208L62.376 289.704Z" fill="#231F20"/>
<path d="M128.316 172.453L84.6515 180.543L95.5121 116.155C95.5121 116.155 117.455 115.379 121.334 117.596C125.213 119.812 128.316 172.453 128.316 172.453Z" fill="white"/>
<path d="M84.6514 181.43C84.4297 181.43 84.2081 181.319 83.9864 181.208C83.7648 180.987 83.654 180.765 83.7648 180.432L94.6254 116.044C94.7363 115.601 95.0687 115.379 95.512 115.269C97.8393 115.158 117.787 114.493 121.888 116.82C125.988 119.147 128.537 159.93 129.202 172.342C129.202 172.786 128.87 173.118 128.537 173.229L84.873 181.319L84.6514 181.43ZM96.2878 116.931L85.7596 179.435L127.429 171.677C125.988 146.521 123.218 119.923 121.001 118.261C118.009 116.598 102.716 116.82 96.2878 116.931Z" fill="#231F20"/>
<path d="M102.937 111.722C102.272 112.166 104.156 121.475 104.267 122.361C105.264 130.23 106.594 138.32 107.259 146.188C108.7 161.814 99.3909 178.327 92.6307 191.737C91.7441 193.51 90.7467 195.394 88.8627 196.28C87.5328 196.724 86.0921 196.945 84.6514 196.613C78.667 195.948 72.7933 194.064 67.5847 190.961C66.8089 190.628 66.2548 190.074 65.8115 189.409C65.2574 188.301 65.8115 186.86 66.2548 185.641C73.1258 170.348 73.4583 146.299 75.6747 129.676C90.9683 113.163 92.409 118.483 102.937 111.722Z" fill="#FD6500"/>
<path d="M133.081 104.74C133.303 104.74 134.411 132.003 134.522 133.111C135.187 141.423 131.64 159.154 127.651 166.247C127.872 157.27 123.218 145.634 119.339 137.766C117.455 133.887 117.012 125.575 116.679 121.253C116.679 120.81 115.46 111.39 115.239 111.39C115.239 111.39 126.099 103.41 133.081 104.74Z" fill="#FD6500"/>
<path d="M111.803 122.805L108.478 126.019L111.138 127.903C111.138 127.903 108.257 148.959 98.3935 151.951C88.5303 154.943 84.5407 153.946 84.5407 153.946L79.1104 161.039C79.1104 161.039 87.6437 163.477 88.1978 163.698C88.752 163.92 106.816 159.709 109.697 148.516C111.36 141.866 112.468 135.217 113.022 128.457L114.795 126.24L111.803 122.805Z" fill="#231F20"/>
<path d="M100.832 144.526C100.61 144.526 100.277 144.415 100.167 144.193L91.744 132.779C91.5224 132.446 91.5224 132.003 91.8548 131.67L96.5094 126.794L90.7466 125.243C90.4141 125.132 90.1925 124.91 90.0817 124.578C89.9709 124.245 90.0817 123.913 90.3033 123.691L97.9501 115.49C98.2826 115.158 98.8367 115.158 99.1692 115.49C99.5016 115.823 99.5016 116.377 99.1692 116.709L92.5198 123.913L98.3934 125.464C98.8367 125.575 99.1692 126.018 99.0583 126.573C99.0583 126.683 98.9475 126.794 98.8367 126.905L93.628 132.225L101.607 143.085C101.94 143.529 101.829 143.972 101.386 144.304C101.275 144.415 101.053 144.526 100.832 144.526Z" fill="#231F20"/>
<path d="M77.6697 184.422C77.2264 184.422 76.7831 183.979 76.7831 183.536C76.7831 183.203 77.0047 182.871 77.3372 182.76C82.3242 180.654 91.4117 176.665 91.4117 176.665C91.855 176.443 92.4091 176.665 92.5199 177.108C92.6308 177.551 92.5199 178.105 92.0766 178.216C91.9658 178.216 82.8783 182.317 77.8913 184.311C77.8913 184.422 77.7805 184.422 77.6697 184.422Z" fill="#231F20"/>
<path d="M119.339 108.841L177.853 77.0347L188.16 87.3412L128.316 126.018L119.339 108.841Z" fill="#FD6500"/>
<path d="M134.189 129.121C133.635 129.121 133.303 128.678 133.303 128.124C133.303 128.013 134.411 114.16 131.308 109.173C130.975 108.73 131.086 108.287 131.529 107.954C131.973 107.622 132.416 107.733 132.749 108.176C132.749 108.176 132.749 108.176 132.749 108.287C136.184 113.717 135.076 127.681 134.965 128.235C135.076 128.789 134.743 129.121 134.189 129.121Z" fill="#231F20"/>
<path d="M123.218 136.325C123.107 136.325 122.996 136.325 122.885 136.325C122.442 136.214 122.22 135.66 122.331 135.217L127.097 122.029L121.334 120.699C121.001 120.588 120.78 120.478 120.669 120.145C120.558 119.923 120.558 119.591 120.78 119.369L124.548 113.385L119.671 112.387C119.228 112.277 118.896 111.833 119.006 111.39C119.117 110.947 119.561 110.614 120.004 110.725L126.21 111.944C126.542 112.055 126.764 112.166 126.875 112.498C126.986 112.72 126.986 113.052 126.764 113.274L122.996 119.369L128.426 120.699C128.87 120.81 129.202 121.253 129.091 121.807L123.993 135.882C123.883 136.104 123.55 136.325 123.218 136.325Z" fill="#231F20"/>
<path d="M150.037 233.849L146.49 245.818L182.619 246.483C180.735 238.504 168.544 236.066 168.544 236.066" fill="white"/>
<path d="M182.619 247.259L146.491 246.594C146.047 246.594 145.604 246.151 145.604 245.707C145.604 245.596 145.604 245.596 145.604 245.486L149.15 233.517C149.261 233.073 149.704 232.741 150.148 232.852C150.591 232.963 150.924 233.406 150.813 233.849V233.96L147.599 244.821L181.4 245.375C178.851 238.836 168.434 236.731 168.323 236.731C167.879 236.62 167.547 236.176 167.658 235.733C167.769 235.29 168.212 234.957 168.655 235.068C169.209 235.179 181.511 237.728 183.395 246.151C183.395 246.372 183.395 246.705 183.173 246.926C183.062 247.148 182.841 247.259 182.619 247.259Z" fill="#231F20"/>
<path d="M104.267 109.838C95.9552 112.72 90.6357 98.4235 89.3058 92.1066C88.9734 90.7767 88.8625 89.336 89.0842 87.8953C89.7491 85.2355 91.5223 82.9082 93.9604 81.6892C96.3985 80.4701 98.9474 79.3619 101.496 78.4753C107.148 76.148 112.135 72.2693 115.903 67.5039C117.233 65.8415 118.674 63.9575 120.78 63.9575C122.109 64.0683 123.328 64.7333 124.104 65.8415C125.988 68.3904 126.432 71.8259 125.212 74.8182C123.993 77.9212 121.666 79.8052 119.228 81.9108C120.89 83.7948 121.555 84.2381 121.444 86.6762C121.223 89.0035 120.558 91.22 119.45 93.3256C118.341 95.4312 117.012 97.5369 115.571 99.5317C112.689 103.854 109.697 107.954 104.599 109.949L104.267 109.838Z" fill="white"/>
<path d="M102.161 111.168C100.832 111.168 99.6125 110.836 98.5043 110.171C92.8523 106.957 89.5276 97.0939 88.5302 92.3286C88.1977 90.8879 88.0869 89.3363 88.3086 87.7848C88.9735 84.2385 91.9657 82.022 93.6281 81.0246C95.2904 80.138 97.0636 79.3623 98.8367 78.6973C99.6125 78.3649 100.388 78.1432 101.164 77.8108C106.705 75.4835 111.581 71.8263 115.239 67.0609C116.679 65.2878 118.342 63.1821 120.78 63.1821C122.442 63.293 123.883 64.0687 124.769 65.3986C126.875 68.28 127.318 71.9371 125.988 75.2618C124.88 78.2541 122.664 80.2489 120.447 82.022C121.777 83.1303 122.553 84.9034 122.331 86.7874C122.11 89.2255 121.334 91.5528 120.336 93.7693C119.45 95.5424 118.452 97.2048 117.344 98.7563L116.458 100.086C113.355 104.741 110.362 108.73 105.154 110.836L104.71 110.947C103.824 111.058 102.937 111.168 102.161 111.168ZM120.78 64.8445C119.228 64.8445 117.898 66.5068 116.679 67.9475C112.8 72.9345 107.703 76.8133 101.829 79.2515C101.053 79.5839 100.277 79.9164 99.3908 80.2489C97.6177 80.803 95.9553 81.5787 94.4038 82.4653C92.1874 83.5736 90.525 85.6792 89.8601 88.1173C89.7493 89.4472 89.7493 90.777 90.0817 91.9961C91.19 97.2048 94.5146 106.071 99.1692 108.62C100.61 109.506 102.272 109.617 103.824 109.063L104.267 108.952C109.032 107.068 111.803 103.411 114.795 98.8671L115.682 97.5372C116.79 96.0965 117.787 94.4342 118.563 92.7718C119.561 90.777 120.226 88.6714 120.447 86.4549C120.558 84.6818 120.226 84.3493 119.006 83.0194L118.342 82.3545C118.231 82.1329 118.12 81.9112 118.12 81.6896C118.12 81.4679 118.231 81.2463 118.452 81.1354L118.896 80.803C121.112 78.919 123.218 77.1458 124.215 74.4861C125.323 71.8263 124.991 68.7233 123.218 66.396C122.774 65.3986 121.777 64.8445 120.78 64.8445Z" fill="#231F20"/>
<path d="M121.555 93.8799C121.555 93.8799 125.878 99.6427 125.213 100.973C124.548 102.302 121.666 101.637 121.666 101.637" fill="white"/>
<path d="M123.107 102.635C122.553 102.635 121.999 102.524 121.445 102.413C121.001 102.302 120.669 101.859 120.78 101.416C120.78 101.416 120.78 101.416 120.78 101.305C120.89 100.862 121.334 100.529 121.777 100.64C122.664 100.862 124.104 100.862 124.326 100.418C124.437 99.8643 122.774 96.9829 120.78 94.3231C120.447 93.9907 120.558 93.3257 120.89 93.1041C121.223 92.7716 121.888 92.8824 122.109 93.2149C124.215 96.0963 126.653 99.7534 125.767 101.194C125.323 102.192 124.215 102.635 123.107 102.635Z" fill="#231F20"/>
<path d="M119.561 80.6918C122.22 82.5757 122.442 92.2173 122.664 95.0987C122.885 99.0884 122.996 103.078 123.107 107.068C123.107 109.617 116.568 110.06 115.46 109.395L117.123 119.258C117.123 119.258 114.02 120.366 108.589 118.261C103.159 116.155 103.048 114.936 103.048 114.936L102.716 103.3C102.716 103.3 107.038 103.078 109.254 97.7585C111.471 92.439 110.806 84.5706 110.806 84.5706C110.806 84.5706 116.901 78.9186 119.561 80.6918Z" fill="white"/>
<path d="M114.684 120.477C112.468 120.477 110.141 119.923 108.146 119.148C102.937 117.153 102.051 115.712 102.051 115.047L101.829 103.411C101.829 102.967 102.161 102.524 102.716 102.524C102.826 102.524 106.484 102.192 108.478 97.5371C110.584 92.4393 110.03 84.7925 110.03 84.6817C110.03 84.4601 110.141 84.1276 110.252 84.0168C111.36 83.0193 117.123 77.9215 120.115 80.0271C122.553 81.8003 123.218 88.228 123.55 94.3233V95.099C123.772 99.0887 123.883 103.078 123.994 107.068C123.994 108.065 123.329 108.952 122.442 109.395C120.558 110.282 118.563 110.614 116.458 110.503L117.898 119.148C118.009 119.591 117.677 120.034 117.344 120.145C116.347 120.367 115.571 120.477 114.684 120.477ZM103.713 114.715C103.935 114.936 104.821 115.934 108.7 117.485C110.916 118.483 113.465 118.815 115.904 118.704L114.352 109.617C114.241 109.284 114.463 108.952 114.684 108.73C115.017 108.509 115.349 108.509 115.571 108.73C117.566 109.063 119.561 108.841 121.334 107.955C121.777 107.733 121.999 107.4 121.999 107.179C121.999 103.189 121.777 99.1995 121.555 95.2099V94.4341C121.445 91.5527 121.001 83.0193 118.896 81.4678C117.566 80.4704 113.798 82.9085 111.581 85.0142C111.692 86.7873 111.914 93.4367 109.919 98.2021C108.922 101.083 106.484 103.411 103.491 104.187L103.713 114.715Z" fill="#231F20"/>
<path d="M122.664 104.076C120.447 104.74 118.009 103.521 117.122 101.416L122.664 104.076Z" fill="white"/>
<path d="M121.555 105.184C119.339 105.184 117.344 103.854 116.458 101.859C116.236 101.416 116.347 100.862 116.679 100.64C117.123 100.419 117.677 100.529 117.898 100.862C117.898 100.862 117.898 100.973 118.009 100.973C118.785 102.746 120.669 103.632 122.442 103.189C122.885 103.078 123.439 103.3 123.55 103.743C123.661 104.187 123.439 104.741 122.996 104.851C122.442 105.073 121.999 105.184 121.555 105.184Z" fill="#231F20"/>
<path d="M114.13 96.8723C113.909 95.8749 113.465 94.9883 112.8 94.2126C112.357 93.5476 111.803 92.9935 111.249 92.4394C110.584 91.8853 109.808 91.7745 109.032 91.8853C108.368 92.1069 107.813 92.5502 107.592 93.2152C107.37 93.8801 107.149 94.545 107.259 95.21C107.37 98.313 109.033 101.084 111.692 102.524L111.471 102.303" fill="white"/>
<path d="M111.581 103.521C111.471 103.521 111.36 103.521 111.249 103.411C108.257 101.748 106.373 98.756 106.373 95.3205C106.373 94.5448 106.483 93.6582 106.816 92.9933C107.148 92.1067 107.924 91.4417 108.922 91.2201C109.919 90.9984 111.027 91.2201 111.803 91.885C112.468 92.4391 113.022 93.1041 113.576 93.769C114.352 94.6556 114.906 95.7638 115.017 96.8721C115.017 97.3153 114.684 97.7586 114.241 97.7586C113.798 97.7586 113.355 97.4262 113.244 96.9829C113.133 96.2071 112.69 95.4313 112.135 94.7664C111.803 94.2123 111.249 93.6582 110.806 93.2149C110.362 92.8824 109.919 92.7716 109.365 92.8824C108.922 92.9932 108.589 93.3257 108.478 93.769C108.257 94.3231 108.146 94.8772 108.146 95.4314C108.257 97.9803 109.476 100.308 111.692 101.748C111.803 101.748 112.025 101.859 112.135 101.97C112.468 102.302 112.579 102.856 112.357 103.189C112.135 103.3 111.803 103.521 111.581 103.521Z" fill="#231F20"/>
<path d="M115.349 109.395C113.355 108.952 111.581 107.844 110.141 106.292C110.141 106.292 110.806 112.387 116.014 113.828L115.349 109.395Z" fill="#231F20"/>
<path d="M116.014 114.714H115.793C109.919 113.163 109.254 106.735 109.254 106.514C109.254 106.07 109.476 105.738 109.808 105.627C110.141 105.516 110.584 105.627 110.806 105.849C112.025 107.178 113.687 108.176 115.46 108.619C115.793 108.73 116.014 108.952 116.125 109.284L116.901 113.717C116.901 114.05 116.901 114.271 116.679 114.493C116.458 114.604 116.236 114.714 116.014 114.714ZM111.692 108.841C112.357 110.392 113.465 111.611 114.906 112.498L114.463 110.171C113.576 109.838 112.579 109.395 111.692 108.841Z" fill="#231F20"/>
<path d="M119.67 91.3496C119.752 90.5582 119.572 89.891 119.268 89.8595C118.963 89.8279 118.65 90.4439 118.568 91.2354C118.486 92.0268 118.666 92.694 118.971 92.7256C119.275 92.7571 119.588 92.1411 119.67 91.3496Z" fill="#231F20"/>
<path d="M120.336 90.8877C120.226 90.8877 120.115 90.8877 120.004 90.8877L117.123 89.7795C116.679 89.5578 116.458 89.1145 116.568 88.6712C116.79 88.2279 117.233 88.0063 117.677 88.1171L120.558 89.2253C121.001 89.447 121.223 89.8903 121.112 90.3336C121.001 90.666 120.669 90.8877 120.336 90.8877Z" fill="#231F20"/>
<path d="M66.698 169.683C66.4763 169.683 66.2547 169.572 66.1438 169.461C65.8114 169.128 65.7006 168.574 66.033 168.242L85.8703 145.856C86.092 145.412 86.6461 145.302 87.0894 145.523C87.5327 145.745 87.6435 146.299 87.4218 146.742C87.311 146.853 87.311 146.964 87.2002 146.964L67.4737 169.35C67.2521 169.572 67.0304 169.683 66.698 169.683Z" fill="#231F20"/>
<path d="M62.0436 285.382L58.4973 297.351L94.6256 297.905C92.7416 289.926 80.5511 287.487 80.5511 287.487" fill="white"/>
<path d="M94.6255 298.902L58.4972 298.348C58.2756 298.348 57.9431 298.237 57.8323 298.016C57.6107 297.794 57.6107 297.462 57.7215 297.24L61.2678 285.271C61.3786 284.828 61.9328 284.495 62.376 284.717C62.8193 284.828 63.1518 285.382 62.9302 285.825L59.7163 296.686L93.5173 297.24C90.9683 290.701 80.551 288.596 80.4402 288.596C79.9969 288.485 79.6644 288.042 79.7752 287.598C79.8861 287.155 80.3294 286.823 80.7726 286.933C81.3268 287.044 93.6281 289.593 95.5121 298.016C95.6229 298.237 95.5121 298.57 95.4013 298.792C95.1796 298.792 94.958 298.902 94.6255 298.902Z" fill="#231F20"/>
<path d="M340.209 91.1094V142.753H266.512V194.507H192.704V246.151H118.896V297.905H45.0875V349.548H439.174V91.1094H340.209Z" fill="white"/>
<path d="M439.174 350.545H45.0875C44.6442 350.545 44.2009 350.102 44.2009 349.659V297.905C44.2009 297.461 44.6442 297.018 45.0875 297.018H118.009V246.261C118.009 245.818 118.452 245.375 118.896 245.375H191.817V194.618C191.817 194.063 192.26 193.731 192.704 193.731H265.625V142.974C265.625 142.531 266.068 142.088 266.512 142.088H339.433V91.3307C339.433 90.8874 339.877 90.4441 340.32 90.4441H439.285C439.728 90.4441 440.171 90.8874 440.171 91.3307V349.881C440.06 350.102 439.728 350.545 439.174 350.545ZM46.0849 348.661H438.287V91.9956H341.096V142.753C341.096 143.196 340.652 143.639 340.209 143.639H267.288V194.396C267.288 194.95 266.844 195.283 266.401 195.283H193.59V246.039C193.59 246.483 193.147 246.926 192.704 246.926H119.782V297.683C119.782 298.126 119.339 298.57 118.896 298.57H46.0849V348.661Z" fill="#231F20"/>
<path d="M295.326 307.657H259.53V349.548H295.326V307.657Z" fill="#231F20"/>
<path d="M295.436 350.435H259.641C259.197 350.435 258.754 350.102 258.754 349.548V307.657C258.754 307.214 259.197 306.771 259.641 306.771H295.436C295.88 306.771 296.323 307.214 296.323 307.657V349.548C296.323 350.102 295.88 350.435 295.436 350.435ZM260.416 348.772H294.55V308.544H260.416V348.772Z" fill="#231F20"/>
<path d="M177.188 317.52H150.923C150.48 317.52 150.037 317.077 150.037 316.634V291.588C150.037 291.144 150.48 290.701 150.923 290.701H177.188C177.632 290.701 178.075 291.144 178.075 291.588V316.634C178.075 317.188 177.743 317.52 177.188 317.52ZM151.921 315.858H176.413V292.585H151.921V315.858Z" fill="#D1D3D4"/>
<path d="M233.93 317.52H207.665C207.221 317.52 206.778 317.077 206.778 316.634V291.588C206.778 291.144 207.221 290.701 207.665 290.701H233.93C234.373 290.701 234.816 291.144 234.816 291.588V316.634C234.816 317.188 234.373 317.52 233.93 317.52ZM208.551 315.858H233.043V292.585H208.551V315.858Z" fill="#D1D3D4"/>
<path d="M347.302 317.52H321.037C320.593 317.52 320.15 317.077 320.15 316.634V291.588C320.15 291.144 320.593 290.701 321.037 290.701H347.302C347.745 290.701 348.188 291.144 348.188 291.588V316.634C348.188 317.188 347.745 317.52 347.302 317.52ZM321.923 315.858H346.415V292.585H321.923V315.858Z" fill="#D1D3D4"/>
<path d="M403.932 317.52H377.778C377.335 317.52 376.891 317.077 376.891 316.634V291.588C376.891 291.144 377.335 290.701 377.778 290.701H403.932C404.375 290.701 404.819 291.144 404.819 291.588V316.634C404.819 317.188 404.375 317.52 403.932 317.52ZM378.554 315.858H403.046V292.585H378.665L378.554 315.858Z" fill="#D1D3D4"/>
<path d="M347.302 265.988H321.037C320.593 265.988 320.15 265.544 320.15 265.101V240.055C320.15 239.612 320.593 239.168 321.037 239.168H347.302C347.745 239.168 348.188 239.612 348.188 240.055V265.101C348.188 265.655 347.745 265.988 347.302 265.988ZM321.923 264.214H346.415V240.942H321.923V264.214Z" fill="#D1D3D4"/>
<path d="M403.932 265.988H377.778C377.335 265.988 376.891 265.544 376.891 265.101V240.055C376.891 239.612 377.335 239.168 377.778 239.168H403.932C404.375 239.168 404.819 239.612 404.819 240.055V265.101C404.819 265.655 404.375 265.988 403.932 265.988ZM378.554 264.214H403.046V240.942H378.665L378.554 264.214Z" fill="#D1D3D4"/>
<path d="M233.93 265.988H207.665C207.221 265.988 206.778 265.544 206.778 265.101V240.055C206.778 239.612 207.221 239.168 207.665 239.168H233.93C234.373 239.168 234.816 239.612 234.816 240.055V265.101C234.816 265.655 234.373 265.988 233.93 265.988ZM208.551 264.214H233.043V240.942H208.551V264.214Z" fill="#D1D3D4"/>
<path d="M290.56 265.988H264.295C263.852 265.988 263.409 265.544 263.409 265.101V240.055C263.409 239.612 263.852 239.168 264.295 239.168H290.56C291.004 239.168 291.447 239.612 291.447 240.055V265.101C291.447 265.655 291.114 265.988 290.56 265.988ZM265.293 264.214H289.785V240.942H265.293V264.214Z" fill="#D1D3D4"/>
<path d="M347.302 214.455H321.037C320.593 214.455 320.15 214.012 320.15 213.568V188.633C320.15 188.19 320.593 187.747 321.037 187.747H347.302C347.745 187.747 348.188 188.19 348.188 188.633V213.568C348.188 214.012 347.745 214.455 347.302 214.455ZM321.923 212.682H346.415V189.409H321.923V212.682Z" fill="#D1D3D4"/>
<path d="M403.932 214.455H377.778C377.335 214.455 376.891 214.012 376.891 213.568V188.633C376.891 188.19 377.335 187.747 377.778 187.747H403.932C404.375 187.747 404.819 188.19 404.819 188.633V213.568C404.819 214.012 404.375 214.455 403.932 214.455ZM378.554 212.682H403.046V189.409H378.665L378.554 212.682Z" fill="#D1D3D4"/>
<path d="M326.689 31.819C359.049 53.7619 374.564 16.3038 391.299 40.3523V5.8864C361.376 -9.62881 364.923 24.8371 326.689 31.819Z" fill="#FD6500"/>
<path d="M391.298 90.9984C390.744 90.9984 390.412 90.5551 390.412 90.1118V1.34265C390.412 0.788539 390.966 0.456065 391.409 0.566888C391.853 0.566888 392.185 0.899362 392.185 1.34265V90.1118C392.296 90.5551 391.853 90.9984 391.298 90.9984Z" fill="#231F20"/>
<path d="M408.587 80.3594H371.129V91.1092H408.587V80.3594Z" fill="white"/>
<path d="M408.587 91.9959H371.129C370.575 91.9959 370.242 91.5526 370.242 91.1093V80.3595C370.242 79.9162 370.685 79.4729 371.129 79.4729H408.587C409.03 79.4729 409.473 79.9162 409.473 80.3595V91.1093C409.473 91.5526 409.03 91.9959 408.587 91.9959ZM372.015 90.2227H407.7V81.3569H372.015V90.2227Z" fill="#231F20"/>
</svg>
