<svg width="562" height="350" viewBox="0 0 562 350" fill="none" xmlns="http://www.w3.org/2000/svg">
<path d="M0.734619 324.755H560.374V332.108C560.374 341.544 552.661 349.265 543.234 349.265H17.8752C8.44788 349.265 0.734619 341.544 0.734619 332.108V324.755Z" fill="#231F20"/>
<path d="M536.5 350H24.7314C11.0189 350 0 338.848 0 325.245V324.755C0 324.387 0.367299 324.02 0.734597 324.02H560.497C560.864 324.02 561.232 324.387 561.232 324.755V325.245C561.232 338.848 550.213 350 536.5 350ZM1.59163 325.49C1.71406 338.235 12.1208 348.407 24.8538 348.407H536.5C549.233 348.407 559.64 338.235 559.762 325.49H1.59163Z" fill="#231F20"/>
<path d="M60.3594 0.735352H500.995C507.851 0.735352 513.36 6.25006 513.36 13.1128V324.755H47.9937V13.1128C47.9937 6.25006 53.5031 0.735352 60.3594 0.735352Z" fill="#231F20"/>
<path d="M513.238 325.49H47.9936C47.6263 325.49 47.259 325.123 47.259 324.755V18.1373C47.259 8.21079 55.3396 0 65.2566 0H495.975C506.014 0 514.095 8.08824 514.095 18.1373V324.755C514.095 325.245 513.728 325.49 513.238 325.49ZM48.7282 324.02H512.626V18.1373C512.626 8.94608 505.157 1.59314 496.097 1.59314H65.2566C56.0742 1.59314 48.7282 9.06863 48.7282 18.1373V324.02Z" fill="#231F20"/>
<path d="M326.773 333.211H234.459L226.5 324.755H334.731L326.773 333.211Z" fill="#E0E0E0"/>
<path d="M495.975 11.397H65.379V316.789H495.975V11.397Z" fill="white"/>
<path d="M495.975 317.647H65.3791C64.8894 317.647 64.5221 317.279 64.5221 316.789V11.397C64.5221 10.9068 64.8894 10.5392 65.3791 10.5392H495.975C496.465 10.5392 496.832 10.9068 496.832 11.397V316.789C496.71 317.279 496.342 317.77 495.975 317.647ZM66.2362 315.931H495.118V12.2549H66.1137L66.2362 315.931Z" fill="#231F20"/>
<path d="M256.129 300.613C259.781 300.613 262.741 297.65 262.741 293.995C262.741 290.34 259.781 287.377 256.129 287.377C252.478 287.377 249.518 290.34 249.518 293.995C249.518 297.65 252.478 300.613 256.129 300.613Z" fill="#FD6500"/>
<path d="M280.616 300.613C284.267 300.613 287.227 297.65 287.227 293.995C287.227 290.34 284.267 287.377 280.616 287.377C276.964 287.377 274.004 290.34 274.004 293.995C274.004 297.65 276.964 300.613 280.616 300.613Z" fill="#FD6500"/>
<path d="M305.102 300.613C308.754 300.613 311.714 297.65 311.714 293.995C311.714 290.34 308.754 287.377 305.102 287.377C301.451 287.377 298.491 290.34 298.491 293.995C298.491 297.65 301.451 300.613 305.102 300.613Z" fill="#FD6500"/>
<path d="M318.937 277.083H235.316C236.05 270.221 238.009 264.093 242.417 262.868C242.417 262.868 260.292 255.637 263.475 254.412C265.679 253.554 265.679 253.554 263.475 254.412L263.72 254.289C265.434 254.044 267.271 253.922 269.107 254.044C274.861 254.167 283.187 254.657 284.044 254.779H284.166L284.411 254.902C285.268 255.147 288.084 256.127 291.512 257.353C292.247 257.598 293.104 257.966 293.961 258.333C293.961 258.333 298.613 259.436 303.878 261.275C309.143 263.113 314.774 265.686 316.856 268.505C317.59 269.485 318.325 272.672 318.937 277.083Z" fill="#FD6500"/>
<path d="M254.782 247.059C253.558 246.323 252.579 245.221 252.089 243.873C251.966 242.892 252.211 241.789 252.579 240.809C256.007 230.515 255.272 218.75 261.149 209.559C261.883 208.333 262.863 207.23 264.087 206.495C265.312 205.76 266.903 205.76 268.128 206.495C273.27 197.794 285.88 204.044 289.431 211.029C293.226 218.505 295.43 226.961 298.246 234.926C299.348 237.255 299.838 239.828 299.715 242.402C299.47 244.975 297.634 247.549 295.063 247.794L293.716 245.466C294.328 246.201 294.206 247.304 293.471 248.039C292.737 248.652 291.879 249.02 290.9 249.142C281.84 251.471 272.045 253.309 263.23 250.122C261.883 249.632 260.292 248.407 260.782 247.059C260.169 249.632 257.109 248.652 254.782 247.059Z" fill="white"/>
<path d="M273.76 252.819C270.087 252.819 266.536 252.328 263.108 251.103C262.006 250.735 261.149 250.122 260.414 249.265C260.292 249.387 260.169 249.387 259.925 249.51C257.721 250.245 255.027 248.407 254.293 247.917C253.681 247.426 251.477 245.833 251.232 244.24C251.109 243.137 251.232 242.034 251.722 240.931C252.946 236.887 253.925 232.721 254.415 228.554C255.517 221.936 256.741 215.073 260.292 209.314C261.027 207.966 262.251 206.74 263.598 205.882C264.822 205.147 266.414 205.024 267.76 205.515C269.597 202.819 272.658 201.348 275.841 201.593C281.228 201.716 287.717 205.882 290.165 210.907C292.737 216.299 294.94 221.936 296.654 227.696C297.389 230.147 298.246 232.475 299.103 234.804C300.205 237.255 300.695 239.951 300.572 242.77C300.327 245.588 298.246 248.652 295.063 248.897C294.695 248.897 294.451 248.774 294.206 248.529L293.961 248.774C293.104 249.51 292.124 250 291.023 250.122C285.513 251.716 279.636 252.696 273.76 252.819ZM261.761 247.671C261.761 247.794 261.761 247.917 261.761 248.039C262.251 248.652 262.863 249.142 263.598 249.387C272.045 252.328 281.595 250.613 290.778 248.407C291.512 248.284 292.247 247.917 292.859 247.426C293.104 247.181 293.226 246.936 293.226 246.569V246.446L292.859 246.078C292.614 245.711 292.737 245.221 293.104 244.975C293.471 244.608 293.961 244.73 294.328 244.975C294.573 245.221 294.818 245.588 294.94 245.833L295.553 246.936C297.389 246.201 298.736 244.485 298.858 242.402C298.858 239.951 298.491 237.5 297.389 235.294C296.532 232.966 295.797 230.515 294.94 228.064C293.226 222.426 291.145 216.789 288.574 211.52C285.88 206.863 281.105 203.676 275.718 203.186C272.902 202.941 270.087 204.534 268.74 206.985C268.617 207.23 268.372 207.353 268.128 207.353C267.883 207.353 267.638 207.353 267.393 207.23C266.414 206.618 265.189 206.618 264.21 207.23C263.108 207.966 262.251 208.946 261.639 210.049C258.211 215.564 257.109 221.814 256.007 228.554C255.395 232.721 254.415 236.887 253.191 241.054C252.824 241.912 252.701 242.77 252.701 243.627C253.191 244.73 254.048 245.588 255.027 246.201C256.619 247.304 258.211 247.917 259.19 247.549C259.557 247.426 259.802 247.181 259.802 246.936V246.814C259.925 246.323 260.537 246.078 260.904 246.323C261.394 246.446 261.639 247.059 261.394 247.426C261.761 247.426 261.761 247.549 261.761 247.671Z" fill="#231F20"/>
<path d="M283.309 277.083H271.556C268.25 270.098 268.985 255.76 269.107 253.922V253.799L268.985 251.593L268.495 245.466L268.617 244.608L268.74 243.382L269.23 236.642L283.432 236.765L283.922 245.098V245.221V245.588L284.289 250.858L284.411 253.799V253.922V254.902L284.534 257.721C284.534 257.598 288.329 270.343 283.309 277.083Z" fill="white"/>
<path d="M283.309 277.941H271.556C271.189 277.941 270.944 277.696 270.821 277.451C267.393 270.221 268.25 255.515 268.25 253.922L267.638 245.466L267.76 243.137L268.25 236.397C268.25 235.907 268.617 235.539 269.107 235.539L283.309 235.662C283.799 235.662 284.166 236.029 284.166 236.52L284.656 244.853V244.975L285.391 257.353C285.758 258.701 289.064 270.833 283.921 277.574C283.921 277.819 283.677 277.941 283.309 277.941ZM272.168 276.225H282.942C287.35 269.853 283.799 257.966 283.799 257.843C283.799 257.721 283.799 257.721 283.799 257.598L283.064 245.098V244.975L282.575 237.623L269.964 237.5L269.352 245.588L269.964 253.799C269.964 253.922 269.964 254.044 269.964 254.167C269.964 255.637 269.23 269.24 272.168 276.225Z" fill="#231F20"/>
<path d="M268.495 245.466C269.597 247.426 271.188 249.02 273.147 250.245C276.208 252.206 280.493 253.922 284.166 253.309L283.922 244.975C281.228 245.343 278.412 245.343 275.719 244.975C273.27 244.853 270.944 244.24 268.74 243.382L268.495 245.466Z" fill="#231F20"/>
<path d="M282.575 254.289C279.024 254.044 275.596 252.941 272.658 250.858C270.576 249.632 268.985 247.917 267.76 245.833C267.638 245.711 267.638 245.588 267.638 245.343L267.76 243.137C267.76 242.892 267.883 242.647 268.25 242.524C268.495 242.402 268.74 242.402 268.985 242.524C271.066 243.382 273.392 243.995 275.719 244.118C278.412 244.485 280.983 244.485 283.677 244.118C283.921 244.118 284.166 244.118 284.411 244.24C284.656 244.363 284.656 244.608 284.656 244.853L284.901 253.186C284.901 253.554 284.656 254.044 284.166 254.044C283.677 254.289 283.187 254.289 282.575 254.289ZM269.352 245.343C270.454 247.059 271.801 248.529 273.515 249.51C276.331 251.47 279.759 252.573 283.187 252.573L282.942 245.956C280.493 246.201 277.922 246.201 275.474 245.833C273.392 245.711 271.311 245.22 269.352 244.608V245.343Z" fill="#231F20"/>
<path d="M275.718 246.936H277.188C284.044 247.059 289.676 241.544 289.798 234.681C289.676 230.882 289.308 227.083 288.696 223.284C288.696 223.284 282.942 221.201 278.412 219.485C270.821 216.667 268.74 212.5 268.74 212.5C268.495 215.196 267.883 217.892 267.026 220.466C266.046 222.304 264.944 224.02 263.598 225.613C263.598 225.613 263.353 231.74 263.353 234.314C263.353 241.299 268.862 246.814 275.718 246.936Z" fill="white"/>
<path d="M277.31 247.917H275.718C268.373 247.794 262.496 241.789 262.496 234.436C262.496 231.863 262.741 225.735 262.741 225.735C262.741 225.49 262.863 225.368 262.863 225.245C264.087 223.652 265.189 221.936 266.169 220.221C267.026 217.77 267.638 215.196 267.883 212.5C267.883 212.132 268.25 211.765 268.617 211.642C268.985 211.52 269.352 211.765 269.597 212.132C269.597 212.132 271.678 215.931 278.779 218.627C283.309 220.343 289.064 222.426 289.064 222.426C289.308 222.549 289.553 222.794 289.676 223.162C290.288 226.961 290.655 230.882 290.778 234.681C290.533 242.034 284.656 247.794 277.31 247.917ZM264.577 225.98C264.577 227.206 264.332 232.108 264.332 234.436C264.21 240.809 269.352 246.078 275.718 246.201H277.31C283.677 246.201 288.819 241.054 288.819 234.804C288.696 231.25 288.329 227.573 287.839 224.02C286.37 223.529 281.84 221.814 278.045 220.466C274.739 219.363 271.801 217.402 269.352 214.951C269.107 217.034 268.495 218.995 267.76 220.956C266.903 222.549 265.801 224.387 264.577 225.98Z" fill="#231F20"/>
<path d="M277.31 234.926C276.575 234.926 275.841 234.926 275.106 234.804C274.617 234.681 274.249 234.314 274.372 233.824C274.494 233.333 274.861 232.966 275.351 233.088C276.453 233.211 277.432 233.211 278.534 233.088C278.657 232.108 277.8 228.431 276.453 224.877C276.331 224.387 276.575 223.897 276.943 223.774C277.432 223.652 277.922 223.897 278.045 224.265C278.902 226.716 280.861 232.476 279.881 234.069C279.636 234.436 279.269 234.681 278.902 234.681C278.412 234.804 277.8 234.926 277.31 234.926Z" fill="#231F20"/>
<path d="M271.746 226.689C271.758 225.539 271.385 224.602 270.912 224.597C270.438 224.592 270.045 225.52 270.032 226.671C270.019 227.821 270.393 228.758 270.866 228.763C271.339 228.768 271.733 227.84 271.746 226.689Z" fill="#231F20"/>
<path d="M283.124 226.507C283.136 225.356 282.763 224.419 282.289 224.414C281.816 224.409 281.422 225.337 281.41 226.488C281.397 227.638 281.77 228.575 282.244 228.58C282.717 228.586 283.111 227.657 283.124 226.507Z" fill="#231F20"/>
<path d="M291.512 257.23C291.267 263.97 290.288 270.588 288.574 277.083H279.881C281.718 273.529 283.799 267.034 284.166 254.657C284.166 254.412 284.166 254.044 284.166 253.799C284.289 253.799 284.289 253.676 284.411 253.676C287.105 252.451 291.145 254.534 291.512 256.005C291.512 256.495 291.512 256.863 291.512 257.23Z" fill="white"/>
<path d="M288.574 277.941H279.881C279.391 277.941 279.024 277.573 279.024 277.083C279.024 276.961 279.024 276.838 279.147 276.716C280.861 273.529 282.942 267.034 283.309 254.657C283.309 254.289 283.309 254.044 283.309 253.799C283.309 253.431 283.432 253.186 283.799 253.064C283.921 252.941 284.044 252.941 284.289 252.819C286.125 252.206 288.207 252.328 289.921 253.309C290.533 253.676 292.247 254.534 292.492 255.76C292.614 256.25 292.614 256.74 292.614 257.23C292.369 263.971 291.39 270.711 289.553 277.328C289.309 277.573 288.941 277.819 288.574 277.941ZM281.228 276.225H287.962C289.553 269.975 290.533 263.725 290.655 257.23C290.655 256.863 290.655 256.495 290.655 256.127C290.288 255.515 289.676 255.024 288.941 254.779C287.717 254.167 286.37 253.922 285.023 254.289C285.023 254.412 285.023 254.534 285.023 254.657C284.656 265.931 282.942 272.426 281.228 276.103V276.225Z" fill="#231F20"/>
<path d="M273.515 277.083H264.7C262.251 268.75 261.516 256.985 261.761 256.005C262.129 255.27 262.741 254.657 263.475 254.289C264.087 253.922 264.087 253.922 263.475 254.289C265.189 253.186 267.271 253.064 269.107 253.799V253.922C269.475 266.789 271.556 273.652 273.515 277.083Z" fill="white"/>
<path d="M273.515 277.941H264.7C264.332 277.941 263.965 277.696 263.843 277.328C261.394 269.24 260.537 257.23 260.904 255.76C261.271 254.779 262.006 254.044 262.986 253.554H263.108C264.822 252.574 267.516 251.961 269.597 253.064C269.842 253.186 270.087 253.554 270.087 253.799V253.922C270.454 266.789 272.535 273.407 274.249 276.593C274.494 277.083 274.372 277.574 273.882 277.819C273.76 277.941 273.637 277.941 273.515 277.941ZM265.434 276.226H272.046C270.332 272.549 268.617 265.809 268.25 254.412C266.781 254.044 265.189 254.289 263.965 255.147C263.108 255.637 262.741 256.127 262.741 256.25C262.863 262.868 263.72 269.608 265.434 276.226Z" fill="#231F20"/>
<path d="M275.963 239.828C273.27 239.828 270.699 238.971 268.617 237.255C268.25 237.01 268.128 236.397 268.495 236.029C268.862 235.662 269.352 235.539 269.719 235.907C275.963 240.686 282.575 236.274 282.82 236.029C283.187 235.784 283.799 235.907 284.044 236.274C284.289 236.642 284.166 237.255 283.799 237.5C281.473 238.971 278.779 239.706 275.963 239.828Z" fill="#231F20"/>
<path d="M346.729 277.941H214.502C214.012 277.941 213.645 277.574 213.645 277.083V199.02C213.645 198.529 214.012 198.162 214.502 198.162H346.729C347.219 198.162 347.586 198.529 347.586 199.02V277.083C347.586 277.574 347.219 277.941 346.729 277.941ZM215.359 276.225H345.75V199.877H215.359V276.225Z" fill="#231F20"/>
<path d="M454.593 265.196L452.389 277.206H374.032C374.277 274.265 374.889 271.446 375.624 268.505C376.603 267.034 404.64 255.392 404.64 255.392H405.497H406.109L407.946 255.27C407.946 255.27 407.946 255.27 408.068 255.27L409.905 255.147C411.374 255.024 412.966 255.024 414.802 254.902C417.251 254.779 419.699 254.657 421.903 254.657C423.495 254.657 424.964 254.657 426.066 254.657C426.433 254.657 426.8 254.657 427.168 254.657C427.29 254.657 427.535 254.657 427.658 254.657C428.025 254.657 428.515 254.779 428.882 254.902C429.004 254.902 429.004 254.902 429.127 255.024L429.616 255.147C434.269 256.863 454.593 265.196 454.593 265.196Z" fill="#FD6500"/>
<path d="M407.211 249.632H427.902L427.535 257.598H412.843L405.742 254.167L407.211 249.632Z" fill="#231F20"/>
<path d="M427.535 258.456H412.843C412.721 258.456 412.598 258.456 412.476 258.333L405.375 254.902C405.007 254.779 404.763 254.289 404.885 253.922L406.232 249.387C406.354 249.02 406.721 248.774 407.089 248.774H427.902C428.147 248.774 428.392 248.897 428.514 249.02C428.637 249.142 428.759 249.387 428.759 249.632L428.392 257.598C428.392 257.966 428.025 258.333 427.535 258.456ZM413.088 256.74H426.678L426.923 250.49H407.701L406.721 253.799L413.088 256.74Z" fill="#231F20"/>
<path d="M433.289 229.412C434.391 226.961 434.759 223.652 435.126 221.078C435.493 219.118 436.35 215.931 435.371 213.971C434.759 212.745 432.8 211.52 431.575 210.784C430.963 205.882 426.311 202.819 421.658 202.573C418.842 202.573 416.026 203.064 413.333 204.044C410.762 204.902 407.946 206.005 406.599 208.456C406.354 208.946 405.987 209.559 405.62 209.926C405.13 210.417 404.64 210.784 404.028 211.029C400.355 213.48 400.722 216.667 401.212 220.466C401.702 224.51 403.049 228.431 403.416 232.353C408.068 232.598 412.721 232.966 417.373 232.966C421.291 232.966 431.331 233.823 433.289 229.412Z" fill="white"/>
<path d="M421.413 233.946H417.618C413.823 233.946 410.027 233.701 406.232 233.456L403.661 233.333C403.293 233.333 402.926 232.966 402.926 232.598C402.681 230.515 402.314 228.431 401.824 226.471C401.334 224.51 400.967 222.671 400.722 220.711C400.233 217.034 399.743 213.113 403.906 210.417L404.395 210.172C404.763 209.926 405.13 209.681 405.375 209.436C405.62 209.191 405.742 208.823 405.864 208.578L406.109 208.088C407.579 205.515 410.517 204.289 413.333 203.309C416.026 202.328 418.965 201.716 421.903 201.838C426.556 202.083 431.698 205.147 432.555 210.417C434.146 211.152 435.371 212.377 436.35 213.725C437.207 215.564 436.718 218.137 436.35 220.221C436.228 220.588 436.228 220.956 436.105 221.323C435.983 221.691 435.983 222.304 435.86 222.794C435.616 225.245 435.003 227.573 434.146 229.902C432.432 233.456 426.188 233.946 421.413 233.946ZM418.108 232.108H419.455C423.495 232.108 431.086 232.23 432.677 229.044C433.534 226.961 434.024 224.632 434.269 222.426C434.391 221.936 434.391 221.323 434.514 220.833C434.636 220.343 434.636 220.098 434.759 219.73C435.126 218.015 435.493 215.564 434.881 214.216C434.024 212.99 432.8 212.01 431.453 211.52C431.208 211.397 431.086 211.152 430.963 210.907C430.351 206.25 425.943 203.676 421.903 203.431C419.21 203.431 416.516 203.922 413.945 204.902C411.374 205.76 408.803 206.74 407.579 208.823L407.334 209.314C406.844 210.294 406.109 211.152 405.13 211.642L404.763 211.887C401.579 213.971 401.824 216.912 402.314 220.466C402.559 222.304 402.926 224.265 403.416 226.103C403.783 227.941 404.273 229.779 404.518 231.74L406.477 231.863C410.15 232.108 413.945 232.353 417.74 232.353L418.108 232.108Z" fill="#231F20"/>
<path d="M408.558 230.147C407.946 225.123 399.62 223.529 399.865 229.534C399.865 231.618 400.6 233.578 401.947 235.172C403.293 236.765 405.497 237.377 407.456 236.642" fill="white"/>
<path d="M405.864 237.745C404.15 237.745 402.436 237.01 401.212 235.662C399.743 233.946 399.008 231.74 399.008 229.412C398.886 226.225 400.967 224.877 402.926 224.632C406.109 224.387 408.925 226.716 409.537 229.902C409.537 230.392 409.293 230.76 408.803 230.882C408.313 230.882 407.946 230.637 407.823 230.147C407.456 227.941 405.375 226.348 403.048 226.471C402.191 226.593 400.722 227.083 400.722 229.412C400.722 231.25 401.334 233.088 402.559 234.559C403.661 235.907 405.497 236.397 407.211 235.907C407.701 235.784 408.191 236.029 408.313 236.52C408.435 236.887 408.313 237.377 407.946 237.5C407.211 237.745 406.477 237.868 405.864 237.745Z" fill="#231F20"/>
<path d="M426.678 230.147C427.29 225.123 435.615 223.529 435.371 229.534C435.371 231.618 434.636 233.578 433.289 235.172C431.942 236.765 429.739 237.377 427.78 236.642" fill="white"/>
<path d="M429.494 237.745C428.882 237.745 428.147 237.623 427.535 237.377C427.045 237.255 426.8 236.765 426.923 236.275C427.045 235.784 427.535 235.539 428.025 235.662H428.147C429.861 236.152 431.575 235.662 432.8 234.314C434.024 232.843 434.636 231.127 434.636 229.167C434.759 226.716 433.289 226.225 432.31 226.225C429.984 226.103 428.025 227.696 427.535 229.902C427.535 230.392 427.045 230.76 426.556 230.637C426.066 230.637 425.699 230.147 425.821 229.657C426.311 226.471 429.127 224.265 432.432 224.387C434.759 224.51 436.473 226.471 436.35 228.676C436.35 228.799 436.35 228.922 436.35 229.044C436.35 231.373 435.493 233.456 434.146 235.294C432.922 236.887 431.208 237.623 429.494 237.745Z" fill="#231F20"/>
<path d="M407.946 255.27C411.251 256.74 414.802 257.476 418.353 257.476C424.964 257.721 426.066 255.882 426.066 255.882L425.943 252.328L425.576 244.118L425.209 236.397L410.15 235.907L409.415 242.157L409.17 244.118L407.946 255.27Z" fill="white"/>
<path d="M419.577 258.333C419.21 258.333 418.842 258.333 418.475 258.333C414.802 258.333 411.129 257.475 407.701 256.005C407.334 255.882 407.211 255.515 407.211 255.147L409.415 235.784C409.537 235.417 409.905 235.049 410.272 235.049L425.331 235.539C425.821 235.539 426.188 235.907 426.188 236.397L427.045 255.882C427.045 256.005 427.045 256.25 426.923 256.373C426.556 256.74 425.209 258.333 419.577 258.333ZM408.925 254.779C411.986 256.005 415.169 256.618 418.475 256.618C423.127 256.74 424.719 255.882 425.209 255.515L424.352 237.255L410.884 236.765L408.925 254.779Z" fill="#231F20"/>
<path d="M409.17 244.24C410.394 246.078 411.986 247.672 413.945 248.774C417.128 250.735 421.903 252.819 425.821 252.451L425.454 244.24C422.515 244.485 419.699 244.363 416.761 243.995C414.19 243.872 411.741 243.26 409.292 242.279L409.17 244.24Z" fill="#231F20"/>
<path d="M424.842 253.309C420.679 253.309 416.026 250.98 413.578 249.51C411.496 248.407 409.782 246.691 408.436 244.73C408.313 244.608 408.313 244.363 408.313 244.24L408.558 242.279C408.558 242.034 408.803 241.789 409.048 241.667C409.293 241.544 409.537 241.544 409.782 241.667C412.109 242.525 414.557 243.137 417.006 243.26C419.822 243.627 422.638 243.75 425.454 243.505C425.699 243.505 425.943 243.505 426.066 243.75C426.188 243.873 426.311 244.118 426.311 244.363L426.678 252.574C426.678 253.064 426.311 253.431 425.943 253.431C425.576 253.309 425.209 253.431 424.842 253.309ZM410.15 244.118C411.251 245.711 412.721 247.181 414.557 248.039C416.394 249.142 421.046 251.716 425.086 251.593L424.842 245.098C422.148 245.221 419.454 245.098 416.883 244.73C414.68 244.485 412.476 244.118 410.272 243.382L410.15 244.118Z" fill="#231F20"/>
<path d="M430.841 216.421L430.229 234.681C430.229 235.417 430.106 236.274 429.861 237.01C428.514 242.279 423.74 246.078 418.23 245.833H416.883C410.517 245.588 405.497 240.319 405.742 233.946L406.354 215.686C406.354 215.686 409.17 219.485 417.373 219.363C422.026 219.363 426.678 218.382 430.841 216.421Z" fill="white"/>
<path d="M418.72 246.691H418.23H416.883C410.027 246.446 404.64 240.686 404.885 233.824C404.885 233.824 404.885 233.824 404.885 233.701L405.497 215.441C405.497 214.951 405.864 214.583 406.354 214.583C406.599 214.583 406.844 214.706 406.966 214.951C406.966 214.951 409.66 218.26 417.128 218.26H417.373C421.903 218.26 426.311 217.402 430.351 215.564C430.596 215.441 430.963 215.441 431.208 215.564C431.453 215.686 431.575 216.054 431.575 216.299L430.963 234.559C430.963 235.417 430.841 236.152 430.596 237.01C429.372 242.77 424.352 246.691 418.72 246.691ZM407.211 217.402L406.599 233.824C406.599 234.804 406.721 235.907 406.966 236.887C408.191 241.422 412.231 244.73 417.006 244.975H418.353C423.372 245.098 427.902 241.789 429.127 236.765C429.249 236.029 429.372 235.294 429.372 234.559L429.984 217.647C425.943 219.24 421.781 219.976 417.496 219.976C412.108 220.098 408.925 218.627 407.211 217.402Z" fill="#231F20"/>
<path d="M418.108 226.716C418.108 226.716 421.903 235.049 420.189 235.294C418.72 235.294 417.373 234.804 416.149 234.191" fill="white"/>
<path d="M419.944 236.029C418.475 235.907 417.128 235.539 415.781 234.804C415.414 234.559 415.292 233.946 415.537 233.578C415.781 233.211 416.149 233.088 416.516 233.211C417.495 233.701 418.597 234.069 419.699 234.191C419.21 231.618 418.353 229.167 417.251 226.838C417.006 226.348 417.251 225.858 417.74 225.735C418.23 225.613 418.72 225.735 418.842 226.225C420.067 229.044 422.025 233.823 421.291 235.294C421.046 235.662 420.679 235.907 420.311 235.907L419.944 236.029Z" fill="#231F20"/>
<path d="M420.434 240.931C418.23 240.931 416.026 240.319 414.067 239.461C413.578 239.216 413.455 238.725 413.578 238.358C413.822 237.868 414.312 237.745 414.679 237.868C420.067 240.196 422.882 238.848 422.882 238.848C423.25 238.603 423.862 238.848 424.107 239.216C424.352 239.583 424.107 240.196 423.74 240.441C422.76 240.686 421.658 240.931 420.434 240.931Z" fill="#231F20"/>
<path d="M413.21 227.206C413.616 227.206 413.945 226.383 413.945 225.368C413.945 224.352 413.616 223.529 413.21 223.529C412.805 223.529 412.476 224.352 412.476 225.368C412.476 226.383 412.805 227.206 413.21 227.206Z" fill="#231F20"/>
<path d="M423.862 227.206C424.268 227.206 424.597 226.383 424.597 225.368C424.597 224.352 424.268 223.529 423.862 223.529C423.456 223.529 423.127 224.352 423.127 225.368C423.127 226.383 423.456 227.206 423.862 227.206Z" fill="#231F20"/>
<path d="M429.861 253.676L429.616 255.024L426.066 277.083H410.394L405.497 255.27L405.13 253.676L405.864 253.922L408.068 254.534L409.782 255.024L418.353 257.475L425.943 254.902L427.045 254.534L427.535 254.412L429.861 253.676Z" fill="#231F20"/>
<path d="M426.066 277.941H410.394C410.027 277.941 409.66 277.696 409.537 277.328L404.273 253.922C404.15 253.431 404.395 252.941 404.885 252.941C405.007 252.941 405.13 252.941 405.375 252.941L418.475 256.618L426.923 253.799H427.045L429.616 252.941C429.861 252.819 430.229 252.941 430.473 253.064C430.718 253.309 430.841 253.554 430.718 253.799L430.473 255.147L426.923 277.206C426.923 277.696 426.556 278.064 426.066 277.941ZM411.129 276.226H425.331L428.759 254.902L427.535 255.392H427.413L418.72 258.333C418.597 258.456 418.353 258.456 418.23 258.333L406.354 254.902L411.129 276.226Z" fill="#231F20"/>
<path d="M427.902 249.632C427.657 249.632 418.23 257.476 418.23 257.476L423.984 264.216L429.739 253.677L427.902 249.632Z" fill="white"/>
<path d="M424.107 265.073C423.862 265.073 423.617 264.951 423.495 264.828L417.74 258.088C417.618 257.966 417.496 257.721 417.496 257.475C417.496 257.23 417.618 256.985 417.74 256.863C427.29 248.774 427.535 248.774 427.902 248.774C428.27 248.774 428.515 249.02 428.637 249.265L430.596 253.309C430.718 253.554 430.718 253.799 430.596 254.044L424.842 264.583C424.719 264.951 424.474 265.073 424.107 265.073ZM419.577 257.598L423.985 262.745L428.882 253.676L427.535 250.98C425.943 252.206 422.148 255.392 419.577 257.598Z" fill="#231F20"/>
<path d="M407.211 249.632C407.456 249.632 418.475 257.598 418.475 257.598L411.864 264.338L405.252 253.799L407.211 249.632Z" fill="white"/>
<path d="M411.741 265.073H411.619C411.374 265.073 411.129 264.951 411.007 264.706L404.395 254.167C404.273 253.922 404.273 253.554 404.395 253.309L406.477 249.142C406.599 248.897 406.966 248.652 407.211 248.652C407.578 248.652 407.823 248.652 418.965 256.74C419.332 256.985 419.454 257.598 419.21 257.966C419.21 257.966 419.21 258.088 419.087 258.088L412.476 264.828C412.231 264.951 411.986 265.073 411.741 265.073ZM406.109 253.676L411.986 262.868L417.128 257.598C413.822 255.147 409.292 251.961 407.578 250.735L406.109 253.676Z" fill="#231F20"/>
<path d="M462.428 277.083H451.409C453.001 270.956 454.47 266.054 454.593 265.196V265.074C454.593 265.074 455.572 264.216 456.796 266.176C457.164 266.789 459.49 271.078 462.428 277.083Z" fill="#FD6500"/>
<path d="M484.344 277.941H352.117C351.627 277.941 351.26 277.574 351.26 277.083V199.02C351.26 198.529 351.627 198.162 352.117 198.162H484.344C484.834 198.162 485.201 198.529 485.201 199.02V277.083C485.201 277.574 484.834 277.941 484.344 277.941ZM352.974 276.225H483.487V199.877H352.974V276.225Z" fill="#231F20"/>
<path d="M99.2931 277.083H95.0079L97.3342 271.569L99.2931 277.083Z" fill="#FD6500"/>
<path d="M183.772 277.083H179.486L181.445 271.569V271.691L183.772 277.083Z" fill="#FD6500"/>
<path d="M181.445 271.569L180.343 277.083H98.1911C97.4565 274.02 97.0892 271.936 97.3341 271.569C98.3136 269.853 125.983 259.069 125.983 259.069L127.575 258.946L130.391 258.823C136.023 258.456 145.573 257.966 150.47 258.211C151.327 258.211 152.184 258.333 153.041 258.578C153.531 258.701 153.898 258.946 154.388 259.069C160.264 261.52 180.588 271.201 181.445 271.569Z" fill="#FD6500"/>
<path d="M150.347 258.946H130.391V277.083H150.347V258.946Z" fill="#231F20"/>
<path d="M150.348 277.941H130.391C129.901 277.941 129.534 277.573 129.534 277.083V259.069C129.534 258.578 129.901 258.211 130.391 258.211H150.348C150.837 258.211 151.205 258.578 151.205 259.069V277.206C151.205 277.574 150.837 277.941 150.348 277.941ZM131.248 276.225H149.49V259.804H131.248V276.225Z" fill="#231F20"/>
<path d="M157.204 229.657C157.448 229.044 157.571 228.431 157.693 227.941C160.754 216.667 156.224 202.083 142.879 201.226C136.635 200.98 130.881 204.289 127.942 209.804C124.147 216.422 125.126 225 125.861 232.353C125.861 232.843 125.983 233.333 126.228 233.701C126.963 234.559 128.432 233.946 129.411 233.946C130.881 233.946 132.35 234.191 133.697 234.191C136.145 234.314 138.594 234.436 141.165 234.314C144.715 234.436 148.266 234.314 151.817 233.946C153.286 233.701 154.388 233.701 155.367 232.476C156.347 231.74 156.836 230.76 157.204 229.657Z" fill="white"/>
<path d="M146.797 235.172C146.062 235.172 145.328 235.172 144.593 235.172C143.491 235.172 142.512 235.172 141.532 235.172C139.329 235.172 137.002 235.172 134.064 235.049C133.452 235.049 132.962 234.926 132.35 234.926C131.493 234.804 130.636 234.804 129.779 234.804C129.534 234.804 129.289 234.804 129.044 234.926C127.942 235.294 126.718 235.049 125.861 234.191C125.494 233.701 125.249 232.966 125.249 232.353L125.126 231.373C124.392 224.142 123.657 215.931 127.33 209.314C130.391 203.554 136.513 200.123 143.002 200.368C148.021 200.613 152.674 203.186 155.49 207.23C159.285 212.623 160.509 220.833 158.551 228.186C158.428 228.799 158.183 229.412 157.938 230.024C157.571 231.127 156.959 232.23 156.224 233.088C155.367 234.069 154.021 234.681 152.674 234.804L152.184 234.926C150.47 235.049 148.633 235.172 146.797 235.172ZM142.389 233.456C143.124 233.456 143.859 233.456 144.593 233.456C147.042 233.578 149.491 233.456 151.939 233.088L152.429 232.966C153.408 232.966 154.265 232.598 154.878 231.863C155.49 231.127 155.979 230.147 156.347 229.289C156.592 228.676 156.714 228.186 156.836 227.574C158.673 220.711 157.571 213.113 154.021 208.088C151.449 204.412 147.287 202.083 142.879 201.838C137.002 201.593 131.493 204.779 128.799 209.926C125.249 216.054 126.106 223.897 126.718 230.882L126.84 231.863C126.84 232.23 126.963 232.475 127.085 232.721C127.33 232.966 127.942 232.966 128.677 232.843C129.044 232.843 129.289 232.721 129.656 232.721C130.636 232.721 131.493 232.843 132.35 232.843C132.84 232.843 133.452 232.966 133.942 232.966C136.758 233.088 139.084 233.211 141.288 233.088L142.389 233.456Z" fill="#231F20"/>
<path d="M131.125 231.005C130.391 225.368 121.208 223.652 121.453 230.27C121.453 232.598 122.188 234.804 123.657 236.52C125.126 238.235 127.575 238.971 129.779 238.235" fill="white"/>
<path d="M128.065 239.461C126.106 239.461 124.269 238.603 123.045 237.132C121.453 235.172 120.596 232.843 120.596 230.27C120.474 226.716 122.678 225.245 124.759 225.123C128.31 224.877 131.37 227.328 131.983 230.882C131.983 231.373 131.738 231.74 131.248 231.863C130.758 231.863 130.391 231.618 130.268 231.127C129.779 228.554 127.453 226.716 124.881 226.838C123.902 226.961 122.188 227.451 122.188 230.27C122.188 232.353 122.923 234.436 124.269 236.029C125.616 237.5 127.575 238.113 129.534 237.5C130.024 237.377 130.513 237.5 130.636 237.99C130.758 238.48 130.636 238.971 130.146 239.093C129.534 239.338 128.922 239.461 128.065 239.461Z" fill="#231F20"/>
<path d="M151.327 231.005C152.062 225.368 161.244 223.652 160.999 230.27C160.999 232.598 160.264 234.804 158.795 236.52C157.326 238.235 154.877 238.971 152.674 238.235" fill="white"/>
<path d="M154.265 239.461C153.531 239.461 152.796 239.338 152.184 239.093C151.817 238.848 151.572 238.358 151.817 237.99C152.061 237.622 152.429 237.5 152.796 237.622C154.632 238.235 156.714 237.622 158.061 236.152C159.407 234.559 160.142 232.475 160.142 230.392C160.264 227.696 158.55 227.083 157.571 226.961C155 226.838 152.674 228.554 152.184 231.25C152.184 231.74 151.694 232.108 151.204 231.985C150.715 231.985 150.347 231.495 150.47 231.005C151.082 227.573 154.143 225 157.693 225.245C159.775 225.368 161.978 226.838 161.856 230.392C161.856 232.843 160.999 235.294 159.407 237.255C158.061 238.603 156.224 239.461 154.265 239.461Z" fill="#231F20"/>
<path d="M130.391 258.946C134.064 260.539 137.982 261.397 142.022 261.397C149.368 261.642 150.592 259.681 150.592 259.681L150.47 255.76L150.103 246.691L149.735 238.113L132.962 237.5L132.227 244.363L131.982 246.569L130.391 258.946Z" fill="white"/>
<path d="M143.246 262.377C142.879 262.377 142.389 262.377 141.9 262.377C137.737 262.377 133.697 261.52 129.901 259.804C129.534 259.681 129.411 259.314 129.411 258.946L131.86 237.5C131.86 237.01 132.35 236.765 132.717 236.765L149.49 237.377C149.98 237.377 150.347 237.745 150.347 238.235L151.327 259.804C151.327 259.926 151.327 260.172 151.204 260.294C151.082 260.539 149.613 262.377 143.246 262.377ZM131.37 258.456C134.798 259.804 138.349 260.539 142.022 260.539C147.287 260.784 149.123 259.681 149.613 259.314L148.756 238.971L133.697 238.48L131.37 258.456Z" fill="#231F20"/>
<path d="M131.86 246.691C133.207 248.774 135.043 250.49 137.247 251.716C140.798 253.799 146.062 256.25 150.47 255.76L150.103 246.691C146.919 246.936 143.614 246.936 140.43 246.446C137.614 246.201 134.798 245.588 132.105 244.608L131.86 246.691Z" fill="#231F20"/>
<path d="M149.123 256.74C144.471 256.74 139.451 254.167 136.757 252.451C134.431 251.226 132.472 249.387 131.125 247.181C131.003 247.059 131.003 246.814 131.003 246.691L131.248 244.485C131.248 244.24 131.493 243.995 131.615 243.873C131.86 243.75 132.105 243.75 132.35 243.873C134.921 244.853 137.614 245.466 140.308 245.711C143.491 246.201 146.552 246.324 149.735 245.956C149.98 245.956 150.225 245.956 150.347 246.201C150.47 246.324 150.592 246.569 150.592 246.814L150.96 255.882C150.96 256.373 150.592 256.74 150.225 256.74C150.103 256.74 149.613 256.74 149.123 256.74ZM132.717 246.569C133.941 248.407 135.655 250 137.614 250.98C139.696 252.206 144.96 255.147 149.49 254.902L149.123 247.549C146.185 247.794 143.124 247.672 140.186 247.181C137.614 246.936 135.166 246.446 132.717 245.711V246.569Z" fill="#231F20"/>
<path d="M155.857 215.809L155.122 236.152C155.122 237.01 155 237.868 154.755 238.725C153.286 244.608 147.899 248.775 141.9 248.529H140.43C134.798 248.284 129.901 244.363 128.432 238.848C128.187 237.623 127.942 236.397 128.065 235.172L128.799 214.828C128.799 214.828 131.983 218.995 141.043 218.873C146.062 218.995 151.204 217.892 155.857 215.809Z" fill="white"/>
<path d="M142.389 249.387H141.9H140.43C134.309 249.142 129.167 244.975 127.697 239.093C127.33 237.868 127.208 236.52 127.33 235.172L128.065 214.828C128.065 214.338 128.432 213.971 128.922 213.971C129.167 213.971 129.411 214.093 129.534 214.338C129.534 214.338 132.717 218.137 141.043 218.137C146.062 218.137 150.96 217.157 155.49 215.074C155.979 214.828 156.469 215.074 156.591 215.564C156.591 215.686 156.714 215.809 156.714 215.931L155.979 236.275C155.979 237.255 155.857 238.113 155.612 238.971C154.143 245.098 148.633 249.387 142.389 249.387ZM129.534 216.789L128.922 235.294C128.677 241.912 133.819 247.426 140.43 247.672H141.9C147.531 247.917 152.551 243.995 153.898 238.48C154.143 237.623 154.143 236.887 154.265 236.029L154.877 217.157C150.47 218.873 145.695 219.853 140.92 219.853C134.921 219.853 131.37 218.137 129.534 216.789Z" fill="#231F20"/>
<path d="M141.777 227.206C141.777 227.206 145.94 236.52 144.103 236.642C142.512 236.642 141.043 236.152 139.573 235.417" fill="white"/>
<path d="M143.736 237.623C142.144 237.5 140.553 237.01 139.206 236.274C138.839 236.029 138.594 235.539 138.839 235.172C139.084 234.804 139.573 234.559 139.941 234.804C141.042 235.417 142.389 235.784 143.614 235.907C143.614 234.804 142.512 231.25 140.92 227.573C140.675 227.083 140.92 226.593 141.41 226.471C141.9 226.348 142.389 226.471 142.512 226.961C143.858 230.024 146.062 235.417 145.205 237.01C144.96 237.377 144.593 237.623 144.226 237.623H143.736Z" fill="#231F20"/>
<path d="M144.103 243.015C141.287 242.892 138.471 242.157 136.023 240.686C135.655 240.441 135.411 239.951 135.655 239.461C135.9 239.093 136.39 238.848 136.757 239.093C143.124 242.647 147.042 240.686 147.164 240.686C147.531 240.441 148.144 240.686 148.266 241.054C148.388 241.422 148.266 242.034 147.899 242.157C146.674 242.77 145.45 243.015 144.103 243.015Z" fill="#231F20"/>
<path d="M136.268 227.819C136.741 227.819 137.125 226.941 137.125 225.858C137.125 224.775 136.741 223.897 136.268 223.897C135.794 223.897 135.411 224.775 135.411 225.858C135.411 226.941 135.794 227.819 136.268 227.819Z" fill="#231F20"/>
<path d="M148.021 227.819C148.495 227.819 148.878 226.941 148.878 225.858C148.878 224.775 148.495 223.897 148.021 223.897C147.548 223.897 147.164 224.775 147.164 225.858C147.164 226.941 147.548 227.819 148.021 227.819Z" fill="#231F20"/>
<path d="M209.115 277.941H76.8878C76.3981 277.941 76.0308 277.574 76.0308 277.083V199.02C76.0308 198.529 76.3981 198.162 76.8878 198.162H209.115C209.605 198.162 209.972 198.529 209.972 199.02V277.083C209.972 277.574 209.605 277.941 209.115 277.941ZM77.7448 276.225H208.258V199.877H77.7448V276.225Z" fill="#231F20"/>
<path d="M177.038 203.431H200.912C202.014 203.431 202.871 204.289 202.871 205.392V206.863C202.871 207.966 202.014 208.823 200.912 208.823H177.038C175.936 208.823 175.079 207.966 175.079 206.863V205.392C175.201 204.289 176.058 203.431 177.038 203.431Z" fill="#E0E0E0"/>
<path d="M391.295 165.809C392.642 163.358 394.723 161.887 395.703 159.314C396.805 155.76 397.172 152.083 396.682 148.407C396.315 143.382 395.335 138.235 396.56 133.333C396.927 131.985 397.662 130.515 399.008 130.637C399.865 130.882 400.722 131.495 401.09 132.353C402.926 135.294 404.028 138.48 404.395 141.912C409.538 140.073 414.557 134.191 418.965 130.76C424.352 126.593 429.861 122.426 435.493 118.382C436.35 117.769 437.575 117.157 438.309 117.892C438.554 118.137 438.799 118.382 438.799 118.75C439.778 121.568 437.207 124.387 434.881 126.225C431.208 129.167 427.413 131.985 423.495 134.559C425.944 132.966 429.861 144.853 429.984 146.201C430.474 151.838 428.147 155.147 424.719 159.191C419.577 165.073 411.007 186.642 411.007 186.642C411.374 185.662 402.069 177.206 401.212 176.348L391.295 165.809Z" fill="white"/>
<path d="M411.129 187.5C411.007 187.5 410.884 187.5 410.762 187.5C410.394 187.377 410.272 187.01 410.272 186.765C409.66 185.539 404.028 180.269 402.191 178.554L400.722 177.083L390.683 166.544C390.438 166.299 390.315 165.931 390.56 165.564C391.173 164.461 391.907 163.48 392.764 162.622C393.744 161.642 394.478 160.416 395.09 159.191C396.437 155.76 396.315 151.838 396.07 148.652C395.947 147.671 395.947 146.691 395.825 145.711C395.335 141.666 394.968 137.377 395.947 133.333C396.437 131.617 397.417 129.779 399.376 130.024C400.6 130.269 401.579 131.005 402.069 132.108C403.661 134.804 404.885 137.745 405.375 140.931C408.436 139.583 411.374 136.765 414.312 134.068C415.782 132.72 417.251 131.372 418.72 130.269C424.107 126.103 429.739 121.936 435.248 117.892C437.207 116.421 438.432 116.789 439.166 117.402C439.533 117.769 439.778 118.137 440.023 118.627C440.88 121.201 439.533 124.142 435.86 127.083C432.677 129.657 429.372 132.108 425.943 134.436C428.515 136.887 431.208 145.22 431.33 146.323C431.943 152.451 429.127 156.127 425.821 159.926C420.801 165.686 412.353 187.01 412.231 187.132C411.864 187.255 411.496 187.5 411.129 187.5ZM392.397 165.686L401.947 175.735C402.069 175.858 402.681 176.47 403.416 177.083C407.701 181.127 409.905 183.333 411.007 184.681C413.088 179.534 419.822 163.603 424.229 158.578C427.413 154.902 429.861 151.715 429.249 146.201C429.004 143.872 425.331 135.294 424.107 135.171C423.74 135.416 423.127 135.294 422.883 134.926C422.638 134.559 422.76 133.946 423.127 133.701C427.045 131.127 430.841 128.431 434.391 125.49C437.452 123.039 438.676 120.833 438.064 118.872C438.064 118.75 437.942 118.505 437.819 118.382C437.575 118.137 436.84 118.382 435.983 118.995C430.473 123.039 424.842 127.083 419.454 131.25C418.108 132.353 416.761 133.578 415.169 134.926C411.741 137.99 408.313 141.176 404.64 142.524C404.395 142.647 404.15 142.524 403.906 142.402C403.661 142.279 403.538 142.034 403.538 141.789C403.171 138.48 402.069 135.416 400.355 132.598C399.865 131.74 399.376 131.372 399.008 131.372C398.274 131.372 397.661 132.353 397.417 133.456C396.437 137.255 396.927 141.299 397.294 145.22C397.417 146.201 397.539 147.181 397.539 148.284C397.784 151.593 397.906 155.882 396.437 159.559C395.825 161.029 394.968 162.255 393.866 163.48C393.499 164.093 393.009 164.828 392.397 165.686Z" fill="#231F20"/>
<path d="M233.234 191.299C240.703 166.667 246.947 146.936 246.947 146.936C247.437 147.059 256.129 150 269.719 147.671C272.29 147.181 274.861 146.691 277.31 145.956L277.677 145.833C277.677 145.833 281.963 165.931 287.105 191.299H233.234Z" fill="#231F20"/>
<path d="M349.301 191.299H276.575C277.188 167.034 277.555 147.916 277.555 147.916L269.842 147.671L247.069 146.936C247.069 146.936 247.192 163.358 247.192 191.299H198.708C194.79 177.451 191.73 167.157 195.035 163.358C201.769 156.005 235.561 145.588 235.561 145.588C239.356 144.73 243.151 144.362 246.947 144.362C256.374 144.117 268.862 144.608 277.433 145.098C283.064 145.343 286.982 145.588 286.982 145.588C286.982 145.588 314.652 145.588 320.529 155.637L349.301 191.299Z" fill="#FD6500"/>
<path d="M416.026 181.25C416.026 181.25 414.557 185.171 412.231 191.176H374.154L390.928 163.113L392.397 164.093L414.067 179.779L416.026 181.25Z" fill="#FD6500"/>
<path d="M210.462 105.147C210.339 108.578 211.074 111.887 211.319 115.318C211.564 118.75 211.074 122.426 208.87 125C206.299 127.818 202.014 128.676 198.341 127.941C194.668 127.206 191.24 125.122 187.934 123.162C187.812 128.921 191.24 134.314 196.015 137.377C204.463 142.647 220.869 141.912 229.806 138.358C236.662 135.662 242.539 130.147 244.621 123.162C246.579 116.299 244.865 108.946 242.049 102.328C238.989 95.0978 233.112 88.3576 224.542 88.4802C216.951 88.4802 210.829 98.2841 210.462 105.147Z" fill="white"/>
<path d="M213.033 141.912C206.422 141.912 199.81 140.686 195.525 137.99C190.261 134.804 187.077 129.167 187.077 123.039C187.077 122.671 187.2 122.426 187.567 122.304C187.812 122.181 188.179 122.181 188.424 122.304C191.362 124.142 194.791 126.225 198.463 126.961C201.524 127.573 205.687 127.206 208.258 124.387C209.972 122.426 210.829 119.363 210.584 115.441C210.462 114.216 210.339 112.99 210.217 111.765C209.85 109.681 209.727 107.475 209.727 105.269C210.095 98.4067 216.339 87.8675 224.664 87.7449C232.5 87.6224 238.989 92.892 242.907 102.083C246.335 110.294 247.192 117.402 245.478 123.407C243.396 130.392 237.642 136.274 230.051 139.216C224.542 141.054 218.787 142.034 213.033 141.912ZM188.791 124.51C189.403 129.412 192.219 133.823 196.505 136.519C204.218 141.421 220.257 141.054 229.561 137.5C236.663 134.804 242.05 129.289 243.886 122.794C245.478 117.157 244.743 110.417 241.437 102.573C239.723 98.5293 234.704 89.2155 224.909 89.2155H224.787C217.563 89.3381 211.809 98.7744 211.441 105.147C211.441 107.23 211.564 109.314 211.809 111.397C211.931 112.622 212.176 113.97 212.176 115.196C212.421 119.608 211.564 123.039 209.482 125.49C206.544 128.921 201.647 129.412 198.096 128.676C194.913 127.818 191.73 126.47 188.791 124.51Z" fill="#231F20"/>
<path d="M223.195 100.367C220.257 99.142 218.053 96.691 217.073 93.6273C216.094 90.5635 216.828 87.2547 218.787 84.8037C219.4 84.0684 220.134 83.4557 221.114 83.088C221.971 82.7204 222.95 82.5978 223.93 82.7204C228.215 82.9655 232.01 85.9067 233.234 90.0733C235.193 96.691 230.174 103.554 223.195 100.367Z" fill="#231F20"/>
<path d="M226.623 101.961C225.276 101.961 223.93 101.593 222.828 101.103C219.767 99.7547 217.318 97.0586 216.216 93.8724C215.237 90.5635 215.849 86.887 218.175 84.191C218.91 83.3331 219.767 82.7204 220.746 82.2302C221.726 81.8626 222.828 81.74 223.93 81.74C228.582 82.1076 232.622 85.1714 234.091 89.5831C235.316 93.2596 234.336 97.3037 231.52 100.122C230.174 101.348 228.46 102.083 226.623 101.961ZM223.562 99.5096C225.766 100.735 228.46 100.49 230.418 98.8969C232.745 96.5684 233.479 93.2596 232.377 90.1959C231.153 86.3969 227.725 83.8233 223.807 83.4557C222.95 83.4557 222.093 83.4557 221.358 83.8233C220.624 84.191 219.889 84.6812 219.4 85.2939C217.563 87.4998 216.951 90.5635 217.808 93.2596C218.787 96.0782 220.746 98.4067 223.562 99.5096Z" fill="#231F20"/>
<path d="M245.845 42.1567L245.723 42.2792C244.743 42.892 241.437 46.8136 240.58 46.9361C205.809 47.9165 219.767 96.691 237.397 110.539C244.376 116.054 256.741 120.711 265.557 118.505C272.168 116.912 278.167 111.397 278.412 104.657C285.268 104.167 292.614 103.309 297.756 98.6518C300.695 95.7106 302.776 92.0341 303.878 87.99C306.939 78.1861 305.959 67.6469 301.307 58.5783C292.859 43.0145 270.699 33.4557 253.681 38.3577C250.865 39.2155 248.171 40.5636 245.845 42.1567Z" fill="white"/>
<path d="M260.782 119.853C252.456 119.853 242.784 115.809 236.785 111.152C224.664 101.715 214.257 76.2253 219.644 60.1714C221.726 53.9214 226.99 46.4459 240.58 46.0782C241.56 45.2204 242.417 44.3625 243.274 43.5047C243.886 42.8919 244.498 42.2792 245.233 41.6664L245.355 41.5439C247.804 39.8282 250.497 38.4802 253.436 37.6223C270.699 32.5978 293.471 42.2792 302.042 58.2106C306.816 67.5243 307.796 78.3086 304.735 88.2351C303.633 92.4017 301.429 96.2008 298.369 99.2645C293.104 104.044 285.268 104.902 279.269 105.392C278.534 112.622 272.046 117.769 265.801 119.24C264.21 119.608 262.496 119.73 260.904 119.73H260.782V119.853ZM263.23 37.8674C260.047 37.8674 256.864 38.2351 253.803 39.2155C251.11 40.0733 248.538 41.2988 246.212 42.8919L246.09 43.0145C245.478 43.5047 244.865 44.1174 244.376 44.7302C242.05 47.0586 241.193 47.7939 240.458 47.7939C230.296 48.039 223.807 52.4508 221.114 60.6615C216.094 76.1027 226.011 100.613 237.764 109.804C244.621 115.196 256.619 119.73 265.189 117.647C271.066 116.299 277.188 111.274 277.433 104.534C277.433 104.044 277.8 103.799 278.167 103.676C285.391 103.064 292.247 102.206 297.022 97.9165C299.838 95.0978 301.919 91.5439 302.899 87.6223C305.837 78.0635 304.98 67.7694 300.45 58.8233C293.594 46.4459 277.8 37.8674 263.23 37.8674Z" fill="#231F20"/>
<path d="M284.656 95.4654C286.493 84.9262 303.878 82.5977 302.899 94.9752C302.776 99.2644 301.062 103.431 298.124 106.495C295.063 109.436 290.288 110.907 286.37 109.068" fill="white"/>
<path d="M290.166 110.784C288.696 110.784 287.35 110.539 286.125 109.926C285.636 109.681 285.513 109.191 285.758 108.823C286.003 108.456 286.493 108.211 286.86 108.456C290.166 110.049 294.573 108.946 297.634 106.005C300.94 102.818 301.919 98.1615 302.164 94.9752C302.531 90.8085 300.572 88.1125 296.899 87.6223C292.369 87.0095 286.615 90.1958 285.636 95.7105C285.513 96.2007 285.146 96.4458 284.656 96.4458C284.166 96.3233 283.922 95.9556 283.922 95.4654C285.023 88.9703 291.635 85.2938 297.022 86.0291C300.695 86.5193 304.368 89.0929 303.756 95.2203C303.511 98.7742 302.409 103.676 298.736 107.353C296.41 109.436 293.349 110.784 290.166 110.784Z" fill="#231F20"/>
<path d="M241.193 94.9753C239.601 84.436 222.216 81.6174 222.95 94.1174C223.073 98.4066 224.664 102.573 227.48 105.76C230.419 108.823 235.193 110.294 239.111 108.578" fill="white"/>
<path d="M235.683 110.171C232.377 110.171 229.194 108.701 226.99 106.372C223.44 102.696 222.46 97.6714 222.215 94.1175C221.848 87.99 225.644 85.4165 229.194 85.0489C234.704 84.4361 241.193 88.2351 242.172 94.8528C242.294 95.343 241.927 95.7106 241.437 95.8332C240.948 95.9557 240.58 95.5881 240.458 95.0979C239.601 89.5832 233.969 86.2744 229.439 86.7645C225.766 87.1322 223.685 89.8283 223.93 93.9949C224.174 97.1812 225.031 101.838 228.215 105.147C231.153 108.211 235.561 109.314 238.866 107.843C239.356 107.72 239.846 107.966 239.968 108.333C240.091 108.701 239.968 109.191 239.601 109.436C238.377 109.926 237.03 110.171 235.683 110.171Z" fill="#231F20"/>
<path d="M246.947 146.936C246.947 146.936 256.619 156.005 263.353 155.882C270.087 155.76 277.555 147.916 277.555 147.916L277.065 140.564L276.086 123.529L275.106 107.598L247.804 107.353L246.702 120.343L246.335 124.51L246.947 146.936Z" fill="white"/>
<path d="M263.23 156.617C256.252 156.617 246.824 147.916 246.457 147.549C246.335 147.426 246.212 147.181 246.212 146.936L245.723 124.51L247.069 107.108C247.069 106.617 247.437 106.372 247.926 106.372L275.229 106.617C275.719 106.617 276.086 106.985 276.086 107.475L278.412 147.916C278.412 148.162 278.29 148.407 278.167 148.529C277.8 148.897 270.331 156.495 263.353 156.74L263.23 156.617ZM247.804 146.446C249.396 147.794 257.476 154.902 263.108 154.902H263.23C268.862 154.779 275.229 148.774 276.576 147.549L274.249 108.333L248.538 108.088L247.192 124.51L247.804 146.446Z" fill="#231F20"/>
<path d="M246.457 124.51C248.661 128.309 251.722 131.372 255.395 133.701C261.271 137.5 269.964 141.789 277.188 140.686L276.208 123.652C270.944 124.387 265.679 124.387 260.414 123.652C255.762 123.162 251.11 122.549 246.824 120.466L246.457 124.51Z" fill="#231F20"/>
<path d="M274.617 141.544C267.271 141.544 259.313 137.132 254.905 134.314C251.11 131.985 247.926 128.676 245.723 124.877C245.6 124.755 245.6 124.632 245.6 124.387L245.967 120.22C245.967 119.975 246.212 119.73 246.457 119.485C246.702 119.363 247.069 119.363 247.314 119.485C251.477 121.568 256.374 122.059 260.659 122.549C265.801 123.284 271.066 123.284 276.208 122.549C276.453 122.549 276.698 122.549 276.943 122.671C277.188 122.794 277.188 123.039 277.31 123.284L278.29 140.318C278.29 140.809 278.045 141.176 277.555 141.176C276.331 141.421 275.474 141.544 274.617 141.544ZM247.314 124.265C249.396 127.818 252.334 130.76 255.762 132.843C259.435 135.171 268.617 140.564 276.208 139.706L275.351 124.387C270.332 125 265.312 124.877 260.292 124.265C256.007 124.019 251.722 123.039 247.559 121.568L247.314 124.265Z" fill="#231F20"/>
<path d="M260.414 127.328H263.23C276.453 127.451 287.35 116.789 287.594 103.554L287.839 80.7597C287.839 80.7597 274.372 77.4508 265.679 74.142C251.11 68.6273 247.069 60.6616 247.069 60.6616C246.58 65.9312 245.478 71.0783 243.641 76.1028C242.049 79.9018 237.152 86.1518 237.152 86.1518C237.152 86.1518 236.662 98.0391 236.662 102.941C236.418 116.176 247.069 127.083 260.414 127.328C260.414 127.206 260.414 127.206 260.414 127.328Z" fill="white"/>
<path d="M263.475 128.186H263.23H260.414C246.702 128.064 235.683 116.789 235.805 102.941C235.805 98.039 236.295 86.2743 236.295 86.0292C236.295 85.9067 236.418 85.6616 236.418 85.539C236.418 85.4165 241.315 79.1665 242.784 75.7351C244.621 70.8331 245.723 65.8086 246.212 60.6616C246.212 60.1714 246.702 59.8037 247.069 59.9263C247.314 59.9263 247.681 60.1714 247.804 60.4165C247.804 60.539 251.844 68.1371 265.924 73.4067C274.494 76.5929 287.839 79.9018 287.962 79.9018C288.329 80.0243 288.574 80.392 288.574 80.7596L288.329 103.554C288.207 117.279 277.065 128.186 263.475 128.186ZM237.887 86.3969C237.887 88.2351 237.397 98.4067 237.397 102.941C237.275 115.809 247.559 126.225 260.292 126.348H263.108H263.353C276.086 126.348 286.37 116.054 286.493 103.431L286.737 81.3724C283.922 80.6371 272.658 77.8184 265.189 74.9998C254.783 71.0782 249.763 66.0537 247.559 63.2351C246.947 67.7694 245.845 72.1812 244.253 76.4704C243.029 79.7792 238.866 85.2939 237.887 86.3969Z" fill="#231F20"/>
<path d="M262.373 110.294C261.027 110.294 259.68 110.171 258.333 110.049C257.843 109.926 257.476 109.559 257.598 109.069C257.598 108.578 258.088 108.333 258.578 108.333C260.782 108.578 263.108 108.578 265.312 108.456C266.414 107.72 264.577 99.8773 261.516 91.544C261.271 91.0538 261.516 90.5636 262.006 90.4411C262.496 90.196 262.985 90.4411 263.108 90.9313C263.108 90.9313 263.108 90.9313 263.108 91.0538C264.087 93.6273 268.617 106.372 266.781 109.314C266.536 109.804 266.046 110.171 265.434 110.171C264.455 110.294 263.475 110.294 262.373 110.294Z" fill="#231F20"/>
<path d="M252.763 88.2971C252.788 86.0638 252.041 84.2449 251.094 84.2345C250.147 84.2241 249.36 86.0261 249.336 88.2594C249.311 90.4927 250.059 92.3115 251.005 92.322C251.952 92.3324 252.739 90.5304 252.763 88.2971Z" fill="#231F20"/>
<path d="M274.692 87.7877C274.716 85.5544 273.969 83.7355 273.022 83.7251C272.076 83.7147 271.288 85.5167 271.264 87.75C271.239 89.9833 271.987 91.8021 272.933 91.8126C273.88 91.823 274.667 90.021 274.692 87.7877Z" fill="#231F20"/>
<path d="M262.373 115.931C261.884 115.931 261.271 115.931 260.782 115.809C251.967 115.073 246.579 107.843 246.335 107.475C246.09 107.108 246.09 106.495 246.457 106.25C246.824 106.005 247.436 106.005 247.681 106.495C247.681 106.618 252.824 113.358 260.904 114.093C266.414 114.583 272.168 112.132 277.8 106.74C278.167 106.372 278.657 106.372 279.024 106.74C279.391 107.108 279.391 107.598 279.024 107.966C273.637 113.358 268.005 115.931 262.373 115.931Z" fill="#231F20"/>
<path d="M243.151 53.5537C246.702 62.8675 251.477 72.3038 259.557 78.3087C263.72 81.1273 268.128 83.4557 272.903 85.0489C280.004 87.7449 286.86 88.1126 292.737 93.0145C298.369 97.6714 302.409 103.921 304.245 111.029C308.53 99.7547 307.429 87.1322 301.429 76.7155C295.797 67.1567 286.493 60.539 277.31 54.289C272.29 50.8577 266.781 47.4263 260.782 47.5488" fill="white"/>
<path d="M304.245 111.887C303.878 111.887 303.511 111.642 303.511 111.274C301.674 104.412 297.756 98.2841 292.247 93.7498C288.329 90.5635 284.044 89.338 279.514 88.1125C277.31 87.4998 274.984 86.887 272.658 85.9066C267.883 84.1909 263.353 81.8625 259.19 79.0439C250.497 72.5488 245.723 62.2547 242.539 53.9213C242.417 53.4311 242.539 52.9409 243.029 52.8184C243.519 52.6958 244.008 52.8184 244.131 53.3086C247.192 61.3968 251.844 71.4459 260.17 77.6959C264.21 80.5145 268.617 82.7204 273.147 84.436C275.351 85.2939 277.555 85.9066 279.881 86.5194C284.656 87.8674 289.064 89.0929 293.226 92.5243C298.246 96.6909 302.042 102.206 304.245 108.333C307.306 97.9164 305.959 86.7645 300.572 77.3282C295.063 68.0145 285.758 61.2743 276.698 55.1468C271.433 51.5929 266.414 48.5292 260.659 48.6517C260.17 48.6517 259.802 48.4066 259.802 47.9164V47.7939C259.802 47.3037 260.17 46.936 260.659 46.936C266.781 46.8135 272.168 50.1223 277.677 53.7988C286.86 60.0488 296.41 66.789 302.042 76.4704C308.163 87.1321 309.265 99.8772 305.102 111.519C304.98 111.642 304.613 111.887 304.245 111.887Z" fill="#231F20"/>
<path d="M204.952 191.299H161.121C178.384 176.348 195.035 163.358 195.035 163.358L204.952 191.299Z" fill="#FD6500"/>
<path d="M319.182 192.157H319.06C318.57 192.034 318.325 191.544 318.448 191.176C319.305 187.132 320.162 183.823 321.019 181.127C321.141 180.637 321.631 180.392 321.998 180.515C322.365 180.637 322.733 181.127 322.61 181.495C322.61 181.495 322.61 181.495 322.61 181.618C321.876 184.191 321.019 187.5 320.162 191.544C319.917 191.912 319.549 192.157 319.182 192.157Z" fill="#231F20"/>
<path d="M405.252 140.809C405.252 140.809 414.435 143.137 411.741 155.147Z" fill="white"/>
<path d="M411.741 156.005H411.619C411.129 155.882 410.884 155.514 411.007 155.024C413.455 143.995 405.497 141.789 405.13 141.666C404.64 141.544 404.395 141.054 404.518 140.686C404.64 140.196 405.13 139.951 405.62 140.073C405.742 140.073 415.537 142.769 412.721 155.392C412.476 155.76 412.109 156.005 411.741 156.005Z" fill="#231F20"/>
<path d="M484.344 192.157H76.8878C76.3981 192.157 76.0308 191.789 76.0308 191.299V27.6959C76.0308 27.2057 76.3981 26.838 76.8878 26.838H484.344C484.834 26.838 485.201 27.2057 485.201 27.6959V191.299C485.201 191.789 484.834 192.157 484.344 192.157ZM77.7448 190.441H483.487V28.5537H77.7448V190.441Z" fill="#231F20"/>
<path d="M394.968 40.5635H464.755C466.714 40.5635 468.428 42.1566 468.428 44.2399V47.1811C468.428 49.1419 466.836 50.8576 464.755 50.8576H394.968C393.009 50.8576 391.295 49.2645 391.295 47.1811V44.2399C391.295 42.1566 393.009 40.5635 394.968 40.5635Z" fill="#E0E0E0"/>
</svg>
