<svg width="476" height="350" viewBox="0 0 476 350" fill="none" xmlns="http://www.w3.org/2000/svg">
<path d="M299.864 174.71V77.2719C299.864 68.6802 292.834 61.6506 284.242 61.6506C284.047 61.6506 283.949 61.6506 283.754 61.6506L198.325 64.1891C189.733 64.482 182.899 71.7069 183.192 80.2986C183.192 80.5915 183.192 80.7867 183.192 81.0796L191.588 182.423L299.864 174.71Z" fill="#231F20"/>
<path d="M191.686 183.106C191.295 183.106 191.002 182.813 191.002 182.52L182.508 81.177C181.727 72.1948 188.464 64.2865 197.349 63.6031C197.642 63.6031 197.934 63.6031 198.227 63.5054L283.656 60.967C292.639 60.6741 300.156 67.8013 300.449 76.7835C300.449 76.9788 300.449 77.0764 300.449 77.2717V174.807C300.449 175.198 300.156 175.491 299.864 175.491L191.686 183.106ZM284.242 62.3338H283.754L198.325 64.8723C190.124 65.1652 183.582 72.0972 183.875 80.2983C183.875 80.5912 183.875 80.7865 183.875 81.0794L192.272 181.739L299.082 174.124V77.2717C299.18 68.9729 292.541 62.3338 284.242 62.3338Z" fill="#231F20"/>
<path d="M267.254 26.5029C254.464 8.53835 227.224 12.5413 214.434 28.7484C207.698 37.2425 204.769 48.5679 196.665 55.7928C192.369 59.6005 186.902 61.9437 181.825 64.6774C176.748 67.4112 171.671 70.9259 169.132 76.1005C166.594 81.2751 167.375 88.4999 172.257 91.6242C176.553 94.3579 182.411 93.1863 186.804 95.92C181.337 96.7011 177.724 103.535 180.165 108.515C182.313 112.713 187.292 114.47 191.881 115.544C207.99 119.547 225.174 121.109 241.088 116.325C252.999 112.811 265.106 104.902 271.745 94.1626C278.091 84.0088 275.748 64.7751 274.869 53.1567C274.186 44.6626 272.917 35.9733 268.523 28.6508C268.23 27.9674 267.742 27.1863 267.254 26.5029Z" fill="white"/>
<path d="M219.902 119.937C210.431 119.84 200.961 118.57 191.783 116.227C186.999 115.056 181.922 113.201 179.677 108.807C178.408 106.073 178.505 102.949 179.97 100.313C181.044 98.2627 182.801 96.6029 184.949 95.7242C183.192 95.1384 181.434 94.7479 179.579 94.5526C176.943 94.1621 174.307 93.7715 171.964 92.307C166.594 88.8899 166.008 81.1769 168.644 75.9047C171.476 70.2419 177.041 66.6295 181.63 64.1887C182.801 63.6029 183.973 63.0171 185.144 62.3337C189.05 60.2834 193.053 58.2331 196.372 55.3041C200.961 51.2035 203.988 45.5407 206.819 40.0733C208.869 35.9727 211.212 31.9697 214.044 28.2597C221.464 19.0822 232.789 13.81 244.603 14.0052C254.366 14.2005 262.665 18.4964 268.035 26.0141C268.523 26.6975 269.011 27.4786 269.499 28.2597C274.088 36.0703 275.357 45.1502 275.943 53.0585C276.041 54.1325 276.138 55.3041 276.236 56.4757C277.212 68.4845 278.579 84.9846 272.721 94.455C266.375 104.609 254.757 113.005 241.674 116.911C234.351 119.059 227.127 120.035 219.902 119.937ZM243.529 15.3721C232.399 15.4697 221.952 20.449 214.922 29.1384C212.189 32.7508 209.846 36.6561 207.893 40.6591C204.964 46.2242 201.937 51.9845 197.153 56.1828C193.736 59.2094 189.635 61.3573 185.633 63.4076C184.461 63.9934 183.289 64.5792 182.118 65.2626C177.724 67.6058 172.354 71.023 169.718 76.3928C167.375 81.0792 167.863 88.0112 172.55 91.0378C174.6 92.307 177.041 92.6976 179.677 93.0881C182.313 93.4786 184.851 93.8692 187.097 95.236C187.39 95.4313 187.488 95.8218 187.292 96.1147C187.195 96.31 186.999 96.4076 186.804 96.4076C182.215 97.384 179.286 101.777 180.263 106.366C180.36 106.952 180.556 107.44 180.751 107.928C182.704 111.834 187.585 113.493 191.979 114.665C210.627 119.351 227.029 119.547 240.795 115.446C253.683 111.638 265.008 103.437 271.159 93.5763C276.822 84.4964 275.455 68.2893 274.479 56.378C274.381 55.2064 274.283 54.0348 274.186 52.9609C273.6 45.2479 272.428 36.2656 267.937 28.7478C267.547 27.9668 267.059 27.2834 266.57 26.5999C261.493 19.4727 253.488 15.3721 244.212 15.0792L243.529 15.3721Z" fill="#231F20"/>
<path d="M284.047 78.9318C283.754 76.8815 231.715 67.8993 205.647 80.3963C196.275 116.13 201.449 186.231 201.449 186.231L294.298 185.547C294.298 185.45 295.177 146.884 284.047 78.9318Z" fill="#FD6500"/>
<path d="M226.639 81.177C226.639 81.177 224.979 184.473 224.979 185.156C224.979 185.84 252.902 185.156 253.683 183.985C254.464 182.813 253.683 94.0646 253.683 94.0646L230.641 89.0853" fill="#231F20"/>
<path d="M230.349 186.133C228.591 186.23 226.736 186.133 224.979 185.937C224.588 185.84 224.295 185.547 224.393 185.156C224.393 184.473 226.053 82.1534 226.053 81.1771C226.053 80.7865 226.346 80.4937 226.736 80.4937C227.127 80.4937 227.42 80.7865 227.42 81.1771C227.42 82.1534 225.955 176.76 225.76 184.668C229.177 185.059 250.656 184.473 253.195 183.497C253.683 179.982 253.292 118.766 253.097 94.5528L230.544 89.6712C230.153 89.5735 229.958 89.183 230.153 88.7925C230.251 88.4996 230.544 88.3043 230.837 88.3043L253.878 93.2836C254.171 93.3812 254.366 93.6741 254.366 93.967C254.562 120.719 254.952 183.008 254.269 184.278C254.073 184.668 253.585 185.449 240.014 185.937C236.695 186.133 233.18 186.133 230.349 186.133Z" fill="#231F20"/>
<path d="M252.902 79.615L253.585 96.6032C253.585 96.6032 251.73 104.414 240.209 102.266C228.689 100.118 226.638 92.405 226.638 92.405L226.541 60.6742C226.541 60.6742 243.822 50.3251 240.502 32.2629C240.502 32.2629 248.118 46.3221 264.813 43.2955C264.813 43.2955 265.789 59.6002 264.911 68.3872C264.032 77.1742 252.902 79.615 252.902 79.615Z" fill="white"/>
<path d="M244.017 103.34C242.748 103.34 241.381 103.242 240.112 102.949C228.396 100.704 226.15 92.893 226.052 92.5024C226.052 92.4048 226.052 92.4048 226.052 92.3072L225.955 60.5764C225.955 60.3811 226.052 60.0882 226.248 59.9906C226.443 59.8929 243.138 49.7391 239.916 32.2627C239.819 31.9698 240.014 31.5793 240.405 31.4817C240.697 31.384 241.088 31.4817 241.186 31.7746C241.479 32.3604 248.801 45.3456 264.813 42.5142C265.008 42.5142 265.203 42.5142 265.399 42.6119C265.594 42.7095 265.594 42.9048 265.692 43.1C265.692 43.2953 266.668 59.5024 265.789 68.387C264.91 76.5882 256.123 79.4196 253.78 80.103L254.464 96.5054C254.464 96.603 254.464 96.603 254.464 96.7006C254.268 96.7983 252.609 103.34 244.017 103.34ZM227.419 92.2095C227.712 93.0882 229.958 99.532 240.405 101.582C250.461 103.535 252.706 97.2864 252.999 96.5054L252.316 79.6148C252.316 79.3219 252.511 79.029 252.902 78.9314C252.999 78.9314 263.544 76.5882 264.422 68.2894C265.203 60.674 264.618 47.2983 264.422 44.0764C255.733 45.4432 247.044 41.9284 241.674 34.8988C242.845 50.2273 229.665 59.5024 227.419 60.9669V92.2095Z" fill="#231F20"/>
<path d="M231.911 59.5023C231.422 57.9401 230.544 56.5733 229.177 55.6946C227.908 54.9135 226.541 54.2301 225.076 53.9372C224.295 53.6443 223.514 53.5466 222.635 53.6443C222.05 53.7419 221.561 54.0348 221.073 54.3277C219.902 55.0111 218.925 56.0851 218.437 57.3543C218.144 58.4283 218.144 59.5023 218.437 60.5762C218.632 61.7478 219.023 62.9194 219.511 63.9934C221.659 68.4845 227.029 70.3395 231.52 68.1916C231.52 68.1916 231.618 68.1916 231.618 68.094" fill="white"/>
<path d="M227.712 69.5588C226.639 69.5588 225.662 69.3635 224.588 69.0706C222.147 68.2895 220.097 66.5321 219.023 64.1889C218.535 63.0173 218.144 61.8458 217.949 60.5765C217.656 59.4049 217.656 58.1357 217.949 56.9641C218.437 55.4996 219.511 54.328 220.878 53.5469C221.464 53.1564 222.05 52.9611 222.733 52.7659C223.612 52.6682 224.588 52.7659 225.467 53.0588C227.029 53.4493 228.494 54.1327 229.763 55.0114C231.13 56.0854 232.204 57.5499 232.692 59.2096C232.789 59.6002 232.594 59.9907 232.204 60.0884C231.813 60.186 231.423 59.9907 231.325 59.6002C230.934 58.2333 230.056 56.9641 228.884 56.0854C227.712 55.3043 226.346 54.7185 224.979 54.4256C224.295 54.1327 223.612 54.0351 222.928 54.1327C222.44 54.2304 221.952 54.4256 221.562 54.7185C220.488 55.3043 219.707 56.183 219.218 57.3546C219.023 58.331 219.023 59.3073 219.218 60.2836C219.414 61.3576 219.707 62.5292 220.195 63.5055C222.147 67.6061 227.127 69.3635 231.227 67.4108C231.227 67.4108 231.325 67.4108 231.325 67.3132C231.618 67.1179 232.106 67.3132 232.204 67.6061C232.399 67.899 232.204 68.3872 231.911 68.4848C230.641 69.2659 229.177 69.5588 227.712 69.5588Z" fill="#231F20"/>
<path d="M253.585 53.0588C253.585 53.0588 260.224 61.4553 258.955 63.0174C257.686 64.5796 253.683 63.9938 253.683 63.9938" fill="white"/>
<path d="M255.44 64.8722C254.757 64.8722 254.171 64.7745 253.488 64.6769C253.097 64.5793 252.902 64.2864 252.999 63.8958C253.097 63.5053 253.39 63.31 253.78 63.31C254.757 63.5053 257.588 63.7006 258.467 62.6266C258.857 61.8455 256.417 57.5497 253.097 53.4491C252.902 53.1562 252.902 52.668 253.195 52.4728C253.488 52.2775 253.878 52.2775 254.171 52.5704C256.319 55.2065 261.005 61.5526 259.541 63.4077C258.564 64.5793 256.807 64.8722 255.44 64.8722Z" fill="#231F20"/>
<path d="M248.597 49.7782C248.643 48.6468 248.026 47.7026 247.218 47.6693C246.409 47.636 245.717 48.5262 245.67 49.6576C245.623 50.7891 246.241 51.7333 247.049 51.7666C247.857 51.7999 248.55 50.9097 248.597 49.7782Z" fill="#231F20"/>
<path d="M259.212 49.6281C259.384 48.5088 258.874 47.5022 258.075 47.3798C257.275 47.2574 256.488 48.0656 256.317 49.1849C256.146 50.3043 256.655 51.3109 257.454 51.4332C258.254 51.5556 259.041 50.7474 259.212 49.6281Z" fill="#231F20"/>
<path d="M258.857 67.7035C258.857 67.7035 244.408 76.4905 241.869 63.0171Z" fill="white"/>
<path d="M249.778 71.1206C248.508 71.1206 247.239 70.9253 246.165 70.4372C243.627 69.2656 241.967 66.8247 241.186 63.1147C241.088 62.7242 241.381 62.4313 241.674 62.3336C242.065 62.236 242.357 62.5289 242.455 62.9194C243.041 66.1413 244.505 68.2892 246.653 69.2656C251.437 71.4135 258.369 67.2153 258.467 67.2153C258.76 67.02 259.248 67.1177 259.443 67.4106C259.639 67.7035 259.541 68.1916 259.248 68.3869C259.053 68.3869 254.366 71.1206 249.778 71.1206Z" fill="#231F20"/>
<path d="M252.902 79.615C252.902 79.615 244.115 79.8102 239.917 77.467C239.917 77.467 243.529 87.5233 253.097 89.8665L252.902 79.615Z" fill="#231F20"/>
<path d="M253.195 90.5499C253.097 90.5499 253.097 90.5499 252.999 90.5499C243.139 88.1091 239.428 78.1505 239.331 77.76C239.233 77.3694 239.428 76.9789 239.721 76.8813C239.917 76.7836 240.112 76.8813 240.307 76.8813C244.212 79.1268 252.804 78.9316 252.902 78.9316C253.292 78.9316 253.585 79.2245 253.585 79.615L253.781 89.8665C253.878 90.257 253.585 90.5499 253.195 90.5499ZM241.283 78.8339C242.65 81.5677 246.165 87.0351 252.414 88.9878L252.218 80.3961C250.363 80.2984 245.091 80.1032 241.283 78.8339Z" fill="#231F20"/>
<path d="M368.597 87.4255C366.059 85.1799 349.559 95.7243 349.559 95.7243C350.242 89.1829 351.121 84.2036 349.559 84.0083C347.997 83.8131 341.553 101.485 341.553 101.485C341.553 101.485 320.366 132.434 318.609 133.313C316.852 134.192 284.047 78.9314 284.047 78.9314C265.399 99.3367 279.36 127.943 279.36 127.943C279.36 127.943 313.923 171.488 321.245 171.097C327.103 170.707 346.63 135.754 353.952 122.378C353.952 122.378 359.029 114.177 361.079 111.15C363.13 108.124 369.866 101.778 372.795 98.1651C375.724 94.5527 371.136 89.7687 368.597 87.4255Z" fill="white"/>
<path d="M321.147 171.683C313.532 171.683 282.484 132.727 278.872 128.334C278.677 127.943 264.813 98.9463 283.558 78.541C283.656 78.4433 283.851 78.3457 284.046 78.3457C284.242 78.3457 284.437 78.4433 284.535 78.6386C296.739 99.2392 315.582 129.896 318.511 132.63C320.659 130.482 332.863 113.005 340.967 101.289C347.508 83.325 349.07 83.4226 349.558 83.5203C349.949 83.5203 350.242 83.7155 350.437 84.0084C351.316 85.0824 351.023 87.7185 350.437 93.0883C350.339 93.5765 350.339 94.0646 350.242 94.6504C355.123 91.6238 366.449 84.8871 368.987 87.1327C374.064 91.7214 375.626 95.822 373.186 98.6534C371.916 100.118 370.061 102.071 368.109 104.218C365.765 106.562 363.52 109.003 361.47 111.639C359.419 114.568 354.44 122.769 354.44 122.866C344.579 141.026 327.103 171.488 321.245 171.878L321.147 171.683ZM283.949 80.0055C266.668 99.7274 279.751 127.358 279.946 127.65C293.614 144.834 315.875 170.414 321.147 170.414H321.245C325.052 170.219 337.354 151.668 353.464 121.988C353.561 121.89 358.541 113.689 360.591 110.662C362.641 108.026 364.887 105.488 367.328 103.145C369.28 101.094 371.135 99.1416 372.404 97.6771C374.943 94.5528 370.94 90.2569 368.304 87.8161C366.937 86.6445 357.759 91.2333 349.949 96.1149C349.656 96.3102 349.265 96.2126 349.07 95.9197C348.973 95.822 348.973 95.6268 348.973 95.4315C349.07 94.4552 349.168 93.4788 349.265 92.6001C349.656 89.3782 350.144 85.0824 349.558 84.4966C348.387 85.5706 344.97 93.8694 342.138 101.485C342.138 101.485 342.138 101.582 342.041 101.582C338.526 106.757 320.659 132.727 318.902 133.606C318.12 133.997 317.339 134.387 300.156 106.464C292.931 95.041 285.706 83.0321 283.949 80.0055Z" fill="#231F20"/>
<path d="M353.659 106.172C353.561 106.172 353.464 106.172 353.464 106.172C353.171 106.074 352.976 105.683 353.073 105.39C355.124 100.216 349.461 96.5058 349.168 96.3106C348.875 96.1153 348.777 95.7248 348.973 95.4319C349.168 95.139 349.558 95.0413 349.851 95.2366C349.949 95.3342 356.686 99.7277 354.245 105.781C354.147 106.074 353.854 106.172 353.659 106.172Z" fill="#231F20"/>
<path d="M350.145 160.943H127.248V335.706H350.145V160.943Z" fill="white"/>
<path d="M350.047 336.292H127.248C126.858 336.292 126.662 335.999 126.662 335.706V160.943C126.662 160.552 126.955 160.357 127.248 160.357H350.145C350.535 160.357 350.73 160.65 350.73 160.943V335.706C350.633 336.097 350.438 336.292 350.047 336.292ZM127.834 335.023H349.461V161.626H127.834V335.023Z" fill="#231F20"/>
<path d="M230.934 289.428L159.662 286.597C159.272 286.597 158.979 286.304 158.979 285.913L160.931 237.194C160.931 236.999 161.029 236.804 161.127 236.706C161.224 236.609 161.42 236.511 161.615 236.511L232.887 239.342C233.278 239.342 233.571 239.635 233.571 240.026L231.618 288.745C231.618 288.94 231.52 289.135 231.423 289.233C231.325 289.331 231.13 289.428 230.934 289.428ZM160.346 285.23L230.251 288.061L232.106 240.612L162.201 237.78L160.346 285.23Z" fill="#D1D3D4"/>
<path d="M241.479 226.163L192.955 224.991C192.565 224.991 192.272 224.698 192.272 224.308L193.346 177.346C193.346 176.955 193.639 176.663 194.029 176.663L242.553 177.834C242.943 177.834 243.236 178.127 243.236 178.518L242.162 225.382C242.162 225.87 241.869 226.163 241.479 226.163ZM193.639 223.722L240.795 224.893L241.869 179.396L194.713 178.127L193.639 223.722Z" fill="#D1D3D4"/>
<path d="M289.71 227.334L241.186 226.162C240.796 226.162 240.503 225.87 240.503 225.479L241.577 178.615C241.577 178.42 241.674 178.225 241.772 178.127C241.87 178.029 242.065 177.932 242.26 177.932L290.784 179.103C290.979 179.103 291.174 179.201 291.272 179.298C291.37 179.396 291.467 179.591 291.467 179.787L290.393 226.651C290.393 227.041 290.1 227.334 289.71 227.334ZM241.87 224.893L289.026 225.967L290.1 180.47L242.944 179.298L241.87 224.893Z" fill="#D1D3D4"/>
<path d="M233.571 217.961L204.867 217.278C204.476 217.278 204.183 216.985 204.183 216.594C204.183 216.204 204.476 215.911 204.867 215.911L233.571 216.594C233.961 216.594 234.254 216.887 234.254 217.278C234.254 217.668 233.961 217.961 233.571 217.961Z" fill="#D1D3D4"/>
<path d="M233.766 210.053L205.062 209.37C204.671 209.37 204.378 209.077 204.378 208.686C204.378 208.296 204.671 208.003 205.062 208.003L233.766 208.686C234.157 208.686 234.449 208.979 234.449 209.37C234.449 209.76 234.157 210.053 233.766 210.053Z" fill="#D1D3D4"/>
<path d="M233.961 202.145L205.257 201.461C204.867 201.461 204.574 201.168 204.574 200.778C204.574 200.387 204.867 200.094 205.257 200.094L233.961 200.778C234.352 200.778 234.645 201.071 234.645 201.461C234.645 201.754 234.352 202.145 233.961 202.145Z" fill="#D1D3D4"/>
<path d="M234.156 194.138L205.452 193.455C205.062 193.455 204.769 193.162 204.769 192.772C204.769 192.381 205.062 192.088 205.452 192.088L234.156 192.772C234.547 192.772 234.84 193.064 234.84 193.455C234.84 193.846 234.547 194.138 234.156 194.138Z" fill="#D1D3D4"/>
<path d="M234.352 186.23L205.648 185.547C205.257 185.547 204.964 185.254 204.964 184.864C204.964 184.473 205.257 184.18 205.648 184.18L234.352 184.864C234.742 184.864 235.035 185.157 235.035 185.547C235.035 185.938 234.742 186.23 234.352 186.23Z" fill="#D1D3D4"/>
<path d="M279.946 195.31L251.242 194.627C250.852 194.627 250.559 194.334 250.559 193.943C250.559 193.553 250.852 193.26 251.242 193.26L279.946 193.943C280.337 193.943 280.63 194.236 280.63 194.627C280.63 194.92 280.337 195.31 279.946 195.31Z" fill="#D1D3D4"/>
<path d="M280.142 187.304L251.438 186.621C251.047 186.621 250.754 186.328 250.754 185.938C250.754 185.547 251.047 185.254 251.438 185.254L280.142 185.938C280.532 185.938 280.825 186.231 280.825 186.621C280.825 187.012 280.532 187.304 280.142 187.304Z" fill="#D1D3D4"/>
<path d="M279.361 220.988L249.875 220.304C249.485 220.304 249.192 220.011 249.192 219.621L249.68 201.071C249.68 200.875 249.778 200.68 249.875 200.582C249.973 200.485 250.168 200.387 250.364 200.387L279.849 201.071C280.239 201.071 280.532 201.364 280.532 201.754L280.044 220.304C280.044 220.5 279.946 220.695 279.849 220.793C279.751 220.89 279.556 220.988 279.361 220.988ZM250.559 218.938L278.677 219.621L279.068 202.438L250.949 201.754L250.559 218.938Z" fill="#D1D3D4"/>
<path d="M206.624 80.9814C206.624 80.9814 168.352 126.771 163.47 142.197C158.588 157.623 194.81 205.952 194.81 205.952C194.81 205.952 206.624 221.28 212.286 218.058C217.949 214.837 212.286 197.848 212.286 197.848C212.286 197.848 222.245 203.511 220.097 198.825C217.949 194.138 204.866 190.428 204.866 190.428L188.659 142.002L201.742 125.697" fill="white"/>
<path d="M210.431 219.035C204.281 219.035 195.396 207.71 194.224 206.245C192.76 204.292 157.905 157.526 162.786 142.002C167.668 126.674 204.378 82.4462 205.94 80.5911C206.136 80.2982 206.526 80.2982 206.819 80.4935C207.112 80.6888 207.112 81.0793 206.917 81.3722C206.526 81.8604 168.742 127.26 163.958 142.295C159.272 157.233 194.81 204.976 195.201 205.464C198.423 209.565 207.6 219.914 211.798 217.375C215.997 214.837 213.068 202.535 211.505 197.946C211.408 197.653 211.505 197.458 211.701 197.263C211.896 197.068 212.189 197.068 212.384 197.165C215.606 199.02 219.023 200.289 219.511 199.899C219.511 199.606 219.414 199.313 219.316 199.02C217.656 195.408 207.991 191.991 204.476 190.917C204.281 190.819 204.085 190.721 204.085 190.526L187.976 142.198C187.878 142.002 187.976 141.807 188.073 141.612L201.156 125.307C201.352 125.014 201.742 125.014 202.035 125.21C202.328 125.405 202.328 125.795 202.133 126.088L189.343 142.1L205.257 189.843C207.307 190.428 218.535 194.041 220.585 198.532C221.073 199.606 221.073 200.387 220.585 200.875C219.414 201.949 215.801 200.387 213.36 199.02C214.63 203.316 217.656 215.52 212.579 218.449C211.994 218.84 211.213 219.035 210.431 219.035Z" fill="#231F20"/>
<path d="M136.328 120.328C136.328 120.328 134.668 109.1 125.686 106.269C116.704 103.438 90.4404 103.926 87.7067 124.038C84.973 144.151 94.7363 158.405 103.035 162.701L123.05 160.651L136.328 120.328Z" fill="white"/>
<path d="M102.937 163.384C102.84 163.384 102.742 163.384 102.645 163.287C95.0292 159.381 84.0943 145.225 87.0233 123.94C87.7067 117.887 91.2215 112.517 96.4937 109.296C105.769 103.438 119.535 103.633 125.881 105.585C135.254 108.514 137.011 119.742 137.011 120.23C137.011 120.328 137.011 120.426 137.011 120.523L123.636 160.846C123.538 161.139 123.343 161.334 123.05 161.334L103.035 163.384H102.937ZM115.923 105.683C109.772 105.683 102.645 106.952 97.1771 110.467C92.2955 113.494 89.0736 118.473 88.3901 124.233C85.5588 144.639 95.9079 158.21 103.133 162.115L122.562 160.162L135.742 120.426C135.547 119.059 133.497 109.588 125.588 107.05C122.366 106.074 119.145 105.683 115.923 105.683Z" fill="#231F20"/>
<path d="M123.148 124.82L124.905 135.364C124.905 135.364 120.902 127.358 117.094 134.192C113.287 141.027 124.417 150.009 124.417 150.009L122.074 159.772L101.375 161.822L98.6416 182.325C98.6416 182.325 129.298 186.817 128.81 186.036C128.615 185.743 130.861 165.825 130.861 165.825C130.861 165.825 136.426 168.071 139.55 159.186C142.674 150.302 136.328 120.426 136.328 120.426L123.148 124.82Z" fill="white"/>
<path d="M128.127 186.719C125.881 186.719 119.144 186.035 98.5438 183.009C98.1533 183.009 97.958 182.618 97.958 182.228L100.692 161.627C100.692 161.334 100.985 161.041 101.278 161.041L121.488 158.991L123.636 150.106C121.683 148.447 112.701 140.343 116.508 133.606C117.68 131.459 119.144 130.482 120.609 130.482C121.878 130.58 122.952 131.263 123.733 132.24L122.464 124.722C122.464 124.429 122.562 124.038 122.952 123.941L136.133 119.547C136.328 119.45 136.523 119.547 136.718 119.645C136.914 119.743 137.011 119.938 137.011 120.133C137.304 121.402 143.357 150.302 140.136 159.284C138.964 162.799 137.207 165.044 134.961 166.118C133.887 166.606 132.618 166.802 131.446 166.606C130.567 174.124 129.396 184.864 129.494 185.938C129.494 186.133 129.494 186.328 129.396 186.426C129.298 186.621 129.201 186.719 128.127 186.719ZM99.4225 181.74C109.576 183.204 125.198 185.352 128.127 185.45C128.224 183.79 128.615 179.299 130.177 165.728C130.177 165.533 130.372 165.337 130.47 165.24C130.665 165.142 130.86 165.142 131.056 165.142C132.13 165.532 133.399 165.435 134.375 164.849C136.23 163.97 137.792 161.92 138.866 158.893C141.6 151.083 136.718 125.893 135.84 121.207L123.928 125.21L125.588 135.169C125.686 135.461 125.393 135.852 125.1 135.95C124.807 136.047 124.417 135.95 124.319 135.559C123.831 134.583 122.269 132.044 120.511 132.044C119.535 132.044 118.559 132.825 117.68 134.485C114.067 140.734 124.709 149.423 124.807 149.521C125.002 149.716 125.1 149.911 125.002 150.204L122.659 159.967C122.562 160.26 122.366 160.456 122.073 160.456L101.961 162.408L99.4225 181.74Z" fill="#231F20"/>
<path d="M137.304 135.95C137.304 135.95 145.115 146.201 143.943 147.666C142.772 149.13 138.769 149.228 138.769 149.228" fill="white"/>
<path d="M138.769 150.009C138.378 150.009 138.085 149.716 138.085 149.325C138.085 148.935 138.378 148.642 138.769 148.642C140.233 148.642 142.772 148.251 143.455 147.275C143.748 146.299 140.233 140.831 136.816 136.34C136.621 136.047 136.621 135.559 136.914 135.364C137.207 135.168 137.597 135.168 137.89 135.461C141.6 140.343 145.799 146.396 144.529 148.056C143.26 149.716 139.257 150.009 138.769 150.009Z" fill="#231F20"/>
<path d="M132.937 135.088C133.513 134.945 133.663 133.556 133.273 131.986C132.883 130.416 132.1 129.26 131.524 129.403C130.948 129.546 130.798 130.934 131.188 132.504C131.578 134.074 132.361 135.231 132.937 135.088Z" fill="#231F20"/>
<path d="M137.695 159.577C137.5 159.577 137.304 159.577 137.109 159.479C135.059 158.991 134.961 154.598 135.059 153.231C135.059 153.036 135.156 152.84 135.352 152.743C135.547 152.645 135.742 152.548 135.937 152.645L140.624 153.719C141.014 153.817 141.21 154.207 141.112 154.5C141.014 154.891 140.624 155.086 140.331 154.988L136.523 154.11C136.621 156.062 137.011 157.917 137.597 158.113C137.89 158.21 138.183 158.21 138.476 158.015C139.062 157.527 139.452 156.843 139.55 156.16C139.648 155.769 140.038 155.574 140.331 155.672C140.624 155.769 140.917 156.16 140.819 156.453C140.624 157.527 139.94 158.503 139.062 159.187C138.574 159.48 138.085 159.577 137.695 159.577Z" fill="#231F20"/>
<path d="M173.428 258.674C173.428 258.674 181.044 265.216 186.902 262.092C192.76 258.967 194.322 255.745 194.322 255.745C194.322 255.745 196.274 264.239 198.52 261.896C199.692 260.627 199.692 258.674 198.422 257.405L198.325 257.308C198.325 257.308 202.328 263.654 202.718 260.237C203.109 256.819 200.375 253.207 200.375 253.207C200.375 253.207 212.189 261.896 211.603 256.624C211.017 251.352 200.668 244.615 192.955 244.615C185.242 244.615 170.597 248.813 170.597 248.813" fill="white"/>
<path d="M183.387 263.654C178.212 263.654 173.233 259.456 173.038 259.163C172.745 258.967 172.745 258.479 172.94 258.186C173.136 257.893 173.624 257.893 173.917 258.089C174.014 258.186 181.239 264.24 186.609 261.506C192.076 258.577 193.736 255.453 193.736 255.453C193.834 255.16 194.127 255.062 194.42 255.062C194.712 255.062 194.908 255.355 195.005 255.55C195.689 258.284 196.86 261.408 197.739 261.603C197.837 261.603 197.934 261.603 198.032 261.408C198.715 260.822 198.911 259.846 198.618 258.967C198.325 258.479 198.032 258.089 197.739 257.698C197.544 257.405 197.641 257.015 197.837 256.819C198.13 256.624 198.52 256.624 198.715 256.819C199.106 257.21 199.496 257.698 199.692 258.284C200.278 259.163 200.961 259.944 201.84 260.53C201.84 260.432 201.937 260.237 201.937 260.139C202.23 257.015 199.789 253.598 199.692 253.5C199.496 253.207 199.496 252.816 199.789 252.621C199.985 252.426 200.375 252.328 200.668 252.524C204.573 255.453 209.455 258.089 210.627 257.405C210.822 257.308 210.822 256.917 210.822 256.527C210.334 251.547 200.18 245.201 192.857 245.201C185.242 245.201 170.89 249.302 170.695 249.302C170.304 249.399 169.914 249.302 169.816 248.911C169.718 248.521 169.816 248.13 170.207 248.032H170.304C170.89 247.837 185.047 243.834 192.857 243.834C200.961 243.834 211.603 250.766 212.189 256.429C212.384 257.308 212.091 258.186 211.31 258.577C209.553 259.553 205.257 257.21 202.328 255.257C203.109 256.819 203.402 258.479 203.304 260.139C203.207 261.115 202.816 261.603 202.23 261.701C201.644 261.799 200.668 261.311 199.887 260.432C199.692 261.018 199.399 261.603 198.911 262.092C198.52 262.58 197.837 262.873 197.251 262.677C195.689 262.287 194.517 259.163 193.931 257.112C192.076 259.358 189.733 261.115 187.097 262.482C186.023 263.361 184.754 263.654 183.387 263.654Z" fill="#231F20"/>
<path d="M127.248 311.885C127.248 311.885 127.248 285.719 128.81 256.819C130.373 227.92 141.307 216.399 132.032 188.086C122.757 159.772 96.0057 163.287 82.7276 174.319C55.6832 196.677 30.7867 265.118 44.9435 313.642C44.9435 313.642 75.7956 326.725 127.248 311.885Z" fill="#FD6500"/>
<path d="M99.2273 195.506C99.2273 196.97 84.387 267.364 94.1504 273.905C103.914 280.447 175.869 265.607 175.869 265.607L175.186 245.982L132.715 241.296C132.715 241.296 144.724 187.988 123.636 173.831C102.547 159.675 99.2273 195.506 99.2273 195.506Z" fill="#FD6500"/>
<path d="M105.574 278.006C97.763 278.006 90.0499 276.248 86.9257 270.293C79.9937 256.819 98.7393 185.352 99.618 182.325C99.7156 181.935 100.009 181.74 100.399 181.837C100.79 181.935 100.985 182.228 100.887 182.618V182.716C100.692 183.497 81.4582 256.722 88.0973 269.707C94.6387 282.497 125.881 273.808 126.174 273.71C126.565 273.612 126.955 273.808 127.053 274.198C127.151 274.589 126.955 274.979 126.565 275.077C119.828 276.834 112.701 277.811 105.574 278.006Z" fill="#231F20"/>
<path d="M132.618 241.979C130.861 241.881 121.878 241.393 121.097 238.171C120.316 235.242 130.08 206.831 132.032 201.071C132.13 200.68 132.52 200.485 132.911 200.68C133.301 200.778 133.497 201.168 133.301 201.559C128.81 214.544 121.976 235.828 122.464 237.878C122.855 239.538 128.713 240.514 132.716 240.612C133.106 240.612 133.399 240.905 133.399 241.296C133.301 241.588 133.009 241.881 132.618 241.979Z" fill="#231F20"/>
<path d="M383.73 112.03C383.73 112.03 371.331 116.716 372.014 133.216C372.698 149.716 368.597 167.485 382.852 166.216L383.73 175.882L413.801 179.104C413.801 179.104 416.926 128.725 411.263 120.426C405.6 112.127 383.73 112.03 383.73 112.03Z" fill="white"/>
<path d="M413.801 179.787L383.632 176.565C383.34 176.565 383.047 176.272 383.047 175.979L382.266 166.997C379.239 167.192 376.896 166.509 375.236 164.849C371.135 161.041 371.331 153.133 371.428 143.858C371.526 140.343 371.526 136.828 371.428 133.313C371.038 124.526 374.357 119.059 377.189 116.032C378.946 114.08 381.094 112.518 383.535 111.444C383.632 111.444 383.73 111.444 383.73 111.444C384.609 111.444 406.088 111.541 411.848 120.035C417.609 128.529 414.582 177.053 414.485 179.201C414.485 179.396 414.387 179.592 414.289 179.689C414.192 179.689 413.996 179.787 413.801 179.787ZM384.316 175.296L413.118 178.322C413.508 172.171 415.754 128.237 410.677 120.719C405.6 113.201 385.585 112.713 383.828 112.713C382.558 113.201 372.014 118.083 372.698 133.118C372.893 136.633 372.795 140.245 372.698 143.76C372.6 152.254 372.405 160.358 376.017 163.677C377.579 165.142 379.727 165.728 382.754 165.435C382.949 165.435 383.144 165.435 383.242 165.63C383.34 165.728 383.437 165.923 383.437 166.118L384.316 175.296Z" fill="#231F20"/>
<path d="M404.429 165.142C420.497 165.142 433.523 150.848 433.523 133.216C433.523 115.584 420.497 101.29 404.429 101.29C388.36 101.29 375.334 115.584 375.334 133.216C375.334 150.848 388.36 165.142 404.429 165.142Z" fill="white"/>
<path d="M404.429 165.825C388.026 165.825 374.65 151.18 374.65 133.216C374.65 115.251 388.026 100.606 404.429 100.606C420.831 100.606 434.207 115.251 434.207 133.216C434.207 151.18 420.831 165.825 404.429 165.825ZM404.429 101.973C388.807 101.973 376.017 116.032 376.017 133.216C376.017 150.399 388.71 164.458 404.429 164.458C420.147 164.458 432.84 150.399 432.84 133.216C432.84 116.032 420.05 101.973 404.429 101.973Z" fill="#231F20"/>
<path d="M361.372 179.494C346.922 184.571 299.961 259.26 308.162 272.636C316.363 286.012 350.73 278.299 350.73 278.299L350.047 302.316L438.795 300.852C438.795 300.852 458.81 212.982 445.63 190.722C432.547 168.559 375.822 174.319 361.372 179.494Z" fill="#FD6500"/>
<path d="M350.73 278.884C350.242 278.884 350.047 278.494 350.047 278.103C350.633 273.124 356.491 218.45 356.588 217.864C356.588 217.473 356.979 217.18 357.369 217.278C357.76 217.278 358.053 217.668 357.955 218.059C357.858 218.645 352 273.319 351.414 278.299C351.316 278.592 351.023 278.884 350.73 278.884Z" fill="#231F20"/>
<path d="M375.529 144.444C374.943 141.906 375.724 139.27 377.579 137.415C378.068 136.926 378.751 136.536 379.434 136.438C380.313 136.438 381.094 136.829 381.582 137.61C382.071 138.293 382.363 139.074 382.461 139.953C383.047 142.199 383.047 144.542 382.656 146.885C382.266 149.131 380.997 151.278 379.239 152.743" fill="white"/>
<path d="M379.239 153.426C379.044 153.426 378.849 153.328 378.751 153.133C378.556 152.84 378.556 152.45 378.849 152.157C380.509 150.79 381.583 148.837 381.973 146.689C382.364 144.444 382.266 142.198 381.778 140.05C381.68 139.269 381.387 138.586 380.997 138C380.704 137.512 380.118 137.121 379.532 137.121C378.946 137.219 378.458 137.512 378.068 137.902C376.31 139.562 375.627 141.905 376.115 144.248C376.213 144.639 376.017 145.03 375.627 145.127C375.236 145.225 374.846 145.03 374.748 144.639V144.541C374.162 141.808 375.041 138.879 377.091 136.926C377.677 136.243 378.458 135.852 379.337 135.754C380.411 135.754 381.485 136.243 382.071 137.219C382.559 138 382.852 138.879 383.047 139.757C383.633 142.101 383.73 144.541 383.242 146.885C382.852 149.325 381.485 151.571 379.63 153.133C379.532 153.328 379.435 153.426 379.239 153.426Z" fill="#231F20"/>
<path d="M399.742 114.666C401.011 118.571 403.354 121.988 406.576 124.624C410.091 127.749 414.68 129.506 419.366 129.701C423.076 129.604 427.177 127.651 427.86 123.941C428.251 121.5 426.982 119.059 425.517 117.107C421.221 111.151 414.582 106.074 407.455 104.219C405.209 103.633 402.085 103.047 400.328 104.902C397.985 107.246 398.863 112.03 399.742 114.666Z" fill="#231F20"/>
<path d="M419.171 130.384C414.387 130.189 409.799 128.432 406.186 125.21C402.867 122.574 400.426 118.961 399.059 114.958C398.473 113.201 396.911 107.343 399.84 104.512C401.89 102.559 405.015 103.047 407.651 103.73C414.485 105.488 421.417 110.467 426.103 116.813C427.373 118.571 429.032 121.304 428.544 124.136C427.861 128.139 423.467 130.384 419.367 130.384H419.171ZM403.745 104.316C402.671 104.219 401.597 104.609 400.816 105.39C398.961 107.245 399.352 111.248 400.426 114.47C401.695 118.278 404.038 121.597 407.162 124.136C410.58 127.162 414.973 128.92 419.464 129.017C422.881 129.017 426.689 127.162 427.275 123.843C427.568 121.988 426.884 120.035 425.029 117.497C420.538 111.248 413.899 106.562 407.358 104.902C406.088 104.609 404.917 104.414 403.745 104.316Z" fill="#231F20"/>
<path d="M438.74 118.669C443.862 109.797 439.914 97.927 429.921 92.1575C419.928 86.3879 407.675 88.9031 402.552 97.7753C397.43 106.647 401.378 118.517 411.371 124.287C421.364 130.056 433.617 127.541 438.74 118.669Z" fill="white"/>
<path d="M422.686 128.041C418.585 128.041 414.583 126.967 411.068 124.819C406.186 122.086 402.574 117.595 400.816 112.322C399.059 107.343 399.547 101.973 402.183 97.3845C407.455 88.207 420.148 85.5709 430.399 91.5265C440.651 97.4821 444.751 109.784 439.381 118.961C436.745 123.453 432.254 126.674 427.08 127.553C425.615 127.944 424.151 128.041 422.686 128.041ZM418.585 89.7691C412.239 89.7691 406.284 92.6981 403.159 98.1656C400.816 102.364 400.328 107.441 401.988 112.029C405.6 122.183 416.047 128.237 426.689 126.284C431.473 125.405 435.574 122.476 438.112 118.278C442.994 109.784 439.186 98.2632 429.618 92.6981C426.201 90.8431 422.491 89.7691 418.585 89.7691Z" fill="#231F20"/>
<path d="M318.609 316.18H258.662C258.272 316.18 257.979 315.887 257.979 315.497V280.739C257.979 280.349 258.272 280.056 258.662 280.056H318.609C318.999 280.056 319.292 280.349 319.292 280.739V315.497C319.292 315.887 318.999 316.18 318.609 316.18ZM259.346 314.813H317.926V281.52H259.346V314.813Z" fill="#D1D3D4"/>
<path d="M318.609 322.331H258.662C258.271 322.331 257.979 322.038 257.979 321.648V315.497C257.979 315.106 258.271 314.813 258.662 314.813H318.609C318.999 314.813 319.292 315.106 319.292 315.497V321.648C319.292 322.038 318.999 322.331 318.609 322.331ZM259.345 320.964H317.925V316.18H259.345V320.964Z" fill="#D1D3D4"/>
<path d="M276.041 309.15H265.985C265.594 309.15 265.301 308.857 265.301 308.467V286.694C265.301 286.304 265.594 286.011 265.985 286.011H276.041C276.431 286.011 276.724 286.304 276.724 286.694V308.467C276.724 308.857 276.431 309.248 276.041 309.15C276.041 309.248 276.041 309.248 276.041 309.15ZM266.668 307.881H275.358V287.475H266.668V307.881Z" fill="#D1D3D4"/>
<path d="M283.949 263.653H261.884C261.494 263.653 261.201 263.36 261.201 262.97V248.13C261.201 247.739 261.494 247.446 261.884 247.446H283.949C284.34 247.446 284.633 247.739 284.633 248.13V262.97C284.633 263.36 284.34 263.653 283.949 263.653ZM262.568 262.287H283.266V248.716H262.568V262.287Z" fill="#D1D3D4"/>
<path d="M441.529 200.387C431.18 200.777 418.292 201.461 408.822 201.851C401.402 202.242 395.446 208.002 394.665 215.325L387.05 294.31H350.047V325.357L444.165 322.526L456.955 217.082C457.932 208.881 452.171 201.461 443.97 200.387C443.189 200.387 442.408 200.387 441.529 200.387Z" fill="#231F20"/>
<path d="M350.047 326.139C349.851 326.139 349.656 326.041 349.559 325.943C349.461 325.846 349.363 325.65 349.363 325.455V294.408C349.363 294.017 349.656 293.724 350.047 293.724H386.464L394.079 215.325C394.86 207.612 401.109 201.656 408.822 201.266C417.999 200.778 431.082 200.192 441.529 199.801C450.121 199.411 457.443 206.147 457.736 214.739C457.736 215.618 457.736 216.399 457.638 217.278L444.849 322.721C444.849 323.014 444.556 323.307 444.165 323.307L350.047 326.139ZM350.73 295.091V324.772L443.579 321.94L456.272 217.082C457.248 209.272 451.683 202.145 443.872 201.168C443.091 201.071 442.31 201.071 441.529 201.071C431.082 201.461 417.999 202.144 408.822 202.535C401.792 202.926 396.032 208.393 395.349 215.423L387.635 294.408C387.635 294.798 387.343 294.994 386.952 294.994H350.73V295.091Z" fill="#231F20"/>
<path d="M36.1562 200.485C46.31 200.875 58.8071 201.461 68.0822 201.949C75.6976 202.34 81.8485 208.198 82.6296 215.813L90.3426 294.506H127.346V325.553L33.0319 322.624L20.3396 217.668C19.3633 209.272 25.3189 201.559 33.7154 200.582C34.4964 200.485 35.3751 200.387 36.1562 200.485Z" fill="#231F20"/>
<path d="M127.248 326.139L33.032 323.307C32.7391 323.307 32.4462 323.015 32.3485 322.722L19.6562 217.766C18.5823 208.979 24.8308 200.973 33.6178 199.899C34.4965 199.801 35.3752 199.802 36.2539 199.802C46.603 200.192 59.2953 200.778 68.1799 201.266C76.0882 201.657 82.532 207.807 83.3131 215.716L90.9284 293.725H127.346C127.736 293.725 128.029 294.018 128.029 294.408V325.455C128.029 325.651 127.931 325.846 127.834 325.944C127.639 326.041 127.443 326.139 127.248 326.139ZM33.6178 321.941L126.467 324.772V295.091H90.245C89.8545 295.091 89.5616 294.799 89.5616 294.506L81.9462 215.813C81.2628 208.588 75.3071 202.926 67.9846 202.535C59.1977 202.145 46.4077 201.461 36.0586 201.071C27.955 200.778 21.1207 207.026 20.8278 215.13C20.8278 215.911 20.8278 216.692 20.9255 217.571L33.6178 321.941Z" fill="#231F20"/>
</svg>
