<svg width="553" height="350" viewBox="0 0 553 350" fill="none" xmlns="http://www.w3.org/2000/svg">
<path d="M551.638 287.675H0.890355C0.381581 287.675 0 287.294 0 286.785C0 286.276 0.381581 285.895 0.890355 285.895H551.638C552.147 285.895 552.528 286.276 552.528 286.785C552.528 287.294 552.147 287.548 551.638 287.675C551.765 287.675 551.765 287.675 551.638 287.675Z" fill="#D1D3D4"/>
<path d="M44.7719 95.8673C18.1885 115.201 14.6271 155.521 13.9911 185.92C13.3551 214.412 19.7148 241.631 25.5657 269.359C31.4166 296.579 53.4211 311.333 79.7501 317.438C118.799 326.469 161.663 327.614 201.474 323.162C241.286 318.71 242.303 279.662 238.233 247.482C237.088 238.578 230.856 233.109 224.115 228.276C215.847 222.298 208.47 216.065 202.619 207.543C183.794 180.197 182.65 147.762 170.057 117.999C160.136 94.4682 137.878 78.0602 112.312 78.9506C86.7458 79.8409 62.4518 83.0208 44.7719 95.8673Z" fill="white"/>
<path d="M156.193 326.596C130.373 326.724 104.68 323.925 79.4957 318.329C40.8289 309.425 28.3639 286.785 24.5481 269.487L23.2762 263.636C17.5525 237.307 12.2103 212.377 12.8463 185.793C14.3726 124.359 30.2718 105.025 44.0087 95.1043C62.7061 81.4946 88.908 78.9507 112.184 78.1876C137.241 77.4244 160.264 92.942 170.693 117.745C175.654 129.319 178.834 141.657 182.014 153.359C186.847 171.548 191.807 190.499 203.128 207.035C208.215 214.412 214.575 220.517 224.369 227.513C231.237 232.346 237.724 238.197 238.869 247.355C242.558 276.737 239.505 297.088 229.711 309.552C223.224 317.82 213.685 322.653 201.347 324.053C186.465 325.706 171.329 326.596 156.193 326.596ZM45.2806 96.5034C19.7147 115.074 15.6446 153.995 14.8814 185.793C14.2454 212.249 19.5875 236.925 25.1841 263.254L26.456 269.105C30.0174 285.894 42.228 307.772 80.0044 316.548C116.509 325.07 158.483 326.978 201.347 322.272C213.176 321 222.334 316.294 228.566 308.535C238.106 296.452 241.031 276.609 237.343 247.736C236.325 239.214 230.093 233.745 223.606 229.166C213.558 222.043 207.071 215.684 201.856 208.179C190.281 191.39 185.321 172.311 180.36 153.868C177.307 142.166 174 129.955 169.167 118.508C158.864 94.3411 136.606 79.0779 112.312 79.9683C89.544 80.7314 63.5965 83.2753 45.2806 96.5034Z" fill="#231F20"/>
<path d="M114.474 246.337C109.768 246.337 105.062 246.083 100.228 245.574C91.1975 244.557 82.2939 242.649 73.6448 239.85C61.8158 236.035 53.9298 231.583 47.9517 225.732C38.921 216.701 35.4868 204.491 34.0876 195.842C31.035 175.872 34.2148 153.741 36.2499 142.293C39.1754 126.521 48.8421 112.784 62.8333 104.771C72.3728 99.1745 83.8203 95.6131 97.6844 93.8324C112.312 91.9245 122.741 93.4508 130.755 98.7929C143.728 107.442 147.417 123.85 150.088 140.004L154.667 167.477C155.812 174.346 157.338 183.631 162.68 188.083C164.588 189.482 166.623 190.754 168.785 191.771C172.474 193.679 176.417 195.587 178.579 199.912C181.25 205.254 182.395 214.157 179.597 220.008C176.544 226.495 170.312 230.693 165.86 233.364C151.233 241.758 133.68 246.337 114.474 246.337ZM108.877 94.5955C105.316 94.5955 101.627 94.8499 98.0659 95.3587C84.329 97.1394 73.136 100.701 63.8509 106.17C50.3684 113.929 40.9561 127.157 38.1578 142.42C35.9955 153.74 32.9429 175.618 35.9955 195.333C37.2675 203.728 40.5745 215.557 49.3508 224.333C55.0745 230.057 62.8333 234.381 74.4079 238.07C82.9299 240.868 91.7063 242.776 100.737 243.793C124.904 246.465 147.163 242.267 165.351 231.456C169.549 228.912 175.527 224.969 178.325 218.864C180.869 213.521 179.724 205.254 177.307 200.293C175.4 196.478 171.965 194.697 168.277 192.916C165.987 191.899 163.952 190.627 161.917 189.1C156.066 184.267 154.413 174.6 153.268 167.477L148.689 140.004C146.018 124.232 142.456 108.078 130.119 99.9377C124.522 96.3762 117.654 94.5955 108.877 94.5955Z" fill="#D1D3D4"/>
<path d="M48.9694 218.482C48.5879 218.482 48.3335 218.228 48.0791 217.973C47.9519 217.465 48.0791 216.956 48.5878 216.829C60.0353 212.122 67.6669 213.267 67.9213 213.267C68.43 213.394 68.6844 213.776 68.6844 214.285C68.5572 214.793 68.1756 215.048 67.6669 215.048C67.5397 215.048 60.1625 214.03 49.2238 218.482C49.2238 218.482 49.0966 218.482 48.9694 218.482Z" fill="#D1D3D4"/>
<path d="M507.884 95.8673C534.467 115.201 538.028 155.521 538.664 185.92C539.3 214.412 532.941 241.631 527.09 269.359C521.239 296.579 499.234 311.333 472.905 317.438C433.857 326.469 390.993 327.614 351.181 323.162C311.37 318.71 310.352 279.662 314.422 247.482C315.567 238.578 321.8 233.109 328.541 228.276C336.808 222.298 344.186 216.065 350.037 207.543C368.861 180.197 370.006 147.762 382.598 117.999C392.519 94.4682 414.778 78.0602 440.344 78.9506C465.91 79.8409 490.204 83.0208 507.884 95.8673Z" fill="white"/>
<path d="M396.462 326.597C381.326 326.597 366.19 325.706 351.181 324.053C338.843 322.654 329.304 317.82 322.817 309.553C312.896 297.088 309.971 276.737 313.659 247.355C314.804 238.197 321.291 232.346 328.159 227.513C338.08 220.517 344.44 214.285 349.401 207.035C360.848 190.5 365.808 171.548 370.515 153.359C373.694 141.53 376.874 129.32 381.835 117.745C392.392 92.815 415.414 77.4246 440.344 78.1878C463.493 78.9509 489.822 81.4948 508.52 95.1045C534.721 114.184 538.919 153.613 539.682 185.793C540.318 212.377 534.976 237.307 529.252 263.636L527.98 269.487C524.292 286.785 511.699 309.298 473.16 318.329C447.975 323.926 422.155 326.724 396.462 326.597ZM438.436 79.8413C414.778 79.8413 393.409 94.8501 383.361 118.381C378.528 129.956 375.221 142.039 372.168 153.741C367.335 172.184 362.247 191.136 350.672 208.052C345.458 215.557 338.971 221.789 328.922 229.039C322.436 233.618 316.203 239.087 315.185 247.609C311.624 276.482 314.422 296.325 323.962 308.408C330.194 316.294 339.225 320.873 351.181 322.145C394.045 326.851 436.019 324.943 472.524 316.421C510.3 307.645 522.511 285.768 526.072 268.978L527.344 263.127C532.941 236.925 538.283 212.122 537.647 185.666C536.248 125.122 520.603 106.043 507.248 96.3764C488.932 83.1483 462.984 80.6044 440.089 79.7141C439.581 79.8413 439.072 79.8413 438.436 79.8413Z" fill="#231F20"/>
<path d="M438.182 246.337C419.103 246.337 401.55 241.758 386.668 232.982C382.217 230.311 375.984 226.113 372.931 219.627C370.133 213.776 371.278 204.872 373.949 199.53C376.111 195.205 380.054 193.298 383.743 191.39C385.905 190.372 387.94 189.227 389.848 187.701C395.19 183.249 396.717 173.964 397.861 167.096L402.44 139.622C405.111 123.468 408.8 106.933 421.774 98.4112C429.787 93.1963 440.217 91.5427 454.844 93.4506C468.708 95.2314 480.156 98.7928 489.695 104.389C503.686 112.275 513.353 126.012 516.278 141.911C518.441 153.359 521.493 175.363 518.441 195.46C517.169 204.109 513.607 216.32 504.577 225.477C498.599 231.456 490.713 235.78 478.884 239.596C470.234 242.394 461.331 244.302 452.3 245.32C447.594 245.956 442.888 246.21 438.182 246.337ZM443.778 94.5954C435.002 94.5954 428.261 96.3761 422.791 99.9375C410.326 108.078 406.765 124.231 404.221 140.003L399.642 167.477C398.497 174.6 396.844 184.267 390.993 189.1C388.958 190.626 386.923 191.898 384.633 192.916C380.945 194.824 377.51 196.477 375.602 200.293C373.059 205.254 372.041 213.521 374.585 218.863C377.383 224.841 383.361 228.912 387.559 231.456C405.747 242.267 428.006 246.464 452.173 243.793C461.077 242.776 469.853 240.868 478.375 238.07C489.949 234.381 497.581 230.056 503.432 224.333C512.208 215.556 515.515 203.727 516.787 195.333C519.84 175.618 516.66 153.74 514.625 142.42C511.827 127.157 502.414 113.802 488.932 106.17C479.52 100.701 468.327 97.1393 454.717 95.3585C451.028 94.7226 447.467 94.4682 443.778 94.5954Z" fill="#D1D3D4"/>
<path d="M503.686 218.482C503.559 218.482 503.432 218.482 503.305 218.482C492.366 214.03 484.989 215.048 484.862 215.048C484.353 215.175 483.971 214.793 483.844 214.285C483.717 213.776 484.098 213.394 484.607 213.267C484.862 213.267 492.493 212.122 503.941 216.829C504.449 217.083 504.577 217.592 504.449 217.973C504.322 218.228 504.068 218.482 503.686 218.482Z" fill="#D1D3D4"/>
<path d="M269.905 309.934C270.413 310.57 273.721 313.114 276.646 313.241C279.571 313.368 311.879 307.263 313.151 311.715C314.422 316.167 311.879 318.329 304.12 322.017C293.817 326.851 259.093 338.298 259.093 338.298L251.462 320.491L269.905 309.934Z" fill="white"/>
<path d="M259.221 339.061C258.839 339.061 258.585 338.807 258.457 338.552L250.826 320.745C250.699 320.364 250.826 319.982 251.207 319.728L269.523 309.298C269.905 309.171 270.286 309.171 270.541 309.425C271.05 309.934 274.102 312.351 276.646 312.478C278.808 312.351 280.971 312.096 283.133 311.715C302.339 309.044 312.896 308.153 313.914 311.587C315.44 316.675 312.26 319.219 304.501 322.78C294.199 327.614 259.729 338.934 259.475 339.061C259.348 339.061 259.221 339.061 259.221 339.061ZM252.606 320.745L259.602 337.28C264.563 335.627 294.453 325.706 303.738 321.254C311.624 317.565 313.405 315.658 312.387 311.969C311.624 309.298 290.256 312.223 283.387 313.241C279.444 313.75 277.409 314.004 276.646 314.004C273.975 314.004 271.05 311.969 269.778 310.951L252.606 320.745Z" fill="#231F20"/>
<path d="M169.676 329.014C169.676 329.014 204.273 340.843 205.672 343.132C207.071 345.422 204.527 348.093 195.369 348.856C186.211 349.619 146.781 347.584 146.781 347.584C146.781 347.584 146.273 336.9 148.816 331.558C151.36 326.215 169.676 329.014 169.676 329.014Z" fill="white"/>
<path d="M188.755 350C174.637 350 148.053 348.601 146.654 348.474C146.273 348.474 145.891 348.092 145.891 347.71C145.891 347.202 145.382 336.772 147.926 331.303C150.597 325.452 167.768 328.123 169.676 328.377H169.804C177.944 331.175 204.782 340.46 206.308 342.877C206.944 343.767 207.071 344.912 206.562 345.803C205.545 347.965 201.602 349.364 195.369 350C193.97 350 191.681 350 188.755 350ZM147.545 346.82C153.014 347.075 186.975 348.855 195.242 348.092C203.255 347.329 204.782 345.421 205.163 344.912C205.418 344.531 205.29 344.022 205.036 343.64C203.637 341.987 182.523 334.355 169.422 329.903C162.553 328.759 151.106 328.377 149.453 331.939C147.417 336.263 147.417 344.276 147.545 346.82Z" fill="#231F20"/>
<path d="M80.0047 216.446C80.0047 216.446 51.7678 145.981 54.8204 111.13C57.873 76.2793 80.5135 74.2442 88.3995 73.7354C96.2855 73.2267 138.132 67.6302 153.395 86.3276C168.659 105.025 164.716 195.205 164.716 195.205L80.0047 216.446Z" fill="#FD6500"/>
<path d="M129.865 89.8895L129.356 160.482L99.3384 85.0562L129.865 89.8895Z" fill="#231F20"/>
<path d="M129.356 161.372C128.975 161.372 128.72 161.118 128.593 160.863L98.5753 85.4375C98.3209 85.0559 98.5753 84.4199 98.9569 84.2927C99.0841 84.1655 99.3385 84.1655 99.4656 84.1655L129.992 88.8717C130.374 88.9989 130.755 89.3805 130.755 89.7621L130.246 160.354C130.246 160.736 129.992 161.118 129.483 161.245L129.356 161.372ZM100.738 86.2006L128.466 155.903L128.975 90.5252L100.738 86.2006Z" fill="#231F20"/>
<path d="M166.496 177.398C166.496 177.398 200.966 186.683 231.746 207.543C245.865 217.21 272.321 311.333 272.321 311.333C272.321 311.333 269.396 327.614 250.571 325.07L168.277 218.482C168.277 218.482 150.597 177.017 166.496 177.398Z" fill="#231F20"/>
<path d="M254.387 326.342C253.115 326.342 251.716 326.215 250.444 326.088C250.19 326.088 249.935 325.961 249.808 325.706L167.514 218.991L167.387 218.864C166.878 217.592 154.54 188.465 160.646 179.434C161.917 177.526 164.207 176.508 166.496 176.636C166.624 176.636 166.624 176.636 166.751 176.636C167.132 176.763 201.729 186.175 232.383 206.908C246.628 216.574 272.194 307.263 273.212 311.206C273.212 311.333 273.212 311.461 273.212 311.588C273.212 311.715 270.286 326.342 254.387 326.342ZM251.08 324.307C267.615 326.342 271.049 313.241 271.431 311.461C270.032 306.5 244.72 217.465 231.238 208.434C201.729 188.337 168.404 179.052 166.369 178.416H166.242C164.589 178.289 163.062 179.052 162.172 180.324C156.703 188.337 168.277 216.066 169.04 217.974L251.08 324.307Z" fill="#231F20"/>
<path d="M80.0049 216.447C80.0049 216.447 145.255 189.864 162.045 187.447C162.045 187.447 185.957 196.351 198.295 218.991C210.633 241.632 169.676 329.141 169.676 329.141C162.935 333.084 154.922 334.483 147.29 333.084L146.781 241.632C146.781 241.632 67.7943 249.39 80.0049 216.447Z" fill="#231F20"/>
<path d="M153.268 334.482C151.233 334.482 149.198 334.228 147.163 333.846C146.781 333.719 146.4 333.465 146.4 332.956L145.891 242.521C138.386 243.157 92.5968 246.464 80.7678 231.201C77.588 227.131 77.0792 222.043 79.2415 216.192C79.3687 215.938 79.4959 215.811 79.7503 215.683C82.4214 214.539 145.382 189.1 162.044 186.556C162.172 186.556 162.299 186.556 162.553 186.556C162.808 186.683 186.974 195.841 199.312 218.609C211.65 241.377 172.347 325.833 170.694 329.394C170.566 329.522 170.566 329.649 170.439 329.776C165.097 332.829 159.246 334.482 153.268 334.482ZM148.18 332.32C155.303 333.465 162.68 332.065 169.04 328.504C171.33 323.416 209.233 240.995 197.659 219.499C186.211 198.512 164.461 189.354 162.044 188.337C145.891 190.881 86.11 215.047 80.7678 217.083C78.9871 222.17 79.3687 226.622 82.0398 230.056C94.1232 245.701 146.018 240.741 146.654 240.613C146.908 240.613 147.163 240.741 147.29 240.868C147.417 240.995 147.544 241.249 147.544 241.504L148.18 332.32Z" fill="#231F20"/>
<path d="M196.896 256.64H196.768C196.26 256.513 196.005 256.131 196.005 255.622C198.295 242.522 200.711 221.916 197.659 218.736C188.119 208.307 164.589 190.754 164.334 190.627C163.953 190.372 163.825 189.736 164.207 189.355C164.589 188.973 165.097 188.846 165.479 189.227C165.733 189.355 189.391 206.907 199.058 217.592C203.51 222.552 198.422 252.57 197.786 256.004C197.659 256.386 197.277 256.767 196.896 256.64Z" fill="white"/>
<path d="M153.395 86.4551C153.395 86.4551 164.716 108.205 171.33 119.398C177.944 130.591 192.444 146.618 192.444 146.618C192.444 146.618 243.703 164.806 243.957 165.824C244.212 166.841 239.124 184.012 239.124 184.012C239.124 184.012 185.321 180.197 176.545 175.999C167.768 171.802 149.58 151.069 149.58 151.069L153.395 86.4551Z" fill="#FD6500"/>
<path d="M118.163 97.6484L114.474 103.627L118.544 106.043L119.053 134.535L129.356 160.482L129.865 136.57L121.215 105.28L123.759 102.227L118.163 97.6484Z" fill="white"/>
<path d="M129.356 161.372C128.974 161.372 128.72 161.118 128.593 160.863L118.29 134.916C118.29 134.789 118.29 134.661 118.163 134.661L117.654 106.679L113.966 104.517C113.711 104.389 113.584 104.135 113.584 104.008C113.584 103.753 113.584 103.499 113.711 103.372L117.527 97.3938C117.654 97.1394 117.909 97.0122 118.163 97.0122C118.417 97.0122 118.672 97.0122 118.926 97.1394L124.523 101.718C124.65 101.846 124.777 102.1 124.777 102.354C124.777 102.609 124.777 102.863 124.523 102.99L122.233 105.661L130.755 136.442C130.755 136.569 130.755 136.569 130.755 136.697L130.246 160.736C130.119 160.991 129.865 161.245 129.356 161.372ZM119.944 134.407L128.593 156.157L128.974 136.697L120.452 105.534C120.325 105.28 120.452 104.898 120.58 104.771L122.615 102.482L118.545 99.0473L115.746 103.372L119.053 105.407C119.308 105.534 119.435 105.789 119.435 106.17L119.944 134.407Z" fill="#231F20"/>
<path d="M97.4304 16.8804C98.4479 16.4989 99.5927 16.2445 100.61 16.1173C104.935 15.6085 105.062 16.4989 108.369 13.7006C113.457 9.63042 119.689 7.34093 126.176 6.95935C138.641 6.19619 147.672 12.4287 144.874 26.0384C143.729 31.5077 140.803 36.4682 137.624 40.92C130.628 50.7139 120.58 59.4903 108.623 60.3806C105.062 60.635 98.3207 60.3806 95.7769 57.4552C88.3997 49.0604 85.8558 37.3586 89.1628 26.5472C89.7988 24.2577 90.9435 22.2226 92.4698 20.3147C93.869 18.7883 95.6497 17.6436 97.4304 16.8804Z" fill="white"/>
<path d="M106.461 61.3981C103.281 61.3981 97.6848 61.0165 95.1409 58.091C87.5093 49.4419 84.9654 37.3585 88.3996 26.2927C89.0356 23.876 90.3075 21.7137 91.8339 19.8058C93.233 18.1523 95.1409 16.7532 97.176 15.99C98.3207 15.6084 99.4655 15.2269 100.61 15.0997C101.755 14.9725 102.645 14.9725 103.281 14.9725C105.062 14.8453 105.571 14.8453 107.86 12.9374C113.075 8.73997 119.435 6.3233 126.049 6.06891C133.426 5.56014 139.404 7.46805 142.838 11.5382C145.891 15.0997 146.909 20.1874 145.637 26.2927C144.619 31.126 142.33 35.705 138.132 41.5559C132.027 50.0778 121.852 60.3805 108.496 61.3981C108.369 61.3981 107.606 61.3981 106.461 61.3981ZM128.338 7.84961C127.702 7.84961 126.939 7.84962 126.303 7.97681C120.071 8.3584 113.966 10.6479 109.005 14.4637C106.461 16.626 105.571 16.7532 103.408 16.8804C102.773 16.8804 101.882 16.8804 100.865 17.0076C99.8471 17.1348 98.8295 17.3891 97.9391 17.7707C96.1584 18.4067 94.5049 19.5514 93.233 21.0777C91.8339 22.8585 90.8163 24.8935 90.1803 27.0558C86.8733 37.4857 89.29 48.8059 96.54 57.0735C98.5751 59.363 104.172 59.9989 108.623 59.7445C121.343 58.727 131.009 48.8059 136.988 40.6655C140.931 35.069 143.22 30.6173 144.11 26.1655C145.255 20.6962 144.365 16.1172 141.694 12.9374C139.023 9.75752 134.189 7.84961 128.338 7.84961Z" fill="#231F20"/>
<path d="M129.865 71.0643V89.8889C129.865 89.8889 125.413 100.192 113.202 97.139C100.992 94.0863 99.3384 85.1828 99.3384 85.1828L99.8472 50.3318C99.8472 50.3318 109.005 45.4984 106.588 25.6562C116.637 30.108 127.703 31.7615 138.641 30.4896C138.641 30.4896 142.457 52.2397 141.058 61.7792C139.786 71.0643 129.992 70.9371 129.865 71.0643Z" fill="white"/>
<path d="M117.527 98.5386C116 98.5386 114.347 98.2842 112.821 97.9026C100.101 94.7228 98.4478 85.5649 98.3206 85.1833L98.8293 50.2051C98.8293 49.8235 98.9565 49.5691 99.3381 49.4419C99.4653 49.4419 107.987 44.6086 105.571 25.6567C105.571 25.2752 105.698 25.0208 105.952 24.7664C106.207 24.512 106.588 24.512 106.843 24.6392C116.764 28.9638 127.575 30.6173 138.386 29.3454C138.895 29.3454 139.277 29.5997 139.404 30.1085C139.531 30.9989 143.22 52.113 141.821 61.7797C141.058 67.5034 136.987 70.9376 130.628 71.7008V89.6351C130.628 89.7623 130.628 89.8895 130.501 90.0166C128.211 95.2316 123.123 98.5386 117.527 98.5386ZM100.737 50.8411L100.228 85.1833C100.228 85.3105 101.755 93.3237 113.329 96.2491C124.141 98.9202 128.338 91.0342 128.974 89.7623V71.192C128.974 70.9376 129.101 70.6832 129.356 70.4289C129.61 70.3017 129.865 70.1745 130.119 70.1745C136.097 69.6657 139.531 66.7402 140.167 61.7797C141.312 53.5121 138.514 35.5778 137.878 31.5077C127.575 32.5252 117.272 31.1261 107.606 27.1831C109.259 43.8454 102.518 49.5691 100.737 50.8411Z" fill="#231F20"/>
<path d="M107.097 49.823C106.715 48.1695 105.698 46.6432 104.426 45.4984C103.154 44.4809 101.627 43.7177 100.101 43.209C99.3378 42.8274 98.4475 42.7002 97.5571 42.7002C96.9212 42.8274 96.2852 42.9546 95.7764 43.3362C94.3773 43.9721 93.3597 45.1169 92.7238 46.3888C92.3422 47.5335 92.3422 48.6783 92.4694 49.9502C92.5966 51.2222 92.851 52.4941 93.3597 53.766C95.3948 58.7266 101.119 61.1432 106.079 59.1081H106.206" fill="white"/>
<path d="M102.518 60.6352C98.1937 60.6352 94.3779 58.0913 92.7244 54.0211C92.2156 52.7492 91.9612 51.3501 91.7068 50.0781C91.4524 48.8062 91.5796 47.4071 91.9612 46.1351C92.5972 44.6088 93.8691 43.3369 95.3954 42.5737C96.0314 42.1921 96.7945 41.9377 97.4305 41.8105C98.4481 41.8105 99.4656 41.9377 100.356 42.3193C102.009 42.8281 103.536 43.5912 104.935 44.736C106.461 46.0079 107.479 47.6614 107.86 49.5693C107.988 50.0781 107.733 50.5869 107.224 50.5869C106.716 50.7141 106.334 50.4597 106.207 49.9509C105.825 48.4246 105.062 47.1527 103.79 46.1351C102.518 45.2448 101.246 44.4816 99.72 44.1C99.084 43.8456 98.3209 43.5912 97.5577 43.5912C97.0489 43.7184 96.5402 43.8456 96.1586 44.1C95.0138 44.6088 94.1235 45.6263 93.6147 46.7711C93.3603 47.7886 93.2331 48.8062 93.4875 49.8237C93.6147 51.0957 93.8691 52.2404 94.3779 53.3851C96.2858 57.9641 101.501 60.1264 106.08 58.2185C106.461 57.9641 107.097 58.2185 107.224 58.6001C107.479 59.1089 107.224 59.6176 106.716 59.7448C105.444 60.3808 104.045 60.6352 102.518 60.6352Z" fill="#231F20"/>
<path d="M129.101 42.9551C129.101 42.9551 135.843 52.4946 134.316 54.1481C132.79 55.8016 128.465 54.9113 128.465 54.9113" fill="white"/>
<path d="M131.137 56.0561C130.246 56.0561 129.229 55.9289 128.338 55.8017C127.83 55.6745 127.575 55.1657 127.702 54.7842C127.83 54.2754 128.338 54.021 128.72 54.1482C130.246 54.5298 132.79 54.657 133.68 53.7666C134.062 52.8762 131.645 48.1701 128.466 43.7183C128.211 43.3367 128.211 42.7008 128.72 42.4464C129.101 42.192 129.737 42.192 129.992 42.7008C132.663 46.5166 136.86 53.0034 135.08 55.0385C133.935 55.6745 132.536 56.1833 131.137 56.0561Z" fill="#231F20"/>
<path d="M125.436 41.065C125.513 39.8029 124.838 38.7342 123.926 38.678C123.015 38.6218 122.213 39.5993 122.135 40.8613C122.057 42.1234 122.733 43.1921 123.644 43.2483C124.556 43.3045 125.358 42.327 125.436 41.065Z" fill="#231F20"/>
<path d="M137.646 43.1991C138.557 43.1351 139.223 42.0607 139.135 40.7995C139.046 39.5382 138.236 38.5676 137.325 38.6316C136.414 38.6957 135.747 39.77 135.836 41.0313C135.925 42.2926 136.735 43.2632 137.646 43.1991Z" fill="#231F20"/>
<path d="M129.483 61.7796C125.794 61.7796 120.961 61.1437 117.654 58.5998C117.273 58.2182 117.273 57.7095 117.654 57.3279C117.908 57.0735 118.417 56.9463 118.799 57.2007C123.887 61.2709 134.316 59.6174 134.444 59.6174C134.952 59.4902 135.334 59.8717 135.461 60.3805C135.588 60.8893 135.207 61.2709 134.698 61.3981C132.917 61.6524 131.137 61.7796 129.483 61.7796Z" fill="#231F20"/>
<path d="M141.439 52.8754C140.803 52.8754 140.04 52.8754 139.404 52.7482C132.917 51.6035 128.593 45.371 129.61 38.8842C130.755 32.3973 136.86 27.9455 143.474 29.0903C149.961 30.235 154.413 36.3403 153.268 42.9543C152.378 48.6781 147.29 52.8754 141.439 52.8754ZM131.391 39.1385C130.373 44.7351 134.189 49.95 139.658 50.9675C145.255 51.9851 150.47 48.1693 151.487 42.7C152.505 37.1035 148.689 31.8885 143.22 30.871C140.549 30.3622 137.878 30.9982 135.588 32.5245C133.426 34.0508 131.9 36.4675 131.391 39.1385Z" fill="#231F20"/>
<path d="M118.29 51.9858C117.654 51.9858 116.891 51.9858 116.255 51.8586C109.768 50.7139 105.316 44.4814 106.461 37.9945C107.606 31.5077 113.838 27.0559 120.325 28.2006C126.812 29.3454 131.264 35.5779 130.119 42.0647C129.61 45.2446 127.829 48.0428 125.158 49.8235C122.996 51.2226 120.707 51.9858 118.29 51.9858ZM118.29 29.8541C112.693 29.8541 108.114 34.4331 108.114 40.0296C108.114 45.6261 112.693 50.2051 118.29 50.2051C123.886 50.2051 128.465 45.6261 128.465 40.0296C128.465 35.0691 124.904 30.8717 120.071 29.9813C119.435 29.8541 118.799 29.8541 118.29 29.8541Z" fill="#231F20"/>
<path d="M129.865 71.0649C129.865 71.0649 118.163 73.736 111.294 69.793C111.294 69.793 118.926 85.5649 129.865 83.9114V71.0649Z" fill="#231F20"/>
<path d="M128.211 84.9284C117.654 84.9284 110.786 70.8099 110.404 70.174C110.15 69.7924 110.277 69.1564 110.786 68.902C111.04 68.7748 111.422 68.7748 111.676 68.902C118.163 72.5906 129.483 70.0468 129.61 70.0468C129.865 70.0468 130.119 70.0468 130.374 70.174C130.628 70.3012 130.755 70.5556 130.755 70.9371V83.7837C130.755 84.1653 130.374 84.5468 129.992 84.674C129.356 84.9284 128.72 84.9284 128.211 84.9284ZM113.33 71.7003C115.746 75.7705 121.597 83.6565 128.975 83.1477V72.2091C126.303 72.5907 119.053 73.6082 113.33 71.7003Z" fill="#231F20"/>
<path d="M66.1407 82.2575C56.6012 83.911 17.8072 173.455 31.1625 183.758C51.895 199.657 123.887 183.631 123.887 183.631L118.036 155.902C118.036 155.902 71.7372 157.174 71.1013 147.635C70.4653 138.095 98.0663 94.0864 94.3777 87.4724C90.6891 80.8583 66.1407 82.2575 66.1407 82.2575Z" fill="#FD6500"/>
<path d="M88.7809 192.788C88.2721 192.788 87.8905 192.407 87.8905 191.898C87.8905 191.516 88.1449 191.135 88.6537 191.008L110.404 187.319L111.04 161.88L70.2106 157.683C69.9562 157.683 69.7018 157.556 69.5747 157.301C69.4475 157.047 69.3203 156.792 69.4475 156.538L87.5089 93.9589C87.6361 93.4501 88.1449 93.1957 88.6537 93.3229C89.1624 93.4501 89.4168 93.9589 89.2896 94.4677L71.4826 156.029L112.057 160.227C112.566 160.227 112.82 160.735 112.82 161.117L112.057 188.082C112.057 188.464 111.803 188.845 111.294 188.972L88.7809 192.788Z" fill="#231F20"/>
<path d="M112.948 165.188C120.707 165.697 128.338 165.315 135.97 164.043C141.821 162.898 147.036 161.754 153.141 162.008C160.773 162.39 168.277 164.043 175.273 167.096C175.527 167.223 175.781 167.35 176.036 167.604C176.672 168.622 175.146 169.512 174.001 169.512C170.948 169.64 167.896 169.258 164.97 168.368C172.22 171.039 179.089 174.727 185.448 179.306C186.211 179.815 186.975 180.578 186.593 181.469C186.211 182.359 184.812 182.105 183.795 181.723L167.26 174.091C171.584 175.745 175.527 178.162 178.961 181.214C179.47 181.596 179.979 182.232 179.852 182.868C179.597 184.012 177.944 183.758 176.926 183.249C171.839 180.705 167.132 177.78 162.553 174.473L172.729 182.359C172.856 183.249 171.966 183.885 171.075 183.885C170.185 183.885 169.422 183.504 168.659 183.122L157.211 176.508L164.334 181.469C165.479 182.232 166.751 183.504 166.115 184.776C165.479 186.302 163.317 185.793 161.79 185.157C155.939 182.613 149.834 180.705 143.474 179.561C141.185 179.052 139.023 178.162 136.733 178.162C133.426 178.289 129.61 179.688 126.303 180.451C121.216 181.596 116.001 182.741 110.786 184.012" fill="white"/>
<path d="M164.716 186.556C163.698 186.556 162.808 186.302 161.918 185.92C156.067 183.377 149.961 181.469 143.856 180.324C143.093 180.197 142.33 179.942 141.567 179.688C140.168 179.179 138.768 178.925 137.242 178.925C134.825 179.179 132.536 179.561 130.246 180.324C129.102 180.578 128.084 180.96 127.067 181.214C121.852 182.359 116.764 183.504 111.676 184.776C111.295 184.903 110.786 184.649 110.659 184.14C110.531 183.758 110.786 183.249 111.295 183.122C116.51 181.85 121.597 180.706 126.812 179.561C127.83 179.306 128.847 179.052 129.992 178.798C132.409 178.034 134.825 177.526 137.369 177.399C139.023 177.399 140.549 177.653 142.203 178.162C142.966 178.416 143.602 178.543 144.365 178.67C150.725 179.815 156.957 181.723 162.808 184.394C163.698 184.903 164.589 185.03 165.606 184.903C165.733 184.776 165.988 184.648 165.988 184.521C166.369 183.631 164.843 182.486 164.461 182.232L157.339 177.271C156.957 177.017 156.83 176.508 157.084 176.127C157.339 175.745 157.847 175.618 158.229 175.872L169.676 182.486C170.185 182.868 170.948 183.122 171.584 183.249C171.839 183.249 172.093 183.122 172.347 182.868L162.554 175.363C162.299 174.982 162.299 174.473 162.554 174.219C162.808 173.964 163.19 173.964 163.444 174.091C167.896 177.398 172.729 180.324 177.69 182.741C178.198 182.995 178.834 183.122 179.343 182.995C179.47 182.868 179.47 182.613 178.834 181.977C176.418 179.942 173.874 178.162 170.948 176.635L167.26 174.982C166.878 174.855 166.624 174.346 166.878 173.964C167.005 173.583 167.514 173.328 167.896 173.583C169.168 174.091 170.44 174.727 171.711 175.363L184.558 181.214C185.067 181.469 185.576 181.596 186.084 181.469C186.339 181.087 185.957 180.706 185.321 180.197C179.089 175.745 172.22 172.056 164.97 169.385C164.589 169.258 164.334 168.749 164.461 168.368C164.589 167.986 164.97 167.732 165.479 167.859C168.277 168.622 171.33 169.004 174.255 169.004C174.764 169.004 175.4 168.749 175.782 168.368L175.4 168.241C168.404 165.315 161.027 163.534 153.523 163.28C148.562 163.153 143.475 163.662 138.641 164.806L136.606 165.188C128.974 166.46 121.088 166.841 113.457 166.333C112.948 166.333 112.694 165.951 112.694 165.442C112.694 165.061 113.075 164.679 113.457 164.679C121.088 165.188 128.72 164.806 136.352 163.534L138.387 163.153C143.347 162.008 148.562 161.499 153.65 161.627C161.409 162.008 169.04 163.662 176.163 166.714C176.545 166.841 176.926 167.096 177.308 167.477C177.69 167.986 177.69 168.622 177.435 169.131C176.799 170.148 175.654 170.657 174.51 170.657C173.747 170.657 172.983 170.657 172.22 170.657C177.181 172.947 182.014 175.745 186.466 178.925C187.865 179.942 188.374 181.087 187.865 182.105C187.611 182.613 187.356 182.868 186.848 183.122C185.957 183.377 184.94 183.249 184.049 182.868L180.106 181.087C180.869 181.596 181.378 182.613 181.251 183.504C181.124 184.013 180.742 184.521 180.233 184.776C179.216 185.157 178.071 185.03 177.181 184.521C176.163 184.013 175.146 183.504 174.255 182.995C174.255 183.504 174.128 183.885 173.747 184.267C173.238 184.776 172.602 185.157 171.839 185.157C170.821 185.157 169.804 184.776 169.04 184.267L167.641 183.504C168.023 184.14 168.023 184.903 167.768 185.539C167.514 186.175 167.133 186.556 166.497 186.811C165.479 186.429 165.097 186.429 164.716 186.556Z" fill="#231F20"/>
<path d="M143.729 97.6484C143.729 97.6484 152.25 132.245 159.882 156.793Z" fill="white"/>
<path d="M159.755 157.684C159.373 157.684 159.119 157.43 158.992 157.175C151.487 132.881 142.966 98.2846 142.838 97.903C142.711 97.5214 142.966 97.0126 143.474 96.8854C143.856 96.7582 144.365 97.0126 144.492 97.5214C144.619 97.903 153.014 132.372 160.518 156.666C160.645 157.048 160.391 157.557 160.009 157.684C160.009 157.557 159.882 157.684 159.755 157.684Z" fill="#231F20"/>
<path d="M245.356 198.512L244.975 203.346L135.97 219.245L137.115 214.157L245.356 198.512Z" fill="white"/>
<path d="M135.97 220.135C135.715 220.135 135.461 220.008 135.334 219.881C135.079 219.626 135.079 219.372 135.079 219.118L136.224 214.03C136.351 213.648 136.606 213.394 136.987 213.394L245.229 197.749C245.483 197.749 245.738 197.749 245.992 198.003C246.246 198.131 246.246 198.512 246.246 198.767L245.865 203.6C245.865 203.981 245.483 204.363 245.102 204.363L136.097 220.262L135.97 220.135ZM137.878 215.047L137.114 218.227L244.084 202.582L244.339 199.53L137.878 215.047Z" fill="#231F20"/>
<path d="M245.356 198.512C245.356 198.512 220.554 177.271 219.79 177.398C219.027 177.525 107.479 191.008 107.479 191.008L137.115 214.157L245.356 198.512Z" fill="white"/>
<path d="M137.115 215.175C136.86 215.175 136.733 215.047 136.606 215.047L106.97 191.771C106.715 191.517 106.588 191.135 106.715 190.881C106.843 190.499 107.097 190.245 107.479 190.245C108.623 190.117 217.883 177.017 219.663 176.762C220.172 176.635 220.935 176.508 245.992 198.003C246.247 198.258 246.374 198.639 246.247 198.894C246.119 199.275 245.865 199.53 245.483 199.53L137.242 215.175H137.115ZM109.768 191.644L137.369 213.267L243.321 197.876C234.545 190.372 221.571 179.433 219.663 178.288C213.812 179.179 131.645 188.973 109.768 191.644Z" fill="#231F20"/>
<path d="M135.97 219.245L107.097 195.842L107.479 191.008L137.115 214.158L135.97 219.245Z" fill="white"/>
<path d="M135.97 220.135C135.715 220.135 135.588 220.008 135.461 219.881L106.588 196.477C106.334 196.35 106.207 195.969 106.207 195.714L106.588 190.881C106.588 190.499 106.843 190.245 107.097 190.118C107.351 189.991 107.733 189.991 107.987 190.245L137.623 213.394C137.878 213.649 138.005 213.903 137.878 214.284L136.733 219.372C136.733 219.627 136.479 219.881 136.224 220.008C136.224 220.135 136.097 220.135 135.97 220.135ZM107.987 195.46L135.461 217.719L136.097 214.539L108.242 192.662L107.987 195.46Z" fill="#231F20"/>
<path d="M245.356 198.512L266.343 128.429L151.487 148.017L137.115 214.157L245.356 198.512Z" fill="white"/>
<path d="M137.115 215.175C136.86 215.175 136.606 215.048 136.479 214.921C136.224 214.666 136.224 214.412 136.224 214.158L150.597 147.89C150.724 147.508 150.979 147.254 151.36 147.254L266.216 127.666C266.47 127.666 266.852 127.666 266.979 127.92C267.234 128.175 267.234 128.429 267.106 128.811L246.12 199.022C245.992 199.403 245.738 199.658 245.356 199.658L137.115 215.302V215.175ZM152.251 148.78L138.259 213.14L244.72 197.75L265.071 129.574L152.251 148.78Z" fill="#231F20"/>
<path d="M373.949 114.565L318.62 84.166C318.62 84.166 315.44 75.1353 312.133 72.337C308.826 69.5388 310.861 79.4598 310.861 79.4598C310.861 79.4598 291.909 67.3765 290.001 70.6835C288.093 73.9905 284.913 87.2186 291.273 92.4336C296.997 97.0125 307.554 98.0301 307.554 98.0301C337.063 121.815 378.655 148.017 378.655 148.017" fill="white"/>
<path d="M378.655 148.908C378.528 148.908 378.273 148.908 378.146 148.781C377.765 148.526 336.3 122.325 307.172 98.9209C305.392 98.6666 296.107 97.3946 290.764 93.07C284.023 87.7279 286.949 73.991 289.238 70.1752C289.492 69.6664 290.001 69.4121 290.51 69.2849C294.071 68.3945 305.137 74.8814 309.589 77.6796C309.207 75.1358 308.953 72.0831 310.352 71.32C310.861 71.0656 311.624 70.8112 312.769 71.8287C316.076 74.4998 318.874 82.0042 319.51 83.7849L374.458 113.93C374.839 114.184 375.094 114.693 374.839 115.075C374.585 115.456 374.076 115.71 373.567 115.456L318.365 85.0569C318.111 84.9297 317.984 84.8025 317.984 84.5481C317.984 84.4209 314.931 75.6445 311.751 73.1007C311.624 72.9735 311.497 72.9735 311.37 72.8463C311.115 73.6094 311.243 76.5349 311.879 79.3332C312.006 79.7147 311.879 80.0963 311.497 80.2235C311.243 80.4779 310.861 80.4779 310.479 80.2235C304.374 76.4077 293.69 70.4296 291.146 71.0656C291.019 71.0656 291.019 71.0656 291.019 71.1928C288.984 74.4998 286.185 87.092 292.164 91.6709C297.506 95.9955 307.808 97.1402 307.936 97.1402C308.063 97.1402 308.317 97.2674 308.444 97.2674C337.572 120.671 379.037 147 379.545 147.254C379.927 147.509 380.054 148.018 379.8 148.526C379.291 148.781 379.037 148.908 378.655 148.908Z" fill="#231F20"/>
<path d="M360.212 286.022C360.212 286.022 364.155 331.684 362.628 334.737C361.102 337.79 321.799 343.641 321.036 339.443C320.273 335.246 340.242 327.105 340.242 327.105L335.918 289.711" fill="white"/>
<path d="M326.887 341.733C325.615 341.733 324.343 341.733 323.071 341.478C321.927 341.224 320.4 340.842 320.146 339.57C319.383 335.246 333.883 328.759 339.225 326.469L334.9 289.711C334.9 289.202 335.155 288.82 335.664 288.693C336.172 288.693 336.554 288.947 336.681 289.456L341.133 326.851C341.133 327.233 341.006 327.614 340.624 327.741C331.339 331.557 321.545 337.027 321.927 339.189C321.927 339.189 322.435 339.825 326.251 339.825C337.699 340.206 360.339 335.882 361.865 334.101C362.883 331.812 360.848 303.447 359.322 286.022C359.322 285.513 359.703 285.132 360.085 285.004C360.593 285.004 360.975 285.386 361.102 285.768C361.738 293.399 365.045 331.939 363.392 334.991C361.738 338.044 337.826 341.733 326.887 341.733Z" fill="#231F20"/>
<path d="M418.212 297.978C418.212 297.978 423.682 338.426 420.883 339.571C418.085 340.715 379.291 342.623 379.927 339.189C380.563 335.755 399.642 329.268 399.642 329.268L392.774 289.838" fill="white"/>
<path d="M395.19 342.114C387.686 342.114 381.072 341.733 379.546 340.461C379.164 340.207 378.91 339.571 379.037 339.062C379.673 335.628 393.41 330.54 398.625 328.759L391.883 290.092C391.756 289.584 392.138 289.202 392.646 289.075C393.155 288.948 393.537 289.329 393.664 289.711L400.532 329.141C400.66 329.522 400.405 330.031 399.896 330.158C391.247 333.084 381.835 337.281 380.817 339.062C381.962 339.698 387.05 340.461 400.405 340.079C410.072 339.825 418.848 339.189 420.375 338.68C421.647 336.391 419.739 316.421 417.322 297.978C417.322 297.47 417.576 297.088 418.085 296.961C418.594 296.834 418.975 297.215 419.103 297.724C421.647 316.421 424.063 339.062 421.265 340.207C419.484 341.097 406.383 342.114 395.19 342.114Z" fill="#231F20"/>
<path d="M375.602 217.083C374.712 220.263 366.445 305.228 366.445 305.228H333.12C333.12 305.228 317.729 220.008 322.817 198.894C326.251 184.394 342.023 177.271 358.05 181.978C381.962 181.087 406.383 178.035 406.383 178.035L375.602 217.083Z" fill="#231F20"/>
<path d="M366.317 306.119H332.992C332.611 306.119 332.229 305.865 332.102 305.356C331.466 301.922 316.839 219.627 321.799 198.64C323.326 192.281 327.396 186.684 333.12 183.504C340.115 179.434 349.146 178.544 357.922 181.088C381.453 180.197 405.747 177.145 406.001 177.145C406.51 177.018 406.892 177.399 407.019 177.908C407.019 178.162 407.019 178.417 406.892 178.544L376.238 217.465C375.348 221.79 369.37 282.079 367.08 305.356C367.207 305.737 366.826 306.119 366.317 306.119ZM333.756 304.338H365.554C366.444 295.18 373.822 220.009 374.712 216.829C374.712 216.702 374.839 216.575 374.839 216.575L404.221 179.18C397.734 179.943 377.51 182.105 357.922 182.868C357.795 182.868 357.795 182.868 357.668 182.868C349.273 180.452 340.751 181.215 334.137 185.031C328.795 188.083 324.979 193.171 323.58 199.022C319.001 218.737 332.356 295.943 333.756 304.338Z" fill="#231F20"/>
<path d="M478.375 189.864C478.375 189.864 488.805 207.289 472.651 226.877C456.498 246.465 410.326 225.86 410.326 225.86L421.901 302.557L388.067 302.176C388.067 302.176 352.708 197.75 356.778 186.939C360.848 176.127 389.721 171.167 389.721 171.167L478.375 189.864Z" fill="#231F20"/>
<path d="M421.901 303.447L388.067 303.066C387.686 303.066 387.304 302.811 387.177 302.43C385.778 298.105 351.817 197.495 356.015 186.556C360.212 175.618 388.449 170.403 389.594 170.148C389.721 170.148 389.848 170.148 389.975 170.148L478.629 188.846C478.883 188.846 479.138 189.1 479.265 189.227C479.392 189.355 489.949 207.416 473.414 227.258C466.546 235.526 453.318 238.07 435.256 234.381C427.116 232.728 419.23 230.184 411.471 227.131L422.791 302.302C422.918 302.811 422.537 303.193 422.028 303.32C421.901 303.447 421.901 303.447 421.901 303.447ZM388.703 301.285L420.883 301.666L409.563 225.986C409.563 225.605 409.69 225.35 409.945 225.096C410.199 224.842 410.581 224.842 410.835 224.969C411.344 225.223 456.625 245.065 472.142 226.241C480.283 216.32 481.427 207.162 480.919 201.056C480.664 197.368 479.647 193.806 477.993 190.499L389.975 171.929C387.686 172.311 361.611 177.271 357.922 187.192C354.488 195.842 378.782 272.03 388.703 301.285Z" fill="#231F20"/>
<path d="M368.607 243.667C368.225 243.667 367.971 243.412 367.843 243.158C367.08 241.25 349.146 195.46 354.743 183.886C355.251 182.614 356.396 181.596 357.795 181.215C358.304 181.088 358.813 181.342 358.94 181.723C359.067 182.232 358.813 182.741 358.431 182.868C358.431 182.868 358.431 182.868 358.304 182.868C357.414 183.123 356.778 183.759 356.396 184.649C351.181 195.46 369.37 242.013 369.497 242.395C369.624 242.904 369.497 243.412 368.988 243.54C368.861 243.54 368.734 243.667 368.607 243.667Z" fill="white"/>
<path d="M410.326 226.75C410.199 226.75 409.944 226.75 409.817 226.623C409.308 226.368 398.879 220.009 395.826 215.43C395.572 215.048 395.699 214.412 396.08 214.158C396.462 213.903 397.098 214.031 397.352 214.412C400.151 218.609 410.58 224.969 410.708 225.096C411.089 225.351 411.344 225.86 411.089 226.368C410.962 226.623 410.708 226.877 410.326 226.75Z" fill="white"/>
<path d="M478.375 189.863C478.375 189.863 515.515 98.1567 488.042 77.1698C460.568 56.1829 421.392 65.468 416.05 85.183C410.708 104.898 389.594 171.166 389.594 171.166C389.594 171.166 457.261 191.262 478.375 189.863Z" fill="#FD6500"/>
<path d="M439.581 87.2186L433.094 151.833L468.581 82.6396L439.581 87.2186Z" fill="#231F20"/>
<path d="M433.094 152.723C432.967 152.723 432.967 152.723 432.839 152.723C432.458 152.596 432.203 152.214 432.203 151.833L438.69 87.0911C438.69 86.7096 439.072 86.328 439.453 86.328L468.454 81.749C468.835 81.749 469.089 81.8762 469.344 82.1306C469.598 82.385 469.598 82.7666 469.471 83.021L433.857 152.341C433.73 152.596 433.475 152.85 433.094 152.723ZM440.344 87.8543L434.493 147.254L467.054 83.7841L440.344 87.8543Z" fill="#231F20"/>
<path d="M418.594 77.2974L372.168 110.113L376.366 151.833L426.098 130.846C426.225 130.846 434.366 84.6746 418.594 77.2974Z" fill="#FD6500"/>
<path d="M436.528 78.1874C439.962 77.297 443.269 76.4067 446.958 77.0427C452.427 78.0602 457.388 80.6041 462.984 81.3672C468.962 82.1304 475.322 81.6216 481.427 81.3672C483.208 81.24 481.554 83.6567 482.954 82.6392C488.041 78.9506 487.787 71.7005 487.66 66.2312C487.787 53.6391 486.261 41.0469 482.954 28.8363C481.173 22.4767 474.177 -0.672536 463.875 9.37575C466.164 7.08626 454.971 1.87133 453.318 1.36256C438.817 -2.70763 425.589 10.1389 422.282 23.4942C419.866 33.1609 419.738 42.7004 415.159 51.8584C413.124 55.8013 410.453 59.8715 410.326 64.3233C410.072 69.6654 413.76 74.7532 418.594 77.297C423.554 79.5865 429.151 80.0953 434.493 78.6962C435.129 78.569 435.892 78.4418 436.528 78.1874Z" fill="white"/>
<path d="M482.445 83.9116C482.318 83.9116 482.063 83.9116 481.936 83.7844C481.554 83.53 481.3 83.0212 481.427 82.5124V82.3852L478.629 82.5124C473.414 82.894 468.199 82.894 462.857 82.3852C459.932 81.8765 457.006 81.1133 454.208 80.0958C451.791 79.2054 449.375 78.5694 446.831 78.0607C443.524 77.5519 440.471 78.1878 437.291 79.0782L436.782 79.2054L434.62 79.7142C430.296 80.6045 423.936 81.1133 418.212 78.1879C412.743 75.3896 409.309 69.9203 409.436 64.451C409.563 60.6352 411.471 57.0737 413.252 53.7667C413.633 53.0036 414.015 52.3676 414.396 51.6044C417.449 45.6263 418.467 39.3939 419.611 32.907C420.12 29.8544 420.629 26.6745 421.519 23.4947C423.681 15.0999 428.896 7.84988 436.274 3.27092C441.489 0.0910835 447.721 -0.799271 453.572 0.727051C454.589 0.981438 462.857 4.67005 464.638 7.72269C466.291 6.45076 468.454 5.94198 470.361 6.45076C476.594 8.10427 481.046 19.5517 483.717 28.8368C487.024 41.1746 488.55 53.7667 488.423 66.4861V67.2492C488.423 72.5914 488.423 79.9686 483.335 83.6572C483.208 83.7844 482.826 83.9116 482.445 83.9116ZM481.427 80.6045C481.936 80.6045 482.318 80.7317 482.699 81.1133C482.826 81.2405 482.954 81.3677 482.954 81.6221C486.769 78.1878 486.769 72.0826 486.769 67.122V66.4861C486.897 53.8939 485.37 41.429 482.063 29.3456C478.502 16.7534 474.177 9.24902 469.98 8.10427C468.199 7.5955 466.418 8.35865 464.383 10.1394C464.002 10.5209 463.493 10.5209 463.111 10.1394C462.73 9.75778 462.73 9.249 463.111 8.86742C463.493 7.4683 455.48 3.01653 452.936 2.38056C447.467 0.981432 441.743 1.7446 437.037 4.67005C430.041 8.99462 425.081 15.8631 423.046 23.7491C422.282 26.8017 421.774 29.9815 421.265 33.0342C420.12 39.3939 418.975 46.0079 415.795 52.2404C415.414 53.0036 415.032 53.7667 414.651 54.4027C412.997 57.5825 411.217 60.7624 411.089 64.3238C410.962 69.1571 414.015 73.9905 418.848 76.4072C424.19 79.0782 430.041 78.6966 434.111 77.8063C434.747 77.6791 435.51 77.5519 436.146 77.2975L436.655 77.1703C439.835 76.4071 443.269 75.5168 446.831 76.1528C449.375 76.6615 451.918 77.4247 454.462 78.3151C457.133 79.3326 459.932 80.0958 462.857 80.6045C467.945 81.1133 473.16 81.1133 478.247 80.7317L481.046 80.6045H481.427Z" fill="#231F20"/>
<path d="M427.879 28.7091C427.879 28.7091 423.046 43.718 425.971 54.7838C427.497 61.1435 432.585 66.104 438.945 67.2487L439.581 87.0909C439.581 87.0909 439.835 97.2664 452.173 95.3585C459.55 94.2137 465.655 89.3804 468.581 82.512L468.962 45.8802C468.962 45.8802 454.59 38.1214 455.48 25.0205C455.353 25.0205 438.818 33.6697 427.879 28.7091Z" fill="white"/>
<path d="M449.12 96.5039C446.576 96.6311 444.032 95.8679 441.997 94.2144C439.962 92.4337 438.69 89.8898 438.563 87.0916L438.054 67.8854C431.567 66.359 426.607 61.3985 425.08 54.9116C422.155 43.5914 426.861 28.9641 427.115 28.3282C427.243 28.0738 427.37 27.9466 427.624 27.8194C427.879 27.6922 428.133 27.6922 428.387 27.8194C438.817 32.5256 454.971 24.258 455.098 24.258C455.352 24.1308 455.734 24.1308 455.988 24.258C456.243 24.3852 456.37 24.7668 456.37 25.0211C455.607 37.4861 469.217 44.9905 469.471 45.1177C469.725 45.2449 469.98 45.6265 469.98 45.8809L469.598 82.5126C469.598 82.6398 469.598 82.767 469.598 82.767C466.673 89.8898 460.186 94.9776 452.554 96.1223C451.282 96.3767 450.265 96.5039 449.12 96.5039ZM428.515 29.8545C427.497 33.2887 424.444 45.3721 426.861 54.53C428.26 60.6353 433.094 65.2143 439.199 66.359C439.58 66.359 439.962 66.7406 439.962 67.2494L440.598 87.0916C440.725 89.2538 441.743 91.4161 443.396 92.8153C445.431 94.4688 448.357 95.1047 452.173 94.4688C459.168 93.324 465.019 88.7451 467.817 82.3854L468.199 46.3896C465.782 44.9905 454.844 37.8677 454.716 26.4203C450.392 28.4554 437.8 33.5431 428.515 29.8545Z" fill="#231F20"/>
<path d="M461.967 43.5909C461.967 43.5909 467.69 29.5996 474.941 38.1216C482.191 46.6435 472.269 56.4375 466.164 55.8015" fill="white"/>
<path d="M466.673 56.6924C466.418 56.6924 466.164 56.6924 466.037 56.6924C465.528 56.5652 465.274 56.1836 465.274 55.6748C465.401 55.166 465.782 54.9117 466.164 54.9117C469.217 55.166 473.414 52.495 475.322 48.8064C477.23 45.4994 476.721 41.4292 474.177 38.6309C472.651 36.8502 471.125 35.9598 469.598 36.2142C466.418 36.723 463.493 41.9379 462.73 43.8458C462.475 44.2274 461.967 44.4818 461.585 44.2274C461.203 43.973 461.076 43.5914 461.203 43.2099C461.331 42.9555 464.51 35.3239 469.471 34.4335C471.633 34.0519 473.668 35.0695 475.704 37.4862C478.756 40.7932 479.265 45.7537 477.103 49.5695C474.813 53.7669 470.361 56.6924 466.673 56.6924Z" fill="#231F20"/>
<path d="M435.892 55.1656C434.874 55.1656 433.984 55.0384 433.094 54.6569C432.712 54.4025 432.331 54.0209 432.203 53.6393C431.567 51.0954 436.401 44.0998 437.8 41.9375C438.054 41.5559 438.69 41.4287 439.072 41.6831C439.453 41.9375 439.581 42.5735 439.326 42.9551C436.146 47.534 433.603 52.2402 433.984 53.1305C435.51 53.7665 438.563 53.1305 439.581 52.8762C440.089 52.749 440.598 53.0033 440.725 53.3849C440.853 53.8937 440.598 54.4025 440.217 54.5297C440.217 54.5297 440.217 54.5297 440.089 54.5297C438.817 54.9113 437.418 55.1656 435.892 55.1656Z" fill="#231F20"/>
<path d="M438.945 67.249C438.945 67.249 449.629 68.2665 455.607 66.4858C455.607 66.4858 449.375 82.385 439.326 82.5122L438.945 67.249Z" fill="#231F20"/>
<path d="M439.326 83.5298C438.818 83.5298 438.436 83.1483 438.436 82.6395L438.054 67.2491C438.054 66.9947 438.182 66.7403 438.309 66.6131C438.436 66.4859 438.69 66.3587 438.945 66.3587C439.072 66.3587 449.502 67.3763 455.353 65.7227C455.734 65.5956 455.989 65.7228 456.243 65.9771C456.498 66.2315 456.497 66.6131 456.37 66.8675C456.243 67.5035 449.883 83.2754 439.326 83.5298ZM439.835 68.2666L440.217 81.7491C447.34 80.8588 452.3 71.7009 454.081 67.8851C449.375 68.521 444.668 68.6482 439.835 68.2666Z" fill="#231F20"/>
<path d="M447.071 40.1405C447.109 38.6657 446.456 37.4528 445.613 37.4313C444.77 37.4098 444.057 38.5879 444.019 40.0627C443.982 41.5374 444.634 42.7503 445.477 42.7718C446.32 42.7933 447.033 41.6152 447.071 40.1405Z" fill="#231F20"/>
<path d="M432.623 39.8865C432.661 38.4118 432.008 37.1988 431.165 37.1774C430.322 37.1559 429.609 38.334 429.571 39.8087C429.534 41.2835 430.186 42.4964 431.029 42.5179C431.872 42.5394 432.585 41.3613 432.623 39.8865Z" fill="#231F20"/>
<path d="M487.533 59.2363C488.296 70.9381 489.313 92.4338 470.743 87.0917C466.8 85.9469 463.493 83.4031 461.585 79.8417C457.897 73.482 467.563 64.3241 472.142 60.1267" fill="white"/>
<path d="M475.958 88.7447C474.05 88.7447 472.269 88.4903 470.361 87.8543C466.291 86.7096 462.73 83.9113 460.567 80.2227C456.879 73.7359 464.892 65.2139 471.252 59.363C471.633 59.1086 472.269 59.2358 472.523 59.6174C472.778 59.8718 472.778 60.3805 472.523 60.6349C469.089 63.8148 458.787 73.2271 462.094 79.3324C464.001 82.6394 467.054 85.0561 470.743 86.2008C475.449 87.4728 479.138 87.2184 481.681 85.0561C487.787 80.0955 486.896 65.9771 486.515 59.1086C486.515 58.5998 486.896 58.2183 487.278 58.2183C487.787 58.2183 488.168 58.5998 488.168 58.9814C488.677 66.613 489.567 80.8587 482.699 86.328C480.918 87.9815 478.502 88.7447 475.958 88.7447Z" fill="#231F20"/>
<path d="M446.958 59.2358C446.958 60.2533 445.432 61.0165 443.396 61.0165C441.361 61.0165 442.252 60.2533 442.252 59.2358C442.252 58.2183 441.489 57.4551 443.396 57.4551C445.304 57.4551 446.958 58.3454 446.958 59.2358Z" fill="#231F20"/>
<path d="M491.348 82.0039C491.348 82.0039 474.94 95.7408 474.813 107.315C474.686 118.89 487.278 173.202 487.278 173.202L521.493 154.123C521.62 154.123 508.138 86.7101 491.348 82.0039Z" fill="#FD6500"/>
<path d="M391.629 166.205C391.501 166.205 391.501 166.205 391.374 166.205C390.865 166.078 390.611 165.569 390.738 165.061L415.287 84.9286C415.414 84.4199 415.922 84.1655 416.304 84.2927C416.686 84.4199 417.067 84.9286 416.94 85.3102V85.4374L392.392 165.569C392.265 165.951 392.01 166.205 391.629 166.205Z" fill="#231F20"/>
<path d="M487.66 170.403C487.278 170.403 486.897 170.149 486.77 169.767C472.905 107.951 473.796 107.188 474.305 106.679C474.686 106.298 475.195 106.425 475.576 106.806C475.831 107.061 475.831 107.442 475.704 107.697C475.577 110.622 483.335 146.109 488.55 169.385C488.677 169.894 488.296 170.403 487.914 170.403H487.66Z" fill="#231F20"/>
<path d="M439.835 169.513L375.984 193.552L347.747 173.201L403.458 156.412L439.835 169.513Z" fill="white"/>
<path d="M375.984 194.443C375.857 194.443 375.602 194.443 375.475 194.315L347.111 173.965C346.857 173.71 346.729 173.456 346.729 173.074C346.729 172.693 346.984 172.438 347.365 172.311L403.203 155.521C403.331 155.521 403.585 155.521 403.712 155.521L440.089 168.622C440.471 168.75 440.725 169.131 440.725 169.386C440.725 169.767 440.471 170.149 440.089 170.276L376.238 194.315C376.238 194.443 376.111 194.443 375.984 194.443ZM349.655 173.583L376.111 192.662L437.291 169.64L403.458 157.429L349.655 173.583Z" fill="#231F20"/>
<path d="M517.55 156.412C517.55 156.412 524.546 192.407 505.213 195.842C485.879 199.276 421.647 186.684 421.647 186.684C421.647 186.684 399.26 190.627 400.787 185.03C402.313 179.434 416.177 176.763 416.177 176.763C416.177 176.763 404.73 171.166 410.326 171.166C415.923 171.166 428.261 173.201 428.261 173.201L487.787 165.315" fill="white"/>
<path d="M496.563 197.368C472.269 197.368 425.589 188.337 421.774 187.701C418.467 188.337 403.712 190.626 400.532 187.319C399.896 186.683 399.769 185.793 399.896 184.903C401.041 180.197 409.309 177.653 413.506 176.508C407.401 173.328 407.782 172.056 407.782 171.547C408.037 170.403 409.563 170.403 410.199 170.403C416.177 170.784 422.282 171.42 428.133 172.438L487.533 164.552C488.041 164.425 488.423 164.806 488.55 165.315C488.677 165.824 488.296 166.205 487.787 166.332L428.261 174.218H428.006C427.879 174.218 415.668 172.311 410.199 172.183H409.945C411.98 173.71 414.142 174.982 416.432 175.999C416.813 176.126 416.94 176.508 416.94 176.889C416.94 177.271 416.559 177.525 416.177 177.653C412.489 178.289 402.567 181.087 401.55 185.284C401.423 185.539 401.55 185.793 401.677 186.047C403.585 188.083 414.778 187.065 421.392 185.92C421.519 185.92 421.646 185.92 421.774 185.92C422.41 186.047 486.134 198.385 505.085 195.078C508.52 194.442 511.572 192.534 513.48 189.609C520.73 179.052 516.787 157.556 516.66 156.666C516.533 156.157 516.914 155.648 517.423 155.648C517.932 155.521 518.441 155.903 518.441 156.411C518.949 158.828 522.511 179.688 515.006 190.754C512.844 194.061 509.41 196.35 505.467 196.986C502.669 197.24 499.616 197.368 496.563 197.368Z" fill="#231F20"/>
<path d="M306.918 93.1964C306.409 93.1964 306.028 92.8149 306.028 92.4333C305.392 86.5824 309.844 79.3324 309.971 78.9508C310.225 78.5692 310.734 78.3148 311.115 78.5692C311.497 78.8236 311.751 79.3323 311.497 79.7139C311.497 79.7139 311.497 79.8411 311.37 79.8411C311.37 79.9683 307.045 86.8368 307.681 92.1789C307.808 92.6877 307.554 93.1964 306.918 93.1964C307.045 93.1964 307.045 93.1964 306.918 93.1964Z" fill="#231F20"/>
<path d="M379.673 186.811C379.545 186.811 379.291 186.811 379.164 186.684L359.322 173.965C358.94 173.71 358.813 173.202 359.067 172.693C359.322 172.311 359.83 172.184 360.339 172.438L380.181 185.158C380.563 185.412 380.69 185.921 380.436 186.43C380.308 186.684 380.054 186.939 379.673 186.811Z" fill="#D1D3D4"/>
<path d="M386.923 183.632C386.795 183.632 386.541 183.632 386.414 183.505L367.589 171.421C367.208 171.167 367.08 170.658 367.335 170.149C367.589 169.768 368.098 169.641 368.607 169.895L387.431 181.978C387.813 182.233 387.94 182.742 387.686 183.25C387.558 183.505 387.177 183.759 386.923 183.632Z" fill="#D1D3D4"/>
<path d="M393.791 181.341C393.664 181.341 393.409 181.341 393.282 181.214L374.203 169.003C373.822 168.749 373.694 168.24 373.949 167.731C374.203 167.35 374.712 167.223 375.221 167.477L394.3 179.688C394.681 179.942 394.808 180.451 394.554 180.96C394.427 181.214 394.045 181.341 393.791 181.341Z" fill="#D1D3D4"/>
<path d="M402.568 178.925C402.44 178.925 402.313 178.925 402.059 178.798L381.581 166.714C381.199 166.46 380.945 165.951 381.199 165.442C381.453 165.061 381.962 164.807 382.344 165.061C382.344 165.061 382.344 165.061 382.471 165.061L402.949 177.144C403.331 177.399 403.585 177.907 403.331 178.416C403.204 178.798 402.949 178.925 402.568 178.925Z" fill="#D1D3D4"/>
<path d="M408.8 176.89C408.673 176.89 408.545 176.89 408.291 176.763L387.813 164.68C387.431 164.425 387.177 163.917 387.431 163.408C387.686 163.026 388.194 162.772 388.576 163.026C388.576 163.026 388.576 163.026 388.703 163.026L409.181 175.11C409.563 175.364 409.817 175.873 409.563 176.382C409.436 176.636 409.181 176.89 408.8 176.89Z" fill="#D1D3D4"/>
</svg>
