<svg width="350" height="350" viewBox="0 0 350 350" fill="none" xmlns="http://www.w3.org/2000/svg">
<path d="M323.33 235.76H26.4602V298.34H323.33V235.76Z" fill="white"/>
<path d="M323.33 298.83H26.4601C26.1801 298.83 25.9701 298.62 25.9001 298.27V235.69C25.9001 235.41 26.1101 235.2 26.4601 235.13H323.33C323.61 235.13 323.82 235.34 323.89 235.69V298.27C323.82 298.62 323.61 298.83 323.33 298.83ZM26.9501 297.78H322.77V236.25H26.9501V297.78Z" fill="#D1D3D4"/>
<path d="M24.6401 235.76H325.08C326.62 235.76 327.88 237.02 327.88 238.56V243.11C327.88 244.65 326.62 245.91 325.08 245.91H24.6401C23.1001 245.91 21.8401 244.65 21.8401 243.11V238.56C21.9101 237.02 23.1701 235.76 24.6401 235.76Z" fill="white"/>
<path d="M325.08 246.4H24.6401C22.8201 246.4 21.3501 244.93 21.3501 243.11V238.56C21.3501 236.74 22.8201 235.27 24.6401 235.27H325.08C326.9 235.27 328.37 236.74 328.37 238.56V243.11C328.37 244.93 326.9 246.4 325.08 246.4ZM24.6401 236.32C23.3801 236.32 22.4001 237.3 22.4001 238.56V243.11C22.4001 244.37 23.3801 245.35 24.6401 245.35H325.08C326.34 245.35 327.32 244.37 327.32 243.11V238.56C327.32 237.3 326.34 236.32 325.08 236.32H24.6401Z" fill="#D1D3D4"/>
<path d="M140.14 219.66H47.1802V235.2H140.14V219.66Z" fill="#231F20"/>
<path d="M140.14 235.76H47.1801C46.9001 235.76 46.6201 235.55 46.6201 235.2V219.66C46.6201 219.38 46.8301 219.1 47.1801 219.1H140.14C140.42 219.1 140.7 219.31 140.7 219.66V235.2C140.63 235.48 140.42 235.76 140.14 235.76ZM47.7401 234.71H139.65V220.22H47.6701L47.7401 234.71Z" fill="#231F20"/>
<path d="M140.14 219.66H89.4602V235.2H140.14V219.66Z" fill="white"/>
<path d="M140.14 235.76H89.4601C89.1801 235.76 88.9001 235.55 88.9001 235.27C88.9001 235.27 88.9001 235.27 88.9001 235.2V219.66C88.9001 219.38 89.1101 219.17 89.4601 219.1H140.14C140.42 219.1 140.7 219.31 140.7 219.66V235.2C140.63 235.48 140.42 235.76 140.14 235.76ZM89.9501 234.71H139.58V220.22H89.9501V234.71Z" fill="#231F20"/>
<path d="M138.81 208.46H63.4902V220.01H138.81V208.46Z" fill="#231F20"/>
<path d="M138.81 220.5H63.4902C63.2102 220.5 62.9302 220.29 62.9302 219.94V208.39C62.9302 208.11 63.1402 207.83 63.4902 207.83H138.74C139.02 207.83 139.3 208.04 139.3 208.39V219.94C139.3 220.22 139.09 220.5 138.81 220.5ZM64.0502 219.45H138.32V208.95H64.1202L64.0502 219.45Z" fill="#231F20"/>
<path d="M138.81 208.46H106.68V220.01H138.81V208.46Z" fill="white"/>
<path d="M138.81 220.5H106.68C106.4 220.5 106.19 220.29 106.12 220.01V208.46C106.12 208.18 106.33 207.97 106.61 207.9H138.74C139.02 207.9 139.3 208.11 139.3 208.46V220.01C139.3 220.22 139.09 220.5 138.81 220.5ZM107.17 219.45H138.25V208.95H107.17V219.45Z" fill="#231F20"/>
<path d="M128.1 197.26H52.8501V208.81H128.1V197.26Z" fill="#231F20"/>
<path d="M128.17 209.3H52.85C52.57 209.3 52.29 209.09 52.29 208.74V197.19C52.29 196.91 52.5 196.7 52.78 196.63H128.03C128.31 196.63 128.59 196.84 128.59 197.19V208.74C128.66 209.02 128.45 209.3 128.17 209.3ZM53.41 208.25H127.68V197.75H53.48L53.41 208.25Z" fill="#231F20"/>
<path d="M128.17 197.26H96.04V208.81H128.17V197.26Z" fill="white"/>
<path d="M128.17 209.3H96.0402C95.7602 209.3 95.5502 209.09 95.4802 208.74V197.19C95.4802 196.91 95.6902 196.63 96.0402 196.63H128.17C128.45 196.63 128.73 196.84 128.73 197.19V208.74C128.66 209.02 128.45 209.3 128.17 209.3ZM96.5302 208.25H127.61V197.75H96.5302V208.25Z" fill="#231F20"/>
<path d="M92.7057 203.268C92.8016 201.918 91.7852 200.746 90.4355 200.65C89.0858 200.554 87.9139 201.571 87.818 202.92C87.722 204.27 88.7384 205.442 90.0882 205.538C91.4379 205.634 92.6098 204.617 92.7057 203.268Z" fill="white"/>
<path d="M90.3001 206.08C88.6901 206.08 87.3601 204.75 87.3601 203.14C87.3601 201.53 88.6901 200.2 90.3001 200.2C91.9101 200.2 93.2401 201.53 93.2401 203.14C93.2401 204.75 91.9101 206.08 90.3001 206.08ZM90.3001 201.18C89.2501 201.18 88.4101 202.02 88.4101 203.07C88.4101 204.12 89.2501 204.96 90.3001 204.96C91.3501 204.96 92.1901 204.12 92.1901 203.07C92.1901 202.09 91.3501 201.18 90.3001 201.18Z" fill="#231F20"/>
<path d="M70.84 218.54C70.56 218.54 70.35 218.33 70.28 218.05V210.28C70.28 210 70.49 209.72 70.84 209.72C71.19 209.72 71.4 209.93 71.4 210.28V218.05C71.4 218.26 71.12 218.54 70.84 218.54Z" fill="#D1D3D4"/>
<path d="M80.9201 233.94C80.6401 233.94 80.3601 233.73 80.3601 233.38V221.2C80.3601 220.92 80.5701 220.64 80.9201 220.64C81.2701 220.64 81.4801 220.85 81.4801 221.2V233.38C81.4801 233.66 81.2001 233.94 80.9201 233.94Z" fill="#D1D3D4"/>
<path d="M95.1301 61.32L99.1901 58.17L116.27 65.3101L150.99 53.55L154.14 58.3101L117.81 79.17L95.1301 61.32Z" fill="#D1D3D4"/>
<path d="M107.87 117.18L93.8 59.7801L116.13 69.4401L156.52 54.8101L166.88 112.77L129.71 125.58L107.87 117.18Z" fill="white"/>
<path d="M129.71 126.07C129.64 126.07 129.57 126.07 129.5 126L107.66 117.6C107.52 117.53 107.38 117.39 107.31 117.25L93.3101 59.8501C93.2401 59.5701 93.3801 59.2901 93.6601 59.2201C93.8001 59.2201 93.8701 59.2201 94.0101 59.2201L116.2 68.8801L156.31 54.3201C156.59 54.2501 156.87 54.3901 157.01 54.6701V54.7401L167.37 112.7C167.44 112.98 167.23 113.19 167.02 113.26L129.85 126.07C129.85 126.14 129.78 126.14 129.71 126.07ZM108.29 116.83L129.71 125.02L166.25 112.42L156.1 55.5101L116.34 69.9301C116.2 70.0001 116.06 70.0001 115.92 69.9301L94.5701 60.7601L108.29 116.83Z" fill="#231F20"/>
<path d="M126.49 123.06C126.21 123.06 126 122.85 126 122.64L115.71 69.51C115.64 69.23 115.85 68.95 116.13 68.88C116.41 68.81 116.69 69.02 116.76 69.3L127.05 122.43C127.12 122.71 126.91 122.99 126.63 123.06H126.49Z" fill="#231F20"/>
<path d="M141.33 135.87C141.33 135.87 137.2 129.43 137.83 127.75C138.32 126.07 138.6 124.32 138.81 122.64L134.47 123.69C134.47 123.69 129.99 112.42 129.5 108.5C129.01 104.58 120.61 108.22 120.33 111.23C120.05 114.24 119.91 122.08 122.29 126.56C124.67 131.04 131.46 141.89 131.46 141.89" fill="white"/>
<path d="M131.39 142.38C131.18 142.38 131.04 142.31 130.97 142.1C130.9 142.03 124.18 131.18 121.8 126.7C119.42 122.22 119.42 114.52 119.77 111.09C120.05 108.71 124.25 106.26 127.19 106.19C128.8 106.19 129.85 106.96 130.06 108.36C130.48 111.72 133.98 120.89 134.82 122.99L138.74 122.08C138.88 122.01 139.09 122.08 139.23 122.22C139.37 122.36 139.44 122.5 139.37 122.64C139.23 124.39 138.88 126.21 138.39 127.89C138.11 128.8 139.86 132.44 141.82 135.52C141.96 135.73 141.89 136.08 141.68 136.22C141.47 136.36 141.12 136.29 140.98 136.08C140.28 134.96 136.78 129.36 137.41 127.54C137.83 126.14 138.11 124.74 138.25 123.27L134.61 124.11C134.33 124.18 134.12 124.04 133.98 123.83C133.77 123.34 129.43 112.42 129.01 108.5C128.94 108.22 128.87 107.24 127.19 107.24C124.67 107.24 121.03 109.48 120.82 111.16C120.47 114.52 120.47 121.94 122.71 126.21C125.09 130.69 131.81 141.4 131.88 141.54C132.02 141.75 131.95 142.1 131.74 142.24C131.6 142.31 131.53 142.38 131.39 142.38Z" fill="#231F20"/>
<path d="M269.71 142.1C269.64 142.1 269.57 142.1 269.5 142.1C269.22 141.96 269.08 141.68 269.22 141.4C273.56 130.48 270.9 116.83 262.78 108.29C262.36 107.87 261.94 107.45 261.52 106.96C258.79 104.16 255.64 101.01 255.85 96.88C255.92 96.04 256.06 95.2 256.27 94.36C256.41 93.73 256.55 93.1 256.62 92.47C256.97 88.48 253.61 85.12 250.74 83.02C250.04 82.53 249.34 82.04 248.64 81.48L248.57 81.41C245.7 79.45 242.76 77.42 240.94 74.34C238.84 70.7 238.49 66.57 238.21 62.58C237.93 59.08 237.72 55.51 236.18 52.36C230.93 41.37 217.77 36.68 206.78 41.93C205.31 42.63 203.98 43.47 202.72 44.45C200.06 46.48 197.96 49.14 196.7 52.22C195.3 55.65 194.95 59.5 194.81 63.21C194.39 71.19 193.69 78.96 189.21 85.54C187.81 87.43 186.34 89.25 184.73 91C181.79 94.29 178.99 97.3 178.15 101.29C177.31 105.56 178.85 109.9 182.28 112.56C182.49 112.77 182.49 113.12 182.35 113.33C182.21 113.54 181.86 113.54 181.65 113.4C177.94 110.46 176.19 105.7 177.17 101.08C178.08 96.88 180.95 93.66 183.96 90.3C185.57 88.62 187.04 86.87 188.37 84.98C192.64 78.61 193.41 71.05 193.76 63.21C193.97 59.43 194.25 55.44 195.72 51.87C197.12 48.65 199.29 45.85 202.09 43.68C212.17 35.84 226.66 37.59 234.5 47.6C235.55 48.93 236.39 50.33 237.16 51.87C238.77 55.16 239.05 58.87 239.26 62.44C239.54 66.29 239.82 70.28 241.85 73.71C243.53 76.58 246.4 78.54 249.13 80.43L249.2 80.5C249.9 80.99 250.67 81.48 251.37 82.04C254.45 84.35 258.09 87.99 257.67 92.47C257.6 93.17 257.46 93.8 257.32 94.5C257.11 95.27 256.97 96.04 256.9 96.88C256.76 100.59 259.7 103.53 262.29 106.19C262.71 106.61 263.2 107.1 263.62 107.52C272.02 116.34 274.75 130.41 270.27 141.75C270.06 141.96 269.92 142.1 269.71 142.1Z" fill="#231F20"/>
<path d="M187.6 109.34L165.76 157.29L144.48 133.49L126.7 141.89C126.7 141.89 165.9 201.04 176.68 195.65C187.46 190.26 202.93 142.52 202.93 142.52L187.6 109.34Z" fill="#FD6500"/>
<path d="M215.88 96.0399C215.88 96.0399 192.15 98.6299 186.62 110.11C181.09 121.59 182.28 174.79 182.28 174.79L269.78 184.17C269.78 184.17 267.54 140.42 263.41 121.03C259.28 101.64 246.68 88.7599 215.88 96.0399Z" fill="#FD6500"/>
<path d="M208.88 101.85L217.7 149.24L229.88 97.3L208.88 101.85Z" fill="#231F20"/>
<path d="M217.7 149.8C217.42 149.8 217.21 149.59 217.21 149.38L208.39 101.92C208.32 101.64 208.53 101.36 208.81 101.29L229.81 96.74C230.02 96.74 230.16 96.74 230.3 96.88C230.44 97.02 230.51 97.16 230.44 97.37L218.26 149.38C218.19 149.66 217.98 149.8 217.7 149.8ZM209.51 102.2L217.77 146.72L229.18 98L209.51 102.2Z" fill="#231F20"/>
<path d="M208.95 87.9899L208.88 101.85C208.88 101.85 210.28 109.55 218.68 107.24C223.72 105.77 227.85 102.13 229.88 97.2999L228.9 73.3599C228.83 72.3799 224.77 68.5299 224.91 59.7099C218.89 59.6399 213.22 57.1199 209.23 52.6399C209.23 52.6399 205.73 57.8899 204.19 59.5699C203 60.8299 201.88 62.2299 201.04 63.7699C199.64 66.4299 199.64 69.7899 199.71 72.7299C199.71 76.2299 200.06 79.7299 200.76 83.1599C202.16 89.5999 208.95 87.9899 208.95 87.9899Z" fill="white"/>
<path d="M215.67 108.15C214.27 108.15 212.94 107.8 211.82 107.1C210.07 105.91 208.81 104.02 208.32 101.92V101.85L208.39 88.62C206.57 88.9 204.68 88.55 203.07 87.64C201.53 86.59 200.55 84.98 200.27 83.23C199.57 79.8 199.22 76.23 199.22 72.73C199.15 69.86 199.08 66.36 200.55 63.56C201.46 62.02 202.51 60.55 203.77 59.29C205.24 57.68 208.74 52.43 208.74 52.43C208.81 52.29 209.02 52.22 209.16 52.22C209.3 52.22 209.51 52.29 209.58 52.43C213.5 56.77 219.03 59.22 224.91 59.29C225.05 59.29 225.19 59.36 225.26 59.43C225.33 59.5 225.4 59.64 225.4 59.78C225.26 64.05 226.38 68.25 228.62 71.89C228.97 72.31 229.18 72.87 229.32 73.43C229.32 73.57 230.3 97.37 230.3 97.37C230.3 97.44 230.3 97.51 230.3 97.58C228.2 102.55 224 106.33 218.75 107.8C217.84 108.01 216.79 108.15 215.67 108.15ZM209.37 101.78C209.79 103.6 210.84 105.21 212.38 106.26C213.99 107.24 216.02 107.38 218.54 106.75C223.37 105.35 227.29 101.85 229.32 97.23C228.34 73.36 228.34 73.36 228.34 73.36C228.2 73.01 227.99 72.66 227.78 72.38C225.47 68.74 224.28 64.54 224.35 60.27C218.61 60.06 213.22 57.68 209.23 53.55C207.76 55.79 206.22 57.89 204.54 59.99C203.35 61.18 202.3 62.58 201.46 64.05C200.06 66.64 200.13 69.86 200.2 72.73C200.2 76.16 200.55 79.66 201.25 83.02C201.46 84.56 202.37 85.89 203.63 86.8C205.87 88.2 208.74 87.57 208.81 87.57C208.95 87.5 209.16 87.57 209.23 87.64C209.37 87.71 209.44 87.92 209.44 88.06L209.37 101.78Z" fill="#231F20"/>
<path d="M209.02 94.78C209.02 94.78 214.62 95.06 218.26 91.28C221.9 87.5 221.34 83.79 221.34 83.79C221.34 83.79 215.25 87.85 208.95 87.99L209.02 94.78Z" fill="#231F20"/>
<path d="M209.3 95.2701H209.02C208.74 95.2701 208.53 95.0601 208.53 94.7801L208.46 87.9901C208.46 87.7101 208.67 87.5001 208.95 87.4301C215.04 87.2901 220.99 83.3701 221.06 83.3001C221.27 83.1601 221.62 83.2301 221.76 83.4401C221.83 83.5101 221.83 83.5801 221.83 83.6501C221.83 83.7901 222.39 87.7101 218.61 91.6301C215.32 95.0601 210.49 95.2701 209.3 95.2701ZM209.51 88.4801L209.58 94.2201C210.98 94.1501 215.11 93.8001 217.91 90.8601C219.59 89.1801 220.64 87.0101 220.85 84.6301C219.03 85.8201 214.41 88.2001 209.51 88.4801Z" fill="#231F20"/>
<path d="M210.49 67.6899C210.49 67.6899 206.01 74.3399 207.13 75.4599C208.25 76.5799 211.12 75.8799 211.12 75.8799" fill="white"/>
<path d="M209.16 76.6501C208.25 76.7201 207.41 76.4401 206.71 75.8101C206.22 75.2501 206.01 73.4301 210.07 67.3401C210.21 67.0601 210.49 66.9901 210.77 67.1301C211.05 67.2701 211.12 67.5501 210.98 67.8301L210.91 67.9001C208.74 71.1901 207.13 74.4801 207.48 75.0401C208.18 75.8101 210.28 75.4601 210.98 75.2501C211.26 75.1801 211.54 75.3201 211.61 75.6001C211.68 75.8801 211.54 76.1601 211.26 76.2301C210.56 76.5101 209.86 76.6501 209.16 76.6501Z" fill="#231F20"/>
<path d="M205.8 79.1699C205.8 79.1699 209.79 85.0499 216.79 79.3799Z" fill="white"/>
<path d="M210.91 82.3901C210.56 82.3901 210.28 82.3901 209.93 82.3201C208.04 82.0401 206.43 80.9901 205.31 79.4501C205.17 79.2401 205.24 78.8901 205.45 78.7501C205.66 78.6101 206.01 78.6801 206.15 78.8901C207.13 80.1501 208.53 80.9901 210.07 81.2701C212.03 81.5501 214.13 80.7801 216.37 78.9601C216.58 78.7501 216.93 78.8201 217.07 79.0301C217.28 79.2401 217.21 79.5901 217 79.8001C214.97 81.5501 212.94 82.3901 210.91 82.3901Z" fill="#231F20"/>
<path d="M192.57 174.23C192.22 174.23 192.01 173.95 192.01 173.67L195.3 118.79C195.3 118.51 195.58 118.3 195.86 118.3C196.14 118.3 196.35 118.58 196.35 118.86L193.06 173.74C193.06 173.95 192.85 174.16 192.57 174.23Z" fill="#231F20"/>
<path d="M201.11 243.32C178.29 243.32 156.8 241.29 156.59 241.29L155.82 241.22L146.65 213.01V212.87C146.09 207.76 145.6 202.86 148.61 199.22C151.27 195.93 156.59 194.04 165.13 193.2L190.82 187.95L191.59 172.27L256.41 179.48L256.62 180.18C259.07 187.53 260.82 195.02 261.8 202.72C263.62 217.77 261.24 228.34 254.8 234.15C248.08 240.24 230.02 243.32 201.11 243.32Z" fill="#231F20"/>
<path d="M170.17 215.46C170.17 215.46 165.97 195.16 150.64 199.71C135.31 204.26 169.4 279.86 169.4 284.83C169.4 289.8 156.38 304.78 156.38 304.78C160.09 304.57 163.8 304.22 167.51 303.66C171.57 302.89 182.63 286.79 183.05 285.04C183.47 283.29 175.35 230.02 170.17 215.46Z" fill="white"/>
<path d="M156.38 305.34C156.17 305.34 156.03 305.2 155.89 305.06C155.82 304.85 155.82 304.64 155.96 304.5C160.44 299.39 168.84 288.68 168.84 284.9C168.84 283.78 166.6 277.9 163.8 270.41C155.68 248.78 142.03 212.59 147.21 202.09C147.84 200.76 148.96 199.71 150.36 199.29C154.35 198.1 157.99 198.45 161.14 200.34C168.14 204.47 170.38 214.62 170.59 215.39C175.56 229.46 183.96 283.01 183.47 285.25C183.12 286.86 171.92 303.45 167.51 304.22C163.87 304.78 160.16 305.13 156.38 305.34ZM154.98 199.57C153.58 199.57 152.11 199.78 150.78 200.2C149.66 200.55 148.75 201.39 148.26 202.51C143.22 212.66 157.29 249.97 164.85 269.99C168.21 278.88 169.96 283.57 169.96 284.83C169.96 289.24 160.51 300.79 157.57 304.15C160.86 303.94 164.15 303.59 167.37 303.1C171.08 302.4 182.14 286.51 182.49 284.9C182.7 283.43 174.93 230.37 169.68 215.6C169.68 215.53 167.44 205.17 160.72 201.18C158.97 200.13 157.01 199.57 154.98 199.57Z" fill="#231F20"/>
<path d="M162.47 313.81C161.91 313.81 161.35 313.81 160.79 313.81C156.52 313.6 151.41 312.48 149.8 309.89C149.17 308.91 149.1 307.72 149.59 306.67C151.27 302.75 155.4 302.4 155.54 302.4C155.68 302.4 163.94 301.91 167.51 301.14C169.54 300.72 176.54 292.32 182.07 284.41L183.4 282.52L184.1 284.76C185.64 290.08 186.83 295.4 187.67 300.86C189.28 310.73 188.79 311.01 188.02 311.36C187.53 311.57 186.55 311.71 182.84 311.99L181.51 312.06H181.37C180.04 312.06 179.41 310.87 179.13 309.54C178.08 310.52 176.89 311.29 175.56 311.85C173.18 312.83 167.51 313.81 162.47 313.81Z" fill="#231F20"/>
<path d="M205.45 285.11C205.45 285.11 198.8 219.38 195.72 207.13C192.64 194.88 175 191.03 169.61 205.87C164.22 220.71 190.82 279.02 188.79 285.11C186.76 291.2 179.06 303.24 179.06 303.24C179.06 303.24 187.25 307.3 193.13 303.24C199.01 299.18 205.45 285.11 205.45 285.11Z" fill="white"/>
<path d="M186.9 305.62C184.1 305.55 181.37 304.92 178.85 303.73C178.71 303.66 178.64 303.52 178.57 303.38C178.5 303.24 178.57 303.1 178.64 302.96C178.71 302.82 186.27 290.92 188.3 284.9C189 282.73 185.29 271.81 181.3 260.26C174.37 240.03 165.76 214.9 169.12 205.59C171.5 199.08 176.54 195.37 182.7 195.65C189.21 196.07 194.67 200.62 196.21 206.92C199.29 219.1 205.87 284.34 205.94 284.97C205.94 285.04 205.94 285.18 205.87 285.25C205.59 285.81 199.36 299.53 193.41 303.59C191.52 304.99 189.21 305.69 186.9 305.62ZM179.9 303.03C181.79 303.8 188.16 306.11 192.92 302.82C198.31 299.04 204.33 286.44 204.96 284.97C204.61 281.54 198.24 219.03 195.3 207.2C193.83 201.32 188.79 197.12 182.77 196.7C177.1 196.42 172.41 199.85 170.24 205.94C167.02 214.9 175.91 240.87 182.42 259.91C187.39 274.47 190.19 282.8 189.42 285.25C187.53 290.78 181.37 300.65 179.9 303.03Z" fill="#231F20"/>
<path d="M179.83 315.35C173.6 315.35 171.85 314.65 171.08 314.16C170.31 313.67 169.26 312.83 169.12 311.64C168.98 310.24 169.89 309.19 171.08 308C171.36 307.65 171.71 307.3 171.99 306.95C174.23 304.29 178.5 302.33 178.64 302.26L179.06 302.05L179.55 302.26C180.67 302.61 181.79 302.75 182.98 302.68C185.78 302.61 188.51 302.05 191.1 301.07C198.38 298.41 204.4 284.83 204.4 284.69L205.87 281.33L206.64 284.9C208.53 294 209.16 303.31 208.6 312.62L208.53 313.46L207.69 313.67C206.08 314.09 204.4 314.3 202.72 314.51C202.51 314.51 202.37 314.51 202.16 314.44C201.53 314.3 200.83 314.09 200.69 309.82C199.15 311.64 197.12 313.74 195.51 314.23C193.69 314.72 185.99 315.35 179.83 315.35Z" fill="#231F20"/>
<path d="M259 208.53C259.77 209.72 262.36 234.85 262.36 234.85C262.36 234.85 290.85 237.44 291.27 235.41C291.69 233.38 276.71 228.34 276.71 228.34L272.02 208.39" fill="white"/>
<path d="M285.53 236.74C283.43 236.74 280.49 236.67 276.64 236.46C269.57 236.04 262.36 235.41 262.29 235.41C262.01 235.41 261.87 235.2 261.8 234.92C260.82 225.4 259.07 209.93 258.51 208.81C258.37 208.6 258.44 208.25 258.65 208.11C258.86 207.97 259.21 208.04 259.35 208.25C260.12 209.44 262.08 227.99 262.78 234.36C275.45 235.48 289.03 236.11 290.64 235.27C290.22 234.36 284.83 231.7 276.5 228.9C276.36 228.83 276.22 228.69 276.15 228.55L271.46 208.6C271.39 208.32 271.6 208.04 271.88 207.97C272.16 207.9 272.44 208.11 272.51 208.39L277.13 228.06C282.87 230.02 292.18 233.52 291.76 235.62C291.69 236.04 291.55 236.74 285.53 236.74Z" fill="#231F20"/>
<path d="M262.64 119.63L282.1 214.34L255.29 215.04C255.29 215.04 245.98 164.85 245.42 157.29C244.86 149.73 262.64 119.63 262.64 119.63Z" fill="#FD6500"/>
<path d="M203.21 72.4499C206.535 72.4499 209.23 69.7547 209.23 66.4299C209.23 63.1052 206.535 60.4099 203.21 60.4099C199.885 60.4099 197.19 63.1052 197.19 66.4299C197.19 69.7547 199.885 72.4499 203.21 72.4499Z" fill="white"/>
<path d="M203.21 73.0099H202.93C199.29 72.8699 196.49 69.7899 196.63 66.1499C196.7 62.5099 199.71 59.6399 203.28 59.6399C206.92 59.7099 209.79 62.7199 209.79 66.2899C209.79 66.4299 209.79 66.4999 209.79 66.6399C209.65 70.2099 206.71 73.0099 203.21 73.0099ZM203.21 60.8999C200.13 60.8999 197.68 63.3499 197.68 66.4299C197.68 69.5099 200.13 71.9599 203.21 71.9599C206.15 71.9599 208.6 69.5799 208.74 66.6399C208.88 63.5599 206.5 61.0399 203.42 60.8999H203.21Z" fill="#231F20"/>
<path d="M216.51 61.3899C213.43 61.3899 210.98 63.8399 210.98 66.9199C210.98 69.9999 213.43 72.4499 216.51 72.4499C219.45 72.4499 221.9 70.0699 222.04 67.1299C222.18 64.0499 219.8 61.5299 216.72 61.3899H216.51Z" fill="white"/>
<path d="M216.58 73.0101H216.3C212.8 72.9401 210 70.0701 210.07 66.5001C210.14 63.0001 213.01 60.2001 216.58 60.2701C220.08 60.3401 222.88 63.2101 222.81 66.7801C222.74 70.2101 219.94 72.9401 216.58 73.0101ZM216.58 61.9501C213.78 62.0201 211.54 64.3301 211.61 67.1301C211.68 69.9301 213.99 72.1701 216.79 72.1001C219.59 72.0301 221.83 69.7201 221.76 66.9201C221.69 64.1901 219.52 62.0201 216.79 61.9501H216.58Z" fill="#231F20"/>
<path d="M173.46 166.95C173.32 166.95 173.18 166.88 173.04 166.74L147.21 136.92C147 136.71 147.07 136.36 147.28 136.15C147.49 135.94 147.84 136.01 148.05 136.22L173.95 166.04C174.16 166.25 174.09 166.6 173.88 166.74C173.74 166.95 173.6 166.95 173.46 166.95Z" fill="#231F20"/>
<path d="M125.93 78.61L150.43 69.23L152.67 80.5L127.96 88.41L125.93 78.61Z" fill="#D1D3D4"/>
<path d="M203.704 65.8161C203.734 65.0435 203.414 64.4037 202.989 64.387C202.564 64.3703 202.195 64.9831 202.165 65.7557C202.134 66.5282 202.454 67.1681 202.879 67.1848C203.304 67.2015 203.673 66.5887 203.704 65.8161Z" fill="#231F20"/>
<path d="M217.401 66.5637C217.431 65.7911 217.111 65.1513 216.686 65.1346C216.262 65.1179 215.892 65.7306 215.862 66.5032C215.832 67.2758 216.152 67.9156 216.577 67.9323C217.001 67.949 217.371 67.3363 217.401 66.5637Z" fill="#231F20"/>
<path d="M222.53 67.2701C223.79 67.2001 234.78 66.5001 235.13 71.2601Z" fill="#231F20"/>
<path d="M235.2 71.8199C234.92 71.8199 234.71 71.6099 234.64 71.3299C234.29 66.9899 223.02 67.7599 222.6 67.7599C222.32 67.8299 222.04 67.6199 221.97 67.3399C221.9 67.0599 222.11 66.7799 222.39 66.7099H222.46C224.56 66.5699 235.2 66.0099 235.69 71.1899C235.76 71.5399 235.55 71.7499 235.2 71.8199Z" fill="#231F20"/>
<path d="M224 72.0999C224.21 71.0499 224.77 70.1399 225.54 69.4399C226.31 68.8099 227.15 68.3899 228.06 68.0399C228.55 67.8299 229.04 67.6899 229.6 67.6899C229.95 67.7599 230.37 67.8299 230.65 68.0399C231.49 68.3899 232.12 69.0199 232.47 69.8599C232.68 70.5599 232.75 71.2599 232.61 71.9599C232.54 72.7299 232.4 73.4999 232.12 74.1999C231 77.2099 227.57 78.7499 224.56 77.5599C224.56 77.5599 224.49 77.5599 224.49 77.4899" fill="white"/>
<path d="M226.73 78.54C225.89 78.54 225.12 78.4 224.35 78.05C224.07 77.98 223.93 77.63 224 77.35C224.07 77.07 224.42 76.93 224.7 77C224.7 77 224.7 77 224.77 77C227.5 78.12 230.58 76.79 231.7 74.06V73.99C231.98 73.29 232.12 72.59 232.19 71.89C232.26 71.26 232.26 70.63 232.05 70C231.7 69.3 231.14 68.74 230.44 68.46C230.16 68.32 229.88 68.18 229.6 68.18C229.11 68.18 228.69 68.32 228.27 68.46C227.43 68.74 226.59 69.23 225.89 69.79C225.19 70.42 224.7 71.26 224.49 72.17C224.42 72.45 224.14 72.66 223.86 72.59C223.58 72.52 223.37 72.24 223.44 71.96C223.65 70.84 224.28 69.79 225.19 69.02C226.03 68.39 226.94 67.9 227.92 67.55C228.48 67.27 229.11 67.13 229.67 67.2C230.09 67.27 230.51 67.41 230.93 67.62C231.84 68.04 232.61 68.81 233.03 69.72C233.31 70.49 233.38 71.26 233.24 72.1C233.17 72.94 233.03 73.71 232.68 74.48C232.05 76.09 230.86 77.35 229.25 78.05C228.48 78.4 227.64 78.61 226.73 78.54Z" fill="#231F20"/>
<path d="M254.87 213.29C254.59 213.29 254.38 213.08 254.38 212.87L238.56 116.48C238.49 116.2 238.7 115.92 238.98 115.85C239.26 115.78 239.54 115.99 239.61 116.27L255.36 212.66C255.43 212.94 255.22 213.22 254.94 213.29H254.87Z" fill="#231F20"/>
<path d="M207.48 189.63C207.41 189.63 207.34 189.63 207.27 189.56C201.04 186.76 192.36 188.79 191.94 188.93C191.66 189 191.38 188.79 191.31 188.51C191.24 188.23 191.45 187.95 191.73 187.88C192.08 187.81 201.11 185.64 207.69 188.58C207.97 188.72 208.04 189 207.97 189.28C207.83 189.49 207.69 189.63 207.48 189.63Z" fill="white"/>
<path d="M240.8 171.36C240.73 171.36 240.59 171.36 240.52 171.29L227.43 163.66C227.15 163.52 227.08 163.17 227.22 162.96C227.36 162.68 227.71 162.61 227.92 162.75L241.01 170.38C241.29 170.52 241.36 170.87 241.22 171.08C241.15 171.29 241.01 171.36 240.8 171.36Z" fill="#231F20"/>
<path d="M198.24 166.81C197.96 166.81 197.68 166.6 197.68 166.32C197.68 166.18 197.75 165.97 197.89 165.9L205.73 159.6C205.94 159.39 206.29 159.46 206.5 159.67C206.71 159.88 206.64 160.23 206.43 160.44L198.59 166.74C198.52 166.74 198.38 166.81 198.24 166.81Z" fill="#231F20"/>
<path d="M102.48 273.91C105 271.67 107.8 269.85 110.81 268.45C111.09 277.34 107.45 285.6 104.09 291.2H93.24" fill="white"/>
<path d="M104.09 291.69H93.2399C92.9599 291.69 92.6799 291.48 92.6799 291.13C92.6799 290.78 92.8899 290.57 93.2399 290.57H103.81C106.82 285.39 110.32 277.62 110.32 269.15C107.59 270.48 105.07 272.16 102.83 274.19C102.62 274.4 102.27 274.33 102.06 274.12C101.85 273.91 101.92 273.56 102.13 273.35C104.65 271.11 107.52 269.22 110.6 267.82C110.88 267.75 111.16 267.82 111.3 268.1C111.3 268.17 111.3 268.24 111.3 268.24C111.58 277.41 107.73 285.81 104.51 291.27C104.44 291.62 104.3 291.69 104.09 291.69Z" fill="#231F20"/>
<path d="M86.9399 276.29C89.5999 262.36 100.52 253.61 100.52 253.61C102.55 260.19 103.25 267.05 102.48 273.91C101.92 279.79 100.66 285.6 98.6999 291.2H87.0099" fill="white"/>
<path d="M98.7001 291.69H87.0101C86.7301 291.69 86.4501 291.48 86.4501 291.13C86.4501 290.78 86.6601 290.57 87.0101 290.57H98.3501C100.17 285.11 101.43 279.51 101.99 273.77C102.69 267.26 102.06 260.68 100.24 254.45C97.9301 256.48 89.6701 264.6 87.4301 276.36C87.4301 276.64 87.1501 276.85 86.8701 276.85C86.5901 276.85 86.3801 276.57 86.3801 276.29V276.22C89.0401 262.22 100.03 253.26 100.17 253.19C100.31 253.05 100.45 253.05 100.66 253.12C100.8 253.19 100.94 253.33 101.01 253.47C103.04 260.12 103.74 267.05 103.04 273.98C102.48 279.93 101.22 285.74 99.2601 291.41C99.1201 291.55 98.9101 291.69 98.7001 291.69Z" fill="#231F20"/>
<path d="M81.1301 291.2H91.4901C91.5601 288.12 90.8601 283.5 87.5701 277.48L86.8701 276.29C80.8501 266.14 75.3901 266.28 75.3901 266.28C73.0801 276.92 77.9801 286.44 81.1301 291.2Z" fill="white"/>
<path d="M91.49 291.69H81.13C80.99 291.69 80.78 291.62 80.71 291.48C77.56 286.65 72.52 277.06 74.9 266.14C74.97 265.93 75.18 265.72 75.39 265.72C75.6 265.72 81.27 265.72 87.36 276.01C87.57 276.36 87.78 276.78 87.99 277.2C91.49 283.5 92.05 288.26 91.98 291.2C91.98 291.48 91.77 291.69 91.49 291.69ZM81.41 290.64H91C91 287.84 90.3 283.43 87.15 277.69L86.52 276.57C81.69 268.45 77.28 267.05 75.88 266.84C73.85 276.99 78.4 286.02 81.41 290.64Z" fill="#231F20"/>
<path d="M83.02 307.65H103.32L106.61 291.2H79.73L83.02 307.65Z" fill="#231F20"/>
<path d="M103.32 308.14H83.02C82.74 308.14 82.53 307.93 82.53 307.72L79.24 291.27C79.24 291.13 79.24 290.99 79.38 290.85C79.45 290.71 79.66 290.64 79.8 290.64H106.68C106.82 290.64 106.96 290.71 107.1 290.85C107.17 290.99 107.24 291.13 107.17 291.27L103.88 307.72C103.81 307.93 103.6 308.14 103.32 308.14ZM83.44 307.09H102.9L105.98 291.69H80.43L83.44 307.09Z" fill="#231F20"/>
</svg>
